<svg xmlns="http://www.w3.org/2000/svg">
<defs>
<font id="HelveticaNeue-Medium" horiz-adv-x="556" >
  <font-face 
    font-family="Helvetica 65 Medium"
    font-weight="500"
    font-stretch="normal"
    units-per-em="1000"
    panose-1="2 11 6 4 2 2 2 2 2 4"
    ascent="714"
    descent="-286"
    x-height="517"
    cap-height="714"
    bbox="-165 -223.003 1066 957"
    underline-thickness="50"
    underline-position="-75"
    unicode-range="U+000D-FB02"
  />
<missing-glyph horiz-adv-x="512" 
d="M222 117v67h56v-67h-56zM225 234l-2.00098 16.999c0 37.333 4.33301 64.333 13 81c4.66699 8.66699 10.667 17.834 18 27.501s16.666 20.167 27.999 31.5c10.667 10 19.334 18.833 26.001 26.5s11.667 14.667 15 21s5.66602 12.333 6.99902 18s2 11.5 2 17.5
c0 24 -7.5 44.167 -22.5 60.5s-32.833 24.5 -53.5 24.5s-38.5 -7.33301 -53.5 -22s-24.5 -39 -28.5 -73l-50 8c4.66699 48 19.334 82.833 44.001 104.5s55 32.5 91 32.5s65.667 -11.833 89 -35.5s35 -55.5 35 -95.5c0 -21.333 -4.16699 -40.833 -12.5 -58.5
s-25.166 -38.167 -50.499 -61.5c-24.667 -22 -39 -39.333 -43 -52c-4 -13.333 -6 -37.333 -6 -72h-46zM461.999 49.999v617h-412v-617h412zM511.999 717.999v-718h-512v718h512z" />
    <glyph glyph-name="IJ" unicode="IJ" horiz-adv-x="815" 
d="M76 714h125v-714h-125v714zM739 230c0 -31.333 -2.66895 -61.668 -8.00195 -91.001s-16.166 -55.666 -32.499 -78.999s-40 -42 -71 -56s-72.167 -21 -123.5 -21c-38 0 -70.333 5.83301 -97 17.5s-48.667 27.667 -66 48s-30 44.5 -38 72.5s-12 58.333 -12 91v38h125v-37
c0 -40.667 6.83301 -72.167 20.5 -94.5s39.5 -33.5 77.5 -33.5c20 0 36.5 3 49.5 9s23.333 14.833 31 26.5s12.834 26.167 15.501 43.5s4 37 4 59v491h125v-484z" />
    <glyph glyph-name="ij" unicode="ij" horiz-adv-x="474" 
d="M63 714h114v-108h-114v108zM63 517h114v-517h-114v517zM296 714h114v-108h-114v108zM296 517h114v-561c0 -51.333 -11.333 -91 -34 -119s-60.667 -42 -114 -42c-11.333 0 -20.833 0.333008 -28.5 1s-15.167 1.66699 -22.5 3v90c13.333 -2.66699 26.333 -4 39 -4
c20.667 0 33.5 6.33301 38.5 19s7.5 31.667 7.5 57v556z" />
    <glyph glyph-name="napostrophe" unicode="&#x22;n" horiz-adv-x="669" 
d="M155 517l107.998 0.000976562v-76l2 -2c17.333 28.667 40 51.167 68 67.5s59 24.5 93 24.5c56.667 0 101.334 -14.667 134.001 -44s49 -73.333 49 -132v-355h-114v325c-1.33301 40.667 -10 70.167 -26 88.5s-41 27.5 -75 27.5c-19.333 0 -36.666 -3.5 -51.999 -10.5
s-28.333 -16.667 -39 -29s-19 -26.833 -25 -43.5s-9 -34.334 -9 -53.001v-305h-114v517zM-3.00195 490.001c24 3.33301 40.167 13.5 48.5 30.5s12.5 36.5 12.5 58.5h-61v135h125v-135c0 -38.667 -11.167 -71.5 -33.5 -98.5s-52.833 -43.167 -91.5 -48.5v58z" />
    <glyph glyph-name="fi" unicode="fi" 
d="M378 714h114v-108h-114v108zM9 517l84.998 -0.000976562v43c0 32.667 4 59.167 12 79.5s18.667 36 32 47s28.5 18.333 45.5 22s34.833 5.5 53.5 5.5c37.333 0 64 -2.33301 80 -7v-89c-7.33301 2 -15.166 3.5 -23.499 4.5s-18.166 1.5 -29.499 1.5
c-15.333 0 -28.5 -3.66699 -39.5 -11s-16.5 -21.666 -16.5 -42.999v-53h97v-85h-97v-432h-114v432h-85v85zM377.998 516.999h114v-517h-114v517z" />
    <glyph glyph-name="fl" unicode="fl" 
d="M378 714h114v-714h-114v714zM9 517l84.998 -0.000976562v43c0 32.667 4 59.167 12 79.5s18.667 36 32 47s28.5 18.333 45.5 22s34.833 5.5 53.5 5.5c37.333 0 64 -2.33301 80 -7v-89c-7.33301 2 -15.166 3.5 -23.499 4.5s-18.166 1.5 -29.499 1.5
c-15.333 0 -28.5 -3.66699 -39.5 -11s-16.5 -21.666 -16.5 -42.999v-53h97v-85h-97v-432h-114v432h-85v85z" />
    <glyph glyph-name=".notdef" horiz-adv-x="512" 
d="M222 117v67h56v-67h-56zM225 234l-2.00098 16.999c0 37.333 4.33301 64.333 13 81c4.66699 8.66699 10.667 17.834 18 27.501s16.666 20.167 27.999 31.5c10.667 10 19.334 18.833 26.001 26.5s11.667 14.667 15 21s5.66602 12.333 6.99902 18s2 11.5 2 17.5
c0 24 -7.5 44.167 -22.5 60.5s-32.833 24.5 -53.5 24.5s-38.5 -7.33301 -53.5 -22s-24.5 -39 -28.5 -73l-50 8c4.66699 48 19.334 82.833 44.001 104.5s55 32.5 91 32.5s65.667 -11.833 89 -35.5s35 -55.5 35 -95.5c0 -21.333 -4.16699 -40.833 -12.5 -58.5
s-25.166 -38.167 -50.499 -61.5c-24.667 -22 -39 -39.333 -43 -52c-4 -13.333 -6 -37.333 -6 -72h-46zM461.999 49.999v617h-412v-617h412zM511.999 717.999v-718h-512v718h512z" />
    <glyph glyph-name="nonmarkingreturn" unicode="&#xd;" horiz-adv-x="0" 
 />
    <glyph glyph-name="space" unicode=" " horiz-adv-x="278" 
 />
    <glyph glyph-name="exclam" unicode="!" horiz-adv-x="278" 
d="M72 125h134v-125h-134v125zM77 714h125v-206l-33 -309h-59l-33 309v206z" />
    <glyph glyph-name="quotedbl" unicode="&#x22;" horiz-adv-x="444" 
d="M259 714h102v-282h-102v282zM83 714h102v-282h-102v282z" />
    <glyph glyph-name="numbersign" unicode="#" 
d="M237 415l-18 -130h111l18 130h-111zM495 210h-95l-30 -210h-80l29 210h-110l-30 -210h-80l29 210h-94v75h105l18 130h-94v75h104l29 210h81l-30 -210h111l29 210h81l-30 -210h86v-75h-96l-18 -130h85v-75z" />
    <glyph glyph-name="dollar" unicode="$" 
d="M259 641c-36 0 -63.833 -7.33301 -83.5 -22s-29.5 -40 -29.5 -76c0 -16 3.33301 -29.667 10 -41s15.167 -21 25.5 -29s22.333 -14.5 36 -19.5s27.5 -9.16699 41.5 -12.5v200zM131 217c-0.666992 -44 8.99609 -78.6689 28.9961 -104.002s53 -38.666 99 -39.999v242
c-27.333 7.33301 -54.5 16 -81.5 26s-51.333 23.333 -73 40s-39.167 37.334 -52.5 62.001s-20 55.334 -20 92.001c0 32 6.16699 60.167 18.5 84.5s29 44.666 50 60.999s45.167 28.833 72.5 37.5s56 13 86 13v78h43v-78c30 0 58.333 -4 85 -12s49.834 -20 69.501 -36
s35.334 -36.333 47.001 -61s17.5 -53.334 17.5 -86.001h-114c-1.33301 34 -10.166 60 -26.499 78s-42.5 27 -78.5 27v-211c30 -8 59.333 -17.333 88 -28s54 -24.334 76 -41.001s39.667 -37.334 53 -62.001s20 -55 20 -91c0 -37.333 -6.16699 -69.833 -18.5 -97.5
s-29.166 -50.667 -50.499 -69s-46.5 -32.333 -75.5 -42s-59.833 -15.167 -92.5 -16.5v-78h-43v78c-36 0.666992 -69 6.33398 -99 17.001s-55.667 25.834 -77 45.501s-37.833 43.834 -49.5 72.501s-17.167 61.667 -16.5 99h114zM301.996 72.998
c36 2.66699 65.501 13.165 88.501 31.498s34.5 47.5 34.5 87.5c0 18.667 -3.5 34.334 -10.5 47.001s-16.333 23.334 -28 32.001s-24.834 15.667 -39.501 21s-29.667 10 -45 14v-233z" />
    <glyph glyph-name="percent" unicode="%" horiz-adv-x="1000" 
d="M172 515c0 -18.667 1.33301 -36.167 4 -52.5s7 -30.5 13 -42.5s13.833 -21.5 23.5 -28.5s21.5 -10.5 35.5 -10.5s26 3.5 36 10.5s18 16.5 24 28.5s10.5 26.167 13.5 42.5s4.5 33.833 4.5 52.5c0 16.667 -1.16699 33 -3.5 49s-6.5 30.333 -12.5 43s-14 22.834 -24 30.501
s-22.667 11.5 -38 11.5s-28 -3.83301 -38 -11.5s-17.833 -17.834 -23.5 -30.501s-9.5 -27 -11.5 -43s-3 -32.333 -3 -49zM249 316c-30 0 -55.6689 5.33301 -77.002 16s-38.666 25 -51.999 43s-23 39 -29 63s-9 49.667 -9 77c0 26.667 3.16699 52.167 9.5 76.5
s16.333 45.5 30 63.5s31 32.333 52 43s46.167 16 75.5 16s54.5 -5.33301 75.5 -16s38.333 -25 52 -43s23.667 -39.167 30 -63.5s9.5 -49.833 9.5 -76.5c0 -27.333 -3 -53 -9 -77s-15.667 -45 -29 -63s-30.666 -32.333 -51.999 -43s-47 -16 -77 -16zM673.998 185
c0 -18.667 1.33301 -36.167 4 -52.5s7 -30.5 13 -42.5s13.833 -21.5 23.5 -28.5s21.5 -10.5 35.5 -10.5s26 3.5 36 10.5s18 16.5 24 28.5s10.5 26.167 13.5 42.5s4.5 33.833 4.5 52.5c0 16.667 -1.16699 33 -3.5 49s-6.5 30.333 -12.5 43s-14 22.834 -24 30.501
s-22.667 11.5 -38 11.5s-28 -3.83301 -38 -11.5s-17.833 -17.834 -23.5 -30.501s-9.5 -27 -11.5 -43s-3 -32.333 -3 -49zM750.998 -14c-30 0 -55.6689 5.33301 -77.002 16s-38.666 25 -51.999 43s-23 39 -29 63s-9 49.667 -9 77c0 26.667 3.16699 52.167 9.5 76.5
s16.333 45.5 30 63.5s31 32.333 52 43s46.167 16 75.5 16s54.5 -5.33301 75.5 -16s38.333 -25 52 -43s23.667 -39.167 30 -63.5s9.5 -49.833 9.5 -76.5c0 -27.333 -3 -53 -9 -77s-15.667 -45 -29 -63s-30.666 -32.333 -51.999 -43s-47 -16 -77 -16zM648.996 724h76
l-387 -748h-78z" />
    <glyph glyph-name="ampersand" unicode="&#x26;" horiz-adv-x="648" 
d="M457 80c-26.667 -32.667 -56.167 -56.499 -88.5 -71.499s-69.5 -22.5 -111.5 -22.5c-33.333 0 -63.666 4.83301 -90.999 14.5s-51 23.5 -71 41.5s-35.5 40.167 -46.5 66.5s-16.5 56.166 -16.5 89.499c0 25.333 4.66699 48.333 14 69s21.666 39.5 36.999 56.5
s32.833 32.167 52.5 45.5s39.834 25.333 60.501 36c-18.667 24 -35.334 48.167 -50.001 72.5s-22 52.166 -22 83.499c0 26 4.5 49.333 13.5 70s21.5 38.5 37.5 53.5s34.667 26.5 56 34.5s44 12 68 12c22.667 0 44.834 -3.5 66.501 -10.5s40.667 -17.667 57 -32
s29.5 -32.166 39.5 -53.499s15 -46.333 15 -75c0 -21.333 -3.5 -41 -10.5 -59s-16.333 -34.5 -28 -49.5s-25.334 -28.5 -41.001 -40.5s-32.167 -22.667 -49.5 -32l111 -134c4 11.333 8 24.333 12 39s7.33301 33.667 10 57h100c-3.33301 -32 -9.5 -62.833 -18.5 -92.5
s-21.5 -57.167 -37.5 -82.5l137 -166h-140zM256 330.001c-10.667 -6.66699 -22.334 -13.332 -35.001 -19.999s-24.5 -15 -35.5 -25s-20.333 -22 -28 -36s-11.5 -31.667 -11.5 -53c0 -38.667 10.667 -68.334 32 -89.001s49 -31 83 -31c20.667 0 38.334 2.83301 53.001 8.5
s27.167 12.5 37.5 20.5s19 16.667 26 26l18.5 25zM302 646.003c-21.333 0 -39.333 -7.16699 -54 -21.5s-22 -33.5 -22 -57.5c0 -12 2.16699 -23.167 6.5 -33.5s9.66602 -20.5 15.999 -30.5s13.333 -19.5 21 -28.5s14.834 -17.833 21.501 -26.5
c10.667 7.33301 21 14.833 31 22.5s19 16 27 25s14.333 19.167 19 30.5s7 24 7 38c0 23.333 -6.66699 42.833 -20 58.5s-31 23.5 -53 23.5z" />
    <glyph glyph-name="quotesingle" unicode="'" horiz-adv-x="278" 
d="M88 714h102v-282h-102v282z" />
    <glyph glyph-name="parenleft" unicode="(" horiz-adv-x="278" 
d="M193 -191c-20 32 -38.833 65 -56.5 99s-33 69.833 -46 107.5s-23.167 77.5 -30.5 119.5s-11 87 -11 135c0 80.667 12.5 160 37.5 238s60.5 152.333 106.5 223h93c-40 -72.667 -70.5 -146.5 -91.5 -221.5s-31.5 -154.833 -31.5 -239.5s10 -164.667 30 -240
s51 -149 93 -221h-93z" />
    <glyph glyph-name="parenright" unicode=")" horiz-adv-x="278" 
d="M85 731c20 -32 38.667 -65.165 56 -99.498s32.5 -70.333 45.5 -108s23.333 -77.5 31 -119.5s11.5 -87 11.5 -135c0 -80.667 -12.5 -159.834 -37.5 -237.501s-60.5 -151.834 -106.5 -222.501h-93c40 72 70.5 145.5 91.5 220.5s31.5 154.833 31.5 239.5
s-10 164.667 -30 240s-51 149.333 -93 222h93z" />
    <glyph glyph-name="asterisk" unicode="*" horiz-adv-x="370" 
d="M19 572l22 65l110 -43v120h68v-120l109 43l24 -65l-114 -38l70 -94l-53 -39l-71 98l-68 -98l-56 39l70 94z" />
    <glyph glyph-name="plus" unicode="+" horiz-adv-x="600" 
d="M249 506h102v-202h201v-102h-201v-202h-102v202h-201v102h201v202z" />
    <glyph glyph-name="comma" unicode="," horiz-adv-x="278" 
d="M69 135h139.001v-135c-0.666992 -42 -13.334 -76.833 -38.001 -104.5s-57 -45.5 -97 -53.5v61c22 5.33301 38.5 17.5 49.5 36.5s16.167 39.167 15.5 60.5h-69v135z" />
    <glyph glyph-name="hyphen" unicode="-" horiz-adv-x="389" 
d="M49 326h291v-108h-291v108z" />
    <glyph glyph-name="period" unicode="." horiz-adv-x="278" 
d="M69 135h139v-135h-139v135z" />
    <glyph glyph-name="slash" unicode="/" horiz-adv-x="352" 
d="M265 731h109l-287 -748h-109z" />
    <glyph glyph-name="zero" unicode="0" 
d="M278 714c50 0 90.833 -11.5 122.5 -34.5s56.334 -52.333 74.001 -88s29.667 -74.834 36 -117.501s9.5 -84 9.5 -124s-3.16699 -81.333 -9.5 -124s-18.333 -81.834 -36 -117.501s-42.334 -65 -74.001 -88s-72.5 -34.5 -122.5 -34.5s-90.833 11.5 -122.5 34.5
s-56.334 52.333 -74.001 88s-29.667 74.834 -36 117.501s-9.5 84 -9.5 124s3.16699 81.333 9.5 124s18.333 81.834 36 117.501s42.334 65 74.001 88s72.5 34.5 122.5 34.5zM278 81c24.667 0 45.334 7.16699 62.001 21.5s29.834 33.666 39.501 57.999s16.5 52.833 20.5 85.5
s6 67.334 6 104.001s-2 71.167 -6 103.5s-10.833 60.833 -20.5 85.5s-22.834 44.167 -39.501 58.5s-37.334 21.5 -62.001 21.5c-25.333 0 -46.166 -7.16699 -62.499 -21.5s-29.333 -33.833 -39 -58.5s-16.5 -53.167 -20.5 -85.5s-6 -66.833 -6 -103.5s2 -71.334 6 -104.001
s10.833 -61.167 20.5 -85.5s22.667 -43.666 39 -57.999s37.166 -21.5 62.499 -21.5z" />
    <glyph glyph-name="one" unicode="1" 
d="M53 584c24 0 47.333 2 70 6s43.167 10.667 61.5 20s34 21.333 47 36s21.5 32.667 25.5 54h93v-700h-125v494h-172v90z" />
    <glyph glyph-name="two" unicode="2" 
d="M517 0l-478.005 -0.000976562c0.666992 58.667 14.5 109.5 41.5 152.5s64.5 80.5 112.5 112.5c22.667 16.667 46.334 33 71.001 49s47.167 32.833 67.5 50.5s37.333 37 51 58s20.834 45.167 21.501 72.5c0 12.667 -1.5 26.167 -4.5 40.5s-8.83301 27.666 -17.5 39.999
s-20.667 22.666 -36 30.999s-35.333 12.5 -60 12.5c-22.667 0 -41.5 -4.5 -56.5 -13.5s-27 -21.333 -36 -37s-15.667 -34.167 -20 -55.5s-6.83301 -44.333 -7.5 -69h-114c0 38.667 5.16699 74.5 15.5 107.5s25.833 61.5 46.5 85.5s45.834 42.833 75.501 56.5
s64.167 20.5 103.5 20.5c42.667 0 78.334 -7 107.001 -21s51.834 -31.667 69.501 -53s30.167 -44.5 37.5 -69.5s11 -48.833 11 -71.5c0 -37.333 -7.5 -70.166 -22.5 -98.499s-34.167 -53.666 -57.5 -75.999s-48.833 -42.666 -76.5 -60.999l-79.5 -53
c-25.333 -17 -47.833 -34.167 -67.5 -51.5s-32.5 -36.333 -38.5 -57h341v-102z" />
    <glyph glyph-name="three" unicode="3" 
d="M228 410c18.667 -0.666992 37.3359 0.666992 56.0029 4s35.334 9.16602 50.001 17.499s26.5 19.833 35.5 34.5s13.5 32.667 13.5 54c0 30 -10.167 54 -30.5 72s-46.5 27 -78.5 27c-20 0 -37.333 -4 -52 -12s-26.834 -18.833 -36.501 -32.5s-16.834 -29 -21.501 -46
s-6.66699 -34.5 -6 -52.5h-114c1.33301 34 7.5 65.5 18.5 94.5s26.5 54.167 46.5 75.5s44 38 72 50s59.667 18 95 18c27.333 0 54.166 -4 80.499 -12s50 -19.667 71 -35s37.833 -34.833 50.5 -58.5s19 -50.834 19 -81.501c0 -36 -8 -67 -24 -93s-41 -45 -75 -57v-2
c40 -8 71.167 -27.667 93.5 -59s33.5 -70 33.5 -116c0 -33.333 -6.66699 -63.166 -20 -89.499s-31.333 -48.666 -54 -66.999s-49 -32.5 -79 -42.5s-61.667 -15 -95 -15c-40.667 0 -76.167 5.83301 -106.5 17.5s-55.666 28.167 -75.999 49.5s-35.833 47 -46.5 77
s-16.334 63.333 -17.001 100h114c-1.33301 -42.667 9.16699 -78.167 31.5 -106.5s55.833 -42.5 100.5 -42.5c38 0 69.833 10.833 95.5 32.5s38.5 52.5 38.5 92.5c0 27.333 -5.33301 49 -16 65s-24.667 28.167 -42 36.5s-36.833 13.5 -58.5 15.5s-43.834 2.66699 -66.501 2
v85z" />
    <glyph glyph-name="four" unicode="4" 
d="M112 256h212v308h-2zM522 166h-90v-166h-108v166h-300v113l300 421h108v-444h90v-90z" />
    <glyph glyph-name="five" unicode="5" 
d="M123 700l362.003 0.000976562v-102h-277l-36 -178l2 -2c15.333 17.333 34.833 30.5 58.5 39.5s47.167 13.5 70.5 13.5c34.667 0 65.667 -5.83301 93 -17.5s50.333 -28 69 -49s32.834 -45.833 42.501 -74.5s14.5 -59.667 14.5 -93c0 -28 -4.5 -56.833 -13.5 -86.5
s-23.333 -56.667 -43 -81s-44.834 -44.333 -75.501 -60s-67.334 -23.5 -110.001 -23.5c-34 0 -65.5 4.5 -94.5 13.5s-54.5 22.5 -76.5 40.5s-39.5 40.167 -52.5 66.5s-20.167 57.166 -21.5 92.499h114c3.33301 -38 16.166 -67.167 38.499 -87.5s52.5 -30.5 90.5 -30.5
c24 0 44.333 4 61 12s30.167 19 40.5 33s17.666 30.333 21.999 49s6.5 38.667 6.5 60c0 19.333 -2.66699 37.833 -8 55.5s-13.333 33.167 -24 46.5s-24.5 24 -41.5 32s-36.833 12 -59.5 12c-24 0 -46.5 -4.5 -67.5 -13.5s-36.167 -25.833 -45.5 -50.5h-114z" />
    <glyph glyph-name="six" unicode="6" 
d="M395 523c-2.66699 28.667 -12.832 51.833 -30.499 69.5s-41.5 26.5 -71.5 26.5c-31.333 0 -56.166 -8.16699 -74.499 -24.5s-32.333 -36.666 -42 -60.999s-16.334 -50.5 -20.001 -78.5s-6.5 -53.333 -8.5 -76l2 -2c15.333 28 36.333 48.833 63 62.5s56 20.5 88 20.5
c34.667 0 65.667 -6 93 -18s50.5 -28.5 69.5 -49.5s33.5 -45.833 43.5 -74.5s15 -59.667 15 -93c0 -34 -5.5 -65.5 -16.5 -94.5s-26.833 -54.333 -47.5 -76s-45.334 -38.5 -74.001 -50.5s-60.334 -18 -95.001 -18c-51.333 0 -93.5 9.5 -126.5 28.5s-59 45 -78 78
s-32.167 71.667 -39.5 116s-11 92.166 -11 143.499c0 42 4.5 84.333 13.5 127s23.833 81.5 44.5 116.5s47.834 63.5 81.501 85.5s75.167 33 124.5 33c27.333 0 53.5 -4.66699 78.5 -14s47.167 -22.333 66.5 -39s34.833 -36.667 46.5 -60s18.167 -49.333 19.5 -78h-114z
M285.002 80.999c20.667 0 38.667 4.16504 54 12.498s28.166 19.166 38.499 32.499s18 28.833 23 46.5s7.5 35.834 7.5 54.501s-2.5 36.667 -7.5 54s-12.667 32.5 -23 45.5s-23.166 23.5 -38.499 31.5s-33.333 12 -54 12s-38.834 -3.83301 -54.501 -11.5
s-28.834 -18 -39.501 -31s-18.667 -28.167 -24 -45.5s-8 -35.666 -8 -54.999s2.66699 -37.666 8 -54.999s13.333 -32.833 24 -46.5s23.834 -24.5 39.501 -32.5s33.834 -12 54.501 -12z" />
    <glyph glyph-name="seven" unicode="7" 
d="M35 700l479 -0.000976562v-95c-36.667 -41.333 -70 -84.166 -100 -128.499s-56.167 -91.333 -78.5 -141s-40.5 -102.167 -54.5 -157.5s-23.333 -114.666 -28 -177.999h-125c4 55.333 13.5 110 28.5 164s34.333 106.333 58 157s51.167 99.167 82.5 145.5
s65 90.166 101 131.499h-363v102z" />
    <glyph glyph-name="eight" unicode="8" 
d="M278 624c-30.667 0 -56.667 -9.16699 -78 -27.5s-32 -44.833 -32 -79.5c0 -34 10.333 -59.667 31 -77s47 -26 79 -26s58.333 8.66699 79 26s31 43 31 77c0 34.667 -10.667 61.167 -32 79.5s-47.333 27.5 -78 27.5zM278 -14c-35.333 0 -68.168 5 -98.501 15
s-56.5 24.5 -78.5 43.5s-39.167 42.167 -51.5 69.5s-18.5 58 -18.5 92c0 44 11.333 81 34 111s54 50 94 60v2c-32 12 -56.5 30.5 -73.5 55.5s-25.5 54.5 -25.5 88.5c0 60.667 18.667 107.667 56 141s91.333 50 162 50s124.667 -16.667 162 -50s56 -80.333 56 -141
c0 -34 -8.5 -63.5 -25.5 -88.5s-41.5 -43.5 -73.5 -55.5v-2c40 -10 71.333 -30 94 -60s34 -67 34 -111c0 -34 -6.16699 -64.667 -18.5 -92s-29.5 -50.5 -51.5 -69.5s-48.167 -33.5 -78.5 -43.5s-63.166 -15 -98.499 -15zM277.998 76c38 0 69.667 11.167 95 33.5
s38 54.5 38 96.5c0 38.667 -12.667 68.834 -38 90.501s-57 32.5 -95 32.5s-69.667 -10.833 -95 -32.5s-38 -51.834 -38 -90.501c0 -42 12.667 -74.167 38 -96.5s57 -33.5 95 -33.5z" />
    <glyph glyph-name="nine" unicode="9" 
d="M161 177c2.66699 -28.667 12.834 -51.8301 30.501 -69.4971s41.5 -26.5 71.5 -26.5c30.667 0 55.167 8.16699 73.5 24.5s32.5 36.666 42.5 60.999s16.833 50.333 20.5 78s6.5 53.167 8.5 76.5l-2 2c-15.333 -28 -36.333 -49 -63 -63s-56 -21 -88 -21
c-33.333 0 -63.5 5.66699 -90.5 17s-50.167 27.166 -69.5 47.499s-34.333 45 -45 74s-16 61.5 -16 97.5c0 34 5.33301 65.5 16 94.5s26.334 54.333 47.001 76s46 38.5 76 50.5s64 18 102 18c49.333 0 90 -9.5 122 -28.5s57.167 -45 75.5 -78s31.166 -71.833 38.499 -116.5
s11 -92.334 11 -143.001c0 -42 -4.5 -84.333 -13.5 -127s-23.833 -81.5 -44.5 -116.5s-47.834 -63.5 -81.501 -85.5s-75.167 -33 -124.5 -33c-27.333 0 -53.5 4.66699 -78.5 14s-47.167 22.333 -66.5 39s-34.833 36.667 -46.5 60s-18.167 49.333 -19.5 78h114zM270 619.004
c-20.667 0 -38.667 -3.83594 -54 -11.5029s-28 -18.167 -38 -31.5s-17.5 -28.666 -22.5 -45.999s-7.5 -35.333 -7.5 -54c0 -19.333 2.5 -37.833 7.5 -55.5s12.5 -33.167 22.5 -46.5s22.667 -24.166 38 -32.499s33.333 -12.5 54 -12.5c21.333 0 40 4 56 12
s29.167 18.833 39.5 32.5s18.166 29.334 23.499 47.001s8 36.167 8 55.5c0 18.667 -2.66699 36.667 -8 54s-13.166 32.5 -23.499 45.5s-23.5 23.5 -39.5 31.5s-34.667 12 -56 12z" />
    <glyph glyph-name="colon" unicode=":" horiz-adv-x="278" 
d="M69 135h139v-135h-139v135zM69 506h139v-135h-139v135z" />
    <glyph glyph-name="semicolon" unicode=";" horiz-adv-x="278" 
d="M69 506h139v-135h-139v135zM69 135h139.001v-135c-0.666992 -42 -13.334 -76.833 -38.001 -104.5s-57 -45.5 -97 -53.5v61c22 5.33301 38.5 17.5 49.5 36.5s16.167 39.167 15.5 60.5h-69v135z" />
    <glyph glyph-name="less" unicode="&#x3c;" horiz-adv-x="600" 
d="M554 -8l-508 225v72l508 225v-102l-374 -159l374 -159v-102z" />
    <glyph glyph-name="equal" unicode="=" horiz-adv-x="600" 
d="M552 101h-504v102h504v-102zM552 303h-504v102h504v-102z" />
    <glyph glyph-name="greater" unicode="&#x3e;" horiz-adv-x="600" 
d="M420 253l-374 159v102l508 -225v-72l-508 -225v102z" />
    <glyph glyph-name="question" unicode="?" 
d="M208 125h134v-125h-134v125zM49 487c0 36.667 5.50098 69.999 16.501 99.999s27 55.667 48 77s46.167 37.833 75.5 49.5s62.666 17.5 99.999 17.5c30.667 0 59.167 -4.5 85.5 -13.5s49.333 -22 69 -39s35.167 -38.167 46.5 -63.5s17 -54 17 -86
c0 -24 -2.5 -44.333 -7.5 -61s-11.667 -31.167 -20 -43.5s-17.833 -23.333 -28.5 -33l-32 -28.5c-12.667 -10.667 -24.334 -21 -35.001 -31s-20 -21.167 -28 -33.5s-14.167 -26.833 -18.5 -43.5s-6.5 -37 -6.5 -61h-108c0 28.667 1.5 53.334 4.5 74.001
s7.83301 38.667 14.5 54s14.834 28.833 24.501 40.5s21.167 23.167 34.5 34.5l30.5 26c9.66699 8 18.167 16.833 25.5 26.5s13.333 20.5 18 32.5s7 26.333 7 43c0 20 -3.5 37.167 -10.5 51.5s-15.5 25.833 -25.5 34.5s-20.667 15 -32 19s-21.333 6 -30 6
c-42 0 -72.667 -13.333 -92 -40s-29 -63 -29 -109h-114z" />
    <glyph glyph-name="at" unicode="@" horiz-adv-x="800" 
d="M543 279c-2.66699 -8 -4.83496 -16.0049 -6.50195 -24.0049s-2.5 -15.333 -2.5 -22s1.5 -12.167 4.5 -16.5s7.83301 -6.5 14.5 -6.5c15.333 0 30.833 5.5 46.5 16.5s29.667 26.167 42 45.5s22.333 42.166 30 68.499s11.5 54.833 11.5 85.5c0 37.333 -7 70.833 -21 100.5
s-33.167 54.834 -57.5 75.501s-52.666 36.5 -84.999 47.5s-66.833 16.5 -103.5 16.5c-42.667 0 -81.5 -7.83301 -116.5 -23.5s-65.167 -37 -90.5 -64s-45 -58.667 -59 -95s-21 -75.5 -21 -117.5c0 -48.667 7.5 -92.667 22.5 -132s35.667 -72.666 62 -99.999
s57.666 -48.5 93.999 -63.5s75.5 -22.5 117.5 -22.5c44 0 85.5 8.5 124.5 25.5s72.5 41.5 100.5 73.5h70c-32 -52 -74.167 -92.333 -126.5 -121s-109.833 -43 -172.5 -43c-51.333 0 -99.666 9.5 -144.999 28.5s-84.833 45.5 -118.5 79.5s-60.167 74.667 -79.5 122
s-29 99.666 -29 156.999c0 50.667 9.83301 97.834 29.5 141.501s46.167 81.834 79.5 114.501s72.166 58.334 116.499 77.001s91.5 28 141.5 28c44.667 0 87.167 -7.16699 127.5 -21.5s75.833 -34.5 106.5 -60.5s55.167 -57 73.5 -93s27.5 -75.333 27.5 -118
c0 -50 -8.5 -93.667 -25.5 -131s-37.667 -68.333 -62 -93s-50.166 -43.167 -77.499 -55.5s-51 -18.5 -71 -18.5c-15.333 0 -28.666 4.83301 -39.999 14.5s-17.666 24.167 -18.999 43.5h-2c-13.333 -15.333 -30 -28.666 -50 -39.999s-40.667 -17 -62 -17
s-40.833 4.16699 -58.5 12.5s-33 19.666 -46 33.999s-23.167 31 -30.5 50s-11 39.167 -11 60.5c0 32 5.33301 63.333 16 94s25.5 58.334 44.5 83.001s42 44.5 69 59.5s56.833 22.5 89.5 22.5c23.333 0 44.666 -5.66699 63.999 -17s35.333 -29.666 48 -54.999l18 57h70z
M360.999 215.995c20 0 38.334 5.83301 55.001 17.5s31 26.334 43 44.001s21.5 37 28.5 58s10.5 40.5 10.5 58.5c0 12 -2.16699 23.333 -6.5 34s-10 20 -17 28s-15.333 14.333 -25 19s-19.834 7 -30.501 7c-20.667 0 -39.5 -5.66699 -56.5 -17s-31.5 -25.5 -43.5 -42.5
s-21.333 -35.833 -28 -56.5s-10 -40.334 -10 -59.001c0 -26.667 7.16699 -48.5 21.5 -65.5s33.833 -25.5 58.5 -25.5z" />
    <glyph glyph-name="A" unicode="A" horiz-adv-x="667" 
d="M267 714h133l275 -714h-134l-67 189h-285l-67 -189h-129zM223 284h218l-107 307h-3z" />
    <glyph glyph-name="B" unicode="B" horiz-adv-x="704" 
d="M201 415h204c30 0 55 8.5 75 25.5s30 41.5 30 73.5c0 36 -9 61.333 -27 76s-44 22 -78 22h-204v-197zM76 714l347 -0.00195312c64 0 115.333 -14.667 154 -44s58 -73.666 58 -132.999c0 -36 -8.83301 -66.833 -26.5 -92.5s-42.834 -45.5 -75.501 -59.5v-2
c44 -9.33301 77.333 -30.166 100 -62.499s34 -72.833 34 -121.5c0 -28 -5 -54.167 -15 -78.5s-25.667 -45.333 -47 -63s-48.666 -31.667 -81.999 -42s-73 -15.5 -119 -15.5h-328v714zM201 101.998h221c38 0 67.5 9.83301 88.5 29.5s31.5 47.5 31.5 83.5
s-10.5 63.333 -31.5 82s-50.5 28 -88.5 28h-221v-223z" />
    <glyph glyph-name="C" unicode="C" horiz-adv-x="722" 
d="M558 487c-10.667 42 -30 76.1699 -58 102.503s-68 39.5 -120 39.5c-38 0 -70.833 -7.66699 -98.5 -23s-50.167 -35.833 -67.5 -61.5s-30.166 -54.834 -38.499 -87.501s-12.5 -66 -12.5 -100s4.16699 -67.333 12.5 -100s21.166 -61.834 38.499 -87.501
s39.833 -46.167 67.5 -61.5s60.5 -23 98.5 -23c28 0 52.667 4.83301 74 14.5s39.5 23 54.5 40s27 36.833 36 59.5s14.833 47 17.5 73h122c-2.66699 -42.667 -12 -81.667 -28 -117s-37.167 -65.833 -63.5 -91.5s-57.5 -45.5 -93.5 -59.5s-75.667 -21 -119 -21
c-53.333 0 -101.166 9.83301 -143.499 29.5s-78.166 46.5 -107.499 80.5s-51.833 73.667 -67.5 119s-23.5 93.666 -23.5 144.999c0 50.667 7.83301 98.667 23.5 144s38.167 85 67.5 119s65.166 61 107.499 81s90.166 30 143.499 30c40.667 0 78.5 -5.5 113.5 -16.5
s65.833 -27 92.5 -48s48.5 -46.5 65.5 -76.5s27.5 -64.333 31.5 -103h-125z" />
    <glyph glyph-name="D" unicode="D" horiz-adv-x="722" 
d="M76 714l296 -0.00390625c54.667 0 102 -9.33301 142 -28s72.667 -44.167 98 -76.5s44.166 -70.166 56.499 -113.499s18.5 -89.666 18.5 -138.999s-6.16699 -95.666 -18.5 -138.999s-31.166 -81.166 -56.499 -113.499s-58 -57.833 -98 -76.5s-87.333 -28 -142 -28h-296
v714zM201 101.996h123c48.667 0 88.5 6.5 119.5 19.5s55.333 31 73 54s29.667 50 36 81s9.5 64.5 9.5 100.5s-3.16699 69.5 -9.5 100.5s-18.333 58 -36 81s-42 41 -73 54s-70.833 19.5 -119.5 19.5h-123v-510z" />
    <glyph glyph-name="E" unicode="E" horiz-adv-x="630" 
d="M76 714h514v-108h-389v-187h360v-102h-360v-209h396v-108h-521v714z" />
    <glyph glyph-name="F" unicode="F" horiz-adv-x="593" 
d="M76 714h493v-108h-368v-187h323v-102h-323v-317h-125v714z" />
    <glyph glyph-name="G" unicode="G" horiz-adv-x="759" 
d="M699 0h-80.001l-19 84c-33.333 -38 -66.666 -64.333 -99.999 -79s-71.666 -22 -114.999 -22c-53.333 0 -101.166 9.83301 -143.499 29.5s-78.166 46.5 -107.499 80.5s-51.833 73.667 -67.5 119s-23.5 93.666 -23.5 144.999c0 50.667 7.83301 98.667 23.5 144
s38.167 85 67.5 119s65.166 61 107.499 81s90.166 30 143.499 30c38.667 0 75.5 -5.16699 110.5 -15.5s66.167 -25.666 93.5 -45.999s50 -45.833 68 -76.5s29.333 -66 34 -106h-122c-3.33301 23.333 -10.5 43.833 -21.5 61.5s-24.833 32.5 -41.5 44.5s-35.334 21 -56.001 27
s-42.334 9 -65.001 9c-38 0 -70.833 -7.66699 -98.5 -23s-50.167 -35.833 -67.5 -61.5s-30.166 -54.834 -38.499 -87.501s-12.5 -66 -12.5 -100s4.16699 -67.333 12.5 -100s21.166 -61.834 38.499 -87.501s39.833 -46.167 67.5 -61.5s60.5 -23 98.5 -23
c64.667 -1.33301 113.834 15.834 147.501 51.501s51.167 83.834 52.5 144.501h-190v95h304v-376z" />
    <glyph glyph-name="H" unicode="H" horiz-adv-x="722" 
d="M73 714h125v-284h325v284h125v-714h-125v322h-325v-322h-125v714z" />
    <glyph glyph-name="I" unicode="I" horiz-adv-x="278" 
d="M76 714h125v-714h-125v714z" />
    <glyph glyph-name="J" unicode="J" horiz-adv-x="537" 
d="M461 230c0 -31.333 -2.66895 -61.668 -8.00195 -91.001s-16.166 -55.666 -32.499 -78.999s-40 -42 -71 -56s-72.167 -21 -123.5 -21c-38 0 -70.333 5.83301 -97 17.5s-48.667 27.667 -66 48s-30 44.5 -38 72.5s-12 58.333 -12 91v38h125v-37
c0 -40.667 6.83301 -72.167 20.5 -94.5s39.5 -33.5 77.5 -33.5c20 0 36.5 3 49.5 9s23.333 14.833 31 26.5s12.834 26.167 15.501 43.5s4 37 4 59v491h125v-484z" />
    <glyph glyph-name="K" unicode="K" horiz-adv-x="685" 
d="M76 714h125v-325l318 325h154l-285 -285l305 -429h-156l-234 341l-102 -101v-240h-125v714z" />
    <glyph glyph-name="L" unicode="L" horiz-adv-x="574" 
d="M76 714h125v-606h363v-108h-488v714z" />
    <glyph glyph-name="M" unicode="M" horiz-adv-x="889" 
d="M74 714h176l197 -559h2l192 559h174v-714h-119v551h-2l-198 -551h-103l-198 551h-2v-551h-119v714z" />
    <glyph glyph-name="N" unicode="N" horiz-adv-x="722" 
d="M71 714h132l326 -526h2v526h119v-714h-132l-325 525h-3v-525h-119v714z" />
    <glyph glyph-name="O" unicode="O" horiz-adv-x="760" 
d="M380 629c-38 0 -70.833 -7.66699 -98.5 -23s-50.167 -35.833 -67.5 -61.5s-30.166 -54.834 -38.499 -87.501s-12.5 -66 -12.5 -100s4.16699 -67.333 12.5 -100s21.166 -61.834 38.499 -87.501s39.833 -46.167 67.5 -61.5s60.5 -23 98.5 -23s70.833 7.66699 98.5 23
s50.167 35.833 67.5 61.5s30.166 54.834 38.499 87.501s12.5 66 12.5 100s-4.16699 67.333 -12.5 100s-21.166 61.834 -38.499 87.501s-39.833 46.167 -67.5 61.5s-60.5 23 -98.5 23zM380 731c53.333 0 101.166 -10 143.499 -30s78.166 -47 107.499 -81
s51.833 -73.667 67.5 -119s23.5 -93.333 23.5 -144c0 -51.333 -7.83301 -99.666 -23.5 -144.999s-38.167 -85 -67.5 -119s-65.166 -60.833 -107.499 -80.5s-90.166 -29.5 -143.499 -29.5s-101.166 9.83301 -143.499 29.5s-78.166 46.5 -107.499 80.5
s-51.833 73.667 -67.5 119s-23.5 93.666 -23.5 144.999c0 50.667 7.83301 98.667 23.5 144s38.167 85 67.5 119s65.166 61 107.499 81s90.166 30 143.499 30z" />
    <glyph glyph-name="P" unicode="P" horiz-adv-x="667" 
d="M76 714h315c50.667 0 92 -7.33301 124 -22s56.667 -33 74 -55s29.166 -46 35.499 -72s9.5 -50 9.5 -72s-3.16699 -45.833 -9.5 -71.5s-18.166 -49.5 -35.499 -71.5s-42 -40.167 -74 -54.5s-73.333 -21.5 -124 -21.5h-190v-274h-125v714zM201 376l183.001 0.000976562
c14 0 28.333 2 43 6s28.167 10.5 40.5 19.5s22.333 21 30 36s11.5 33.833 11.5 56.5c0 23.333 -3.33301 42.666 -10 57.999s-15.667 27.5 -27 36.5s-24.333 15.167 -39 18.5s-30.334 5 -47.001 5h-185v-236z" />
    <glyph glyph-name="Q" unicode="Q" horiz-adv-x="760" 
d="M713 3l-60.9971 -67.998l-104 91c-26.667 -15.333 -54.334 -26.333 -83.001 -33s-57 -10 -85 -10c-53.333 0 -101.166 9.83301 -143.499 29.5s-78.166 46.5 -107.499 80.5s-51.833 73.667 -67.5 119s-23.5 93.666 -23.5 144.999c0 50.667 7.83301 98.667 23.5 144
s38.167 85 67.5 119s65.166 61 107.499 81s90.166 30 143.499 30s101.166 -10 143.499 -30s78.166 -47 107.499 -81s51.833 -73.667 67.5 -119s23.5 -93.333 23.5 -144c0 -24 -1.83301 -48.667 -5.5 -74s-9.66699 -50 -18 -74s-18.833 -46.833 -31.5 -68.5
s-28 -40.834 -46 -57.501zM388.003 165.002l59.998 69.001l87 -76c22.667 28 38.667 59.167 48 93.5s14 69.5 14 105.5c0 34 -4.16699 67.333 -12.5 100s-21.166 61.834 -38.499 87.501s-39.833 46.167 -67.5 61.5s-60.5 23 -98.5 23s-70.833 -7.66699 -98.5 -23
s-50.167 -35.833 -67.5 -61.5s-30.166 -54.834 -38.499 -87.501s-12.5 -66 -12.5 -100s4.16699 -67.333 12.5 -100s21.166 -61.834 38.499 -87.501s39.833 -46.167 67.5 -61.5s60.5 -23 98.5 -23c13.333 0 26.833 1.33301 40.5 4s26.834 7 39.501 13z" />
    <glyph glyph-name="R" unicode="R" horiz-adv-x="704" 
d="M76 714l341.001 -0.00195312c78.667 0 137.667 -17 177 -51s59 -81.333 59 -142c0 -34 -5 -62.167 -15 -84.5s-21.667 -40.333 -35 -54s-26.5 -23.5 -39.5 -29.5s-22.5 -10 -28.5 -12v-2c10.667 -1.33301 22.167 -4.66602 34.5 -9.99902s23.833 -13.833 34.5 -25.5
s19.5 -26.834 26.5 -45.501s10.5 -42 10.5 -70c0 -42 3.16699 -80.167 9.5 -114.5s16.166 -58.833 29.499 -73.5h-134c-9.33301 15.333 -14.833 32.333 -16.5 51s-2.5 36.667 -2.5 54c0 32.667 -2 60.834 -6 84.501s-11.333 43.334 -22 59.001s-25.167 27.167 -43.5 34.5
s-41.833 11 -70.5 11h-184v-294h-125v714zM201.001 388.998h205.001c81.333 0 122 38 122 114c0 22.667 -3.33301 41.167 -10 55.5s-15.834 25.5 -27.501 33.5s-25 13.333 -40 16s-30.5 4 -46.5 4h-203v-223z" />
    <glyph glyph-name="S" unicode="S" horiz-adv-x="648" 
d="M158 238c0 -27.333 4.66699 -50.666 14 -69.999s22.333 -35.166 39 -47.499s35.834 -21.333 57.501 -27s45.167 -8.5 70.5 -8.5c27.333 0 50.666 3.16699 69.999 9.5s35 14.5 47 24.5s20.667 21.5 26 34.5s8 26.167 8 39.5c0 27.333 -6.16699 47.5 -18.5 60.5
s-25.833 22.167 -40.5 27.5c-25.333 9.33301 -54.833 18.166 -88.5 26.499s-75.167 19.166 -124.5 32.499c-30.667 8 -56.167 18.5 -76.5 31.5s-36.5 27.5 -48.5 43.5s-20.5 33 -25.5 51s-7.5 36.333 -7.5 55c0 36 7.5 67.167 22.5 93.5s34.833 48.166 59.5 65.499
s52.667 30.166 84 38.499s63 12.5 95 12.5c36.667 0 71.667 -4.83301 105 -14.5s62.5 -24.167 87.5 -43.5s44.833 -43.166 59.5 -71.499s22 -61.166 22 -98.499h-125c-3.33301 46 -18.833 78.5 -46.5 97.5s-63.5 28.5 -107.5 28.5c-14.667 0 -29.667 -1.5 -45 -4.5
s-29.333 -8 -42 -15s-23.167 -16.5 -31.5 -28.5s-12.5 -27 -12.5 -45c0 -25.333 7.83301 -45.166 23.5 -59.499s36.167 -25.166 61.5 -32.499c2.66699 -0.666992 13.167 -3.5 31.5 -8.5l61.5 -16.5l66.5 -17.5c21.667 -5.66699 37.167 -9.83398 46.5 -12.501
c23.333 -7.33301 43.666 -17.333 60.999 -30s31.833 -27.167 43.5 -43.5s20.334 -33.833 26.001 -52.5s8.5 -37.334 8.5 -56.001c0 -40 -8.16699 -74.167 -24.5 -102.5s-37.833 -51.5 -64.5 -69.5s-57 -31.167 -91 -39.5s-68.667 -12.5 -104 -12.5c-40.667 0 -79 5 -115 15
s-67.333 25.333 -94 46s-48 47.167 -64 79.5s-24.333 70.5 -25 114.5h125z" />
    <glyph glyph-name="T" unicode="T" horiz-adv-x="593" 
d="M8 714h578v-108h-227v-606h-125v606h-226v108z" />
    <glyph glyph-name="U" unicode="U" horiz-adv-x="722" 
d="M68 714h125v-416c0 -24 1.16699 -48.333 3.5 -73s9 -46.834 20 -66.501s27.667 -35.834 50 -48.501s53.833 -19 94.5 -19s72.167 6.33301 94.5 19s39 28.834 50 48.501s17.667 41.834 20 66.501s3.5 49 3.5 73v416h125v-457c0 -46 -7 -86 -21 -120
s-33.833 -62.5 -59.5 -85.5s-56.5 -40.167 -92.5 -51.5s-76 -17 -120 -17s-84 5.66699 -120 17s-66.833 28.5 -92.5 51.5s-45.5 51.5 -59.5 85.5s-21 74 -21 120v457z" />
    <glyph glyph-name="V" unicode="V" horiz-adv-x="611" 
d="M-5 714h130l179 -565h2l183 565h127l-244 -714h-139z" />
    <glyph glyph-name="W" unicode="W" horiz-adv-x="944" 
d="M6 714h127l129 -546h2l144 546h128l140 -546h2l133 546h127l-197 -714h-127l-143 546h-2l-146 -546h-129z" />
    <glyph glyph-name="X" unicode="X" horiz-adv-x="648" 
d="M14 714h149l162 -252l169 252h140l-236 -344l253 -370h-152l-178 273l-181 -273h-143l253 370z" />
    <glyph glyph-name="Y" unicode="Y" horiz-adv-x="648" 
d="M262 280l-268 434h145l189 -320l186 320h140l-267 -434v-280h-125v280z" />
    <glyph glyph-name="Z" unicode="Z" horiz-adv-x="630" 
d="M55 714h543v-95l-416 -511h426v-108h-585v102l416 504h-384v108z" />
    <glyph glyph-name="bracketleft" unicode="[" horiz-adv-x="296" 
d="M72 731h223v-90h-115v-742h115v-90h-223v922z" />
    <glyph glyph-name="backslash" unicode="\" horiz-adv-x="352" 
d="M374 -17h-109l-287 748h109z" />
    <glyph glyph-name="bracketright" unicode="]" horiz-adv-x="296" 
d="M224 -191h-223v90h115v742h-115v90h223v-922z" />
    <glyph glyph-name="asciicircum" unicode="^" horiz-adv-x="600" 
d="M84 335l180 365h72l180 -365h-102l-114 247l-114 -247h-102z" />
    <glyph glyph-name="underscore" unicode="_" horiz-adv-x="500" 
d="M0 -125v50h500v-50h-500z" />
    <glyph glyph-name="grave" unicode="`" horiz-adv-x="241" 
d="M105 732l91 -143h-83l-142 143h134z" />
    <glyph glyph-name="a" unicode="a" 
d="M493 115c0 -14 1.83203 -23.9971 5.49902 -29.9971s10.834 -9 21.501 -9h12c2.66699 0 5.16699 0.166992 7.5 0.5s5.16602 0.833008 8.49902 1.5v-79c-4 -1.33301 -9.16699 -2.83301 -15.5 -4.5s-12.833 -3.16699 -19.5 -4.5s-13.334 -2.33301 -20.001 -3
s-12.334 -1 -17.001 -1c-23.333 0 -42.666 4.66699 -57.999 14s-25.333 25.666 -30 48.999c-22.667 -22 -50.5 -38 -83.5 -48s-64.833 -15 -95.5 -15c-23.333 0 -45.666 3.16699 -66.999 9.5s-40.166 15.666 -56.499 27.999s-29.333 28 -39 47s-14.5 41.167 -14.5 66.5
c0 32 5.83301 58 17.5 78s27 35.667 46 47s40.333 19.5 64 24.5s47.5 8.83301 71.5 11.5c20.667 4 40.334 6.83301 59.001 8.5s35.167 4.5 49.5 8.5s25.666 10 33.999 18s12.5 20.667 12.5 38c0 14.667 -3.5 26.667 -10.5 36s-15.667 16.5 -26 21.5
s-21.833 8.33301 -34.5 10s-24.667 2.5 -36 2.5c-32 0 -58.333 -6.66699 -79 -20s-32.334 -34 -35.001 -62h-114c2 33.333 10 61 24 83s31.833 39.667 53.5 53s46.167 22.666 73.5 27.999s55.333 8 84 8c25.333 0 50.333 -2.66699 75 -8s46.834 -14 66.501 -26
s35.5 -27.5 47.5 -46.5s18 -42.167 18 -69.5v-266zM378.999 259.003c-8.66699 -6 -18.499 -10.502 -29.499 -13.502s-22.5 -5.5 -34.5 -7.5s-24.5 -3.66699 -37.5 -5s-25.833 -3 -38.5 -5c-12 -2 -23.667 -4.83301 -35 -8.5s-21.333 -8.66699 -30 -15
s-15.5 -14.666 -20.5 -24.999s-7.5 -22.833 -7.5 -37.5c0 -13.333 3.66699 -24.166 11 -32.499s16.166 -15 26.499 -20s21.666 -8.5 33.999 -10.5s23.5 -3 33.5 -3c12.667 0 26.334 1.66699 41.001 5s28.5 9 41.5 17s23.833 18.167 32.5 30.5s13 27.5 13 45.5v85z" />
    <glyph glyph-name="b" unicode="b" horiz-adv-x="611" 
d="M63 714l114 -0.000976562v-264h2c16 25.333 38.167 45.166 66.5 59.499s57.5 21.5 87.5 21.5c40.667 0 76.167 -7.16699 106.5 -21.5s55.5 -34 75.5 -59s35 -54.167 45 -87.5s15 -69 15 -107c0 -35.333 -4.5 -69.166 -13.5 -101.499s-22.667 -61 -41 -86
s-41.5 -45 -69.5 -60s-61 -22.5 -99 -22.5c-17.333 0 -34.833 1.16699 -52.5 3.5s-34.5 6.83301 -50.5 13.5s-30.5 15.334 -43.5 26.001s-23.833 24.667 -32.5 42h-2v-71h-108v714zM461 257.999c0 23.333 -3.00098 45.999 -9.00098 67.999s-15 41.5 -27 58.5
s-27 30.667 -45 41s-38.667 15.5 -62 15.5c-48 0 -84.167 -16.5 -108.5 -49.5s-36.5 -77.5 -36.5 -133.5c0 -26 3.16699 -50.167 9.5 -72.5s15.833 -41.5 28.5 -57.5s27.834 -28.667 45.501 -38s38.167 -14 61.5 -14c26 0 48 5.33301 66 16s32.833 24.5 44.5 41.5
s20 36.333 25 58s7.5 43.834 7.5 66.501z" />
    <glyph glyph-name="c" unicode="c" 
d="M409 344c-4.66699 32 -17.499 56.165 -38.499 72.498s-47.5 24.5 -79.5 24.5c-14.667 0 -30.334 -2.5 -47.001 -7.5s-32 -14.333 -46 -28s-25.667 -32.834 -35 -57.501s-14 -56.334 -14 -95.001c0 -21.333 2.5 -42.666 7.5 -63.999s13 -40.333 24 -57
s25.167 -30.167 42.5 -40.5s38.333 -15.5 63 -15.5c34 0 61.667 10.167 83 30.5s34.666 49.5 39.999 87.5h114c-10.667 -68 -36.167 -119.667 -76.5 -155s-93.833 -53 -160.5 -53c-40.667 0 -76.5 6.83301 -107.5 20.5s-57.167 32.334 -78.5 56.001
s-37.5 51.834 -48.5 84.501s-16.5 68 -16.5 106c0 38.667 5.33301 75 16 109s26.667 63.5 48 88.5s47.833 44.667 79.5 59s68.834 21.5 111.501 21.5c30 0 58.5 -3.83301 85.5 -11.5s51 -19.167 72 -34.5s38.167 -34.666 51.5 -57.999s21.333 -51 24 -83h-114z" />
    <glyph glyph-name="d" unicode="d" horiz-adv-x="611" 
d="M547 0l-108.001 -0.00195312v70h-2c-15.333 -30 -37.666 -51.5 -66.999 -64.5s-60.333 -19.5 -93 -19.5c-40.667 0 -76.167 7.16699 -106.5 21.5s-55.5 33.833 -75.5 58.5s-35 53.834 -45 87.501s-15 69.834 -15 108.501c0 46.667 6.33301 87 19 121s29.5 62 50.5 84
s45 38.167 72 48.5s54.5 15.5 82.5 15.5c16 0 32.333 -1.5 49 -4.5s32.667 -7.83301 48 -14.5s29.5 -15.167 42.5 -25.5s23.833 -22.5 32.5 -36.5h2v264h114v-714zM148.999 252.998c0 -22 2.83203 -43.666 8.49902 -64.999s14.334 -40.333 26.001 -57s26.5 -30 44.5 -40
s39.333 -15 64 -15c25.333 0 47.166 5.33301 65.499 16s33.333 24.667 45 42s20.334 36.833 26.001 58.5s8.5 43.834 8.5 66.501c0 58 -12.833 102.833 -38.5 134.5s-60.5 47.5 -104.5 47.5c-26.667 0 -49.167 -5.5 -67.5 -16.5s-33.333 -25.333 -45 -43
s-20 -37.834 -25 -60.501s-7.5 -45.334 -7.5 -68.001z" />
    <glyph glyph-name="e" unicode="e" 
d="M415 304c-1.33301 18 -5.16699 35.333 -11.5 52s-15 31.167 -26 43.5s-24.333 22.333 -40 30s-33.167 11.5 -52.5 11.5c-20 0 -38.167 -3.5 -54.5 -10.5s-30.333 -16.667 -42 -29s-21 -26.833 -28 -43.5s-10.833 -34.667 -11.5 -54h266zM148.999 229
c0 -20 2.83398 -39.333 8.50098 -58s14.167 -35 25.5 -49s25.666 -25.167 42.999 -33.5s38 -12.5 62 -12.5c34 0 61 7.16699 81 21.5s35 35.833 45 64.5h108c-6 -28 -16.333 -53 -31 -75s-32.334 -40.5 -53.001 -55.5s-43.834 -26.333 -69.501 -34s-52.5 -11.5 -80.5 -11.5
c-40.667 0 -76.667 6.66699 -108 20s-57.833 32 -79.5 56s-38 52.667 -49 86s-16.5 70 -16.5 110c0 36.667 5.83301 71.5 17.5 104.5s28.334 62 50.001 87s47.834 44.833 78.501 59.5s65.334 22 104.001 22c40.667 0 77.167 -8.5 109.5 -25.5s59.166 -39.5 80.499 -67.5
s36.833 -60.167 46.5 -96.5s12.167 -73.833 7.5 -112.5h-380z" />
    <glyph glyph-name="f" unicode="f" horiz-adv-x="315" 
d="M9 517l84.998 -0.000976562v43c0 32.667 4 59.167 12 79.5s18.667 36 32 47s28.5 18.333 45.5 22s34.833 5.5 53.5 5.5c37.333 0 64 -2.33301 80 -7v-89c-7.33301 2 -15.166 3.5 -23.499 4.5s-18.166 1.5 -29.499 1.5c-15.333 0 -28.5 -3.66699 -39.5 -11
s-16.5 -21.666 -16.5 -42.999v-53h97v-85h-97v-432h-114v432h-85v85z" />
    <glyph glyph-name="g" unicode="g" horiz-adv-x="593" 
d="M538 27c0 -78.667 -21.665 -137.001 -64.998 -175.001s-106.333 -57 -189 -57c-26 0 -52.167 2.66699 -78.5 8s-50.333 14.333 -72 27s-39.834 29.334 -54.501 50.001s-23.334 46 -26.001 76h114c3.33301 -16 9 -29 17 -39s17.5 -17.833 28.5 -23.5
s23.167 -9.33398 36.5 -11.001s27.333 -2.5 42 -2.5c46 0 79.667 11.333 101 34s32 55.334 32 98.001v79h-2c-16 -28.667 -37.833 -51 -65.5 -67s-57.5 -24 -89.5 -24c-41.333 0 -76.5 7.16699 -105.5 21.5s-53 34 -72 59s-32.833 53.833 -41.5 86.5s-13 67.667 -13 105
c0 34.667 5.33301 67.667 16 99s26 58.833 46 82.5s44.5 42.5 73.5 56.5s61.833 21 98.5 21c32.667 0 62.667 -6.66699 90 -20s48.333 -35 63 -65h2v71h114v-490zM285.002 89.999c25.333 0 46.834 5.16602 64.501 15.499s32 24 43 41s19 36.333 24 58s7.5 43.5 7.5 65.5
s-2.66699 43.333 -8 64s-13.5 39 -24.5 55s-25.333 28.667 -43 38s-38.834 14 -63.501 14c-25.333 0 -46.666 -5.33301 -63.999 -16s-31.333 -24.5 -42 -41.5s-18.334 -36.333 -23.001 -58s-7 -43.167 -7 -64.5s2.66699 -42.166 8 -62.499s13.5 -38.5 24.5 -54.5
s25 -29 42 -39s37.5 -15 61.5 -15z" />
    <glyph glyph-name="h" unicode="h" horiz-adv-x="574" 
d="M60 714l113.998 0.000976562v-265h2c14 23.333 34.833 42.833 62.5 58.5s58.5 23.5 92.5 23.5c56.667 0 101.334 -14.667 134.001 -44s49 -73.333 49 -132v-355h-114v325c-1.33301 40.667 -10 70.167 -26 88.5s-41 27.5 -75 27.5c-19.333 0 -36.666 -3.5 -51.999 -10.5
s-28.333 -16.667 -39 -29s-19 -26.833 -25 -43.5s-9 -34.334 -9 -53.001v-305h-114v714z" />
    <glyph glyph-name="i" unicode="i" horiz-adv-x="241" 
d="M63 714h114v-108h-114v108zM63 517h114v-517h-114v517z" />
    <glyph glyph-name="j" unicode="j" horiz-adv-x="241" 
d="M63 714h114v-108h-114v108zM63 517h114v-561c0 -51.333 -11.333 -91 -34 -119s-60.667 -42 -114 -42c-11.333 0 -20.833 0.333008 -28.5 1s-15.167 1.66699 -22.5 3v90c13.333 -2.66699 26.333 -4 39 -4c20.667 0 33.5 6.33301 38.5 19s7.5 31.667 7.5 57v556z" />
    <glyph glyph-name="k" unicode="k" horiz-adv-x="537" 
d="M63 714h114v-406l206 209h140l-198 -190l217 -327h-139l-158 251l-68 -66v-185h-114v714z" />
    <glyph glyph-name="l" unicode="l" horiz-adv-x="241" 
d="M63 714h114v-714h-114v714z" />
    <glyph glyph-name="m" unicode="m" horiz-adv-x="870" 
d="M60 517l108 0.000976562v-72h3c17.333 25.333 37.833 46 61.5 62s56.167 24 97.5 24c31.333 0 60.5 -7 87.5 -21s46.167 -35.667 57.5 -65c19.333 26.667 41.666 47.667 66.999 63s57 23 95 23c54.667 0 97.167 -13.333 127.5 -40s45.5 -71.334 45.5 -134.001v-357h-114
v302c0 20.667 -0.666992 39.5 -2 56.5s-5.16602 31.667 -11.499 44s-15.833 21.833 -28.5 28.5s-30 10 -52 10c-38.667 0 -66.667 -12 -84 -36s-26 -58 -26 -102v-303h-114v332c0 36 -6.5 63.167 -19.5 81.5s-36.833 27.5 -71.5 27.5c-14.667 0 -28.834 -3 -42.501 -9
s-25.667 -14.667 -36 -26s-18.666 -25.333 -24.999 -42s-9.5 -35.667 -9.5 -57v-307h-114v517z" />
    <glyph glyph-name="n" unicode="n" horiz-adv-x="574" 
d="M60 517l107.998 0.000976562v-76l2 -2c17.333 28.667 40 51.167 68 67.5s59 24.5 93 24.5c56.667 0 101.334 -14.667 134.001 -44s49 -73.333 49 -132v-355h-114v325c-1.33301 40.667 -10 70.167 -26 88.5s-41 27.5 -75 27.5c-19.333 0 -36.666 -3.5 -51.999 -10.5
s-28.333 -16.667 -39 -29s-19 -26.833 -25 -43.5s-9 -34.334 -9 -53.001v-305h-114v517z" />
    <glyph glyph-name="o" unicode="o" horiz-adv-x="593" 
d="M297 -14c-41.333 0 -78.166 6.83301 -110.499 20.5s-59.666 32.5 -81.999 56.5s-39.333 52.667 -51 86s-17.5 70 -17.5 110c0 39.333 5.83301 75.666 17.5 108.999s28.667 62 51 86s49.666 42.833 81.999 56.5s69.166 20.5 110.499 20.5s78.166 -6.83301 110.499 -20.5
s59.666 -32.5 81.999 -56.5s39.333 -52.667 51 -86s17.5 -69.666 17.5 -108.999c0 -40 -5.83301 -76.667 -17.5 -110s-28.667 -62 -51 -86s-49.666 -42.833 -81.999 -56.5s-69.166 -20.5 -110.499 -20.5zM297 76c25.333 0 47.333 5.33301 66 16s34 24.667 46 42
s20.833 36.833 26.5 58.5s8.5 43.834 8.5 66.501c0 22 -2.83301 44 -8.5 66s-14.5 41.5 -26.5 58.5s-27.333 30.833 -46 41.5s-40.667 16 -66 16s-47.333 -5.33301 -66 -16s-34 -24.5 -46 -41.5s-20.833 -36.5 -26.5 -58.5s-8.5 -44 -8.5 -66
c0 -22.667 2.83301 -44.834 8.5 -66.501s14.5 -41.167 26.5 -58.5s27.333 -31.333 46 -42s40.667 -16 66 -16z" />
    <glyph glyph-name="p" unicode="p" horiz-adv-x="611" 
d="M63 517l108.001 -0.000976562v-70h2c16 30 38.167 51.5 66.5 64.5s59.5 19.5 93.5 19.5c40.667 0 76.167 -7.16699 106.5 -21.5s55.5 -34 75.5 -59s35 -54.167 45 -87.5s15 -69 15 -107c0 -35.333 -4.5 -69.166 -13.5 -101.499s-22.667 -61 -41 -86s-41.5 -45 -69.5 -60
s-61 -22.5 -99 -22.5c-16.667 0 -33.334 1.5 -50.001 4.5s-32.667 7.83301 -48 14.5s-29.5 15.167 -42.5 25.5s-23.833 22.5 -32.5 36.5h-2v-258h-114v708zM461.001 257.999c0 23.333 -3.00098 45.999 -9.00098 67.999s-15 41.5 -27 58.5s-27 30.667 -45 41
s-38.667 15.5 -62 15.5c-48 0 -84.167 -16.5 -108.5 -49.5s-36.5 -77.5 -36.5 -133.5c0 -26 3.16699 -50.167 9.5 -72.5s15.833 -41.5 28.5 -57.5s27.834 -28.667 45.501 -38s38.167 -14 61.5 -14c26 0 48 5.33301 66 16s32.833 24.5 44.5 41.5s20 36.333 25 58
s7.5 43.834 7.5 66.501z" />
    <glyph glyph-name="q" unicode="q" horiz-adv-x="611" 
d="M547 -191l-114 0.00195312v258h-2c-19.333 -28.667 -44.5 -49.334 -75.5 -62.001s-63.5 -19 -97.5 -19c-38 0 -71 7.5 -99 22.5s-51.167 35 -69.5 60s-32 53.667 -41 86s-13.5 66.166 -13.5 101.499c0 38 5 73.667 15 107s25 62.5 45 87.5s45.167 44.667 75.5 59
s65.833 21.5 106.5 21.5c34 0 65.167 -6.5 93.5 -19.5s50.5 -34.5 66.5 -64.5h2v70h108v-708zM149 258.002c0 -22.667 2.5 -44.834 7.5 -66.501s13.333 -41 25 -58s26.5 -30.833 44.5 -41.5s40 -16 66 -16c49.333 0 85.833 16.833 109.5 50.5s35.5 77.5 35.5 131.5
c0 56.667 -12.167 101.334 -36.5 134.001s-60.5 49 -108.5 49c-23.333 0 -44 -5.16699 -62 -15.5s-33 -24 -45 -41s-21 -36.5 -27 -58.5s-9 -44.667 -9 -68z" />
    <glyph glyph-name="r" unicode="r" horiz-adv-x="352" 
d="M60 517h106.998v-100h2c3.33301 14 9.83301 27.667 19.5 41s21.334 25.5 35.001 36.5s28.834 19.833 45.501 26.5s33.667 10 51 10c13.333 0 22.5 -0.333008 27.5 -1l15.5 -2v-110c-8 1.33301 -16.167 2.5 -24.5 3.5s-16.5 1.5 -24.5 1.5
c-19.333 0 -37.5 -3.83301 -54.5 -11.5s-31.833 -19 -44.5 -34s-22.667 -33.5 -30 -55.5s-11 -47.333 -11 -76v-246h-114v517z" />
    <glyph glyph-name="s" unicode="s" horiz-adv-x="519" 
d="M146 166c3.33301 -33.333 15.999 -56.6689 37.999 -70.002s48.333 -20 79 -20c10.667 0 22.834 0.833008 36.501 2.5s26.5 4.83398 38.5 9.50098s21.833 11.5 29.5 20.5s11.167 20.833 10.5 35.5s-6 26.667 -16 36s-22.833 16.833 -38.5 22.5s-33.5 10.5 -53.5 14.5
s-40.333 8.33301 -61 13c-21.333 4.66699 -41.833 10.334 -61.5 17.001s-37.334 15.667 -53.001 27s-28.167 25.833 -37.5 43.5s-14 39.5 -14 65.5c0 28 6.83301 51.5 20.5 70.5s31 34.333 52 46s44.333 19.834 70 24.501s50.167 7 73.5 7
c26.667 0 52.334 -2.83301 77.001 -8.5s46.667 -14.834 66 -27.501s35.5 -29.167 48.5 -49.5s21.167 -44.833 24.5 -73.5h-119c-5.33301 27.333 -17.833 45.666 -37.5 54.999s-42.167 14 -67.5 14c-8 0 -17.5 -0.666992 -28.5 -2s-21.333 -3.83301 -31 -7.5
s-17.834 -9 -24.501 -16s-10 -16.167 -10 -27.5c0 -14 4.83301 -25.333 14.5 -34s22.334 -15.834 38.001 -21.501s33.5 -10.5 53.5 -14.5l62 -13c20.667 -4.66699 41 -10.334 61 -17.001s37.833 -15.667 53.5 -27s28.334 -25.666 38.001 -42.999s14.5 -38.666 14.5 -63.999
c0 -30.667 -7 -56.667 -21 -78s-32.167 -38.666 -54.5 -51.999s-47.166 -23 -74.499 -29s-54.333 -9 -81 -9c-32.667 0 -62.834 3.66699 -90.501 11s-51.667 18.5 -72 33.5s-36.333 33.667 -48 56s-17.834 48.833 -18.501 79.5h114z" />
    <glyph glyph-name="t" unicode="t" horiz-adv-x="333" 
d="M8 517h86v155h114v-155h103v-85h-103v-276c0 -12 0.5 -22.333 1.5 -31s3.33301 -16 7 -22s9.16699 -10.5 16.5 -13.5s17.333 -4.5 30 -4.5c8 0 16 0.166992 24 0.5s16 1.5 24 3.5v-88l-37 -4c-12 -1.33301 -24.333 -2 -37 -2c-30 0 -54.167 2.83301 -72.5 8.5
s-32.666 14 -42.999 25s-17.333 24.833 -21 41.5s-5.83398 35.667 -6.50098 57v305h-86v85z" />
    <glyph glyph-name="u" unicode="u" horiz-adv-x="574" 
d="M514 0l-111.998 0.00195312v72h-2c-14 -26 -34.833 -46.833 -62.5 -62.5s-55.834 -23.5 -84.501 -23.5c-68 0 -117.167 16.833 -147.5 50.5s-45.5 84.5 -45.5 152.5v328h114v-317c0 -45.333 8.66699 -77.333 26 -96s41.666 -28 72.999 -28c24 0 44 3.66699 60 11
s29 17.166 39 29.499s17.167 27.166 21.5 44.499s6.5 36 6.5 56v300h114v-517z" />
    <glyph glyph-name="v" unicode="v" horiz-adv-x="519" 
d="M9 517h124l131 -397h2l126 397h118l-185 -517h-128z" />
    <glyph glyph-name="w" unicode="w" horiz-adv-x="778" 
d="M13 517h121l101 -386h2l97 386h115l93 -386h2l105 386h116l-162 -517h-117l-96 384h-2l-95 -384h-120z" />
    <glyph glyph-name="x" unicode="x" horiz-adv-x="537" 
d="M199 272l-179 245h138l108 -159l113 159h132l-176 -239l198 -278h-137l-131 191l-127 -191h-134z" />
    <glyph glyph-name="y" unicode="y" horiz-adv-x="519" 
d="M3 517l125 -0.000976562l135 -386h2l131 386h119l-201 -545l-27.5 -67c-9 -21.333 -20 -40.166 -33 -56.499s-29.167 -29.333 -48.5 -39s-44 -14.5 -74 -14.5c-26.667 0 -53 2 -79 6v96c9.33301 -1.33301 18.333 -2.83301 27 -4.5s17.667 -2.5 27 -2.5
c26 0 44.167 6.5 54.5 19.5s18.833 30.5 25.5 52.5l13 40z" />
    <glyph glyph-name="z" unicode="z" horiz-adv-x="500" 
d="M42 517h420v-80l-296 -347h311v-90h-455v80l286 347h-266v90z" />
    <glyph glyph-name="braceleft" unicode="{" horiz-adv-x="296" 
d="M-4 315c6.66699 0 15.334 1.00684 26.001 3.00684s21 5.83301 31 11.5s18.667 13.167 26 22.5s11 21.333 11 36v206c0 23.333 4.66699 43.666 14 60.999s20.666 31.666 33.999 42.999s27.333 19.666 42 24.999s27.334 8 38.001 8h91v-90h-55
c-12.667 0 -22.667 -2.16699 -30 -6.5s-13 -10 -17 -17s-6.5 -14.667 -7.5 -23s-1.5 -16.166 -1.5 -23.499v-195c0 -20 -4 -36.5 -12 -49.5s-17.5 -23.5 -28.5 -31.5s-22.333 -13.833 -34 -17.5s-21.5 -5.83398 -29.5 -6.50098v-2
c8 -0.666992 17.833 -2.33398 29.5 -5.00098s23 -7.83398 34 -15.501s20.5 -18.667 28.5 -33s12 -33.5 12 -57.5v-189c0 -7.33301 0.5 -15.166 1.5 -23.499s3.5 -16 7.5 -23s9.66699 -12.667 17 -17s17.333 -6.5 30 -6.5h55v-90h-91c-10.667 0 -23.334 2.66699 -38.001 8
s-28.667 13.666 -42 24.999s-24.666 25.666 -33.999 42.999s-14 37.666 -14 60.999v198c0 16 -3.66699 29.333 -11 40s-16 19 -26 25s-20.333 10.167 -31 12.5s-19.334 3.5 -26.001 3.5v90z" />
    <glyph glyph-name="bar" unicode="|" horiz-adv-x="222" 
d="M60 786h102v-1000h-102v1000z" />
    <glyph glyph-name="braceright" unicode="}" horiz-adv-x="296" 
d="M300 225c-7.33301 0 -16.333 -1.17383 -27 -3.50684s-21 -6.16602 -31 -11.499s-18.5 -12.666 -25.5 -21.999s-10.5 -21.333 -10.5 -36v-206c0 -23.333 -4.66699 -43.666 -14 -60.999s-20.666 -31.666 -33.999 -42.999s-27.333 -19.666 -42 -24.999
s-27.334 -8 -38.001 -8h-91v90h55c12.667 0 22.667 2.16699 30 6.5s13 10 17 17s6.5 14.667 7.5 23s1.5 16.166 1.5 23.499v195c0 20.667 4 37.5 12 50.5s17.5 23.333 28.5 31s22.333 13.167 34 16.5s21.5 5.66602 29.5 6.99902v2
c-8 0.666992 -17.833 2.33398 -29.5 5.00098s-23 7.83398 -34 15.501s-20.5 18.667 -28.5 33s-12 33.5 -12 57.5v189c0 7.33301 -0.5 15.166 -1.5 23.499s-3.5 16 -7.5 23s-9.66699 12.667 -17 17s-17.333 6.5 -30 6.5h-55v90h91c10.667 0 23.334 -2.66699 38.001 -8
s28.667 -13.666 42 -24.999s24.666 -25.666 33.999 -42.999s14 -37.666 14 -60.999v-198c0 -16 3.5 -29.333 10.5 -40s15.5 -19 25.5 -25s20.333 -10.167 31 -12.5s19.667 -3.5 27 -3.5v-90z" />
    <glyph glyph-name="asciitilde" unicode="~" horiz-adv-x="600" 
d="M531 254c-7.33301 -10.667 -15 -21.166 -23 -31.499s-17 -19.5 -27 -27.5s-21.167 -14.5 -33.5 -19.5s-26.166 -7.5 -41.499 -7.5c-18.667 0 -36.167 3.16699 -52.5 9.5s-32.833 14.166 -49.5 23.499c-16 9.33301 -33.333 17.5 -52 24.5s-39.667 10.5 -63 10.5
c-11.333 0 -21.166 -2.16699 -29.499 -6.5s-16 -9.66602 -23 -15.999s-13 -13.5 -18 -21.5s-9.5 -16 -13.5 -24l-36 84c5.33301 10.667 11.666 21.167 18.999 31.5s16.166 19.5 26.499 27.5s22 14.5 35 19.5s27.833 7.5 44.5 7.5c17.333 0 35.333 -3.16699 54 -9.5
s37.667 -13.833 57 -22.5l55 -24c18 -8 33.667 -12 47 -12c10 0 19.167 2.16699 27.5 6.5s16 9.66602 23 15.999s13.5 13.5 19.5 21.5l18 24z" />
    <glyph glyph-name="uni00A0" unicode="&#xa0;" horiz-adv-x="278" 
 />
    <glyph glyph-name="exclamdown" unicode="&#xa1;" horiz-adv-x="278" 
d="M206 406h-134v125h134v-125zM202 -183h-125v204l33 311h59l33 -311v-204z" />
    <glyph glyph-name="cent" unicode="&#xa2;" 
d="M268 -14c-36 0 -68.333 7.16895 -97 21.502s-53 33.666 -73 57.999s-35.167 52.666 -45.5 84.999s-15.5 66.5 -15.5 102.5c0 42 5.66699 80.167 17 114.5s27.333 63.5 48 87.5s45 42.667 73 56s59 20 93 20v90h43v-90c27.333 0 53.5 -4.33301 78.5 -13
s47.167 -21 66.5 -37s35 -35.667 47 -59s19 -49.333 21 -78h-114c-3.33301 28.667 -14 52 -32 70s-40.333 27 -67 27v-365c60.667 10.667 95 50 103 118h114c-11.333 -63.333 -34.833 -113.833 -70.5 -151.5s-84.5 -56.5 -146.5 -56.5v-90h-43v90zM268 441.002
c-22 -2 -40.499 -9.00195 -55.499 -21.002s-27 -27 -36 -45s-15.5 -37.667 -19.5 -59s-6 -42.333 -6 -63c0 -20 2.16699 -39.833 6.5 -59.5s11.166 -37.667 20.499 -54s21.333 -30.166 36 -41.499s32.667 -18.666 54 -21.999v365z" />
    <glyph glyph-name="sterling" unicode="&#xa3;" 
d="M31 384l63 0.000976562c-15.333 18.667 -27 40.834 -35 66.501s-12 50.5 -12 74.5c0 31.333 6.66699 59.666 20 84.999s31 47 53 65s47 31.833 75 41.5s56.667 14.5 86 14.5c76.667 0 137.5 -20.5 182.5 -61.5s67.833 -102.833 68.5 -185.5h-114
c-1.33301 21.333 -4.5 41.333 -9.5 60s-12.667 34.834 -23 48.501s-23.833 24.334 -40.5 32.001s-37.334 11.5 -62.001 11.5c-30.667 0 -56.834 -10 -78.501 -30s-32.5 -49 -32.5 -87c0 -23.333 5 -46.833 15 -70.5s20.333 -45.167 31 -64.5h147v-65h-123
c10.667 -19.333 16 -41.666 16 -66.999c0 -18 -2.66699 -34.833 -8 -50.5s-12.666 -30.334 -21.999 -44.001s-20.166 -26.167 -32.499 -37.5s-25.166 -22 -38.499 -32l2 -2l45 18c14.667 6 30.334 9 47.001 9c17.333 0 32.333 -1.83301 45 -5.5s24.667 -7.5 36 -11.5
c11.333 -4.66699 22.666 -8.83398 33.999 -12.501s24.666 -5.5 39.999 -5.5c18.667 0 36 3.33301 52 10s31 16 45 28l51 -77c-25.333 -21.333 -50.166 -36 -74.499 -44s-52.833 -12 -85.5 -12c-16 0 -32.167 1.83301 -48.5 5.5s-33.166 6.83398 -50.499 9.50098
c-16.667 5.33301 -33.667 10 -51 14s-35.333 6 -54 6c-17.333 0 -35.333 -3 -54 -9s-34.334 -14.333 -47.001 -25l-53 81c12 8 24.5 18.167 37.5 30.5s24.667 25.666 35 39.999s18.833 29.333 25.5 45s10 31.167 10 46.5c0 17.333 -1.83301 33.666 -5.5 48.999
s-8.83398 29.666 -15.501 42.999h-92v65z" />
    <glyph glyph-name="currency" unicode="&#xa4;" 
d="M279 201c20 0 38.6689 3.99805 56.002 11.998s32.166 18.833 44.499 32.5s22 29.667 29 48s10.5 37.5 10.5 57.5s-3.5 38.833 -10.5 56.5s-16.667 33.334 -29 47.001s-27 24.5 -44 32.5s-35.5 12 -55.5 12c-20.667 0 -39.834 -4 -57.501 -12s-33 -18.667 -46 -32
s-23.167 -29.166 -30.5 -47.499s-11 -37.833 -11 -58.5s3.66699 -40 11 -58s17.5 -33.667 30.5 -47s28.333 -23.833 46 -31.5s36.5 -11.5 56.5 -11.5zM20.002 145.998l56.9971 60.999c-33.333 37.333 -50 84.666 -50 141.999c0 28 4 54.833 12 80.5s20.667 46.834 38 63.501
l-57 61l57 57l57 -56c16.667 14 38.167 25.167 64.5 33.5s53.5 12.5 81.5 12.5c26.667 0 52.334 -4.16699 77.001 -12.5s44.667 -19.166 60 -32.499l58 57l61 -61l-56 -58c15.333 -16 27 -36.833 35 -62.5s12 -52.5 12 -80.5s-4.16699 -54.667 -12.5 -80
s-20.166 -47.333 -35.499 -66l55 -59l-55 -55l-57 58c-16.667 -16 -37.667 -28.333 -63 -37s-52 -13 -80 -13c-30 0 -57.667 4.16699 -83 12.5s-46.666 20.5 -63.999 36.5l-56 -58z" />
    <glyph glyph-name="yen" unicode="&#xa5;" 
d="M221 165h-137v65h137v68h-137v65h98l-187 351h127l156 -320l159 320h124l-188 -351h99v-65h-137v-68h137v-65h-137v-165h-114v165z" />
    <glyph glyph-name="brokenbar" unicode="&#xa6;" horiz-adv-x="222" 
d="M60 661h102v-250h-102v250zM60 161h102v-250h-102v250z" />
    <glyph glyph-name="section" unicode="&#xa7;" 
d="M377 542c-1.33301 28 -10.168 51.501 -26.501 70.501s-38.833 28.5 -67.5 28.5c-20.667 0 -39.5 -6.83301 -56.5 -20.5s-25.5 -31.834 -25.5 -54.501c0 -21.333 8.16699 -39.666 24.5 -54.999s37 -29.833 62 -43.5s51.833 -27.334 80.5 -41.001s55.5 -29.167 80.5 -46.5
s45.667 -37.333 62 -60s24.5 -50 24.5 -82c0 -15.333 -2.83301 -30.666 -8.5 -45.999s-13.167 -29.5 -22.5 -42.5s-20.5 -24.333 -33.5 -34s-26.833 -16.834 -41.5 -21.501c18 -15.333 31.667 -32.833 41 -52.5s14 -44.834 14 -75.501c0 -28 -5.5 -52.667 -16.5 -74
s-25.667 -39.166 -44 -53.499s-39.333 -25.166 -63 -32.499s-48.5 -11 -74.5 -11c-30.667 0 -59 4.5 -85 13.5s-48.5 22.167 -67.5 39.5s-34.167 38.666 -45.5 63.999s-17.333 54.666 -18 87.999h108c2.66699 -36 12.334 -64.167 29.001 -84.5s42 -30.5 76 -30.5
c25.333 0 46.166 6 62.499 18s24.5 33 24.5 63c0 18 -5 34.167 -15 48.5s-23 27.333 -39 39s-34.333 22.834 -55 33.501l-63 33c-22 10.667 -43.5 22.167 -64.5 34.5s-39.667 26.333 -56 42s-29.666 33 -39.999 52s-15.5 40.167 -15.5 63.5c0 38 9.5 68.833 28.5 92.5
s45.5 42.5 79.5 56.5c-14.667 15.333 -25.5 30.666 -32.5 45.999s-10.5 33.666 -10.5 54.999c0 26.667 5.83301 50.5 17.5 71.5s26.667 38.667 45 53s39.333 25.333 63 33s47.5 11.5 71.5 11.5c28.667 0 55.167 -4.33301 79.5 -13s45.5 -21.167 63.5 -37.5
s32.167 -36.166 42.5 -59.499s15.5 -49.666 15.5 -78.999h-108zM190.998 405.001c-18 -5.33301 -32.666 -15.168 -43.999 -29.501s-17 -31.166 -17 -50.499c0 -4 0.5 -8.83301 1.5 -14.5s3.33301 -12 7 -19s9.16699 -14.333 16.5 -22s17.333 -15.167 30 -22.5l182 -102
c17.333 7.33301 31.666 17.666 42.999 30.999s17 30.333 17 51c0 14.667 -4.66699 28.334 -14 41.001s-28 26.667 -56 42z" />
    <glyph glyph-name="dieresis" unicode="&#xa8;" horiz-adv-x="241" 
d="M-23 602v108h114v-108h-114zM263 710v-108h-114v108h114z" />
    <glyph glyph-name="copyright" unicode="&#xa9;" horiz-adv-x="800" 
d="M590 285c-4 -24 -11.3291 -45.499 -21.9961 -64.499s-23.834 -35.167 -39.501 -48.5s-33.334 -23.5 -53.001 -30.5s-40.5 -10.5 -62.5 -10.5c-32 0 -61 5.66699 -87 17s-48.333 27.166 -67 47.499s-33 44.333 -43 72s-15 57.5 -15 89.5c0 30 4.83301 58 14.5 84
s23.5 48.833 41.5 68.5s40 35 66 46s55.333 16.5 88 16.5c46 0 85.5 -12.667 118.5 -38s52.833 -63 59.5 -113h-68c-5.33301 25.333 -17.833 46 -37.5 62s-43.834 24 -72.501 24c-21.333 0 -40 -4 -56 -12s-29.5 -18.667 -40.5 -32s-19.333 -29.166 -25 -47.499
s-8.5 -37.833 -8.5 -58.5c0 -22 3 -42.667 9 -62s14.833 -36.333 26.5 -51s25.667 -26.334 42 -35.001s34.5 -13 54.5 -13c30 0 54.667 8.33301 74 25s30.666 38 33.999 64h69zM687.004 357.001c0 45.333 -7.33301 87 -22 125s-35 70.667 -61 98s-56.333 48.5 -91 63.5
s-72 22.5 -112 22.5c-40.667 0 -78.5 -7.5 -113.5 -22.5s-65.5 -36.167 -91.5 -63.5s-46.333 -60 -61 -98s-22 -79.667 -22 -125c0 -42.667 6.66699 -82.667 20 -120s32.5 -70 57.5 -98s55.167 -50.167 90.5 -66.5s75.333 -24.5 120 -24.5c40 0 77.333 7.5 112 22.5
s65 36.167 91 63.5s46.333 59.833 61 97.5s22 79.5 22 125.5zM767.004 357.001c0 -56 -9.83594 -107 -29.5029 -153s-46.334 -85.333 -80.001 -118s-72.667 -58 -117 -76s-90.833 -27 -139.5 -27c-54 0 -103.5 9.5 -148.5 28.5s-83.667 45.167 -116 78.5
s-57.666 72.833 -75.999 118.5s-27.5 95.167 -27.5 148.5c0 56 9.83301 107 29.5 153s46.334 85.333 80.001 118s72.834 58 117.501 76s91.667 27 141 27c48.667 0 95.167 -9 139.5 -27s83.333 -43.333 117 -76s60.334 -72 80.001 -118s29.5 -97 29.5 -153z" />
    <glyph glyph-name="ordfeminine" unicode="&#xaa;" horiz-adv-x="380" 
d="M331 470c0 -7.33301 0.998047 -13.002 2.99805 -17.002s6.66699 -5.66699 14 -5h7c4 0 7 0.333008 9 1v-68c-5.33301 -2 -13 -3.83301 -23 -5.5s-18 -2.5 -24 -2.5c-17.333 0 -31.166 3.5 -41.499 10.5s-17.166 19.833 -20.499 38.5
c-4.66699 -7.33301 -11.5 -14 -20.5 -20s-19 -11.167 -30 -15.5s-22.333 -7.66602 -34 -9.99902s-22.5 -3.5 -32.5 -3.5c-16 0 -31.333 2 -46 6s-27.667 9.83301 -39 17.5s-20.333 17.334 -27 29.001s-10 25.167 -10 40.5c0 18.667 4 34 12 46s18.5 21.5 31.5 28.5
s27.5 12.333 43.5 16s32 6.83398 48 9.50098l36 5.5c11.333 1.66699 21.333 3.83398 30 6.50098s15.334 6 20.001 10s7 9.33301 7 16c0 10.667 -1.83301 19 -5.5 25s-8.5 10.5 -14.5 13.5s-12.5 4.83301 -19.5 5.5s-13.833 1 -20.5 1c-19.333 0 -35.5 -2.83301 -48.5 -8.5
s-20.167 -16.834 -21.5 -33.501h-85c2 20.667 8 37.834 18 51.501s22.333 24.667 37 33s31.167 14.166 49.5 17.499s36.833 5 55.5 5c17.333 0 34.5 -1.83301 51.5 -5.5s32.167 -9.16699 45.5 -16.5s24.166 -16.833 32.499 -28.5s12.5 -25.834 12.5 -42.501v-151z
M243.998 534.998c-9.33301 -5.33301 -22 -8.83301 -38 -10.5s-31.667 -4.16699 -47 -7.5s-28.5 -8.33301 -39.5 -15s-16.5 -17 -16.5 -31s5.5 -23 16.5 -27s24.167 -6 39.5 -6c10 0 20 0.666992 30 2s19 4 27 8s14.667 9.33301 20 16s8 15.667 8 27v44z" />
    <glyph glyph-name="guillemotleft" unicode="&#xab;" horiz-adv-x="463" 
d="M248 216v112l155 123v-103l-95 -76l95 -76v-103zM50 216v112l155 123v-103l-95 -76l95 -76v-103z" />
    <glyph glyph-name="logicalnot" unicode="&#xac;" horiz-adv-x="600" 
d="M450 303h-402v102h504v-297h-102v195z" />
    <glyph glyph-name="uni00AD" unicode="&#xad;" horiz-adv-x="389" 
d="M49 326h291v-108h-291v108z" />
    <glyph glyph-name="registered" unicode="&#xae;" horiz-adv-x="800" 
d="M687 357c0 45.333 -7.33301 87 -22 125s-35 70.667 -61 98s-56.333 48.5 -91 63.5s-72 22.5 -112 22.5c-40.667 0 -78.5 -7.5 -113.5 -22.5s-65.5 -36.167 -91.5 -63.5s-46.333 -60 -61 -98s-22 -79.667 -22 -125c0 -42.667 6.66699 -82.667 20 -120s32.5 -70 57.5 -98
s55.167 -50.167 90.5 -66.5s75.333 -24.5 120 -24.5c40 0 77.333 7.5 112 22.5s65 36.167 91 63.5s46.333 59.833 61 97.5s22 79.5 22 125.5zM767 357c0 -56 -9.83594 -107 -29.5029 -153s-46.334 -85.333 -80.001 -118s-72.667 -58 -117 -76s-90.833 -27 -139.5 -27
c-54 0 -103.5 9.5 -148.5 28.5s-83.667 45.167 -116 78.5s-57.666 72.833 -75.999 118.5s-27.5 95.167 -27.5 148.5c0 56 9.83301 107 29.5 153s46.334 85.333 80.001 118s72.834 58 117.501 76s91.667 27 141 27c48.667 0 95.167 -9 139.5 -27s83.333 -43.333 117 -76
s60.334 -72 80.001 -118s29.5 -97 29.5 -153zM402.997 378c12.667 0 24.834 0.500977 36.501 1.50098s21.834 3.83301 30.501 8.5s15.667 11.167 21 19.5s8 20.166 8 35.499c0 12.667 -2.83301 22.667 -8.5 30s-12.834 13 -21.501 17s-18.334 6.5 -29.001 7.5
s-21 1.5 -31 1.5h-82v-121h76zM326.997 143.001l-67.999 -0.00195312v414h157c50 0 87.667 -9.33301 113 -28s38 -49 38 -91c0 -37.333 -10.333 -64.666 -31 -81.999s-46.334 -27.666 -77.001 -30.999l116 -182h-77l-107 177h-64v-177z" />
    <glyph glyph-name="macron" unicode="&#xaf;" horiz-adv-x="241" 
d="M-23 624v65h288v-65h-288z" />
    <glyph glyph-name="degree" unicode="&#xb0;" horiz-adv-x="400" 
d="M106 564c0 -13.333 2.5 -25.666 7.5 -36.999s11.667 -21.166 20 -29.499s18.166 -15 29.499 -20s23.666 -7.5 36.999 -7.5c12.667 0 24.834 2.5 36.501 7.5s21.667 11.667 30 20s15 18.166 20 29.499s7.5 23.666 7.5 36.999c0 12.667 -2.5 24.834 -7.5 36.501
s-11.667 21.667 -20 30s-18.333 15 -30 20s-23.834 7.5 -36.501 7.5c-13.333 0 -25.666 -2.5 -36.999 -7.5s-21.166 -11.667 -29.499 -20s-15 -18.333 -20 -30s-7.5 -23.834 -7.5 -36.501zM50 564c0 20.667 4 40.167 12 58.5s18.667 34.166 32 47.499s29.166 24 47.499 32
s37.833 12 58.5 12s40.167 -4 58.5 -12s34.166 -18.667 47.499 -32s24 -29.166 32 -47.499s12 -37.833 12 -58.5s-4 -40.167 -12 -58.5s-18.667 -34.166 -32 -47.499s-29.166 -24 -47.499 -32s-37.833 -12 -58.5 -12s-40.167 4 -58.5 12s-34.166 18.667 -47.499 32
s-24 29.166 -32 47.499s-12 37.833 -12 58.5z" />
    <glyph glyph-name="plusminus" unicode="&#xb1;" horiz-adv-x="600" 
d="M48 102h504v-102h-504v102zM249 506h102v-125h201v-102h-201v-125h-102v125h-201v102h201v125z" />
    <glyph glyph-name="twosuperior" unicode="&#xb2;" horiz-adv-x="360" 
d="M336 273h-314.998c0.666992 40.667 9.83398 74.5 27.501 101.5s41.834 50.167 72.501 69.5c14.667 10 30 19.833 46 29.5s30.667 19.834 44 30.501s24.5 22.334 33.5 35.001s13.833 27 14.5 43c0 21.333 -7.33301 37 -22 47s-31.667 15 -51 15
c-13.333 0 -24.5 -2.66699 -33.5 -8s-16.333 -12.333 -22 -21s-9.83398 -18.5 -12.501 -29.5s-4.33398 -22.5 -5.00098 -34.5h-87c0 50.667 14.667 90.5 44 119.5s69.333 43.5 120 43.5c20.667 0 40.5 -2.5 59.5 -7.5s35.667 -12.667 50 -23s25.666 -23.833 33.999 -40.5
s12.5 -36.334 12.5 -59.001c0 -16.667 -2.83301 -31.834 -8.5 -45.501s-13.334 -26.167 -23.001 -37.5s-20.667 -21.833 -33 -31.5s-24.833 -18.5 -37.5 -26.5l-39.5 -24.5c-13 -7.66699 -25 -15.5 -36 -23.5s-20.5 -16.167 -28.5 -24.5s-13.667 -17.5 -17 -27.5h213v-70z
" />
    <glyph glyph-name="threesuperior" unicode="&#xb3;" horiz-adv-x="360" 
d="M146 533c12.667 -0.666992 24.999 -0.165039 36.999 1.50195s22.667 5 32 10s17 11.5 23 19.5s9 18 9 30c0 8.66699 -2.16699 16.167 -6.5 22.5s-9.83301 11.5 -16.5 15.5s-14 7 -22 9s-16 3 -24 3c-22 0 -40 -7.16699 -54 -21.5s-20.333 -32.5 -19 -54.5h-80
c2 46 16.667 81.833 44 107.5s64 38.5 110 38.5c18.667 0 36.834 -2 54.501 -6s33.5 -10.667 47.5 -20s25.167 -21.333 33.5 -36s12.5 -32.667 12.5 -54s-5.33301 -39.833 -16 -55.5s-26.667 -27.167 -48 -34.5v-2c25.333 -4.66699 45.333 -16.334 60 -35.001s22 -42 22 -70
c0 -22 -4.33301 -41.5 -13 -58.5s-20.5 -31.333 -35.5 -43s-32.5 -20.5 -52.5 -26.5s-41.333 -9 -64 -9c-54.667 0 -95.334 13.667 -122.001 41s-40.667 65.333 -42 114h80c-1.33301 -23.333 5.33398 -43.333 20.001 -60s36 -25 64 -25c23.333 0 43.333 6.33301 60 19
s25 30 25 52c0 16 -3.5 28.667 -10.5 38s-16 16.5 -27 21.5s-23.667 8.16699 -38 9.5s-28.833 1.66602 -43.5 0.999023v58z" />
    <glyph glyph-name="acute" unicode="&#xb4;" horiz-adv-x="241" 
d="M135 732h135l-142 -143h-83z" />
    <glyph glyph-name="mu" unicode="&#xb5;" horiz-adv-x="574" 
d="M514 0l-111.999 0.00195312v72h-2c-7.33301 -13.333 -16.333 -25.166 -27 -35.499s-22.167 -19.333 -34.5 -27s-25 -13.5 -38 -17.5s-25.167 -6 -36.5 -6c-15.333 0 -31.333 2.66699 -48 8s-30.667 14.666 -42 27.999v-213h-114v708h114v-317
c0 -45.333 8.66699 -77.333 26 -96s41.666 -28 72.999 -28c24 0 44 3.66699 60 11s29 17.166 39 29.499s17.167 27.166 21.5 44.499s6.5 36 6.5 56v300h114v-517z" />
    <glyph glyph-name="paragraph" unicode="&#xb6;" horiz-adv-x="600" 
d="M246 344c-32.667 0 -62.167 4.50098 -88.5 13.501s-48.833 21.667 -67.5 38s-33.167 35.666 -43.5 57.999s-15.5 46.5 -15.5 72.5c0 33.333 5.66699 62 17 86s27.166 43.5 47.499 58.5s44.833 26 73.5 33s60.334 10.5 95.001 10.5h259v-874h-80v809h-117v-809h-80v504z
" />
    <glyph glyph-name="periodcentered" unicode="&#xb7;" horiz-adv-x="278" 
d="M64 302c0 10 2.00195 19.333 6.00195 28s9.5 16.5 16.5 23.5s15 12.5 24 16.5s18.5 6 28.5 6s19.5 -2 28.5 -6s17 -9.5 24 -16.5s12.5 -14.833 16.5 -23.5s6 -18 6 -28c0 -20 -7.33301 -37.667 -22 -53s-32.334 -23 -53.001 -23s-38.334 7.66699 -53.001 23
s-22 33 -22 53z" />
    <glyph glyph-name="cedilla" unicode="&#xb8;" horiz-adv-x="241" 
d="M27 -160c12 -5.33301 23 -9.33398 33 -12.001s20.667 -4 32 -4c6.66699 0 13.667 0.5 21 1.5s14 3 20 6s10.833 7.16699 14.5 12.5s5.5 12.333 5.5 21c0 12.667 -4.83301 22.167 -14.5 28.5s-20.167 9.5 -31.5 9.5c-15.333 0 -28.333 -3.33301 -39 -10l-22 19l66 88h48
l-46 -59l1 -1c7.33301 2.66699 18.333 4 33 4c10 0 20 -1.5 30 -4.5s19 -7.66699 27 -14s14.667 -14.166 20 -23.499s8 -20.333 8 -33c0 -16.667 -3.66699 -30.834 -11 -42.501s-16.666 -21.167 -27.999 -28.5s-24.166 -12.666 -38.499 -15.999s-28.833 -5 -43.5 -5
c-18.667 0 -36.834 1.83301 -54.501 5.5s-33.834 9.5 -48.501 17.5z" />
    <glyph glyph-name="onesuperior" unicode="&#xb9;" horiz-adv-x="360" 
d="M36 635c34 0 63.832 5.33301 89.499 16s41.834 28.667 48.501 54h70v-432h-87v304h-121v58z" />
    <glyph glyph-name="ordmasculine" unicode="&#xba;" horiz-adv-x="380" 
d="M371 543c0 -52 -15 -93.333 -45 -124s-74.333 -46 -133 -46s-103 15.333 -133 46s-45 72 -45 124s15 93.5 45 124.5s74.333 46.5 133 46.5s103 -15.5 133 -46.5s45 -72.5 45 -124.5zM284 543c0 12.667 -1.83398 25.334 -5.50098 38.001s-9.33398 24 -17.001 34
s-17.167 18.167 -28.5 24.5s-24.666 9.5 -39.999 9.5s-28.833 -3.16699 -40.5 -9.5s-21.167 -14.5 -28.5 -24.5s-12.833 -21.333 -16.5 -34s-5.5 -25.334 -5.5 -38.001s1.83301 -25.167 5.5 -37.5s9.16699 -23.5 16.5 -33.5s16.833 -18.167 28.5 -24.5
s25.167 -9.5 40.5 -9.5c16 0 29.667 3.16699 41 9.5s20.5 14.5 27.5 24.5s12.333 21.167 16 33.5s5.83398 24.833 6.50098 37.5z" />
    <glyph glyph-name="guillemotright" unicode="&#xbb;" horiz-adv-x="463" 
d="M413 328v-112l-155 -123v103l95 76l-95 76v103zM215 328v-112l-155 -123v103l95 76l-95 76v103z" />
    <glyph glyph-name="onequarter" unicode="&#xbc;" horiz-adv-x="834" 
d="M560 724h78l-418 -748h-79zM37 635c34 0 63.832 5.33301 89.499 16s41.834 28.667 48.501 54h70v-432h-87v304h-121v58zM631.999 330h-2l-117 -158h119v158zM718.999 0h-87v97h-195v81l185 250h97v-256h47v-75h-47v-97z" />
    <glyph glyph-name="onehalf" unicode="&#xbd;" horiz-adv-x="834" 
d="M788 0l-315.007 -0.00488281c0 33.333 5.83301 61.333 17.5 84s26.334 42 44.001 58s36.834 29.833 57.501 41.5s39.834 23.334 57.501 35.001s32.334 24.5 44.001 38.5s17.5 31.333 17.5 52c0 21.333 -7 37.833 -21 49.5s-31.333 17.5 -52 17.5
c-14 0 -25.667 -2.83301 -35 -8.5s-16.666 -13.167 -21.999 -22.5s-9.16602 -19.833 -11.499 -31.5s-3.83301 -23.5 -4.5 -35.5h-87c0 52 14.167 93 42.5 123s68.833 45 121.5 45c21.333 0 41.5 -2.66699 60.5 -8s35.5 -13.666 49.5 -24.999s25.167 -25.5 33.5 -42.5
s12.5 -36.833 12.5 -59.5c0 -17.333 -2.83301 -32.666 -8.5 -45.999s-13.167 -25.666 -22.5 -36.999s-20.166 -21.666 -32.499 -30.999s-25.166 -18.333 -38.499 -27l-75.5 -47c-23.667 -15.333 -38.834 -33 -45.501 -53h213v-70zM35.9932 634.995
c34 0 63.832 5.33301 89.499 16s41.834 28.667 48.501 54h70v-432h-87v304h-121v58zM555.992 723.995h78l-418 -748h-79z" />
    <glyph glyph-name="threequarters" unicode="&#xbe;" horiz-adv-x="834" 
d="M146 532c12.667 -0.666992 24.999 0.000976562 36.999 2.00098s22.667 5.5 32 10.5s17 11.5 23 19.5s9 18 9 30c0 8.66699 -2.16699 16.167 -6.5 22.5s-9.83301 11.5 -16.5 15.5s-14 7 -22 9s-16 3 -24 3c-22 0 -40 -7.16699 -54 -21.5s-20.333 -32.5 -19 -54.5h-80
c2 46 16.667 81.833 44 107.5s64 38.5 110 38.5c18.667 0 36.834 -2 54.501 -6s33.5 -10.667 47.5 -20s25.167 -21.333 33.5 -36s12.5 -32.667 12.5 -54s-5.33301 -39.833 -16 -55.5s-26.667 -27.167 -48 -34.5v-2c25.333 -4.66699 45.333 -16.334 60 -35.001s22 -42 22 -70
c0 -22 -4.33301 -41.5 -13 -58.5s-20.5 -31.333 -35.5 -43s-32.5 -20.5 -52.5 -26.5s-41.333 -9 -64 -9c-54.667 0 -95.334 13.667 -122.001 41s-40.667 65.333 -42 114h80c-1.33301 -23.333 5.33398 -43.333 20.001 -60s36 -25 64 -25c23.333 0 43.333 6.33301 60 19
s25 30 25 52c0 16 -3.5 28.667 -10.5 38s-16 16.5 -27 21.5s-23.667 8 -38 9s-28.833 1.16699 -43.5 0.5v58zM614.999 724.001h78l-418 -748h-79zM668.999 330.001h-2l-117 -158h119v158zM755.999 0.000976562h-87v97h-195v81l183 250h99v-256h47v-75h-47v-97z" />
    <glyph glyph-name="questiondown" unicode="&#xbf;" 
d="M344 531v-125h-134v125h134zM507 39c0 -35.333 -5.49707 -67.6719 -16.4971 -97.0049s-27 -54.5 -48 -75.5s-46.333 -37.333 -76 -49s-62.834 -17.5 -99.501 -17.5c-30.667 0 -59.167 4.5 -85.5 13.5s-49.333 21.833 -69 38.5s-35.167 37.167 -46.5 61.5
s-17 52.166 -17 83.499c0 23.333 2.5 43.5 7.5 60.5s11.5 31.667 19.5 44s17.333 23.333 28 33l33 28.5c12.667 10.667 24.334 21 35.001 31s20 21.167 28 33.5s14.167 26.833 18.5 43.5s6.5 37 6.5 61h108c0 -29.333 -1.5 -54.166 -4.5 -74.499
s-7.83301 -38.166 -14.5 -53.499s-14.834 -28.833 -24.501 -40.5s-21.167 -23.167 -34.5 -34.5l-30.5 -26.5c-9.66699 -8.33301 -18.334 -17.166 -26.001 -26.499s-13.667 -20 -18 -32s-6.5 -26.333 -6.5 -43c0 -19.333 3.33301 -35.666 10 -48.999s15 -24.166 25 -32.499
s20.667 -14.5 32 -18.5s21.666 -6 30.999 -6c42 0 72.667 13.333 92 40s29 61.334 29 104.001h114z" />
    <glyph glyph-name="Agrave" unicode="&#xc0;" horiz-adv-x="667" 
d="M267 714h133l275 -714h-134l-67 189h-285l-67 -189h-129zM223 284h218l-107 307h-3zM305 926l91 -143h-83l-142 143h134z" />
    <glyph glyph-name="Aacute" unicode="&#xc1;" horiz-adv-x="667" 
d="M267 714h133l275 -714h-134l-67 189h-285l-67 -189h-129zM223 284h218l-107 307h-3zM364 926h135l-142 -143h-83z" />
    <glyph glyph-name="Acircumflex" unicode="&#xc2;" horiz-adv-x="667" 
d="M267 714h133l275 -714h-134l-67 189h-285l-67 -189h-129zM223 284h218l-107 307h-3zM262 783h-92l107 143h111l108 -143h-93l-71 90z" />
    <glyph glyph-name="Atilde" unicode="&#xc3;" horiz-adv-x="667" 
d="M267 714h133l275 -714h-134l-67 189h-285l-67 -189h-129zM223 284h218l-107 307h-3zM511 914c-2.66699 -16 -6.50195 -31.001 -11.502 -45.001s-12.167 -26 -21.5 -36c-8.66699 -10.667 -19.334 -19 -32.001 -25s-28 -9 -46 -9c-11.333 0 -23.333 1.83301 -36 5.5
s-25.334 8.16699 -38.001 13.5c-15.333 6.66699 -27.666 11.334 -36.999 14.001s-19.666 4 -30.999 4c-23.333 0 -37.666 -13.667 -42.999 -41h-57c2 12.667 5.66699 25.667 11 39s12.333 25.5 21 36.5s19 20 31 27s25.667 10.5 41 10.5c12.667 0 24.167 -1.16699 34.5 -3.5
s25.833 -7.83301 46.5 -16.5c14 -6 25.5 -10.5 34.5 -13.5s18.167 -4.5 27.5 -4.5c14.667 0 25.834 4 33.501 12s13.167 18.667 16.5 32h56z" />
    <glyph glyph-name="Adieresis" unicode="&#xc4;" horiz-adv-x="667" 
d="M267 714h133l275 -714h-134l-67 189h-285l-67 -189h-129zM223 284h218l-107 307h-3zM190 796v108h114v-108h-114zM476 904v-108h-114v108h114z" />
    <glyph glyph-name="Aring" unicode="&#xc5;" horiz-adv-x="667" 
d="M267 714h133l275 -714h-134l-67 189h-285l-67 -189h-129zM223 284h218l-107 307h-3zM272 854c0 -17.333 5.83301 -31.833 17.5 -43.5s25.834 -17.5 42.501 -17.5c17.333 0 31.666 5.83301 42.999 17.5s17 26.167 17 43.5c0 18 -5.66699 32.667 -17 44
s-25.666 17 -42.999 17c-16.667 0 -30.834 -5.66699 -42.501 -17s-17.5 -26 -17.5 -44zM332 751c-28.667 0 -53.168 9.5 -73.501 28.5s-30.5 43.833 -30.5 74.5c0 15.333 2.83301 29.333 8.5 42s13.334 23.5 23.001 32.5s20.667 16 33 21s25.5 7.5 39.5 7.5
s27.333 -2.5 40 -7.5s23.667 -12 33 -21s16.833 -19.833 22.5 -32.5s8.5 -26.667 8.5 -42s-2.83301 -29.333 -8.5 -42s-13.167 -23.5 -22.5 -32.5s-20.333 -16 -33 -21s-26 -7.5 -40 -7.5z" />
    <glyph glyph-name="AE" unicode="&#xc6;" horiz-adv-x="963" 
d="M348 714h576v-108h-348v-187h326v-102h-326v-209h354v-108h-473v183h-239l-86 -183h-139zM264 278h193v328h-36z" />
    <glyph glyph-name="Ccedilla" unicode="&#xc7;" horiz-adv-x="722" 
d="M684 272c-2.66699 -42.667 -11.666 -81.498 -26.999 -116.498s-36 -65 -62 -90s-56.667 -44.667 -92 -59s-74 -21.833 -116 -22.5l-32 -42v-2c4 1.33301 8.66699 2.16602 14 2.49902s11.666 0.5 18.999 0.5c10 0 20 -1.5 30 -4.5s19 -7.5 27 -13.5s14.667 -13.667 20 -23
s8 -20.333 8 -33c0 -17.333 -3.66699 -31.666 -11 -42.999s-16.666 -20.5 -27.999 -27.5s-24.166 -12 -38.499 -15s-28.833 -4.5 -43.5 -4.5c-15.333 0 -33 1.66699 -53 5s-36.667 8.66602 -50 15.999l18 40l32 -10.5c10.667 -3.66699 21.667 -5.5 33 -5.5
c6.66699 0 13.667 0.5 21 1.5s14 3 20 6s10.833 7.16699 14.5 12.5s5.5 12.333 5.5 21c0 12.667 -4.83301 22.167 -14.5 28.5s-20.167 9.5 -31.5 9.5c-15.333 0 -28.333 -3.33301 -39 -10l-22 19l55 73c-47.333 4.66699 -89.833 17.667 -127.5 39s-69.5 48.833 -95.5 82.5
s-45.833 71.834 -59.5 114.501s-20.5 88 -20.5 136c0 50.667 7.83301 98.667 23.5 144s38.167 85 67.5 119s65.166 61 107.499 81s90.166 30 143.499 30c40.667 0 78.5 -5.5 113.5 -16.5s65.833 -27 92.5 -48s48.5 -46.5 65.5 -76.5s27.5 -64.333 31.5 -103h-125
c-10.667 42 -30 76.167 -58 102.5s-68 39.5 -120 39.5c-38 0 -70.833 -7.66699 -98.5 -23s-50.167 -35.833 -67.5 -61.5s-30.166 -54.834 -38.499 -87.501s-12.5 -66 -12.5 -100s4.16699 -67.333 12.5 -100s21.166 -61.834 38.499 -87.501s39.833 -46.167 67.5 -61.5
s60.5 -23 98.5 -23c28 0 52.667 4.83301 74 14.5s39.5 23 54.5 40s27 36.833 36 59.5s14.833 47 17.5 73h122z" />
    <glyph glyph-name="Egrave" unicode="&#xc8;" horiz-adv-x="630" 
d="M76 714h514v-108h-389v-187h360v-102h-360v-209h396v-108h-521v714zM291 926l91 -143h-83l-142 143h134z" />
    <glyph glyph-name="Eacute" unicode="&#xc9;" horiz-adv-x="630" 
d="M76 714h514v-108h-389v-187h360v-102h-360v-209h396v-108h-521v714zM375 926h135l-142 -143h-83z" />
    <glyph glyph-name="Ecircumflex" unicode="&#xca;" horiz-adv-x="630" 
d="M76 714h514v-108h-389v-187h360v-102h-360v-209h396v-108h-521v714zM263 783h-92l107 143h111l108 -143h-93l-71 90z" />
    <glyph glyph-name="Edieresis" unicode="&#xcb;" horiz-adv-x="630" 
d="M76 714h514v-108h-389v-187h360v-102h-360v-209h396v-108h-521v714zM188 796v108h114v-108h-114zM474 904v-108h-114v108h114z" />
    <glyph glyph-name="Igrave" unicode="&#xcc;" horiz-adv-x="278" 
d="M76 714h125v-714h-125v714zM110 926l91 -143h-83l-142 143h134z" />
    <glyph glyph-name="Iacute" unicode="&#xcd;" horiz-adv-x="278" 
d="M76 714h125v-714h-125v714zM167 926h135l-142 -143h-83z" />
    <glyph glyph-name="Icircumflex" unicode="&#xce;" horiz-adv-x="278" 
d="M76 714h125v-714h-125v714zM68 783h-92l107 143h111l108 -143h-93l-71 90z" />
    <glyph glyph-name="Idieresis" unicode="&#xcf;" horiz-adv-x="278" 
d="M76 714h125v-714h-125v714zM-6 796v108h114v-108h-114zM280 904v-108h-114v108h114z" />
    <glyph glyph-name="Eth" unicode="&#xd0;" horiz-adv-x="722" 
d="M201 419h195v-102h-195v-215h123c48.667 0 88.5 6.5 119.5 19.5s55.333 31 73 54s29.667 50 36 81s9.5 64.5 9.5 100.5s-3.16699 69.5 -9.5 100.5s-18.333 58 -36 81s-42 41 -73 54s-70.833 19.5 -119.5 19.5h-123v-193zM76 317l-67 -0.00390625v102h67v295h296
c54.667 0 102 -9.33301 142 -28s72.667 -44.167 98 -76.5s44.166 -70.166 56.499 -113.499s18.5 -89.666 18.5 -138.999s-6.16699 -95.666 -18.5 -138.999s-31.166 -81.166 -56.499 -113.499s-58 -57.833 -98 -76.5s-87.333 -28 -142 -28h-296v317z" />
    <glyph glyph-name="Ntilde" unicode="&#xd1;" horiz-adv-x="722" 
d="M71 714h132l326 -526h2v526h119v-714h-132l-325 525h-3v-525h-119v714zM538 914c-2.66699 -16 -6.50195 -31.001 -11.502 -45.001s-12.167 -26 -21.5 -36c-8.66699 -10.667 -19.334 -19 -32.001 -25s-28 -9 -46 -9c-11.333 0 -23.333 1.83301 -36 5.5
s-25.334 8.16699 -38.001 13.5c-15.333 6.66699 -27.666 11.334 -36.999 14.001s-19.666 4 -30.999 4c-23.333 0 -37.666 -13.667 -42.999 -41h-57c2 12.667 5.66699 25.667 11 39s12.333 25.5 21 36.5s19 20 31 27s25.667 10.5 41 10.5c12.667 0 24.167 -1.16699 34.5 -3.5
s25.833 -7.83301 46.5 -16.5c14 -6 25.5 -10.5 34.5 -13.5s18.167 -4.5 27.5 -4.5c14.667 0 25.834 4 33.501 12s13.167 18.667 16.5 32h56z" />
    <glyph glyph-name="Ograve" unicode="&#xd2;" horiz-adv-x="760" 
d="M380 629c-38 0 -70.833 -7.66699 -98.5 -23s-50.167 -35.833 -67.5 -61.5s-30.166 -54.834 -38.499 -87.501s-12.5 -66 -12.5 -100s4.16699 -67.333 12.5 -100s21.166 -61.834 38.499 -87.501s39.833 -46.167 67.5 -61.5s60.5 -23 98.5 -23s70.833 7.66699 98.5 23
s50.167 35.833 67.5 61.5s30.166 54.834 38.499 87.501s12.5 66 12.5 100s-4.16699 67.333 -12.5 100s-21.166 61.834 -38.499 87.501s-39.833 46.167 -67.5 61.5s-60.5 23 -98.5 23zM380 731c53.333 0 101.166 -10 143.499 -30s78.166 -47 107.499 -81
s51.833 -73.667 67.5 -119s23.5 -93.333 23.5 -144c0 -51.333 -7.83301 -99.666 -23.5 -144.999s-38.167 -85 -67.5 -119s-65.166 -60.833 -107.499 -80.5s-90.166 -29.5 -143.499 -29.5s-101.166 9.83301 -143.499 29.5s-78.166 46.5 -107.499 80.5
s-51.833 73.667 -67.5 119s-23.5 93.666 -23.5 144.999c0 50.667 7.83301 98.667 23.5 144s38.167 85 67.5 119s65.166 61 107.499 81s90.166 30 143.499 30zM341 926l91 -143h-83l-142 143h134z" />
    <glyph glyph-name="Oacute" unicode="&#xd3;" horiz-adv-x="760" 
d="M380 629c-38 0 -70.833 -7.66699 -98.5 -23s-50.167 -35.833 -67.5 -61.5s-30.166 -54.834 -38.499 -87.501s-12.5 -66 -12.5 -100s4.16699 -67.333 12.5 -100s21.166 -61.834 38.499 -87.501s39.833 -46.167 67.5 -61.5s60.5 -23 98.5 -23s70.833 7.66699 98.5 23
s50.167 35.833 67.5 61.5s30.166 54.834 38.499 87.501s12.5 66 12.5 100s-4.16699 67.333 -12.5 100s-21.166 61.834 -38.499 87.501s-39.833 46.167 -67.5 61.5s-60.5 23 -98.5 23zM380 731c53.333 0 101.166 -10 143.499 -30s78.166 -47 107.499 -81
s51.833 -73.667 67.5 -119s23.5 -93.333 23.5 -144c0 -51.333 -7.83301 -99.666 -23.5 -144.999s-38.167 -85 -67.5 -119s-65.166 -60.833 -107.499 -80.5s-90.166 -29.5 -143.499 -29.5s-101.166 9.83301 -143.499 29.5s-78.166 46.5 -107.499 80.5
s-51.833 73.667 -67.5 119s-23.5 93.666 -23.5 144.999c0 50.667 7.83301 98.667 23.5 144s38.167 85 67.5 119s65.166 61 107.499 81s90.166 30 143.499 30zM425 926h135l-142 -143h-83z" />
    <glyph glyph-name="Ocircumflex" unicode="&#xd4;" horiz-adv-x="760" 
d="M380 629c-38 0 -70.833 -7.66699 -98.5 -23s-50.167 -35.833 -67.5 -61.5s-30.166 -54.834 -38.499 -87.501s-12.5 -66 -12.5 -100s4.16699 -67.333 12.5 -100s21.166 -61.834 38.499 -87.501s39.833 -46.167 67.5 -61.5s60.5 -23 98.5 -23s70.833 7.66699 98.5 23
s50.167 35.833 67.5 61.5s30.166 54.834 38.499 87.501s12.5 66 12.5 100s-4.16699 67.333 -12.5 100s-21.166 61.834 -38.499 87.501s-39.833 46.167 -67.5 61.5s-60.5 23 -98.5 23zM380 731c53.333 0 101.166 -10 143.499 -30s78.166 -47 107.499 -81
s51.833 -73.667 67.5 -119s23.5 -93.333 23.5 -144c0 -51.333 -7.83301 -99.666 -23.5 -144.999s-38.167 -85 -67.5 -119s-65.166 -60.833 -107.499 -80.5s-90.166 -29.5 -143.499 -29.5s-101.166 9.83301 -143.499 29.5s-78.166 46.5 -107.499 80.5
s-51.833 73.667 -67.5 119s-23.5 93.666 -23.5 144.999c0 50.667 7.83301 98.667 23.5 144s38.167 85 67.5 119s65.166 61 107.499 81s90.166 30 143.499 30zM312 783h-92l107 143h111l108 -143h-93l-71 90z" />
    <glyph glyph-name="Otilde" unicode="&#xd5;" horiz-adv-x="760" 
d="M380 629c-38 0 -70.833 -7.66699 -98.5 -23s-50.167 -35.833 -67.5 -61.5s-30.166 -54.834 -38.499 -87.501s-12.5 -66 -12.5 -100s4.16699 -67.333 12.5 -100s21.166 -61.834 38.499 -87.501s39.833 -46.167 67.5 -61.5s60.5 -23 98.5 -23s70.833 7.66699 98.5 23
s50.167 35.833 67.5 61.5s30.166 54.834 38.499 87.501s12.5 66 12.5 100s-4.16699 67.333 -12.5 100s-21.166 61.834 -38.499 87.501s-39.833 46.167 -67.5 61.5s-60.5 23 -98.5 23zM380 731c53.333 0 101.166 -10 143.499 -30s78.166 -47 107.499 -81
s51.833 -73.667 67.5 -119s23.5 -93.333 23.5 -144c0 -51.333 -7.83301 -99.666 -23.5 -144.999s-38.167 -85 -67.5 -119s-65.166 -60.833 -107.499 -80.5s-90.166 -29.5 -143.499 -29.5s-101.166 9.83301 -143.499 29.5s-78.166 46.5 -107.499 80.5
s-51.833 73.667 -67.5 119s-23.5 93.666 -23.5 144.999c0 50.667 7.83301 98.667 23.5 144s38.167 85 67.5 119s65.166 61 107.499 81s90.166 30 143.499 30zM562 914c-2.66699 -16 -6.50195 -31.001 -11.502 -45.001s-12.167 -26 -21.5 -36
c-8.66699 -10.667 -19.334 -19 -32.001 -25s-28 -9 -46 -9c-11.333 0 -23.333 1.83301 -36 5.5s-25.334 8.16699 -38.001 13.5c-15.333 6.66699 -27.666 11.334 -36.999 14.001s-19.666 4 -30.999 4c-23.333 0 -37.666 -13.667 -42.999 -41h-57
c2 12.667 5.66699 25.667 11 39s12.333 25.5 21 36.5s19 20 31 27s25.667 10.5 41 10.5c12.667 0 24.167 -1.16699 34.5 -3.5s25.833 -7.83301 46.5 -16.5c14 -6 25.5 -10.5 34.5 -13.5s18.167 -4.5 27.5 -4.5c14.667 0 25.834 4 33.501 12s13.167 18.667 16.5 32h56z" />
    <glyph glyph-name="Odieresis" unicode="&#xd6;" horiz-adv-x="760" 
d="M380 629c-38 0 -70.833 -7.66699 -98.5 -23s-50.167 -35.833 -67.5 -61.5s-30.166 -54.834 -38.499 -87.501s-12.5 -66 -12.5 -100s4.16699 -67.333 12.5 -100s21.166 -61.834 38.499 -87.501s39.833 -46.167 67.5 -61.5s60.5 -23 98.5 -23s70.833 7.66699 98.5 23
s50.167 35.833 67.5 61.5s30.166 54.834 38.499 87.501s12.5 66 12.5 100s-4.16699 67.333 -12.5 100s-21.166 61.834 -38.499 87.501s-39.833 46.167 -67.5 61.5s-60.5 23 -98.5 23zM380 731c53.333 0 101.166 -10 143.499 -30s78.166 -47 107.499 -81
s51.833 -73.667 67.5 -119s23.5 -93.333 23.5 -144c0 -51.333 -7.83301 -99.666 -23.5 -144.999s-38.167 -85 -67.5 -119s-65.166 -60.833 -107.499 -80.5s-90.166 -29.5 -143.499 -29.5s-101.166 9.83301 -143.499 29.5s-78.166 46.5 -107.499 80.5
s-51.833 73.667 -67.5 119s-23.5 93.666 -23.5 144.999c0 50.667 7.83301 98.667 23.5 144s38.167 85 67.5 119s65.166 61 107.499 81s90.166 30 143.499 30zM238 796v108h114v-108h-114zM524 904v-108h-114v108h114z" />
    <glyph glyph-name="multiply" unicode="&#xd7;" horiz-adv-x="600" 
d="M55 427l86 56l158 -159l160 159l86 -56l-175 -174l175 -174l-86 -56l-160 160l-158 -160l-86 56l174 174z" />
    <glyph glyph-name="Oslash" unicode="&#xd8;" horiz-adv-x="760" 
d="M720 698l-79 -89.001c26 -34 46 -72.333 60 -115s21 -88.334 21 -137.001c0 -51.333 -7.83301 -99.666 -23.5 -144.999s-38.167 -85 -67.5 -119s-65.166 -60.833 -107.499 -80.5s-90.166 -29.5 -143.499 -29.5c-46 0 -87.5 7.33301 -124.5 22s-69.5 34.667 -97.5 60
l-76 -85l-42 36l79 90c-26 34 -46 72.167 -60 114.5s-21 87.833 -21 136.5c0 50.667 7.83301 98.667 23.5 144s38.167 85 67.5 119s65.166 61 107.499 81s90.166 30 143.499 30c46 0 87.5 -7.16699 124.5 -21.5s69.5 -34.166 97.5 -59.499l75 84zM232 147.999
c18 -19.333 39.168 -34.6689 63.501 -46.002s52.5 -17 84.5 -17c38 0 70.833 7.66699 98.5 23s50.167 35.833 67.5 61.5s30.166 54.834 38.499 87.501s12.5 66 12.5 100c0 28.667 -2.83301 56.834 -8.5 84.501s-15.167 53.167 -28.5 76.5zM528.001 565.996
c-16.667 19.333 -37.002 34.668 -61.002 46.001s-53 17 -87 17c-38 0 -70.833 -7.66699 -98.5 -23s-50.167 -35.833 -67.5 -61.5s-30.166 -54.834 -38.499 -87.501s-12.5 -66 -12.5 -100c0 -30 2.83301 -58.5 8.5 -85.5s14.834 -52.167 27.501 -75.5z" />
    <glyph glyph-name="Ugrave" unicode="&#xd9;" horiz-adv-x="722" 
d="M68 714h125v-416c0 -24 1.16699 -48.333 3.5 -73s9 -46.834 20 -66.501s27.667 -35.834 50 -48.501s53.833 -19 94.5 -19s72.167 6.33301 94.5 19s39 28.834 50 48.501s17.667 41.834 20 66.501s3.5 49 3.5 73v416h125v-457c0 -46 -7 -86 -21 -120
s-33.833 -62.5 -59.5 -85.5s-56.5 -40.167 -92.5 -51.5s-76 -17 -120 -17s-84 5.66699 -120 17s-66.833 28.5 -92.5 51.5s-45.5 51.5 -59.5 85.5s-21 74 -21 120v457zM322 926l91 -143h-83l-142 143h134z" />
    <glyph glyph-name="Uacute" unicode="&#xda;" horiz-adv-x="722" 
d="M68 714h125v-416c0 -24 1.16699 -48.333 3.5 -73s9 -46.834 20 -66.501s27.667 -35.834 50 -48.501s53.833 -19 94.5 -19s72.167 6.33301 94.5 19s39 28.834 50 48.501s17.667 41.834 20 66.501s3.5 49 3.5 73v416h125v-457c0 -46 -7 -86 -21 -120
s-33.833 -62.5 -59.5 -85.5s-56.5 -40.167 -92.5 -51.5s-76 -17 -120 -17s-84 5.66699 -120 17s-66.833 28.5 -92.5 51.5s-45.5 51.5 -59.5 85.5s-21 74 -21 120v457zM405 926h135l-142 -143h-83z" />
    <glyph glyph-name="Ucircumflex" unicode="&#xdb;" horiz-adv-x="722" 
d="M68 714h125v-416c0 -24 1.16699 -48.333 3.5 -73s9 -46.834 20 -66.501s27.667 -35.834 50 -48.501s53.833 -19 94.5 -19s72.167 6.33301 94.5 19s39 28.834 50 48.501s17.667 41.834 20 66.501s3.5 49 3.5 73v416h125v-457c0 -46 -7 -86 -21 -120
s-33.833 -62.5 -59.5 -85.5s-56.5 -40.167 -92.5 -51.5s-76 -17 -120 -17s-84 5.66699 -120 17s-66.833 28.5 -92.5 51.5s-45.5 51.5 -59.5 85.5s-21 74 -21 120v457zM292 783h-92l107 143h111l108 -143h-93l-71 90z" />
    <glyph glyph-name="Udieresis" unicode="&#xdc;" horiz-adv-x="722" 
d="M68 714h125v-416c0 -24 1.16699 -48.333 3.5 -73s9 -46.834 20 -66.501s27.667 -35.834 50 -48.501s53.833 -19 94.5 -19s72.167 6.33301 94.5 19s39 28.834 50 48.501s17.667 41.834 20 66.501s3.5 49 3.5 73v416h125v-457c0 -46 -7 -86 -21 -120
s-33.833 -62.5 -59.5 -85.5s-56.5 -40.167 -92.5 -51.5s-76 -17 -120 -17s-84 5.66699 -120 17s-66.833 28.5 -92.5 51.5s-45.5 51.5 -59.5 85.5s-21 74 -21 120v457zM217 796v108h114v-108h-114zM503 904v-108h-114v108h114z" />
    <glyph glyph-name="Yacute" unicode="&#xdd;" horiz-adv-x="648" 
d="M262 280l-268 434h145l189 -320l186 320h140l-267 -434v-280h-125v280zM373 926h135l-142 -143h-83z" />
    <glyph glyph-name="Thorn" unicode="&#xde;" horiz-adv-x="667" 
d="M201 268l183.001 0.000976562c14 0 28.333 2 43 6s28.167 10.5 40.5 19.5s22.333 21 30 36s11.5 33.833 11.5 56.5c0 23.333 -3.33301 42.666 -10 57.999s-15.667 27.5 -27 36.5s-24.333 15.167 -39 18.5s-30.334 5 -47.001 5h-185v-236zM76.001 714.001h125v-108h190
c50.667 0 92 -7.33301 124 -22s56.667 -33 74 -55s29.166 -46 35.499 -72s9.5 -50 9.5 -72s-3.16699 -45.833 -9.5 -71.5s-18.166 -49.5 -35.499 -71.5s-42 -40.167 -74 -54.5s-73.333 -21.5 -124 -21.5h-190v-166h-125v714z" />
    <glyph glyph-name="germandbls" unicode="&#xdf;" horiz-adv-x="574" 
d="M63 523c0 32.667 5.49707 61.834 16.4971 87.501s26.167 47.5 45.5 65.5s42.333 31.667 69 41s56 14 88 14c26.667 0 52.834 -4 78.501 -12s48.5 -19.667 68.5 -35s36 -34.166 48 -56.499s18 -47.833 18 -76.5c0 -34 -8.33301 -65 -25 -93s-42.334 -47.333 -77.001 -58
v-2c20.667 -2.66699 39.334 -9.33398 56.001 -20.001s30.834 -23.667 42.501 -39s20.5 -32.666 26.5 -51.999s9 -39.333 9 -60c0 -34.667 -5.33301 -66.667 -16 -96s-25.834 -54.833 -45.501 -76.5s-43.667 -38.5 -72 -50.5s-60.166 -18 -95.499 -18
c-18.667 0 -37.334 1 -56.001 3v90c5.33301 -1.33301 10.833 -2.16602 16.5 -2.49902s13.167 -0.5 22.5 -0.5c29.333 0 52.833 5 70.5 15s31 22.5 40 37.5s14.833 31.667 17.5 50s4 36.166 4 53.499c0 24.667 -5 44.834 -15 60.501s-23.333 28.167 -40 37.5
c-15.333 10 -33.5 16.667 -54.5 20s-41.167 5 -60.5 5v75c20 0 38.833 2 56.5 6s31.834 10.667 42.501 20c12 9.33301 21.5 20.833 28.5 34.5s10.5 30.167 10.5 49.5c0 67.333 -33.667 101 -101 101c-11.333 0 -23.166 -1.83301 -35.499 -5.5s-23.5 -10.334 -33.5 -20.001
s-18.167 -22.834 -24.5 -39.501s-9.5 -38.334 -9.5 -65.001v-511h-114v523z" />
    <glyph glyph-name="agrave" unicode="&#xe0;" 
d="M493 115c0 -14 1.83203 -23.9971 5.49902 -29.9971s10.834 -9 21.501 -9h12c2.66699 0 5.16699 0.166992 7.5 0.5s5.16602 0.833008 8.49902 1.5v-79c-4 -1.33301 -9.16699 -2.83301 -15.5 -4.5s-12.833 -3.16699 -19.5 -4.5s-13.334 -2.33301 -20.001 -3
s-12.334 -1 -17.001 -1c-23.333 0 -42.666 4.66699 -57.999 14s-25.333 25.666 -30 48.999c-22.667 -22 -50.5 -38 -83.5 -48s-64.833 -15 -95.5 -15c-23.333 0 -45.666 3.16699 -66.999 9.5s-40.166 15.666 -56.499 27.999s-29.333 28 -39 47s-14.5 41.167 -14.5 66.5
c0 32 5.83301 58 17.5 78s27 35.667 46 47s40.333 19.5 64 24.5s47.5 8.83301 71.5 11.5c20.667 4 40.334 6.83301 59.001 8.5s35.167 4.5 49.5 8.5s25.666 10 33.999 18s12.5 20.667 12.5 38c0 14.667 -3.5 26.667 -10.5 36s-15.667 16.5 -26 21.5
s-21.833 8.33301 -34.5 10s-24.667 2.5 -36 2.5c-32 0 -58.333 -6.66699 -79 -20s-32.334 -34 -35.001 -62h-114c2 33.333 10 61 24 83s31.833 39.667 53.5 53s46.167 22.666 73.5 27.999s55.333 8 84 8c25.333 0 50.333 -2.66699 75 -8s46.834 -14 66.501 -26
s35.5 -27.5 47.5 -46.5s18 -42.167 18 -69.5v-266zM378.999 259.003c-8.66699 -6 -18.499 -10.502 -29.499 -13.502s-22.5 -5.5 -34.5 -7.5s-24.5 -3.66699 -37.5 -5s-25.833 -3 -38.5 -5c-12 -2 -23.667 -4.83301 -35 -8.5s-21.333 -8.66699 -30 -15
s-15.5 -14.666 -20.5 -24.999s-7.5 -22.833 -7.5 -37.5c0 -13.333 3.66699 -24.166 11 -32.499s16.166 -15 26.499 -20s21.666 -8.5 33.999 -10.5s23.5 -3 33.5 -3c12.667 0 26.334 1.66699 41.001 5s28.5 9 41.5 17s23.833 18.167 32.5 30.5s13 27.5 13 45.5v85z
M247 732.001l91 -143h-83l-142 143h134z" />
    <glyph glyph-name="aacute" unicode="&#xe1;" 
d="M493 115c0 -14 1.83203 -23.9971 5.49902 -29.9971s10.834 -9 21.501 -9h12c2.66699 0 5.16699 0.166992 7.5 0.5s5.16602 0.833008 8.49902 1.5v-79c-4 -1.33301 -9.16699 -2.83301 -15.5 -4.5s-12.833 -3.16699 -19.5 -4.5s-13.334 -2.33301 -20.001 -3
s-12.334 -1 -17.001 -1c-23.333 0 -42.666 4.66699 -57.999 14s-25.333 25.666 -30 48.999c-22.667 -22 -50.5 -38 -83.5 -48s-64.833 -15 -95.5 -15c-23.333 0 -45.666 3.16699 -66.999 9.5s-40.166 15.666 -56.499 27.999s-29.333 28 -39 47s-14.5 41.167 -14.5 66.5
c0 32 5.83301 58 17.5 78s27 35.667 46 47s40.333 19.5 64 24.5s47.5 8.83301 71.5 11.5c20.667 4 40.334 6.83301 59.001 8.5s35.167 4.5 49.5 8.5s25.666 10 33.999 18s12.5 20.667 12.5 38c0 14.667 -3.5 26.667 -10.5 36s-15.667 16.5 -26 21.5
s-21.833 8.33301 -34.5 10s-24.667 2.5 -36 2.5c-32 0 -58.333 -6.66699 -79 -20s-32.334 -34 -35.001 -62h-114c2 33.333 10 61 24 83s31.833 39.667 53.5 53s46.167 22.666 73.5 27.999s55.333 8 84 8c25.333 0 50.333 -2.66699 75 -8s46.834 -14 66.501 -26
s35.5 -27.5 47.5 -46.5s18 -42.167 18 -69.5v-266zM378.999 259.003c-8.66699 -6 -18.499 -10.502 -29.499 -13.502s-22.5 -5.5 -34.5 -7.5s-24.5 -3.66699 -37.5 -5s-25.833 -3 -38.5 -5c-12 -2 -23.667 -4.83301 -35 -8.5s-21.333 -8.66699 -30 -15
s-15.5 -14.666 -20.5 -24.999s-7.5 -22.833 -7.5 -37.5c0 -13.333 3.66699 -24.166 11 -32.499s16.166 -15 26.499 -20s21.666 -8.5 33.999 -10.5s23.5 -3 33.5 -3c12.667 0 26.334 1.66699 41.001 5s28.5 9 41.5 17s23.833 18.167 32.5 30.5s13 27.5 13 45.5v85z
M321 732.001h135l-142 -143h-83z" />
    <glyph glyph-name="acircumflex" unicode="&#xe2;" 
d="M493 115c0 -14 1.83203 -23.9971 5.49902 -29.9971s10.834 -9 21.501 -9h12c2.66699 0 5.16699 0.166992 7.5 0.5s5.16602 0.833008 8.49902 1.5v-79c-4 -1.33301 -9.16699 -2.83301 -15.5 -4.5s-12.833 -3.16699 -19.5 -4.5s-13.334 -2.33301 -20.001 -3
s-12.334 -1 -17.001 -1c-23.333 0 -42.666 4.66699 -57.999 14s-25.333 25.666 -30 48.999c-22.667 -22 -50.5 -38 -83.5 -48s-64.833 -15 -95.5 -15c-23.333 0 -45.666 3.16699 -66.999 9.5s-40.166 15.666 -56.499 27.999s-29.333 28 -39 47s-14.5 41.167 -14.5 66.5
c0 32 5.83301 58 17.5 78s27 35.667 46 47s40.333 19.5 64 24.5s47.5 8.83301 71.5 11.5c20.667 4 40.334 6.83301 59.001 8.5s35.167 4.5 49.5 8.5s25.666 10 33.999 18s12.5 20.667 12.5 38c0 14.667 -3.5 26.667 -10.5 36s-15.667 16.5 -26 21.5
s-21.833 8.33301 -34.5 10s-24.667 2.5 -36 2.5c-32 0 -58.333 -6.66699 -79 -20s-32.334 -34 -35.001 -62h-114c2 33.333 10 61 24 83s31.833 39.667 53.5 53s46.167 22.666 73.5 27.999s55.333 8 84 8c25.333 0 50.333 -2.66699 75 -8s46.834 -14 66.501 -26
s35.5 -27.5 47.5 -46.5s18 -42.167 18 -69.5v-266zM378.999 259.003c-8.66699 -6 -18.499 -10.502 -29.499 -13.502s-22.5 -5.5 -34.5 -7.5s-24.5 -3.66699 -37.5 -5s-25.833 -3 -38.5 -5c-12 -2 -23.667 -4.83301 -35 -8.5s-21.333 -8.66699 -30 -15
s-15.5 -14.666 -20.5 -24.999s-7.5 -22.833 -7.5 -37.5c0 -13.333 3.66699 -24.166 11 -32.499s16.166 -15 26.499 -20s21.666 -8.5 33.999 -10.5s23.5 -3 33.5 -3c12.667 0 26.334 1.66699 41.001 5s28.5 9 41.5 17s23.833 18.167 32.5 30.5s13 27.5 13 45.5v85z
M213 589.001h-92l107 143h111l108 -143h-93l-71 90z" />
    <glyph glyph-name="atilde" unicode="&#xe3;" 
d="M493 115c0 -14 1.83203 -23.9971 5.49902 -29.9971s10.834 -9 21.501 -9h12c2.66699 0 5.16699 0.166992 7.5 0.5s5.16602 0.833008 8.49902 1.5v-79c-4 -1.33301 -9.16699 -2.83301 -15.5 -4.5s-12.833 -3.16699 -19.5 -4.5s-13.334 -2.33301 -20.001 -3
s-12.334 -1 -17.001 -1c-23.333 0 -42.666 4.66699 -57.999 14s-25.333 25.666 -30 48.999c-22.667 -22 -50.5 -38 -83.5 -48s-64.833 -15 -95.5 -15c-23.333 0 -45.666 3.16699 -66.999 9.5s-40.166 15.666 -56.499 27.999s-29.333 28 -39 47s-14.5 41.167 -14.5 66.5
c0 32 5.83301 58 17.5 78s27 35.667 46 47s40.333 19.5 64 24.5s47.5 8.83301 71.5 11.5c20.667 4 40.334 6.83301 59.001 8.5s35.167 4.5 49.5 8.5s25.666 10 33.999 18s12.5 20.667 12.5 38c0 14.667 -3.5 26.667 -10.5 36s-15.667 16.5 -26 21.5
s-21.833 8.33301 -34.5 10s-24.667 2.5 -36 2.5c-32 0 -58.333 -6.66699 -79 -20s-32.334 -34 -35.001 -62h-114c2 33.333 10 61 24 83s31.833 39.667 53.5 53s46.167 22.666 73.5 27.999s55.333 8 84 8c25.333 0 50.333 -2.66699 75 -8s46.834 -14 66.501 -26
s35.5 -27.5 47.5 -46.5s18 -42.167 18 -69.5v-266zM378.999 259.003c-8.66699 -6 -18.499 -10.502 -29.499 -13.502s-22.5 -5.5 -34.5 -7.5s-24.5 -3.66699 -37.5 -5s-25.833 -3 -38.5 -5c-12 -2 -23.667 -4.83301 -35 -8.5s-21.333 -8.66699 -30 -15
s-15.5 -14.666 -20.5 -24.999s-7.5 -22.833 -7.5 -37.5c0 -13.333 3.66699 -24.166 11 -32.499s16.166 -15 26.499 -20s21.666 -8.5 33.999 -10.5s23.5 -3 33.5 -3c12.667 0 26.334 1.66699 41.001 5s28.5 9 41.5 17s23.833 18.167 32.5 30.5s13 27.5 13 45.5v85z
M461 720.001c-2.66699 -16 -6.50195 -31.001 -11.502 -45.001s-12.167 -26 -21.5 -36c-8.66699 -10.667 -19.334 -19 -32.001 -25s-28 -9 -46 -9c-11.333 0 -23.333 1.83301 -36 5.5s-25.334 8.16699 -38.001 13.5c-15.333 6.66699 -27.666 11.334 -36.999 14.001
s-19.666 4 -30.999 4c-23.333 0 -37.666 -13.667 -42.999 -41h-57c2 12.667 5.66699 25.667 11 39s12.333 25.5 21 36.5s19 20 31 27s25.667 10.5 41 10.5c12.667 0 24.167 -1.16699 34.5 -3.5s25.833 -7.83301 46.5 -16.5c14 -6 25.5 -10.5 34.5 -13.5
s18.167 -4.5 27.5 -4.5c14.667 0 25.834 4 33.501 12s13.167 18.667 16.5 32h56z" />
    <glyph glyph-name="adieresis" unicode="&#xe4;" 
d="M493 115c0 -14 1.83203 -23.9971 5.49902 -29.9971s10.834 -9 21.501 -9h12c2.66699 0 5.16699 0.166992 7.5 0.5s5.16602 0.833008 8.49902 1.5v-79c-4 -1.33301 -9.16699 -2.83301 -15.5 -4.5s-12.833 -3.16699 -19.5 -4.5s-13.334 -2.33301 -20.001 -3
s-12.334 -1 -17.001 -1c-23.333 0 -42.666 4.66699 -57.999 14s-25.333 25.666 -30 48.999c-22.667 -22 -50.5 -38 -83.5 -48s-64.833 -15 -95.5 -15c-23.333 0 -45.666 3.16699 -66.999 9.5s-40.166 15.666 -56.499 27.999s-29.333 28 -39 47s-14.5 41.167 -14.5 66.5
c0 32 5.83301 58 17.5 78s27 35.667 46 47s40.333 19.5 64 24.5s47.5 8.83301 71.5 11.5c20.667 4 40.334 6.83301 59.001 8.5s35.167 4.5 49.5 8.5s25.666 10 33.999 18s12.5 20.667 12.5 38c0 14.667 -3.5 26.667 -10.5 36s-15.667 16.5 -26 21.5
s-21.833 8.33301 -34.5 10s-24.667 2.5 -36 2.5c-32 0 -58.333 -6.66699 -79 -20s-32.334 -34 -35.001 -62h-114c2 33.333 10 61 24 83s31.833 39.667 53.5 53s46.167 22.666 73.5 27.999s55.333 8 84 8c25.333 0 50.333 -2.66699 75 -8s46.834 -14 66.501 -26
s35.5 -27.5 47.5 -46.5s18 -42.167 18 -69.5v-266zM378.999 259.003c-8.66699 -6 -18.499 -10.502 -29.499 -13.502s-22.5 -5.5 -34.5 -7.5s-24.5 -3.66699 -37.5 -5s-25.833 -3 -38.5 -5c-12 -2 -23.667 -4.83301 -35 -8.5s-21.333 -8.66699 -30 -15
s-15.5 -14.666 -20.5 -24.999s-7.5 -22.833 -7.5 -37.5c0 -13.333 3.66699 -24.166 11 -32.499s16.166 -15 26.499 -20s21.666 -8.5 33.999 -10.5s23.5 -3 33.5 -3c12.667 0 26.334 1.66699 41.001 5s28.5 9 41.5 17s23.833 18.167 32.5 30.5s13 27.5 13 45.5v85z
M139 602.001v108h114v-108h-114zM425 710.001v-108h-114v108h114z" />
    <glyph glyph-name="aring" unicode="&#xe5;" 
d="M493 115c0 -14 1.83203 -23.9971 5.49902 -29.9971s10.834 -9 21.501 -9h12c2.66699 0 5.16699 0.166992 7.5 0.5s5.16602 0.833008 8.49902 1.5v-79c-4 -1.33301 -9.16699 -2.83301 -15.5 -4.5s-12.833 -3.16699 -19.5 -4.5s-13.334 -2.33301 -20.001 -3
s-12.334 -1 -17.001 -1c-23.333 0 -42.666 4.66699 -57.999 14s-25.333 25.666 -30 48.999c-22.667 -22 -50.5 -38 -83.5 -48s-64.833 -15 -95.5 -15c-23.333 0 -45.666 3.16699 -66.999 9.5s-40.166 15.666 -56.499 27.999s-29.333 28 -39 47s-14.5 41.167 -14.5 66.5
c0 32 5.83301 58 17.5 78s27 35.667 46 47s40.333 19.5 64 24.5s47.5 8.83301 71.5 11.5c20.667 4 40.334 6.83301 59.001 8.5s35.167 4.5 49.5 8.5s25.666 10 33.999 18s12.5 20.667 12.5 38c0 14.667 -3.5 26.667 -10.5 36s-15.667 16.5 -26 21.5
s-21.833 8.33301 -34.5 10s-24.667 2.5 -36 2.5c-32 0 -58.333 -6.66699 -79 -20s-32.334 -34 -35.001 -62h-114c2 33.333 10 61 24 83s31.833 39.667 53.5 53s46.167 22.666 73.5 27.999s55.333 8 84 8c25.333 0 50.333 -2.66699 75 -8s46.834 -14 66.501 -26
s35.5 -27.5 47.5 -46.5s18 -42.167 18 -69.5v-266zM378.999 259.003c-8.66699 -6 -18.499 -10.502 -29.499 -13.502s-22.5 -5.5 -34.5 -7.5s-24.5 -3.66699 -37.5 -5s-25.833 -3 -38.5 -5c-12 -2 -23.667 -4.83301 -35 -8.5s-21.333 -8.66699 -30 -15
s-15.5 -14.666 -20.5 -24.999s-7.5 -22.833 -7.5 -37.5c0 -13.333 3.66699 -24.166 11 -32.499s16.166 -15 26.499 -20s21.666 -8.5 33.999 -10.5s23.5 -3 33.5 -3c12.667 0 26.334 1.66699 41.001 5s28.5 9 41.5 17s23.833 18.167 32.5 30.5s13 27.5 13 45.5v85z
M222 674.001c0 -17.333 5.83301 -31.833 17.5 -43.5s25.834 -17.5 42.501 -17.5c17.333 0 31.666 5.83301 42.999 17.5s17 26.167 17 43.5c0 18 -5.66699 32.667 -17 44s-25.666 17 -42.999 17c-16.667 0 -30.834 -5.66699 -42.501 -17s-17.5 -26 -17.5 -44zM282 571.001
c-28.667 0 -53.168 9.5 -73.501 28.5s-30.5 43.833 -30.5 74.5c0 15.333 2.83301 29.333 8.5 42s13.334 23.5 23.001 32.5s20.667 16 33 21s25.5 7.5 39.5 7.5s27.333 -2.5 40 -7.5s23.667 -12 33 -21s16.833 -19.833 22.5 -32.5s8.5 -26.667 8.5 -42
s-2.83301 -29.333 -8.5 -42s-13.167 -23.5 -22.5 -32.5s-20.333 -16 -33 -21s-26 -7.5 -40 -7.5z" />
    <glyph glyph-name="ae" unicode="&#xe6;" horiz-adv-x="889" 
d="M858 163c-14.667 -56 -42.835 -99.498 -84.502 -130.498s-91.5 -46.5 -149.5 -46.5c-38.667 0 -75 7 -109 21s-61 38.667 -81 74c-22.667 -34 -53.167 -58.333 -91.5 -73s-79.5 -22 -123.5 -22c-26 0 -50.333 3.16699 -73 9.5s-42.5 15.666 -59.5 27.999
s-30.333 28 -40 47s-14.5 41.167 -14.5 66.5c0 32 5.83301 58 17.5 78s27 35.667 46 47s40.333 19.5 64 24.5s47.5 8.83301 71.5 11.5c20.667 4 40 6.83301 58 8.5s33.667 4.5 47 8.5s24 10.167 32 18.5s12 20.833 12 37.5c0 14.667 -3.16699 26.667 -9.5 36
s-14.333 16.5 -24 21.5s-20.5 8.33301 -32.5 10s-23.667 2.5 -35 2.5c-32 0 -58.333 -6.66699 -79 -20s-32.334 -34 -35.001 -62h-114c2 33.333 10 61 24 83s31.833 39.667 53.5 53s45.834 22.666 72.501 27.999s54 8 82 8c16 0 32.333 -0.833008 49 -2.5s32.5 -5 47.5 -10
s29.333 -12.167 43 -21.5s25.5 -21.333 35.5 -36c19.333 25.333 43.5 43.333 72.5 54s59.5 16 91.5 16c44 0 81.833 -7.66699 113.5 -23s57.334 -36.5 77.001 -63.5s33.5 -59 41.5 -96s10.667 -76.833 8 -119.5h-375c0 -20 2.5 -39.167 7.5 -57.5s13 -34.5 24 -48.5
s25 -25.333 42 -34s37.5 -13 61.5 -13c30.667 0 56.334 7.5 77.001 22.5s35.667 36.5 45 64.5h114zM378.999 257.002c-6 -6 -14 -10.502 -24 -13.502s-21.333 -5.33301 -34 -7s-26 -3 -40 -4s-27.667 -2.5 -41 -4.5c-12.667 -2 -24.667 -4.83301 -36 -8.5
s-21.333 -8.66699 -30 -15s-15.5 -14.666 -20.5 -24.999s-7.5 -22.833 -7.5 -37.5c0 -13.333 3.16699 -24.166 9.5 -32.499s14.5 -15 24.5 -20s21.167 -8.5 33.5 -10.5s24.5 -3 36.5 -3c16 0 31.667 2.16699 47 6.5s29 11 41 20s21.833 19.833 29.5 32.5
s11.5 27.667 11.5 45v77zM747.999 304c0.666992 42 -10.5 75.333 -33.5 100s-55.5 37 -97.5 37c-20 0 -37.833 -3.66699 -53.5 -11s-29 -17.333 -40 -30s-19.5 -27.167 -25.5 -43.5s-9.66699 -33.833 -11 -52.5h261z" />
    <glyph glyph-name="ccedilla" unicode="&#xe7;" 
d="M191 -160c12 -5.33301 23 -9.33398 33 -12.001s20.667 -4 32 -4c6.66699 0 13.667 0.5 21 1.5s14 3 20 6s10.833 7.16699 14.5 12.5s5.5 12.333 5.5 21c0 12.667 -4.83301 22.167 -14.5 28.5s-20.167 9.5 -31.5 9.5c-15.333 0 -28.333 -3.33301 -39 -10l-22 19l56 75
c-33.333 2 -62.666 8.33301 -87.999 19c-46 21.333 -81.333 53.166 -106 95.499s-37 92.833 -37 151.5c0 38.667 5.33301 75 16 109s26.667 63.5 48 88.5s47.833 44.667 79.5 59s68.834 21.5 111.501 21.5c30 0 58.5 -3.83301 85.5 -11.5s51 -19.167 72 -34.5
s38.167 -34.666 51.5 -57.999s21.333 -51 24 -83h-114c-4.66699 32 -17.5 56.167 -38.5 72.5s-47.5 24.5 -79.5 24.5c-14.667 0 -30.334 -2.5 -47.001 -7.5s-32 -14.333 -46 -28s-25.667 -32.834 -35 -57.501s-14 -56.334 -14 -95.001c0 -21.333 2.5 -42.666 7.5 -63.999
s13 -40.333 24 -57s25.167 -30.167 42.5 -40.5s38.333 -15.5 63 -15.5c34 0 61.667 10.167 83 30.5s34.666 49.5 39.999 87.5h114c-11.333 -68 -37 -119.667 -77 -155c-33.333 -29.333 -77.333 -46.666 -132 -51.999l-36 -46l1 -1c7.33301 2.66699 18.333 4 33 4
c10 0 20 -1.5 30 -4.5s19 -7.66699 27 -14s14.667 -14.166 20 -23.499s8 -20.333 8 -33c0 -16.667 -3.66699 -30.834 -11 -42.501s-16.666 -21.167 -27.999 -28.5s-24.166 -12.666 -38.499 -15.999s-28.833 -5 -43.5 -5c-18.667 0 -36.834 1.83301 -54.501 5.5
s-33.834 9.5 -48.501 17.5z" />
    <glyph glyph-name="egrave" unicode="&#xe8;" 
d="M415 304c-1.33301 18 -5.16699 35.333 -11.5 52s-15 31.167 -26 43.5s-24.333 22.333 -40 30s-33.167 11.5 -52.5 11.5c-20 0 -38.167 -3.5 -54.5 -10.5s-30.333 -16.667 -42 -29s-21 -26.833 -28 -43.5s-10.833 -34.667 -11.5 -54h266zM148.999 229
c0 -20 2.83398 -39.333 8.50098 -58s14.167 -35 25.5 -49s25.666 -25.167 42.999 -33.5s38 -12.5 62 -12.5c34 0 61 7.16699 81 21.5s35 35.833 45 64.5h108c-6 -28 -16.333 -53 -31 -75s-32.334 -40.5 -53.001 -55.5s-43.834 -26.333 -69.501 -34s-52.5 -11.5 -80.5 -11.5
c-40.667 0 -76.667 6.66699 -108 20s-57.833 32 -79.5 56s-38 52.667 -49 86s-16.5 70 -16.5 110c0 36.667 5.83301 71.5 17.5 104.5s28.334 62 50.001 87s47.834 44.833 78.501 59.5s65.334 22 104.001 22c40.667 0 77.167 -8.5 109.5 -25.5s59.166 -39.5 80.499 -67.5
s36.833 -60.167 46.5 -96.5s12.167 -73.833 7.5 -112.5h-380zM245 732l91 -143h-83l-142 143h134z" />
    <glyph glyph-name="eacute" unicode="&#xe9;" 
d="M415 304c-1.33301 18 -5.16699 35.333 -11.5 52s-15 31.167 -26 43.5s-24.333 22.333 -40 30s-33.167 11.5 -52.5 11.5c-20 0 -38.167 -3.5 -54.5 -10.5s-30.333 -16.667 -42 -29s-21 -26.833 -28 -43.5s-10.833 -34.667 -11.5 -54h266zM148.999 229
c0 -20 2.83398 -39.333 8.50098 -58s14.167 -35 25.5 -49s25.666 -25.167 42.999 -33.5s38 -12.5 62 -12.5c34 0 61 7.16699 81 21.5s35 35.833 45 64.5h108c-6 -28 -16.333 -53 -31 -75s-32.334 -40.5 -53.001 -55.5s-43.834 -26.333 -69.501 -34s-52.5 -11.5 -80.5 -11.5
c-40.667 0 -76.667 6.66699 -108 20s-57.833 32 -79.5 56s-38 52.667 -49 86s-16.5 70 -16.5 110c0 36.667 5.83301 71.5 17.5 104.5s28.334 62 50.001 87s47.834 44.833 78.501 59.5s65.334 22 104.001 22c40.667 0 77.167 -8.5 109.5 -25.5s59.166 -39.5 80.499 -67.5
s36.833 -60.167 46.5 -96.5s12.167 -73.833 7.5 -112.5h-380zM329 732h135l-142 -143h-83z" />
    <glyph glyph-name="ecircumflex" unicode="&#xea;" 
d="M415 304c-1.33301 18 -5.16699 35.333 -11.5 52s-15 31.167 -26 43.5s-24.333 22.333 -40 30s-33.167 11.5 -52.5 11.5c-20 0 -38.167 -3.5 -54.5 -10.5s-30.333 -16.667 -42 -29s-21 -26.833 -28 -43.5s-10.833 -34.667 -11.5 -54h266zM148.999 229
c0 -20 2.83398 -39.333 8.50098 -58s14.167 -35 25.5 -49s25.666 -25.167 42.999 -33.5s38 -12.5 62 -12.5c34 0 61 7.16699 81 21.5s35 35.833 45 64.5h108c-6 -28 -16.333 -53 -31 -75s-32.334 -40.5 -53.001 -55.5s-43.834 -26.333 -69.501 -34s-52.5 -11.5 -80.5 -11.5
c-40.667 0 -76.667 6.66699 -108 20s-57.833 32 -79.5 56s-38 52.667 -49 86s-16.5 70 -16.5 110c0 36.667 5.83301 71.5 17.5 104.5s28.334 62 50.001 87s47.834 44.833 78.501 59.5s65.334 22 104.001 22c40.667 0 77.167 -8.5 109.5 -25.5s59.166 -39.5 80.499 -67.5
s36.833 -60.167 46.5 -96.5s12.167 -73.833 7.5 -112.5h-380zM216 589h-92l107 143h111l108 -143h-93l-71 90z" />
    <glyph glyph-name="edieresis" unicode="&#xeb;" 
d="M415 304c-1.33301 18 -5.16699 35.333 -11.5 52s-15 31.167 -26 43.5s-24.333 22.333 -40 30s-33.167 11.5 -52.5 11.5c-20 0 -38.167 -3.5 -54.5 -10.5s-30.333 -16.667 -42 -29s-21 -26.833 -28 -43.5s-10.833 -34.667 -11.5 -54h266zM148.999 229
c0 -20 2.83398 -39.333 8.50098 -58s14.167 -35 25.5 -49s25.666 -25.167 42.999 -33.5s38 -12.5 62 -12.5c34 0 61 7.16699 81 21.5s35 35.833 45 64.5h108c-6 -28 -16.333 -53 -31 -75s-32.334 -40.5 -53.001 -55.5s-43.834 -26.333 -69.501 -34s-52.5 -11.5 -80.5 -11.5
c-40.667 0 -76.667 6.66699 -108 20s-57.833 32 -79.5 56s-38 52.667 -49 86s-16.5 70 -16.5 110c0 36.667 5.83301 71.5 17.5 104.5s28.334 62 50.001 87s47.834 44.833 78.501 59.5s65.334 22 104.001 22c40.667 0 77.167 -8.5 109.5 -25.5s59.166 -39.5 80.499 -67.5
s36.833 -60.167 46.5 -96.5s12.167 -73.833 7.5 -112.5h-380zM142 602v108h114v-108h-114zM428 710v-108h-114v108h114z" />
    <glyph glyph-name="igrave" unicode="&#xec;" horiz-adv-x="241" 
d="M63 0v517h114v-517h-114zM88 732l91 -143h-83l-142 143h134z" />
    <glyph glyph-name="iacute" unicode="&#xed;" horiz-adv-x="241" 
d="M63 0v517h114v-517h-114zM153 732h135l-142 -143h-83z" />
    <glyph glyph-name="icircumflex" unicode="&#xee;" horiz-adv-x="241" 
d="M63 0v517h114v-517h-114zM50 589h-92l107 143h111l108 -143h-93l-71 90z" />
    <glyph glyph-name="idieresis" unicode="&#xef;" horiz-adv-x="241" 
d="M63 0v517h114v-517h-114zM-23 602v108h114v-108h-114zM263 710v-108h-114v108h114z" />
    <glyph glyph-name="eth" unicode="&#xf0;" horiz-adv-x="593" 
d="M144 590l96.0029 46l-44 19c-14 6 -27.667 11 -41 15l76 61c18.667 -6 36.5 -13.167 53.5 -21.5s33.833 -17.833 50.5 -28.5l105 50l49 -49l-94 -45c50 -42 88.333 -91 115 -147s40 -116.333 40 -181c0 -44 -4.83301 -85.667 -14.5 -125
s-25.334 -73.666 -47.001 -102.999s-49.5 -52.5 -83.5 -69.5s-75.333 -25.5 -124 -25.5c-38 0 -71.833 6.5 -101.5 19.5s-54.667 31.333 -75 55s-35.833 51.667 -46.5 84s-16 68.166 -16 107.499c0 32.667 5.16699 64.334 15.5 95.001s25.166 57.667 44.499 81
s42.666 42.166 69.999 56.499s58.333 21.5 93 21.5c28 0 53.167 -3.33301 75.5 -10s44.833 -18 67.5 -34h2c-11.333 26 -26.833 49.833 -46.5 71.5s-40.167 41.5 -61.5 59.5l-108 -52zM299.003 416c-26.667 0 -48.999 -4.66797 -66.999 -14.001s-32.667 -21.666 -44 -36.999
s-19.5 -33.5 -24.5 -54.5s-7.5 -42.833 -7.5 -65.5s2.5 -44.167 7.5 -64.5s13 -38.333 24 -54s24.667 -28 41 -37s36.166 -13.5 59.499 -13.5c22.667 0 43.167 4.83301 61.5 14.5s34 22.334 47 38.001s22.833 33.667 29.5 54s10 41.166 10 62.499s-2.66699 42.333 -8 63
s-13.5 39 -24.5 55s-25.167 28.833 -42.5 38.5s-38 14.5 -62 14.5z" />
    <glyph glyph-name="ntilde" unicode="&#xf1;" horiz-adv-x="574" 
d="M60 517l107.998 0.000976562v-76l2 -2c17.333 28.667 40 51.167 68 67.5s59 24.5 93 24.5c56.667 0 101.334 -14.667 134.001 -44s49 -73.333 49 -132v-355h-114v325c-1.33301 40.667 -10 70.167 -26 88.5s-41 27.5 -75 27.5c-19.333 0 -36.666 -3.5 -51.999 -10.5
s-28.333 -16.667 -39 -29s-19 -26.833 -25 -43.5s-9 -34.334 -9 -53.001v-305h-114v517zM464.998 720.001c-2.66699 -16 -6.50195 -31.001 -11.502 -45.001s-12.167 -26 -21.5 -36c-8.66699 -10.667 -19.334 -19 -32.001 -25s-28 -9 -46 -9
c-11.333 0 -23.333 1.83301 -36 5.5s-25.334 8.16699 -38.001 13.5c-15.333 6.66699 -27.666 11.334 -36.999 14.001s-19.666 4 -30.999 4c-23.333 0 -37.666 -13.667 -42.999 -41h-57c2 12.667 5.66699 25.667 11 39s12.333 25.5 21 36.5s19 20 31 27s25.667 10.5 41 10.5
c12.667 0 24.167 -1.16699 34.5 -3.5s25.833 -7.83301 46.5 -16.5c14 -6 25.5 -10.5 34.5 -13.5s18.167 -4.5 27.5 -4.5c14.667 0 25.834 4 33.501 12s13.167 18.667 16.5 32h56z" />
    <glyph glyph-name="ograve" unicode="&#xf2;" horiz-adv-x="593" 
d="M297 -14c-41.333 0 -78.166 6.83301 -110.499 20.5s-59.666 32.5 -81.999 56.5s-39.333 52.667 -51 86s-17.5 70 -17.5 110c0 39.333 5.83301 75.666 17.5 108.999s28.667 62 51 86s49.666 42.833 81.999 56.5s69.166 20.5 110.499 20.5s78.166 -6.83301 110.499 -20.5
s59.666 -32.5 81.999 -56.5s39.333 -52.667 51 -86s17.5 -69.666 17.5 -108.999c0 -40 -5.83301 -76.667 -17.5 -110s-28.667 -62 -51 -86s-49.666 -42.833 -81.999 -56.5s-69.166 -20.5 -110.499 -20.5zM297 76c25.333 0 47.333 5.33301 66 16s34 24.667 46 42
s20.833 36.833 26.5 58.5s8.5 43.834 8.5 66.501c0 22 -2.83301 44 -8.5 66s-14.5 41.5 -26.5 58.5s-27.333 30.833 -46 41.5s-40.667 16 -66 16s-47.333 -5.33301 -66 -16s-34 -24.5 -46 -41.5s-20.833 -36.5 -26.5 -58.5s-8.5 -44 -8.5 -66
c0 -22.667 2.83301 -44.834 8.5 -66.501s14.5 -41.167 26.5 -58.5s27.333 -31.333 46 -42s40.667 -16 66 -16zM261 732l91 -143h-83l-142 143h134z" />
    <glyph glyph-name="oacute" unicode="&#xf3;" horiz-adv-x="593" 
d="M297 -14c-41.333 0 -78.166 6.83301 -110.499 20.5s-59.666 32.5 -81.999 56.5s-39.333 52.667 -51 86s-17.5 70 -17.5 110c0 39.333 5.83301 75.666 17.5 108.999s28.667 62 51 86s49.666 42.833 81.999 56.5s69.166 20.5 110.499 20.5s78.166 -6.83301 110.499 -20.5
s59.666 -32.5 81.999 -56.5s39.333 -52.667 51 -86s17.5 -69.666 17.5 -108.999c0 -40 -5.83301 -76.667 -17.5 -110s-28.667 -62 -51 -86s-49.666 -42.833 -81.999 -56.5s-69.166 -20.5 -110.499 -20.5zM297 76c25.333 0 47.333 5.33301 66 16s34 24.667 46 42
s20.833 36.833 26.5 58.5s8.5 43.834 8.5 66.501c0 22 -2.83301 44 -8.5 66s-14.5 41.5 -26.5 58.5s-27.333 30.833 -46 41.5s-40.667 16 -66 16s-47.333 -5.33301 -66 -16s-34 -24.5 -46 -41.5s-20.833 -36.5 -26.5 -58.5s-8.5 -44 -8.5 -66
c0 -22.667 2.83301 -44.834 8.5 -66.501s14.5 -41.167 26.5 -58.5s27.333 -31.333 46 -42s40.667 -16 66 -16zM337 732h135l-142 -143h-83z" />
    <glyph glyph-name="ocircumflex" unicode="&#xf4;" horiz-adv-x="593" 
d="M297 -14c-41.333 0 -78.166 6.83301 -110.499 20.5s-59.666 32.5 -81.999 56.5s-39.333 52.667 -51 86s-17.5 70 -17.5 110c0 39.333 5.83301 75.666 17.5 108.999s28.667 62 51 86s49.666 42.833 81.999 56.5s69.166 20.5 110.499 20.5s78.166 -6.83301 110.499 -20.5
s59.666 -32.5 81.999 -56.5s39.333 -52.667 51 -86s17.5 -69.666 17.5 -108.999c0 -40 -5.83301 -76.667 -17.5 -110s-28.667 -62 -51 -86s-49.666 -42.833 -81.999 -56.5s-69.166 -20.5 -110.499 -20.5zM297 76c25.333 0 47.333 5.33301 66 16s34 24.667 46 42
s20.833 36.833 26.5 58.5s8.5 43.834 8.5 66.501c0 22 -2.83301 44 -8.5 66s-14.5 41.5 -26.5 58.5s-27.333 30.833 -46 41.5s-40.667 16 -66 16s-47.333 -5.33301 -66 -16s-34 -24.5 -46 -41.5s-20.833 -36.5 -26.5 -58.5s-8.5 -44 -8.5 -66
c0 -22.667 2.83301 -44.834 8.5 -66.501s14.5 -41.167 26.5 -58.5s27.333 -31.333 46 -42s40.667 -16 66 -16zM228 589h-92l107 143h111l108 -143h-93l-71 90z" />
    <glyph glyph-name="otilde" unicode="&#xf5;" horiz-adv-x="593" 
d="M297 -14c-41.333 0 -78.166 6.83301 -110.499 20.5s-59.666 32.5 -81.999 56.5s-39.333 52.667 -51 86s-17.5 70 -17.5 110c0 39.333 5.83301 75.666 17.5 108.999s28.667 62 51 86s49.666 42.833 81.999 56.5s69.166 20.5 110.499 20.5s78.166 -6.83301 110.499 -20.5
s59.666 -32.5 81.999 -56.5s39.333 -52.667 51 -86s17.5 -69.666 17.5 -108.999c0 -40 -5.83301 -76.667 -17.5 -110s-28.667 -62 -51 -86s-49.666 -42.833 -81.999 -56.5s-69.166 -20.5 -110.499 -20.5zM297 76c25.333 0 47.333 5.33301 66 16s34 24.667 46 42
s20.833 36.833 26.5 58.5s8.5 43.834 8.5 66.501c0 22 -2.83301 44 -8.5 66s-14.5 41.5 -26.5 58.5s-27.333 30.833 -46 41.5s-40.667 16 -66 16s-47.333 -5.33301 -66 -16s-34 -24.5 -46 -41.5s-20.833 -36.5 -26.5 -58.5s-8.5 -44 -8.5 -66
c0 -22.667 2.83301 -44.834 8.5 -66.501s14.5 -41.167 26.5 -58.5s27.333 -31.333 46 -42s40.667 -16 66 -16zM476 720c-2.66699 -16 -6.50195 -31.001 -11.502 -45.001s-12.167 -26 -21.5 -36c-8.66699 -10.667 -19.334 -19 -32.001 -25s-28 -9 -46 -9
c-11.333 0 -23.333 1.83301 -36 5.5s-25.334 8.16699 -38.001 13.5c-15.333 6.66699 -27.666 11.334 -36.999 14.001s-19.666 4 -30.999 4c-23.333 0 -37.666 -13.667 -42.999 -41h-57c2 12.667 5.66699 25.667 11 39s12.333 25.5 21 36.5s19 20 31 27s25.667 10.5 41 10.5
c12.667 0 24.167 -1.16699 34.5 -3.5s25.833 -7.83301 46.5 -16.5c14 -6 25.5 -10.5 34.5 -13.5s18.167 -4.5 27.5 -4.5c14.667 0 25.834 4 33.501 12s13.167 18.667 16.5 32h56z" />
    <glyph glyph-name="odieresis" unicode="&#xf6;" horiz-adv-x="593" 
d="M297 -14c-41.333 0 -78.166 6.83301 -110.499 20.5s-59.666 32.5 -81.999 56.5s-39.333 52.667 -51 86s-17.5 70 -17.5 110c0 39.333 5.83301 75.666 17.5 108.999s28.667 62 51 86s49.666 42.833 81.999 56.5s69.166 20.5 110.499 20.5s78.166 -6.83301 110.499 -20.5
s59.666 -32.5 81.999 -56.5s39.333 -52.667 51 -86s17.5 -69.666 17.5 -108.999c0 -40 -5.83301 -76.667 -17.5 -110s-28.667 -62 -51 -86s-49.666 -42.833 -81.999 -56.5s-69.166 -20.5 -110.499 -20.5zM297 76c25.333 0 47.333 5.33301 66 16s34 24.667 46 42
s20.833 36.833 26.5 58.5s8.5 43.834 8.5 66.501c0 22 -2.83301 44 -8.5 66s-14.5 41.5 -26.5 58.5s-27.333 30.833 -46 41.5s-40.667 16 -66 16s-47.333 -5.33301 -66 -16s-34 -24.5 -46 -41.5s-20.833 -36.5 -26.5 -58.5s-8.5 -44 -8.5 -66
c0 -22.667 2.83301 -44.834 8.5 -66.501s14.5 -41.167 26.5 -58.5s27.333 -31.333 46 -42s40.667 -16 66 -16zM154 602v108h114v-108h-114zM440 710v-108h-114v108h114z" />
    <glyph glyph-name="divide" unicode="&#xf7;" horiz-adv-x="600" 
d="M301 -25c-19.333 0 -36.3311 7.16602 -50.998 21.499s-22 31.166 -22 50.499c0 20 7.16699 37 21.5 51s31.166 21 50.499 21s36.166 -7.16699 50.499 -21.5s21.5 -31.166 21.5 -50.499c0 -9.33301 -2 -18.166 -6 -26.499s-9.16699 -16 -15.5 -23
s-13.833 -12.5 -22.5 -16.5s-17.667 -6 -27 -6zM301.002 386.999c-19.333 0 -36.3311 7.16602 -50.998 21.499s-22 31.166 -22 50.499c0 20 7.16699 37 21.5 51s31.166 21 50.499 21s36.166 -7.16699 50.499 -21.5s21.5 -31.166 21.5 -50.499
c0 -9.33301 -2 -18.166 -6 -26.499s-9.16699 -16 -15.5 -23s-13.833 -12.5 -22.5 -16.5s-17.667 -6 -27 -6zM48.0039 201.998v102h504v-102h-504z" />
    <glyph glyph-name="oslash" unicode="&#xf8;" horiz-adv-x="593" 
d="M396 399c-24.667 28 -57.667 42 -99 42c-25.333 0 -47.333 -5.33301 -66 -16s-34 -24.5 -46 -41.5s-20.833 -36.5 -26.5 -58.5s-8.5 -44 -8.5 -66c0 -18 1.83301 -36 5.5 -54s9.5 -34.667 17.5 -50zM32 0l64.999 72c-40.667 48.667 -61 111 -61 187
c0 39.333 5.83301 75.666 17.5 108.999s28.667 62 51 86s49.666 42.833 81.999 56.5s69.166 20.5 110.499 20.5c36 0 68 -4.83301 96 -14.5s52.667 -23.167 74 -40.5l63 69l32 -28l-65 -71c40.667 -49.333 61 -111.666 61 -186.999c0 -40 -5.83301 -76.667 -17.5 -110
s-28.667 -62 -51 -86s-49.666 -42.833 -81.999 -56.5s-69.166 -20.5 -110.499 -20.5c-34.667 0 -66.167 4.83301 -94.5 14.5s-53.166 23.5 -74.499 41.5l-64 -70zM197.999 118c24.667 -28 57.667 -42.001 99 -42.001c25.333 0 47.333 5.33301 66 16s34 24.667 46 42
s20.833 36.833 26.5 58.5s8.5 43.834 8.5 66.501c0 18 -1.83301 35.833 -5.5 53.5s-9.5 34.167 -17.5 49.5z" />
    <glyph glyph-name="ugrave" unicode="&#xf9;" horiz-adv-x="574" 
d="M514 0l-111.998 0.00195312v72h-2c-14 -26 -34.833 -46.833 -62.5 -62.5s-55.834 -23.5 -84.501 -23.5c-68 0 -117.167 16.833 -147.5 50.5s-45.5 84.5 -45.5 152.5v328h114v-317c0 -45.333 8.66699 -77.333 26 -96s41.666 -28 72.999 -28c24 0 44 3.66699 60 11
s29 17.166 39 29.499s17.167 27.166 21.5 44.499s6.5 36 6.5 56v300h114v-517zM247.002 732.002l91 -143h-83l-142 143h134z" />
    <glyph glyph-name="uacute" unicode="&#xfa;" horiz-adv-x="574" 
d="M514 0l-111.998 0.00195312v72h-2c-14 -26 -34.833 -46.833 -62.5 -62.5s-55.834 -23.5 -84.501 -23.5c-68 0 -117.167 16.833 -147.5 50.5s-45.5 84.5 -45.5 152.5v328h114v-317c0 -45.333 8.66699 -77.333 26 -96s41.666 -28 72.999 -28c24 0 44 3.66699 60 11
s29 17.166 39 29.499s17.167 27.166 21.5 44.499s6.5 36 6.5 56v300h114v-517zM333.002 732.002h135l-142 -143h-83z" />
    <glyph glyph-name="ucircumflex" unicode="&#xfb;" horiz-adv-x="574" 
d="M514 0l-111.998 0.00195312v72h-2c-14 -26 -34.833 -46.833 -62.5 -62.5s-55.834 -23.5 -84.501 -23.5c-68 0 -117.167 16.833 -147.5 50.5s-45.5 84.5 -45.5 152.5v328h114v-317c0 -45.333 8.66699 -77.333 26 -96s41.666 -28 72.999 -28c24 0 44 3.66699 60 11
s29 17.166 39 29.499s17.167 27.166 21.5 44.499s6.5 36 6.5 56v300h114v-517zM219.002 589.002h-92l107 143h111l108 -143h-93l-71 90z" />
    <glyph glyph-name="udieresis" unicode="&#xfc;" horiz-adv-x="574" 
d="M514 0l-111.998 0.00195312v72h-2c-14 -26 -34.833 -46.833 -62.5 -62.5s-55.834 -23.5 -84.501 -23.5c-68 0 -117.167 16.833 -147.5 50.5s-45.5 84.5 -45.5 152.5v328h114v-317c0 -45.333 8.66699 -77.333 26 -96s41.666 -28 72.999 -28c24 0 44 3.66699 60 11
s29 17.166 39 29.499s17.167 27.166 21.5 44.499s6.5 36 6.5 56v300h114v-517zM145.002 602.002v108h114v-108h-114zM431.002 710.002v-108h-114v108h114z" />
    <glyph glyph-name="yacute" unicode="&#xfd;" horiz-adv-x="519" 
d="M3 517l125 -0.000976562l135 -386h2l131 386h119l-201 -545l-27.5 -67c-9 -21.333 -20 -40.166 -33 -56.499s-29.167 -29.333 -48.5 -39s-44 -14.5 -74 -14.5c-26.667 0 -53 2 -79 6v96c9.33301 -1.33301 18.333 -2.83301 27 -4.5s17.667 -2.5 27 -2.5
c26 0 44.167 6.5 54.5 19.5s18.833 30.5 25.5 52.5l13 40zM302 731.999h135l-142 -143h-83z" />
    <glyph glyph-name="thorn" unicode="&#xfe;" horiz-adv-x="611" 
d="M461 258c0 23.333 -3.00098 45.999 -9.00098 67.999s-15 41.5 -27 58.5s-27 30.667 -45 41s-38.667 15.5 -62 15.5c-48 0 -84.167 -16.5 -108.5 -49.5s-36.5 -77.5 -36.5 -133.5c0 -26 3.16699 -50.167 9.5 -72.5s15.833 -41.5 28.5 -57.5s27.834 -28.667 45.501 -38
s38.167 -14 61.5 -14c26 0 48 5.33301 66 16s32.833 24.5 44.5 41.5s20 36.333 25 58s7.5 43.834 7.5 66.501zM62.999 713.999l113.999 0.000976562v-264h2c16 25.333 38.167 45.166 66.5 59.499s57.5 21.5 87.5 21.5c40.667 0 76.167 -7.16699 106.5 -21.5
s55.5 -34 75.5 -59s35 -54.167 45 -87.5s15 -69 15 -107c0 -35.333 -4.5 -69.166 -13.5 -101.499s-22.667 -61 -41 -86s-41.5 -45 -69.5 -60s-61 -22.5 -99 -22.5c-16 0 -32.333 1.5 -49 4.5s-32.667 7.66699 -48 14s-29.666 14.666 -42.999 24.999s-24.333 22.833 -33 37.5
h-2v-258h-114v905z" />
    <glyph glyph-name="ydieresis" unicode="&#xff;" horiz-adv-x="519" 
d="M3 517l125 -0.000976562l135 -386h2l131 386h119l-201 -545l-27.5 -67c-9 -21.333 -20 -40.166 -33 -56.499s-29.167 -29.333 -48.5 -39s-44 -14.5 -74 -14.5c-26.667 0 -53 2 -79 6v96c9.33301 -1.33301 18.333 -2.83301 27 -4.5s17.667 -2.5 27 -2.5
c26 0 44.167 6.5 54.5 19.5s18.833 30.5 25.5 52.5l13 40zM119 601.999v108h114v-108h-114zM405 709.999v-108h-114v108h114z" />
    <glyph glyph-name="Amacron" unicode="&#x100;" horiz-adv-x="667" 
d="M267 714h133l275 -714h-134l-67 189h-285l-67 -189h-129zM223 284h218l-107 307h-3zM189 818v65h288v-65h-288z" />
    <glyph glyph-name="amacron" unicode="&#x101;" 
d="M493 115c0 -14 1.83203 -23.9971 5.49902 -29.9971s10.834 -9 21.501 -9h12c2.66699 0 5.16699 0.166992 7.5 0.5s5.16602 0.833008 8.49902 1.5v-79c-4 -1.33301 -9.16699 -2.83301 -15.5 -4.5s-12.833 -3.16699 -19.5 -4.5s-13.334 -2.33301 -20.001 -3
s-12.334 -1 -17.001 -1c-23.333 0 -42.666 4.66699 -57.999 14s-25.333 25.666 -30 48.999c-22.667 -22 -50.5 -38 -83.5 -48s-64.833 -15 -95.5 -15c-23.333 0 -45.666 3.16699 -66.999 9.5s-40.166 15.666 -56.499 27.999s-29.333 28 -39 47s-14.5 41.167 -14.5 66.5
c0 32 5.83301 58 17.5 78s27 35.667 46 47s40.333 19.5 64 24.5s47.5 8.83301 71.5 11.5c20.667 4 40.334 6.83301 59.001 8.5s35.167 4.5 49.5 8.5s25.666 10 33.999 18s12.5 20.667 12.5 38c0 14.667 -3.5 26.667 -10.5 36s-15.667 16.5 -26 21.5
s-21.833 8.33301 -34.5 10s-24.667 2.5 -36 2.5c-32 0 -58.333 -6.66699 -79 -20s-32.334 -34 -35.001 -62h-114c2 33.333 10 61 24 83s31.833 39.667 53.5 53s46.167 22.666 73.5 27.999s55.333 8 84 8c25.333 0 50.333 -2.66699 75 -8s46.834 -14 66.501 -26
s35.5 -27.5 47.5 -46.5s18 -42.167 18 -69.5v-266zM378.999 259.003c-8.66699 -6 -18.499 -10.502 -29.499 -13.502s-22.5 -5.5 -34.5 -7.5s-24.5 -3.66699 -37.5 -5s-25.833 -3 -38.5 -5c-12 -2 -23.667 -4.83301 -35 -8.5s-21.333 -8.66699 -30 -15
s-15.5 -14.666 -20.5 -24.999s-7.5 -22.833 -7.5 -37.5c0 -13.333 3.66699 -24.166 11 -32.499s16.166 -15 26.499 -20s21.666 -8.5 33.999 -10.5s23.5 -3 33.5 -3c12.667 0 26.334 1.66699 41.001 5s28.5 9 41.5 17s23.833 18.167 32.5 30.5s13 27.5 13 45.5v85z
M137 624.001v65h288v-65h-288z" />
    <glyph glyph-name="Abreve" unicode="&#x102;" horiz-adv-x="667" 
d="M267 714h133l275 -714h-134l-67 189h-285l-67 -189h-129zM223 284h218l-107 307h-3zM230 925c5.33301 -28 17.834 -47.667 37.501 -59s42.834 -17 69.501 -17c25.333 0 47.166 6.33301 65.499 19s30.166 31.667 35.499 57h57c-5.33301 -48 -22.833 -83.5 -52.5 -106.5
s-67.5 -34.5 -113.5 -34.5s-82.667 12 -110 36s-43 59 -47 105h58z" />
    <glyph glyph-name="abreve" unicode="&#x103;" 
d="M493 115c0 -14 1.83203 -23.9971 5.49902 -29.9971s10.834 -9 21.501 -9h12c2.66699 0 5.16699 0.166992 7.5 0.5s5.16602 0.833008 8.49902 1.5v-79c-4 -1.33301 -9.16699 -2.83301 -15.5 -4.5s-12.833 -3.16699 -19.5 -4.5s-13.334 -2.33301 -20.001 -3
s-12.334 -1 -17.001 -1c-23.333 0 -42.666 4.66699 -57.999 14s-25.333 25.666 -30 48.999c-22.667 -22 -50.5 -38 -83.5 -48s-64.833 -15 -95.5 -15c-23.333 0 -45.666 3.16699 -66.999 9.5s-40.166 15.666 -56.499 27.999s-29.333 28 -39 47s-14.5 41.167 -14.5 66.5
c0 32 5.83301 58 17.5 78s27 35.667 46 47s40.333 19.5 64 24.5s47.5 8.83301 71.5 11.5c20.667 4 40.334 6.83301 59.001 8.5s35.167 4.5 49.5 8.5s25.666 10 33.999 18s12.5 20.667 12.5 38c0 14.667 -3.5 26.667 -10.5 36s-15.667 16.5 -26 21.5
s-21.833 8.33301 -34.5 10s-24.667 2.5 -36 2.5c-32 0 -58.333 -6.66699 -79 -20s-32.334 -34 -35.001 -62h-114c2 33.333 10 61 24 83s31.833 39.667 53.5 53s46.167 22.666 73.5 27.999s55.333 8 84 8c25.333 0 50.333 -2.66699 75 -8s46.834 -14 66.501 -26
s35.5 -27.5 47.5 -46.5s18 -42.167 18 -69.5v-266zM378.999 259.003c-8.66699 -6 -18.499 -10.502 -29.499 -13.502s-22.5 -5.5 -34.5 -7.5s-24.5 -3.66699 -37.5 -5s-25.833 -3 -38.5 -5c-12 -2 -23.667 -4.83301 -35 -8.5s-21.333 -8.66699 -30 -15
s-15.5 -14.666 -20.5 -24.999s-7.5 -22.833 -7.5 -37.5c0 -13.333 3.66699 -24.166 11 -32.499s16.166 -15 26.499 -20s21.666 -8.5 33.999 -10.5s23.5 -3 33.5 -3c12.667 0 26.334 1.66699 41.001 5s28.5 9 41.5 17s23.833 18.167 32.5 30.5s13 27.5 13 45.5v85z
M177 731.001c5.33301 -28 17.834 -47.667 37.501 -59s42.834 -17 69.501 -17c25.333 0 47.166 6.33301 65.499 19s30.166 31.667 35.499 57h57c-5.33301 -48 -22.833 -83.5 -52.5 -106.5s-67.5 -34.5 -113.5 -34.5s-82.667 12 -110 36s-43 59 -47 105h58z" />
    <glyph glyph-name="Aogonek" unicode="&#x104;" horiz-adv-x="667" 
d="M595 0c-18.667 -14.667 -34.1621 -27.8311 -46.4951 -39.498s-22 -22.5 -29 -32.5s-11.833 -19.667 -14.5 -29s-4 -18.666 -4 -27.999c0 -13.333 4 -24 12 -32s17 -12 27 -12s19 2.33301 27 7s16.333 13.667 25 27l41 -9c-4 -14.667 -9.83301 -26.834 -17.5 -36.501
s-16.334 -17.334 -26.001 -23.001s-19.834 -9.66699 -30.501 -12s-21 -3.5 -31 -3.5c-4.66699 0 -12.5 0.666992 -23.5 2s-22.333 5 -34 11s-21.834 15 -30.501 27s-13 28.667 -13 50c0 4.66699 0.666992 11.167 2 19.5s5.66602 18.166 12.999 29.499s18.666 24 33.999 38
s37 29.333 65 46l-67 189h-285l-67 -189h-129l274 714h133l275 -714h-80zM223.005 284.003h218l-107 307h-3z" />
    <glyph glyph-name="aogonek" unicode="&#x105;" 
d="M493 115c0 -14 1.83691 -23.9961 5.50391 -29.9961s10.834 -9 21.501 -9h12c2.66699 0 5.16699 0.166992 7.5 0.5s5.16602 0.833008 8.49902 1.5v-79c-4 -1.33301 -9.16699 -2.83301 -15.5 -4.5s-12.833 -3.16699 -19.5 -4.5s-13.334 -2.33301 -20.001 -3
s-12.334 -1 -17.001 -1h-1l-15 -13.5c-4.66699 -4.33301 -9.33398 -8.16602 -14.001 -11.499c-18.667 -18.667 -31.167 -34.834 -37.5 -48.501s-9.5 -27.5 -9.5 -41.5c0 -13.333 4 -24 12 -32s17 -12 27 -12s19 2.33301 27 7s16.333 13.667 25 27l41 -9
c-4 -14.667 -9.83301 -26.834 -17.5 -36.501s-16.334 -17.334 -26.001 -23.001s-19.834 -9.66699 -30.501 -12s-21 -3.5 -31 -3.5c-4.66699 0 -12.5 0.666992 -23.5 2s-22.333 5 -34 11s-21.834 15 -30.501 27s-13 28.667 -13 50c0 4 0.333008 8.83301 1 14.5s2.5 12 5.5 19
s7.83301 15 14.5 24s16 18.833 28 29.5c6.66699 6.66699 14.667 13.167 24 19.5l31 20.5c-5.33301 2.66699 -9 4.66699 -11 6c-14.667 8.66699 -24.667 25 -30 49c-22.667 -22 -50.5 -38 -83.5 -48s-64.833 -15 -95.5 -15c-23.333 0 -45.666 3.16699 -66.999 9.5
s-40.166 15.666 -56.499 27.999s-29.333 28 -39 47s-14.5 41.167 -14.5 66.5c0 32 5.83301 58 17.5 78s27 35.667 46 47s40.333 19.5 64 24.5s47.5 8.83301 71.5 11.5c20.667 4 40.334 6.83301 59.001 8.5s35.167 4.5 49.5 8.5s25.666 10 33.999 18s12.5 20.667 12.5 38
c0 14.667 -3.5 26.667 -10.5 36s-15.667 16.5 -26 21.5s-21.833 8.33301 -34.5 10s-24.667 2.5 -36 2.5c-32 0 -58.333 -6.66699 -79 -20s-32.334 -34 -35.001 -62h-114c2 33.333 10 61 24 83s31.833 39.667 53.5 53s46.167 22.666 73.5 27.999s55.333 8 84 8
c25.333 0 50.333 -2.66699 75 -8s46.834 -14 66.501 -26s35.5 -27.5 47.5 -46.5s18 -42.167 18 -69.5v-266zM379.004 259.004c-8.66699 -6 -18.499 -10.502 -29.499 -13.502s-22.5 -5.5 -34.5 -7.5s-24.5 -3.66699 -37.5 -5s-25.833 -3 -38.5 -5
c-12 -2 -23.667 -4.83301 -35 -8.5s-21.333 -8.66699 -30 -15s-15.5 -14.666 -20.5 -24.999s-7.5 -22.833 -7.5 -37.5c0 -13.333 3.66699 -24.166 11 -32.499s16.166 -15 26.499 -20s21.666 -8.5 33.999 -10.5s23.5 -3 33.5 -3c12.667 0 26.334 1.66699 41.001 5
s28.5 9 41.5 17s23.833 18.167 32.5 30.5s13 27.5 13 45.5v85z" />
    <glyph glyph-name="Cacute" unicode="&#x106;" horiz-adv-x="722" 
d="M558 487c-10.667 42 -30 76.1699 -58 102.503s-68 39.5 -120 39.5c-38 0 -70.833 -7.66699 -98.5 -23s-50.167 -35.833 -67.5 -61.5s-30.166 -54.834 -38.499 -87.501s-12.5 -66 -12.5 -100s4.16699 -67.333 12.5 -100s21.166 -61.834 38.499 -87.501
s39.833 -46.167 67.5 -61.5s60.5 -23 98.5 -23c28 0 52.667 4.83301 74 14.5s39.5 23 54.5 40s27 36.833 36 59.5s14.833 47 17.5 73h122c-2.66699 -42.667 -12 -81.667 -28 -117s-37.167 -65.833 -63.5 -91.5s-57.5 -45.5 -93.5 -59.5s-75.667 -21 -119 -21
c-53.333 0 -101.166 9.83301 -143.499 29.5s-78.166 46.5 -107.499 80.5s-51.833 73.667 -67.5 119s-23.5 93.666 -23.5 144.999c0 50.667 7.83301 98.667 23.5 144s38.167 85 67.5 119s65.166 61 107.499 81s90.166 30 143.499 30c40.667 0 78.5 -5.5 113.5 -16.5
s65.833 -27 92.5 -48s48.5 -46.5 65.5 -76.5s27.5 -64.333 31.5 -103h-125zM423 926.003h135l-142 -143h-83z" />
    <glyph glyph-name="cacute" unicode="&#x107;" 
d="M409 344c-4.66699 32 -17.499 56.165 -38.499 72.498s-47.5 24.5 -79.5 24.5c-14.667 0 -30.334 -2.5 -47.001 -7.5s-32 -14.333 -46 -28s-25.667 -32.834 -35 -57.501s-14 -56.334 -14 -95.001c0 -21.333 2.5 -42.666 7.5 -63.999s13 -40.333 24 -57
s25.167 -30.167 42.5 -40.5s38.333 -15.5 63 -15.5c34 0 61.667 10.167 83 30.5s34.666 49.5 39.999 87.5h114c-10.667 -68 -36.167 -119.667 -76.5 -155s-93.833 -53 -160.5 -53c-40.667 0 -76.5 6.83301 -107.5 20.5s-57.167 32.334 -78.5 56.001
s-37.5 51.834 -48.5 84.501s-16.5 68 -16.5 106c0 38.667 5.33301 75 16 109s26.667 63.5 48 88.5s47.833 44.667 79.5 59s68.834 21.5 111.501 21.5c30 0 58.5 -3.83301 85.5 -11.5s51 -19.167 72 -34.5s38.167 -34.666 51.5 -57.999s21.333 -51 24 -83h-114z
M333.001 731.998h135l-142 -143h-83z" />
    <glyph glyph-name="Ccircumflex" unicode="&#x108;" horiz-adv-x="722" 
d="M558 487c-10.667 42 -30 76.1699 -58 102.503s-68 39.5 -120 39.5c-38 0 -70.833 -7.66699 -98.5 -23s-50.167 -35.833 -67.5 -61.5s-30.166 -54.834 -38.499 -87.501s-12.5 -66 -12.5 -100s4.16699 -67.333 12.5 -100s21.166 -61.834 38.499 -87.501
s39.833 -46.167 67.5 -61.5s60.5 -23 98.5 -23c28 0 52.667 4.83301 74 14.5s39.5 23 54.5 40s27 36.833 36 59.5s14.833 47 17.5 73h122c-2.66699 -42.667 -12 -81.667 -28 -117s-37.167 -65.833 -63.5 -91.5s-57.5 -45.5 -93.5 -59.5s-75.667 -21 -119 -21
c-53.333 0 -101.166 9.83301 -143.499 29.5s-78.166 46.5 -107.499 80.5s-51.833 73.667 -67.5 119s-23.5 93.666 -23.5 144.999c0 50.667 7.83301 98.667 23.5 144s38.167 85 67.5 119s65.166 61 107.499 81s90.166 30 143.499 30c40.667 0 78.5 -5.5 113.5 -16.5
s65.833 -27 92.5 -48s48.5 -46.5 65.5 -76.5s27.5 -64.333 31.5 -103h-125zM313 783.003h-92l107 143h111l108 -143h-93l-71 90z" />
    <glyph glyph-name="ccircumflex" unicode="&#x109;" 
d="M409 344c-4.66699 32 -17.499 56.165 -38.499 72.498s-47.5 24.5 -79.5 24.5c-14.667 0 -30.334 -2.5 -47.001 -7.5s-32 -14.333 -46 -28s-25.667 -32.834 -35 -57.501s-14 -56.334 -14 -95.001c0 -21.333 2.5 -42.666 7.5 -63.999s13 -40.333 24 -57
s25.167 -30.167 42.5 -40.5s38.333 -15.5 63 -15.5c34 0 61.667 10.167 83 30.5s34.666 49.5 39.999 87.5h114c-10.667 -68 -36.167 -119.667 -76.5 -155s-93.833 -53 -160.5 -53c-40.667 0 -76.5 6.83301 -107.5 20.5s-57.167 32.334 -78.5 56.001
s-37.5 51.834 -48.5 84.501s-16.5 68 -16.5 106c0 38.667 5.33301 75 16 109s26.667 63.5 48 88.5s47.833 44.667 79.5 59s68.834 21.5 111.501 21.5c30 0 58.5 -3.83301 85.5 -11.5s51 -19.167 72 -34.5s38.167 -34.666 51.5 -57.999s21.333 -51 24 -83h-114z
M221.001 588.998h-92l107 143h111l108 -143h-93l-71 90z" />
    <glyph glyph-name="Cdotaccent" unicode="&#x10a;" horiz-adv-x="722" 
d="M558 487c-10.667 42 -30 76.1699 -58 102.503s-68 39.5 -120 39.5c-38 0 -70.833 -7.66699 -98.5 -23s-50.167 -35.833 -67.5 -61.5s-30.166 -54.834 -38.499 -87.501s-12.5 -66 -12.5 -100s4.16699 -67.333 12.5 -100s21.166 -61.834 38.499 -87.501
s39.833 -46.167 67.5 -61.5s60.5 -23 98.5 -23c28 0 52.667 4.83301 74 14.5s39.5 23 54.5 40s27 36.833 36 59.5s14.833 47 17.5 73h122c-2.66699 -42.667 -12 -81.667 -28 -117s-37.167 -65.833 -63.5 -91.5s-57.5 -45.5 -93.5 -59.5s-75.667 -21 -119 -21
c-53.333 0 -101.166 9.83301 -143.499 29.5s-78.166 46.5 -107.499 80.5s-51.833 73.667 -67.5 119s-23.5 93.666 -23.5 144.999c0 50.667 7.83301 98.667 23.5 144s38.167 85 67.5 119s65.166 61 107.499 81s90.166 30 143.499 30c40.667 0 78.5 -5.5 113.5 -16.5
s65.833 -27 92.5 -48s48.5 -46.5 65.5 -76.5s27.5 -64.333 31.5 -103h-125zM325 796.003v108h114v-108h-114z" />
    <glyph glyph-name="cdotaccent" unicode="&#x10b;" 
d="M409 344c-4.66699 32 -17.499 56.165 -38.499 72.498s-47.5 24.5 -79.5 24.5c-14.667 0 -30.334 -2.5 -47.001 -7.5s-32 -14.333 -46 -28s-25.667 -32.834 -35 -57.501s-14 -56.334 -14 -95.001c0 -21.333 2.5 -42.666 7.5 -63.999s13 -40.333 24 -57
s25.167 -30.167 42.5 -40.5s38.333 -15.5 63 -15.5c34 0 61.667 10.167 83 30.5s34.666 49.5 39.999 87.5h114c-10.667 -68 -36.167 -119.667 -76.5 -155s-93.833 -53 -160.5 -53c-40.667 0 -76.5 6.83301 -107.5 20.5s-57.167 32.334 -78.5 56.001
s-37.5 51.834 -48.5 84.501s-16.5 68 -16.5 106c0 38.667 5.33301 75 16 109s26.667 63.5 48 88.5s47.833 44.667 79.5 59s68.834 21.5 111.501 21.5c30 0 58.5 -3.83301 85.5 -11.5s51 -19.167 72 -34.5s38.167 -34.666 51.5 -57.999s21.333 -51 24 -83h-114z
M233.001 601.998v108h114v-108h-114z" />
    <glyph glyph-name="Ccaron" unicode="&#x10c;" horiz-adv-x="722" 
d="M558 487c-10.667 42 -30 76.1699 -58 102.503s-68 39.5 -120 39.5c-38 0 -70.833 -7.66699 -98.5 -23s-50.167 -35.833 -67.5 -61.5s-30.166 -54.834 -38.499 -87.501s-12.5 -66 -12.5 -100s4.16699 -67.333 12.5 -100s21.166 -61.834 38.499 -87.501
s39.833 -46.167 67.5 -61.5s60.5 -23 98.5 -23c28 0 52.667 4.83301 74 14.5s39.5 23 54.5 40s27 36.833 36 59.5s14.833 47 17.5 73h122c-2.66699 -42.667 -12 -81.667 -28 -117s-37.167 -65.833 -63.5 -91.5s-57.5 -45.5 -93.5 -59.5s-75.667 -21 -119 -21
c-53.333 0 -101.166 9.83301 -143.499 29.5s-78.166 46.5 -107.499 80.5s-51.833 73.667 -67.5 119s-23.5 93.666 -23.5 144.999c0 50.667 7.83301 98.667 23.5 144s38.167 85 67.5 119s65.166 61 107.499 81s90.166 30 143.499 30c40.667 0 78.5 -5.5 113.5 -16.5
s65.833 -27 92.5 -48s48.5 -46.5 65.5 -76.5s27.5 -64.333 31.5 -103h-125zM437 783.003h-111l-107 143h92l70 -89l71 89h93z" />
    <glyph glyph-name="ccaron" unicode="&#x10d;" 
d="M409 344c-4.66699 32 -17.499 56.165 -38.499 72.498s-47.5 24.5 -79.5 24.5c-14.667 0 -30.334 -2.5 -47.001 -7.5s-32 -14.333 -46 -28s-25.667 -32.834 -35 -57.501s-14 -56.334 -14 -95.001c0 -21.333 2.5 -42.666 7.5 -63.999s13 -40.333 24 -57
s25.167 -30.167 42.5 -40.5s38.333 -15.5 63 -15.5c34 0 61.667 10.167 83 30.5s34.666 49.5 39.999 87.5h114c-10.667 -68 -36.167 -119.667 -76.5 -155s-93.833 -53 -160.5 -53c-40.667 0 -76.5 6.83301 -107.5 20.5s-57.167 32.334 -78.5 56.001
s-37.5 51.834 -48.5 84.501s-16.5 68 -16.5 106c0 38.667 5.33301 75 16 109s26.667 63.5 48 88.5s47.833 44.667 79.5 59s68.834 21.5 111.501 21.5c30 0 58.5 -3.83301 85.5 -11.5s51 -19.167 72 -34.5s38.167 -34.666 51.5 -57.999s21.333 -51 24 -83h-114z
M345.001 588.998h-111l-107 143h92l70 -89l71 89h93z" />
    <glyph glyph-name="Dcaron" unicode="&#x10e;" horiz-adv-x="722" 
d="M76 714l296 -0.00390625c54.667 0 102 -9.33301 142 -28s72.667 -44.167 98 -76.5s44.166 -70.166 56.499 -113.499s18.5 -89.666 18.5 -138.999s-6.16699 -95.666 -18.5 -138.999s-31.166 -81.166 -56.499 -113.499s-58 -57.833 -98 -76.5s-87.333 -28 -142 -28h-296
v714zM201 101.996h123c48.667 0 88.5 6.5 119.5 19.5s55.333 31 73 54s29.667 50 36 81s9.5 64.5 9.5 100.5s-3.16699 69.5 -9.5 100.5s-18.333 58 -36 81s-42 41 -73 54s-70.833 19.5 -119.5 19.5h-123v-510zM382 782.996h-111l-107 143h92l70 -89l71 89h93z" />
    <glyph glyph-name="dcaron" unicode="&#x10f;" horiz-adv-x="611" 
d="M547 0l-108.001 -0.00195312v70h-2c-15.333 -30 -37.666 -51.5 -66.999 -64.5s-60.333 -19.5 -93 -19.5c-40.667 0 -76.167 7.16699 -106.5 21.5s-55.5 33.833 -75.5 58.5s-35 53.834 -45 87.501s-15 69.834 -15 108.501c0 46.667 6.33301 87 19 121s29.5 62 50.5 84
s45 38.167 72 48.5s54.5 15.5 82.5 15.5c16 0 32.333 -1.5 49 -4.5s32.667 -7.83301 48 -14.5s29.5 -15.167 42.5 -25.5s23.833 -22.5 32.5 -36.5h2v264h114v-714zM148.999 252.998c0 -22 2.83203 -43.666 8.49902 -64.999s14.334 -40.333 26.001 -57s26.5 -30 44.5 -40
s39.333 -15 64 -15c25.333 0 47.166 5.33301 65.499 16s33.333 24.667 45 42s20.334 36.833 26.001 58.5s8.5 43.834 8.5 66.501c0 58 -12.833 102.833 -38.5 134.5s-60.5 47.5 -104.5 47.5c-26.667 0 -49.167 -5.5 -67.5 -16.5s-33.333 -25.333 -45 -43
s-20 -37.834 -25 -60.501s-7.5 -45.334 -7.5 -68.001zM629.998 713.999h125l-81 -143h-76z" />
    <glyph glyph-name="Dcroat" unicode="&#x110;" horiz-adv-x="722" 
d="M201 419h195v-102h-195v-215h123c48.667 0 88.5 6.5 119.5 19.5s55.333 31 73 54s29.667 50 36 81s9.5 64.5 9.5 100.5s-3.16699 69.5 -9.5 100.5s-18.333 58 -36 81s-42 41 -73 54s-70.833 19.5 -119.5 19.5h-123v-193zM76 317l-67 -0.00390625v102h67v295h296
c54.667 0 102 -9.33301 142 -28s72.667 -44.167 98 -76.5s44.166 -70.166 56.499 -113.499s18.5 -89.666 18.5 -138.999s-6.16699 -95.666 -18.5 -138.999s-31.166 -81.166 -56.499 -113.499s-58 -57.833 -98 -76.5s-87.333 -28 -142 -28h-296v317z" />
    <glyph glyph-name="dcroat" unicode="&#x111;" horiz-adv-x="620" 
d="M547 0l-108.001 -0.00195312v70h-2c-15.333 -30 -37.666 -51.5 -66.999 -64.5s-60.333 -19.5 -93 -19.5c-40.667 0 -76.167 7.16699 -106.5 21.5s-55.5 33.833 -75.5 58.5s-35 53.834 -45 87.501s-15 69.834 -15 108.501c0 46.667 6.33301 87 19 121s29.5 62 50.5 84
s45 38.167 72 48.5s54.5 15.5 82.5 15.5c16 0 32.333 -1.5 49 -4.5s32.667 -7.83301 48 -14.5s29.5 -15.167 42.5 -25.5s23.833 -22.5 32.5 -36.5h2v134h-153v65h153v65h114v-65h79v-65h-79v-584zM148.999 252.998c0 -22 2.83203 -43.666 8.49902 -64.999
s14.334 -40.333 26.001 -57s26.5 -30 44.5 -40s39.333 -15 64 -15c25.333 0 47.166 5.33301 65.499 16s33.333 24.667 45 42s20.334 36.833 26.001 58.5s8.5 43.834 8.5 66.501c0 58 -12.833 102.833 -38.5 134.5s-60.5 47.5 -104.5 47.5
c-26.667 0 -49.167 -5.5 -67.5 -16.5s-33.333 -25.333 -45 -43s-20 -37.834 -25 -60.501s-7.5 -45.334 -7.5 -68.001z" />
    <glyph glyph-name="Emacron" unicode="&#x112;" horiz-adv-x="630" 
d="M76 714h514v-108h-389v-187h360v-102h-360v-209h396v-108h-521v714zM188 818v65h288v-65h-288z" />
    <glyph glyph-name="emacron" unicode="&#x113;" 
d="M415 304c-1.33301 18 -5.16699 35.333 -11.5 52s-15 31.167 -26 43.5s-24.333 22.333 -40 30s-33.167 11.5 -52.5 11.5c-20 0 -38.167 -3.5 -54.5 -10.5s-30.333 -16.667 -42 -29s-21 -26.833 -28 -43.5s-10.833 -34.667 -11.5 -54h266zM148.999 229
c0 -20 2.83398 -39.333 8.50098 -58s14.167 -35 25.5 -49s25.666 -25.167 42.999 -33.5s38 -12.5 62 -12.5c34 0 61 7.16699 81 21.5s35 35.833 45 64.5h108c-6 -28 -16.333 -53 -31 -75s-32.334 -40.5 -53.001 -55.5s-43.834 -26.333 -69.501 -34s-52.5 -11.5 -80.5 -11.5
c-40.667 0 -76.667 6.66699 -108 20s-57.833 32 -79.5 56s-38 52.667 -49 86s-16.5 70 -16.5 110c0 36.667 5.83301 71.5 17.5 104.5s28.334 62 50.001 87s47.834 44.833 78.501 59.5s65.334 22 104.001 22c40.667 0 77.167 -8.5 109.5 -25.5s59.166 -39.5 80.499 -67.5
s36.833 -60.167 46.5 -96.5s12.167 -73.833 7.5 -112.5h-380zM142 624v65h288v-65h-288z" />
    <glyph glyph-name="Ebreve" unicode="&#x114;" horiz-adv-x="630" 
d="M76 714h514v-108h-389v-187h360v-102h-360v-209h396v-108h-521v714zM227 925c5.33301 -28 17.834 -47.667 37.501 -59s42.834 -17 69.501 -17c25.333 0 47.166 6.33301 65.499 19s30.166 31.667 35.499 57h57c-5.33301 -48 -22.833 -83.5 -52.5 -106.5
s-67.5 -34.5 -113.5 -34.5s-82.667 12 -110 36s-43 59 -47 105h58z" />
    <glyph glyph-name="ebreve" unicode="&#x115;" 
d="M415 304c-1.33301 18 -5.16699 35.333 -11.5 52s-15 31.167 -26 43.5s-24.333 22.333 -40 30s-33.167 11.5 -52.5 11.5c-20 0 -38.167 -3.5 -54.5 -10.5s-30.333 -16.667 -42 -29s-21 -26.833 -28 -43.5s-10.833 -34.667 -11.5 -54h266zM148.999 229
c0 -20 2.83398 -39.333 8.50098 -58s14.167 -35 25.5 -49s25.666 -25.167 42.999 -33.5s38 -12.5 62 -12.5c34 0 61 7.16699 81 21.5s35 35.833 45 64.5h108c-6 -28 -16.333 -53 -31 -75s-32.334 -40.5 -53.001 -55.5s-43.834 -26.333 -69.501 -34s-52.5 -11.5 -80.5 -11.5
c-40.667 0 -76.667 6.66699 -108 20s-57.833 32 -79.5 56s-38 52.667 -49 86s-16.5 70 -16.5 110c0 36.667 5.83301 71.5 17.5 104.5s28.334 62 50.001 87s47.834 44.833 78.501 59.5s65.334 22 104.001 22c40.667 0 77.167 -8.5 109.5 -25.5s59.166 -39.5 80.499 -67.5
s36.833 -60.167 46.5 -96.5s12.167 -73.833 7.5 -112.5h-380zM182 731c5.33301 -28 17.834 -47.667 37.501 -59s42.834 -17 69.501 -17c25.333 0 47.166 6.33301 65.499 19s30.166 31.667 35.499 57h57c-5.33301 -48 -22.833 -83.5 -52.5 -106.5s-67.5 -34.5 -113.5 -34.5
s-82.667 12 -110 36s-43 59 -47 105h58z" />
    <glyph glyph-name="Edotaccent" unicode="&#x116;" horiz-adv-x="630" 
d="M76 714h514v-108h-389v-187h360v-102h-360v-209h396v-108h-521v714zM276 796v108h114v-108h-114z" />
    <glyph glyph-name="edotaccent" unicode="&#x117;" 
d="M415 304c-1.33301 18 -5.16699 35.333 -11.5 52s-15 31.167 -26 43.5s-24.333 22.333 -40 30s-33.167 11.5 -52.5 11.5c-20 0 -38.167 -3.5 -54.5 -10.5s-30.333 -16.667 -42 -29s-21 -26.833 -28 -43.5s-10.833 -34.667 -11.5 -54h266zM148.999 229
c0 -20 2.83398 -39.333 8.50098 -58s14.167 -35 25.5 -49s25.666 -25.167 42.999 -33.5s38 -12.5 62 -12.5c34 0 61 7.16699 81 21.5s35 35.833 45 64.5h108c-6 -28 -16.333 -53 -31 -75s-32.334 -40.5 -53.001 -55.5s-43.834 -26.333 -69.501 -34s-52.5 -11.5 -80.5 -11.5
c-40.667 0 -76.667 6.66699 -108 20s-57.833 32 -79.5 56s-38 52.667 -49 86s-16.5 70 -16.5 110c0 36.667 5.83301 71.5 17.5 104.5s28.334 62 50.001 87s47.834 44.833 78.501 59.5s65.334 22 104.001 22c40.667 0 77.167 -8.5 109.5 -25.5s59.166 -39.5 80.499 -67.5
s36.833 -60.167 46.5 -96.5s12.167 -73.833 7.5 -112.5h-380zM228 602v108h114v-108h-114z" />
    <glyph glyph-name="Eogonek" unicode="&#x118;" horiz-adv-x="630" 
d="M559 0c-18.667 -14.667 -34.1621 -27.8311 -46.4951 -39.498s-22 -22.5 -29 -32.5s-11.833 -19.667 -14.5 -29s-4 -18.666 -4 -27.999c0 -13.333 4 -24 12 -32s17 -12 27 -12s19 2.33301 27 7s16.333 13.667 25 27l41 -9c-4 -14.667 -9.83301 -26.834 -17.5 -36.501
s-16.334 -17.334 -26.001 -23.001s-19.834 -9.66699 -30.501 -12s-21 -3.5 -31 -3.5c-4.66699 0 -12.5 0.666992 -23.5 2s-22.333 5 -34 11s-21.834 15 -30.501 27s-13 28.667 -13 50c0 4.66699 0.666992 11.167 2 19.5s5.66602 18.166 12.999 29.499s18.666 24 33.999 38
s37 29.333 65 46h-429v714h514v-108h-389v-187h360v-102h-360v-209h396v-108h-38z" />
    <glyph glyph-name="eogonek" unicode="&#x119;" 
d="M149 229c0 -20 2.83398 -39.3301 8.50098 -57.9971s14.167 -35 25.5 -49s25.666 -25.167 42.999 -33.5s38 -12.5 62 -12.5c34 0 61 7.16699 81 21.5s35 35.833 45 64.5h108c-9.33301 -42 -27.666 -77 -54.999 -105s-60.333 -47.667 -99 -59
c-5.33301 -1.33301 -11 -2.66602 -17 -3.99902l-18 -4l-18 -15c-5.33301 -4.66699 -10.333 -9.33398 -15 -14.001c-18.667 -18.667 -31.167 -34.834 -37.5 -48.501s-9.5 -27.5 -9.5 -41.5c0 -13.333 4 -24 12 -32s17 -12 27 -12s19 2.33301 27 7s16.333 13.667 25 27l41 -9
c-4 -14.667 -9.83301 -26.834 -17.5 -36.501s-16.334 -17.334 -26.001 -23.001s-19.834 -9.66699 -30.501 -12s-21 -3.5 -31 -3.5c-4.66699 0 -12.5 0.666992 -23.5 2s-22.333 5 -34 11s-21.834 15 -30.501 27s-13 28.667 -13 50c0 4 0.333008 8.83301 1 14.5s2.5 12 5.5 19
s7.83301 15 14.5 24s16 18.833 28 29.5c10.667 10 24.667 21 42 33c-16.667 0.666992 -32.5 2.66699 -47.5 6s-29.167 7.66602 -42.5 12.999c-47.333 20 -83.333 51.833 -108 95.5s-37 95.834 -37 156.501c0 36.667 5.83301 71.5 17.5 104.5s28.334 62 50.001 87
s47.834 44.833 78.501 59.5s65.334 22 104.001 22c40.667 0 77.167 -8.5 109.5 -25.5s59.166 -39.5 80.499 -67.5s36.833 -60.167 46.5 -96.5s12.167 -73.833 7.5 -112.5h-380zM415.001 304.003c-1.33301 18 -5.16699 35.333 -11.5 52s-15 31.167 -26 43.5
s-24.333 22.333 -40 30s-33.167 11.5 -52.5 11.5c-20 0 -38.167 -3.5 -54.5 -10.5s-30.333 -16.667 -42 -29s-21 -26.833 -28 -43.5s-10.833 -34.667 -11.5 -54h266z" />
    <glyph glyph-name="Ecaron" unicode="&#x11a;" horiz-adv-x="630" 
d="M76 714h514v-108h-389v-187h360v-102h-360v-209h396v-108h-521v714zM387 783h-111l-107 143h92l70 -89l71 89h93z" />
    <glyph glyph-name="ecaron" unicode="&#x11b;" 
d="M415 304c-1.33301 18 -5.16699 35.333 -11.5 52s-15 31.167 -26 43.5s-24.333 22.333 -40 30s-33.167 11.5 -52.5 11.5c-20 0 -38.167 -3.5 -54.5 -10.5s-30.333 -16.667 -42 -29s-21 -26.833 -28 -43.5s-10.833 -34.667 -11.5 -54h266zM148.999 229
c0 -20 2.83398 -39.333 8.50098 -58s14.167 -35 25.5 -49s25.666 -25.167 42.999 -33.5s38 -12.5 62 -12.5c34 0 61 7.16699 81 21.5s35 35.833 45 64.5h108c-6 -28 -16.333 -53 -31 -75s-32.334 -40.5 -53.001 -55.5s-43.834 -26.333 -69.501 -34s-52.5 -11.5 -80.5 -11.5
c-40.667 0 -76.667 6.66699 -108 20s-57.833 32 -79.5 56s-38 52.667 -49 86s-16.5 70 -16.5 110c0 36.667 5.83301 71.5 17.5 104.5s28.334 62 50.001 87s47.834 44.833 78.501 59.5s65.334 22 104.001 22c40.667 0 77.167 -8.5 109.5 -25.5s59.166 -39.5 80.499 -67.5
s36.833 -60.167 46.5 -96.5s12.167 -73.833 7.5 -112.5h-380zM340 589h-111l-107 143h92l70 -89l71 89h93z" />
    <glyph glyph-name="Gcircumflex" unicode="&#x11c;" horiz-adv-x="759" 
d="M699 0h-80.001l-19 84c-33.333 -38 -66.666 -64.333 -99.999 -79s-71.666 -22 -114.999 -22c-53.333 0 -101.166 9.83301 -143.499 29.5s-78.166 46.5 -107.499 80.5s-51.833 73.667 -67.5 119s-23.5 93.666 -23.5 144.999c0 50.667 7.83301 98.667 23.5 144
s38.167 85 67.5 119s65.166 61 107.499 81s90.166 30 143.499 30c38.667 0 75.5 -5.16699 110.5 -15.5s66.167 -25.666 93.5 -45.999s50 -45.833 68 -76.5s29.333 -66 34 -106h-122c-3.33301 23.333 -10.5 43.833 -21.5 61.5s-24.833 32.5 -41.5 44.5s-35.334 21 -56.001 27
s-42.334 9 -65.001 9c-38 0 -70.833 -7.66699 -98.5 -23s-50.167 -35.833 -67.5 -61.5s-30.166 -54.834 -38.499 -87.501s-12.5 -66 -12.5 -100s4.16699 -67.333 12.5 -100s21.166 -61.834 38.499 -87.501s39.833 -46.167 67.5 -61.5s60.5 -23 98.5 -23
c64.667 -1.33301 113.834 15.834 147.501 51.501s51.167 83.834 52.5 144.501h-190v95h304v-376zM318.999 783h-92l107 143h111l108 -143h-93l-71 90z" />
    <glyph glyph-name="gcircumflex" unicode="&#x11d;" horiz-adv-x="593" 
d="M538 27c0 -78.667 -21.665 -137.001 -64.998 -175.001s-106.333 -57 -189 -57c-26 0 -52.167 2.66699 -78.5 8s-50.333 14.333 -72 27s-39.834 29.334 -54.501 50.001s-23.334 46 -26.001 76h114c3.33301 -16 9 -29 17 -39s17.5 -17.833 28.5 -23.5
s23.167 -9.33398 36.5 -11.001s27.333 -2.5 42 -2.5c46 0 79.667 11.333 101 34s32 55.334 32 98.001v79h-2c-16 -28.667 -37.833 -51 -65.5 -67s-57.5 -24 -89.5 -24c-41.333 0 -76.5 7.16699 -105.5 21.5s-53 34 -72 59s-32.833 53.833 -41.5 86.5s-13 67.667 -13 105
c0 34.667 5.33301 67.667 16 99s26 58.833 46 82.5s44.5 42.5 73.5 56.5s61.833 21 98.5 21c32.667 0 62.667 -6.66699 90 -20s48.333 -35 63 -65h2v71h114v-490zM285.002 89.999c25.333 0 46.834 5.16602 64.501 15.499s32 24 43 41s19 36.333 24 58s7.5 43.5 7.5 65.5
s-2.66699 43.333 -8 64s-13.5 39 -24.5 55s-25.333 28.667 -43 38s-38.834 14 -63.501 14c-25.333 0 -46.666 -5.33301 -63.999 -16s-31.333 -24.5 -42 -41.5s-18.334 -36.333 -23.001 -58s-7 -43.167 -7 -64.5s2.66699 -42.166 8 -62.499s13.5 -38.5 24.5 -54.5
s25 -29 42 -39s37.5 -15 61.5 -15zM225.003 588.998h-92l107 143h111l108 -143h-93l-71 90z" />
    <glyph glyph-name="Gbreve" unicode="&#x11e;" horiz-adv-x="759" 
d="M699 0h-80.001l-19 84c-33.333 -38 -66.666 -64.333 -99.999 -79s-71.666 -22 -114.999 -22c-53.333 0 -101.166 9.83301 -143.499 29.5s-78.166 46.5 -107.499 80.5s-51.833 73.667 -67.5 119s-23.5 93.666 -23.5 144.999c0 50.667 7.83301 98.667 23.5 144
s38.167 85 67.5 119s65.166 61 107.499 81s90.166 30 143.499 30c38.667 0 75.5 -5.16699 110.5 -15.5s66.167 -25.666 93.5 -45.999s50 -45.833 68 -76.5s29.333 -66 34 -106h-122c-3.33301 23.333 -10.5 43.833 -21.5 61.5s-24.833 32.5 -41.5 44.5s-35.334 21 -56.001 27
s-42.334 9 -65.001 9c-38 0 -70.833 -7.66699 -98.5 -23s-50.167 -35.833 -67.5 -61.5s-30.166 -54.834 -38.499 -87.501s-12.5 -66 -12.5 -100s4.16699 -67.333 12.5 -100s21.166 -61.834 38.499 -87.501s39.833 -46.167 67.5 -61.5s60.5 -23 98.5 -23
c64.667 -1.33301 113.834 15.834 147.501 51.501s51.167 83.834 52.5 144.501h-190v95h304v-376zM285.999 925c5.33301 -28 17.834 -47.667 37.501 -59s42.834 -17 69.501 -17c25.333 0 47.166 6.33301 65.499 19s30.166 31.667 35.499 57h57
c-5.33301 -48 -22.833 -83.5 -52.5 -106.5s-67.5 -34.5 -113.5 -34.5s-82.667 12 -110 36s-43 59 -47 105h58z" />
    <glyph glyph-name="gbreve" unicode="&#x11f;" horiz-adv-x="593" 
d="M538 27c0 -78.667 -21.665 -137.001 -64.998 -175.001s-106.333 -57 -189 -57c-26 0 -52.167 2.66699 -78.5 8s-50.333 14.333 -72 27s-39.834 29.334 -54.501 50.001s-23.334 46 -26.001 76h114c3.33301 -16 9 -29 17 -39s17.5 -17.833 28.5 -23.5
s23.167 -9.33398 36.5 -11.001s27.333 -2.5 42 -2.5c46 0 79.667 11.333 101 34s32 55.334 32 98.001v79h-2c-16 -28.667 -37.833 -51 -65.5 -67s-57.5 -24 -89.5 -24c-41.333 0 -76.5 7.16699 -105.5 21.5s-53 34 -72 59s-32.833 53.833 -41.5 86.5s-13 67.667 -13 105
c0 34.667 5.33301 67.667 16 99s26 58.833 46 82.5s44.5 42.5 73.5 56.5s61.833 21 98.5 21c32.667 0 62.667 -6.66699 90 -20s48.333 -35 63 -65h2v71h114v-490zM285.002 89.999c25.333 0 46.834 5.16602 64.501 15.499s32 24 43 41s19 36.333 24 58s7.5 43.5 7.5 65.5
s-2.66699 43.333 -8 64s-13.5 39 -24.5 55s-25.333 28.667 -43 38s-38.834 14 -63.501 14c-25.333 0 -46.666 -5.33301 -63.999 -16s-31.333 -24.5 -42 -41.5s-18.334 -36.333 -23.001 -58s-7 -43.167 -7 -64.5s2.66699 -42.166 8 -62.499s13.5 -38.5 24.5 -54.5
s25 -29 42 -39s37.5 -15 61.5 -15zM190.003 730.998c5.33301 -28 17.834 -47.667 37.501 -59s42.834 -17 69.501 -17c25.333 0 47.166 6.33301 65.499 19s30.166 31.667 35.499 57h57c-5.33301 -48 -22.833 -83.5 -52.5 -106.5s-67.5 -34.5 -113.5 -34.5s-82.667 12 -110 36
s-43 59 -47 105h58z" />
    <glyph glyph-name="Gdotaccent" unicode="&#x120;" horiz-adv-x="759" 
d="M699 0h-80.001l-19 84c-33.333 -38 -66.666 -64.333 -99.999 -79s-71.666 -22 -114.999 -22c-53.333 0 -101.166 9.83301 -143.499 29.5s-78.166 46.5 -107.499 80.5s-51.833 73.667 -67.5 119s-23.5 93.666 -23.5 144.999c0 50.667 7.83301 98.667 23.5 144
s38.167 85 67.5 119s65.166 61 107.499 81s90.166 30 143.499 30c38.667 0 75.5 -5.16699 110.5 -15.5s66.167 -25.666 93.5 -45.999s50 -45.833 68 -76.5s29.333 -66 34 -106h-122c-3.33301 23.333 -10.5 43.833 -21.5 61.5s-24.833 32.5 -41.5 44.5s-35.334 21 -56.001 27
s-42.334 9 -65.001 9c-38 0 -70.833 -7.66699 -98.5 -23s-50.167 -35.833 -67.5 -61.5s-30.166 -54.834 -38.499 -87.501s-12.5 -66 -12.5 -100s4.16699 -67.333 12.5 -100s21.166 -61.834 38.499 -87.501s39.833 -46.167 67.5 -61.5s60.5 -23 98.5 -23
c64.667 -1.33301 113.834 15.834 147.501 51.501s51.167 83.834 52.5 144.501h-190v95h304v-376zM330.999 796v108h114v-108h-114z" />
    <glyph glyph-name="gdotaccent" unicode="&#x121;" horiz-adv-x="593" 
d="M538 27c0 -78.667 -21.665 -137.001 -64.998 -175.001s-106.333 -57 -189 -57c-26 0 -52.167 2.66699 -78.5 8s-50.333 14.333 -72 27s-39.834 29.334 -54.501 50.001s-23.334 46 -26.001 76h114c3.33301 -16 9 -29 17 -39s17.5 -17.833 28.5 -23.5
s23.167 -9.33398 36.5 -11.001s27.333 -2.5 42 -2.5c46 0 79.667 11.333 101 34s32 55.334 32 98.001v79h-2c-16 -28.667 -37.833 -51 -65.5 -67s-57.5 -24 -89.5 -24c-41.333 0 -76.5 7.16699 -105.5 21.5s-53 34 -72 59s-32.833 53.833 -41.5 86.5s-13 67.667 -13 105
c0 34.667 5.33301 67.667 16 99s26 58.833 46 82.5s44.5 42.5 73.5 56.5s61.833 21 98.5 21c32.667 0 62.667 -6.66699 90 -20s48.333 -35 63 -65h2v71h114v-490zM285.002 89.999c25.333 0 46.834 5.16602 64.501 15.499s32 24 43 41s19 36.333 24 58s7.5 43.5 7.5 65.5
s-2.66699 43.333 -8 64s-13.5 39 -24.5 55s-25.333 28.667 -43 38s-38.834 14 -63.501 14c-25.333 0 -46.666 -5.33301 -63.999 -16s-31.333 -24.5 -42 -41.5s-18.334 -36.333 -23.001 -58s-7 -43.167 -7 -64.5s2.66699 -42.166 8 -62.499s13.5 -38.5 24.5 -54.5
s25 -29 42 -39s37.5 -15 61.5 -15zM238.003 601.998v108h114v-108h-114z" />
    <glyph glyph-name="Gcommaaccent" unicode="&#x122;" horiz-adv-x="759" 
d="M699 0h-80.001l-19 84c-33.333 -38 -66.666 -64.333 -99.999 -79s-71.666 -22 -114.999 -22c-53.333 0 -101.166 9.83301 -143.499 29.5s-78.166 46.5 -107.499 80.5s-51.833 73.667 -67.5 119s-23.5 93.666 -23.5 144.999c0 50.667 7.83301 98.667 23.5 144
s38.167 85 67.5 119s65.166 61 107.499 81s90.166 30 143.499 30c38.667 0 75.5 -5.16699 110.5 -15.5s66.167 -25.666 93.5 -45.999s50 -45.833 68 -76.5s29.333 -66 34 -106h-122c-3.33301 23.333 -10.5 43.833 -21.5 61.5s-24.833 32.5 -41.5 44.5s-35.334 21 -56.001 27
s-42.334 9 -65.001 9c-38 0 -70.833 -7.66699 -98.5 -23s-50.167 -35.833 -67.5 -61.5s-30.166 -54.834 -38.499 -87.501s-12.5 -66 -12.5 -100s4.16699 -67.333 12.5 -100s21.166 -61.834 38.499 -87.501s39.833 -46.167 67.5 -61.5s60.5 -23 98.5 -23
c64.667 -1.33301 113.834 15.834 147.501 51.501s51.167 83.834 52.5 144.501h-190v95h304v-376zM317.999 -50l131 0.00292969v-89c0 -10.667 -1.66699 -20.834 -5 -30.501s-9.33301 -18.334 -18 -26.001s-20.5 -14 -35.5 -19s-34.167 -7.83301 -57.5 -8.5v38
c14 2 24.5 5.66699 31.5 11s11.5 13.666 13.5 24.999h-60v99z" />
    <glyph glyph-name="gcommaaccent" unicode="&#x123;" horiz-adv-x="593" 
d="M538 27c0 -78.667 -21.665 -137.001 -64.998 -175.001s-106.333 -57 -189 -57c-26 0 -52.167 2.66699 -78.5 8s-50.333 14.333 -72 27s-39.834 29.334 -54.501 50.001s-23.334 46 -26.001 76h114c3.33301 -16 9 -29 17 -39s17.5 -17.833 28.5 -23.5
s23.167 -9.33398 36.5 -11.001s27.333 -2.5 42 -2.5c46 0 79.667 11.333 101 34s32 55.334 32 98.001v79h-2c-16 -28.667 -37.833 -51 -65.5 -67s-57.5 -24 -89.5 -24c-41.333 0 -76.5 7.16699 -105.5 21.5s-53 34 -72 59s-32.833 53.833 -41.5 86.5s-13 67.667 -13 105
c0 34.667 5.33301 67.667 16 99s26 58.833 46 82.5s44.5 42.5 73.5 56.5s61.833 21 98.5 21c32.667 0 62.667 -6.66699 90 -20s48.333 -35 63 -65h2v71h114v-490zM285.002 89.999c25.333 0 46.834 5.16602 64.501 15.499s32 24 43 41s19 36.333 24 58s7.5 43.5 7.5 65.5
s-2.66699 43.333 -8 64s-13.5 39 -24.5 55s-25.333 28.667 -43 38s-38.834 14 -63.501 14c-25.333 0 -46.666 -5.33301 -63.999 -16s-31.333 -24.5 -42 -41.5s-18.334 -36.333 -23.001 -58s-7 -43.167 -7 -64.5s2.66699 -42.166 8 -62.499s13.5 -38.5 24.5 -54.5
s25 -29 42 -39s37.5 -15 61.5 -15zM361.003 614.998l-131 -0.00390625v89c0 10.667 1.66699 20.834 5 30.501s9.33301 18.334 18 26.001s20.5 13.834 35.5 18.501s34.167 7.66699 57.5 9v-38c-14 -2 -24.5 -5.66699 -31.5 -11s-11.5 -13.666 -13.5 -24.999h60v-99z" />
    <glyph glyph-name="Hcircumflex" unicode="&#x124;" horiz-adv-x="722" 
d="M73 714h125v-284h325v284h125v-714h-125v322h-325v-322h-125v714zM290 783h-92l107 143h111l108 -143h-93l-71 90z" />
    <glyph glyph-name="hcircumflex" unicode="&#x125;" horiz-adv-x="574" 
d="M60 714l113.998 0.000976562v-265h2c14 23.333 34.833 42.833 62.5 58.5s58.5 23.5 92.5 23.5c56.667 0 101.334 -14.667 134.001 -44s49 -73.333 49 -132v-355h-114v325c-1.33301 40.667 -10 70.167 -26 88.5s-41 27.5 -75 27.5c-19.333 0 -36.666 -3.5 -51.999 -10.5
s-28.333 -16.667 -39 -29s-19 -26.833 -25 -43.5s-9 -34.334 -9 -53.001v-305h-114v714zM209.998 783.001h-92l107 143h111l108 -143h-93l-71 90z" />
    <glyph glyph-name="Hbar" unicode="&#x126;" horiz-adv-x="722" 
d="M73 714h125v-142h325v142h125v-714h-125v290h-325v-290h-125v714zM523 398v109h-325v-109h325z" />
    <glyph glyph-name="hbar" unicode="&#x127;" horiz-adv-x="584" 
d="M70 714l113.998 0.000976562v-65h126v-65h-126v-135h2c14 23.333 34.833 42.833 62.5 58.5s58.5 23.5 92.5 23.5c56.667 0 101.334 -14.667 134.001 -44s49 -73.333 49 -132v-355h-114v325c-1.33301 40.667 -10 70.167 -26 88.5s-41 27.5 -75 27.5
c-19.333 0 -36.666 -3.5 -51.999 -10.5s-28.333 -16.667 -39 -29s-19 -26.833 -25 -43.5s-9 -34.334 -9 -53.001v-305h-114v584h-76v65h76v65z" />
    <glyph glyph-name="Itilde" unicode="&#x128;" horiz-adv-x="278" 
d="M76 714h125v-714h-125v714zM316 914c-2.66699 -16 -6.50195 -31.001 -11.502 -45.001s-12.167 -26 -21.5 -36c-8.66699 -10.667 -19.334 -19 -32.001 -25s-28 -9 -46 -9c-11.333 0 -23.333 1.83301 -36 5.5s-25.334 8.16699 -38.001 13.5
c-15.333 6.66699 -27.666 11.334 -36.999 14.001s-19.666 4 -30.999 4c-23.333 0 -37.666 -13.667 -42.999 -41h-57c2 12.667 5.66699 25.667 11 39s12.333 25.5 21 36.5s19 20 31 27s25.667 10.5 41 10.5c12.667 0 24.167 -1.16699 34.5 -3.5s25.833 -7.83301 46.5 -16.5
c14 -6 25.5 -10.5 34.5 -13.5s18.167 -4.5 27.5 -4.5c14.667 0 25.834 4 33.501 12s13.167 18.667 16.5 32h56z" />
    <glyph glyph-name="itilde" unicode="&#x129;" horiz-adv-x="241" 
d="M63 0v517h114v-517h-114zM298 720c-2.66699 -16 -6.50195 -31.001 -11.502 -45.001s-12.167 -26 -21.5 -36c-8.66699 -10.667 -19.334 -19 -32.001 -25s-28 -9 -46 -9c-11.333 0 -23.333 1.83301 -36 5.5s-25.334 8.16699 -38.001 13.5
c-15.333 6.66699 -27.666 11.334 -36.999 14.001s-19.666 4 -30.999 4c-23.333 0 -37.666 -13.667 -42.999 -41h-57c2 12.667 5.66699 25.667 11 39s12.333 25.5 21 36.5s19 20 31 27s25.667 10.5 41 10.5c12.667 0 24.167 -1.16699 34.5 -3.5s25.833 -7.83301 46.5 -16.5
c14 -6 25.5 -10.5 34.5 -13.5s18.167 -4.5 27.5 -4.5c14.667 0 25.834 4 33.501 12s13.167 18.667 16.5 32h56z" />
    <glyph glyph-name="Imacron" unicode="&#x12a;" horiz-adv-x="278" 
d="M76 714h125v-714h-125v714zM-6 818v65h288v-65h-288z" />
    <glyph glyph-name="imacron" unicode="&#x12b;" horiz-adv-x="241" 
d="M63 0v517h114v-517h-114zM-23 624v65h288v-65h-288z" />
    <glyph glyph-name="Iogonek" unicode="&#x12e;" horiz-adv-x="278" 
d="M201 0c-33.333 -29.333 -55.668 -53.5 -67.001 -72.5s-17 -37.833 -17 -56.5c0 -13.333 3.5 -24 10.5 -32s15.167 -12 24.5 -12c8.66699 0 16.667 2.33301 24 7s15 13.667 23 27l37 -9c-8 -29.333 -21.333 -49.166 -40 -59.499s-37 -15.5 -55 -15.5
c-4 0 -11 0.666992 -21 2s-20.167 5 -30.5 11s-19.5 15 -27.5 27s-12 28.667 -12 50c0 4.66699 0.666992 11.167 2 19.5s5.33301 18.166 12 29.499s16.834 24 30.501 38s33.167 29.333 58.5 46h-77v714h125v-714z" />
    <glyph glyph-name="iogonek" unicode="&#x12f;" horiz-adv-x="241" 
d="M176 0c-17.333 -15.333 -31.3291 -28.8301 -41.9961 -40.4971s-19.334 -22.5 -26.001 -32.5s-11.167 -19.5 -13.5 -28.5s-3.5 -18.167 -3.5 -27.5c0 -13.333 3.66699 -24 11 -32s15.333 -12 24 -12c9.33301 0 17.666 2.33301 24.999 7s14.666 13.667 21.999 27l37 -9
c-3.33301 -14.667 -8.5 -26.834 -15.5 -36.501s-14.833 -17.334 -23.5 -23.001s-17.834 -9.66699 -27.501 -12s-18.834 -3.5 -27.501 -3.5c-4.66699 0 -12 0.666992 -22 2s-20.167 5 -30.5 11s-19.5 15 -27.5 27s-12 28.667 -12 50c0 4.66699 0.666992 11.167 2 19.5
s5.33301 18.166 12 29.499s16.834 24 30.501 38s33.167 29.333 58.5 46h-64v517h114v-517h-1zM63.0039 714.003h114v-108h-114v108z" />
    <glyph glyph-name="Idotaccent" unicode="&#x130;" horiz-adv-x="278" 
d="M76 714h125v-714h-125v714zM82 796v108h114v-108h-114z" />
    <glyph glyph-name="dotlessi" unicode="&#x131;" horiz-adv-x="241" 
d="M63 0v517h114v-517h-114z" />
    <glyph glyph-name="Jcircumflex" unicode="&#x134;" horiz-adv-x="537" 
d="M461 230c0 -31.333 -2.66895 -61.668 -8.00195 -91.001s-16.166 -55.666 -32.499 -78.999s-40 -42 -71 -56s-72.167 -21 -123.5 -21c-38 0 -70.333 5.83301 -97 17.5s-48.667 27.667 -66 48s-30 44.5 -38 72.5s-12 58.333 -12 91v38h125v-37
c0 -40.667 6.83301 -72.167 20.5 -94.5s39.5 -33.5 77.5 -33.5c20 0 36.5 3 49.5 9s23.333 14.833 31 26.5s12.834 26.167 15.501 43.5s4 37 4 59v491h125v-484zM322.998 782.998h-92l107 143h111l108 -143h-93l-71 90z" />
    <glyph glyph-name="jcircumflex" unicode="&#x135;" horiz-adv-x="241" 
d="M63 517h114v-561c0 -51.333 -11.333 -91 -34 -119s-60.667 -42 -114 -42c-11.333 0 -20.833 0.333008 -28.5 1s-15.167 1.66699 -22.5 3v90c13.333 -2.66699 26.333 -4 39 -4c20.667 0 33.5 6.33301 38.5 19s7.5 31.667 7.5 57v556zM50 589h-92l107 143h111l108 -143h-93
l-71 90z" />
    <glyph glyph-name="Kcommaaccent" unicode="&#x136;" horiz-adv-x="685" 
d="M76 714h125v-325l318 325h154l-285 -285l305 -429h-156l-234 341l-102 -101v-240h-125v714zM276 -50l131 0.00292969v-89c0 -10.667 -1.66699 -20.834 -5 -30.501s-9.33301 -18.334 -18 -26.001s-20.5 -14 -35.5 -19s-34.167 -7.83301 -57.5 -8.5v38
c14 2 24.5 5.66699 31.5 11s11.5 13.666 13.5 24.999h-60v99z" />
    <glyph glyph-name="kcommaaccent" unicode="&#x137;" horiz-adv-x="537" 
d="M63 714h114v-406l206 209h140l-198 -190l217 -327h-139l-158 251l-68 -66v-185h-114v714zM214 -50l131 0.00292969v-89c0 -10.667 -1.66699 -20.834 -5 -30.501s-9.33301 -18.334 -18 -26.001s-20.5 -14 -35.5 -19s-34.167 -7.83301 -57.5 -8.5v38
c14 2 24.5 5.66699 31.5 11s11.5 13.666 13.5 24.999h-60v99z" />
    <glyph glyph-name="Lacute" unicode="&#x139;" horiz-adv-x="574" 
d="M76 714h125v-606h363v-108h-488v714zM182 926h135l-142 -143h-83z" />
    <glyph glyph-name="lacute" unicode="&#x13a;" horiz-adv-x="241" 
d="M63 714h114v-714h-114v714zM153 926h135l-142 -143h-83z" />
    <glyph glyph-name="Lcommaaccent" unicode="&#x13b;" horiz-adv-x="574" 
d="M76 714h125v-606h363v-108h-488v714zM256 -50l131 0.00292969v-89c0 -10.667 -1.66699 -20.834 -5 -30.501s-9.33301 -18.334 -18 -26.001s-20.5 -14 -35.5 -19s-34.167 -7.83301 -57.5 -8.5v38c14 2 24.5 5.66699 31.5 11s11.5 13.666 13.5 24.999h-60v99z" />
    <glyph glyph-name="lcommaaccent" unicode="&#x13c;" horiz-adv-x="241" 
d="M63 714h114v-714h-114v714zM55 -50l131 0.00292969v-89c0 -10.667 -1.66699 -20.834 -5 -30.501s-9.33301 -18.334 -18 -26.001s-20.5 -14 -35.5 -19s-34.167 -7.83301 -57.5 -8.5v38c14 2 24.5 5.66699 31.5 11s11.5 13.666 13.5 24.999h-60v99z" />
    <glyph glyph-name="Lcaron" unicode="&#x13d;" horiz-adv-x="574" 
d="M76 714h125v-606h363v-108h-488v714zM319 714h125l-81 -143h-76z" />
    <glyph glyph-name="lcaron" unicode="&#x13e;" horiz-adv-x="241" 
d="M63 714h114v-714h-114v714zM260 714h125l-81 -143h-76z" />
    <glyph glyph-name="Ldot" unicode="&#x13f;" horiz-adv-x="574" 
d="M76 714h125v-606h363v-108h-488v714zM326 345v108h114v-108h-114z" />
    <glyph glyph-name="ldot" unicode="&#x140;" horiz-adv-x="362" 
d="M63 714h114v-714h-114v714zM234 345v108h114v-108h-114z" />
    <glyph glyph-name="Lslash" unicode="&#x141;" horiz-adv-x="574" 
d="M76 714h125v-306l200 142v-93l-200 -142v-207h363v-108h-488v227l-76 -54v90l76 54v397z" />
    <glyph glyph-name="lslash" unicode="&#x142;" horiz-adv-x="241" 
d="M63 319l-68 -53v71l68 53v324h114v-235l68 54v-72l-68 -54v-407h-114v319z" />
    <glyph glyph-name="Nacute" unicode="&#x143;" horiz-adv-x="722" 
d="M71 714h132l326 -526h2v526h119v-714h-132l-325 525h-3v-525h-119v714zM402 926h135l-142 -143h-83z" />
    <glyph glyph-name="nacute" unicode="&#x144;" horiz-adv-x="574" 
d="M60 517l107.998 0.000976562v-76l2 -2c17.333 28.667 40 51.167 68 67.5s59 24.5 93 24.5c56.667 0 101.334 -14.667 134.001 -44s49 -73.333 49 -132v-355h-114v325c-1.33301 40.667 -10 70.167 -26 88.5s-41 27.5 -75 27.5c-19.333 0 -36.666 -3.5 -51.999 -10.5
s-28.333 -16.667 -39 -29s-19 -26.833 -25 -43.5s-9 -34.334 -9 -53.001v-305h-114v517zM325.998 732.001h135l-142 -143h-83z" />
    <glyph glyph-name="Ncommaaccent" unicode="&#x145;" horiz-adv-x="722" 
d="M71 714h132l326 -526h2v526h119v-714h-132l-325 525h-3v-525h-119v714zM285 -50l131 0.00292969v-89c0 -10.667 -1.66699 -20.834 -5 -30.501s-9.33301 -18.334 -18 -26.001s-20.5 -14 -35.5 -19s-34.167 -7.83301 -57.5 -8.5v38c14 2 24.5 5.66699 31.5 11
s11.5 13.666 13.5 24.999h-60v99z" />
    <glyph glyph-name="ncommaaccent" unicode="&#x146;" horiz-adv-x="574" 
d="M60 517l107.998 0.000976562v-76l2 -2c17.333 28.667 40 51.167 68 67.5s59 24.5 93 24.5c56.667 0 101.334 -14.667 134.001 -44s49 -73.333 49 -132v-355h-114v325c-1.33301 40.667 -10 70.167 -26 88.5s-41 27.5 -75 27.5c-19.333 0 -36.666 -3.5 -51.999 -10.5
s-28.333 -16.667 -39 -29s-19 -26.833 -25 -43.5s-9 -34.334 -9 -53.001v-305h-114v517zM219.998 -49.999l131 0.00292969v-89c0 -10.667 -1.66699 -20.834 -5 -30.501s-9.33301 -18.334 -18 -26.001s-20.5 -14 -35.5 -19s-34.167 -7.83301 -57.5 -8.5v38
c14 2 24.5 5.66699 31.5 11s11.5 13.666 13.5 24.999h-60v99z" />
    <glyph glyph-name="Ncaron" unicode="&#x147;" horiz-adv-x="722" 
d="M71 714h132l326 -526h2v526h119v-714h-132l-325 525h-3v-525h-119v714zM413 783h-111l-107 143h92l70 -89l71 89h93z" />
    <glyph glyph-name="ncaron" unicode="&#x148;" horiz-adv-x="574" 
d="M60 517l107.998 0.000976562v-76l2 -2c17.333 28.667 40 51.167 68 67.5s59 24.5 93 24.5c56.667 0 101.334 -14.667 134.001 -44s49 -73.333 49 -132v-355h-114v325c-1.33301 40.667 -10 70.167 -26 88.5s-41 27.5 -75 27.5c-19.333 0 -36.666 -3.5 -51.999 -10.5
s-28.333 -16.667 -39 -29s-19 -26.833 -25 -43.5s-9 -34.334 -9 -53.001v-305h-114v517zM343.998 589.001h-111l-107 143h92l70 -89l71 89h93z" />
    <glyph glyph-name="Omacron" unicode="&#x14c;" horiz-adv-x="760" 
d="M380 629c-38 0 -70.833 -7.66699 -98.5 -23s-50.167 -35.833 -67.5 -61.5s-30.166 -54.834 -38.499 -87.501s-12.5 -66 -12.5 -100s4.16699 -67.333 12.5 -100s21.166 -61.834 38.499 -87.501s39.833 -46.167 67.5 -61.5s60.5 -23 98.5 -23s70.833 7.66699 98.5 23
s50.167 35.833 67.5 61.5s30.166 54.834 38.499 87.501s12.5 66 12.5 100s-4.16699 67.333 -12.5 100s-21.166 61.834 -38.499 87.501s-39.833 46.167 -67.5 61.5s-60.5 23 -98.5 23zM380 731c53.333 0 101.166 -10 143.499 -30s78.166 -47 107.499 -81
s51.833 -73.667 67.5 -119s23.5 -93.333 23.5 -144c0 -51.333 -7.83301 -99.666 -23.5 -144.999s-38.167 -85 -67.5 -119s-65.166 -60.833 -107.499 -80.5s-90.166 -29.5 -143.499 -29.5s-101.166 9.83301 -143.499 29.5s-78.166 46.5 -107.499 80.5
s-51.833 73.667 -67.5 119s-23.5 93.666 -23.5 144.999c0 50.667 7.83301 98.667 23.5 144s38.167 85 67.5 119s65.166 61 107.499 81s90.166 30 143.499 30zM238 818v65h288v-65h-288z" />
    <glyph glyph-name="omacron" unicode="&#x14d;" horiz-adv-x="593" 
d="M297 -14c-41.333 0 -78.166 6.83301 -110.499 20.5s-59.666 32.5 -81.999 56.5s-39.333 52.667 -51 86s-17.5 70 -17.5 110c0 39.333 5.83301 75.666 17.5 108.999s28.667 62 51 86s49.666 42.833 81.999 56.5s69.166 20.5 110.499 20.5s78.166 -6.83301 110.499 -20.5
s59.666 -32.5 81.999 -56.5s39.333 -52.667 51 -86s17.5 -69.666 17.5 -108.999c0 -40 -5.83301 -76.667 -17.5 -110s-28.667 -62 -51 -86s-49.666 -42.833 -81.999 -56.5s-69.166 -20.5 -110.499 -20.5zM297 76c25.333 0 47.333 5.33301 66 16s34 24.667 46 42
s20.833 36.833 26.5 58.5s8.5 43.834 8.5 66.501c0 22 -2.83301 44 -8.5 66s-14.5 41.5 -26.5 58.5s-27.333 30.833 -46 41.5s-40.667 16 -66 16s-47.333 -5.33301 -66 -16s-34 -24.5 -46 -41.5s-20.833 -36.5 -26.5 -58.5s-8.5 -44 -8.5 -66
c0 -22.667 2.83301 -44.834 8.5 -66.501s14.5 -41.167 26.5 -58.5s27.333 -31.333 46 -42s40.667 -16 66 -16zM153 624v65h288v-65h-288z" />
    <glyph glyph-name="Obreve" unicode="&#x14e;" horiz-adv-x="760" 
d="M380 629c-38 0 -70.833 -7.66699 -98.5 -23s-50.167 -35.833 -67.5 -61.5s-30.166 -54.834 -38.499 -87.501s-12.5 -66 -12.5 -100s4.16699 -67.333 12.5 -100s21.166 -61.834 38.499 -87.501s39.833 -46.167 67.5 -61.5s60.5 -23 98.5 -23s70.833 7.66699 98.5 23
s50.167 35.833 67.5 61.5s30.166 54.834 38.499 87.501s12.5 66 12.5 100s-4.16699 67.333 -12.5 100s-21.166 61.834 -38.499 87.501s-39.833 46.167 -67.5 61.5s-60.5 23 -98.5 23zM380 731c53.333 0 101.166 -10 143.499 -30s78.166 -47 107.499 -81
s51.833 -73.667 67.5 -119s23.5 -93.333 23.5 -144c0 -51.333 -7.83301 -99.666 -23.5 -144.999s-38.167 -85 -67.5 -119s-65.166 -60.833 -107.499 -80.5s-90.166 -29.5 -143.499 -29.5s-101.166 9.83301 -143.499 29.5s-78.166 46.5 -107.499 80.5
s-51.833 73.667 -67.5 119s-23.5 93.666 -23.5 144.999c0 50.667 7.83301 98.667 23.5 144s38.167 85 67.5 119s65.166 61 107.499 81s90.166 30 143.499 30zM274 925c5.33301 -28 17.834 -47.667 37.501 -59s42.834 -17 69.501 -17c25.333 0 47.166 6.33301 65.499 19
s30.166 31.667 35.499 57h57c-5.33301 -48 -22.833 -83.5 -52.5 -106.5s-67.5 -34.5 -113.5 -34.5s-82.667 12 -110 36s-43 59 -47 105h58z" />
    <glyph glyph-name="obreve" unicode="&#x14f;" horiz-adv-x="593" 
d="M297 -14c-41.333 0 -78.166 6.83301 -110.499 20.5s-59.666 32.5 -81.999 56.5s-39.333 52.667 -51 86s-17.5 70 -17.5 110c0 39.333 5.83301 75.666 17.5 108.999s28.667 62 51 86s49.666 42.833 81.999 56.5s69.166 20.5 110.499 20.5s78.166 -6.83301 110.499 -20.5
s59.666 -32.5 81.999 -56.5s39.333 -52.667 51 -86s17.5 -69.666 17.5 -108.999c0 -40 -5.83301 -76.667 -17.5 -110s-28.667 -62 -51 -86s-49.666 -42.833 -81.999 -56.5s-69.166 -20.5 -110.499 -20.5zM297 76c25.333 0 47.333 5.33301 66 16s34 24.667 46 42
s20.833 36.833 26.5 58.5s8.5 43.834 8.5 66.501c0 22 -2.83301 44 -8.5 66s-14.5 41.5 -26.5 58.5s-27.333 30.833 -46 41.5s-40.667 16 -66 16s-47.333 -5.33301 -66 -16s-34 -24.5 -46 -41.5s-20.833 -36.5 -26.5 -58.5s-8.5 -44 -8.5 -66
c0 -22.667 2.83301 -44.834 8.5 -66.501s14.5 -41.167 26.5 -58.5s27.333 -31.333 46 -42s40.667 -16 66 -16zM197 731c5.33301 -28 17.834 -47.667 37.501 -59s42.834 -17 69.501 -17c25.333 0 47.166 6.33301 65.499 19s30.166 31.667 35.499 57h57
c-5.33301 -48 -22.833 -83.5 -52.5 -106.5s-67.5 -34.5 -113.5 -34.5s-82.667 12 -110 36s-43 59 -47 105h58z" />
    <glyph glyph-name="Ohungarumlaut" unicode="&#x150;" horiz-adv-x="760" 
d="M380 629c-38 0 -70.833 -7.66699 -98.5 -23s-50.167 -35.833 -67.5 -61.5s-30.166 -54.834 -38.499 -87.501s-12.5 -66 -12.5 -100s4.16699 -67.333 12.5 -100s21.166 -61.834 38.499 -87.501s39.833 -46.167 67.5 -61.5s60.5 -23 98.5 -23s70.833 7.66699 98.5 23
s50.167 35.833 67.5 61.5s30.166 54.834 38.499 87.501s12.5 66 12.5 100s-4.16699 67.333 -12.5 100s-21.166 61.834 -38.499 87.501s-39.833 46.167 -67.5 61.5s-60.5 23 -98.5 23zM380 731c53.333 0 101.166 -10 143.499 -30s78.166 -47 107.499 -81
s51.833 -73.667 67.5 -119s23.5 -93.333 23.5 -144c0 -51.333 -7.83301 -99.666 -23.5 -144.999s-38.167 -85 -67.5 -119s-65.166 -60.833 -107.499 -80.5s-90.166 -29.5 -143.499 -29.5s-101.166 9.83301 -143.499 29.5s-78.166 46.5 -107.499 80.5
s-51.833 73.667 -67.5 119s-23.5 93.666 -23.5 144.999c0 50.667 7.83301 98.667 23.5 144s38.167 85 67.5 119s65.166 61 107.499 81s90.166 30 143.499 30zM525 926h136l-144 -143h-82zM326 926h136l-144 -143h-82z" />
    <glyph glyph-name="ohungarumlaut" unicode="&#x151;" horiz-adv-x="593" 
d="M297 -14c-41.333 0 -78.166 6.83301 -110.499 20.5s-59.666 32.5 -81.999 56.5s-39.333 52.667 -51 86s-17.5 70 -17.5 110c0 39.333 5.83301 75.666 17.5 108.999s28.667 62 51 86s49.666 42.833 81.999 56.5s69.166 20.5 110.499 20.5s78.166 -6.83301 110.499 -20.5
s59.666 -32.5 81.999 -56.5s39.333 -52.667 51 -86s17.5 -69.666 17.5 -108.999c0 -40 -5.83301 -76.667 -17.5 -110s-28.667 -62 -51 -86s-49.666 -42.833 -81.999 -56.5s-69.166 -20.5 -110.499 -20.5zM297 76c25.333 0 47.333 5.33301 66 16s34 24.667 46 42
s20.833 36.833 26.5 58.5s8.5 43.834 8.5 66.501c0 22 -2.83301 44 -8.5 66s-14.5 41.5 -26.5 58.5s-27.333 30.833 -46 41.5s-40.667 16 -66 16s-47.333 -5.33301 -66 -16s-34 -24.5 -46 -41.5s-20.833 -36.5 -26.5 -58.5s-8.5 -44 -8.5 -66
c0 -22.667 2.83301 -44.834 8.5 -66.501s14.5 -41.167 26.5 -58.5s27.333 -31.333 46 -42s40.667 -16 66 -16zM438 732h136l-144 -143h-82zM239 732h136l-144 -143h-82z" />
    <glyph glyph-name="OE" unicode="&#x152;" horiz-adv-x="1093" 
d="M671 419l342.999 -0.000976562v-102h-343v-209h381v-108h-495v64c-24 -28 -52.333 -48.5 -85 -61.5s-67 -19.5 -103 -19.5c-53.333 0 -100.333 10 -141 30s-74.834 47 -102.501 81s-48.667 73.5 -63 118.5s-21.5 92.167 -21.5 141.5c0 50 7.5 97.833 22.5 143.5
s36.833 85.834 65.5 120.501s63.834 62.167 105.501 82.5s89.167 30.5 142.5 30.5c36 0 68.833 -5.33301 98.5 -16s56.834 -30 81.501 -58v57h488v-108h-374v-187zM551.999 484.999c0 18.667 -3.49902 36.6689 -10.499 54.002s-17.667 32.666 -32 45.999
s-32.166 24 -53.499 32s-46.333 12 -75 12c-38 0 -70.5 -8 -97.5 -24s-49.167 -36.833 -66.5 -62.5s-30.166 -54.834 -38.499 -87.501s-12.5 -65.667 -12.5 -99s4.16699 -66.166 12.5 -98.499s21.166 -61.333 38.499 -87s39.5 -46.334 66.5 -62.001s59.5 -23.5 97.5 -23.5
c27.333 0 51.666 4.16699 72.999 12.5s39.166 19 53.499 32s25.333 27.333 33 43s11.5 31.167 11.5 46.5v266z" />
    <glyph glyph-name="oe" unicode="&#x153;" horiz-adv-x="907" 
d="M281 441c-24 0 -44.5 -5.5 -61.5 -16.5s-30.667 -25 -41 -42s-17.833 -36.167 -22.5 -57.5s-7 -42.333 -7 -63c0 -22.667 2 -45 6 -67s11 -41.833 21 -59.5s23.5 -32 40.5 -43s38.5 -16.5 64.5 -16.5s47.5 5.5 64.5 16.5s30.5 25.333 40.5 43s17 37.5 21 59.5
s6 44.333 6 67c0 20.667 -2.33301 41.667 -7 63s-12.167 40.5 -22.5 57.5s-24 31 -41 42s-37.5 16.5 -61.5 16.5zM635 441c-19.333 0 -36.834 -3.66602 -52.501 -10.999s-29.167 -17.333 -40.5 -30s-20.166 -27.334 -26.499 -44.001s-9.83301 -34 -10.5 -52h264
c-2.66699 42 -14.667 75.333 -36 100s-54 37 -98 37zM504.999 229.001c0 -21.333 2.83008 -41.332 8.49707 -59.999s14 -34.834 25 -48.501s25 -24.5 42 -32.5s36.833 -12 59.5 -12c14 0 27.833 1.83301 41.5 5.5s26 9.16699 37 16.5s20.5 16.5 28.5 27.5
s13.333 23.833 16 38.5h114c-14 -58.667 -41.667 -103 -83 -133s-92 -45 -152 -45c-19.333 0 -38.166 1.5 -56.499 4.5s-35.5 8.16699 -51.5 15.5s-30.5 17 -43.5 29s-24.167 27.333 -33.5 46c-19.333 -36.667 -44.833 -61.667 -76.5 -75s-67.5 -20 -107.5 -20
s-74.833 7.33301 -104.5 22s-54.5 34.5 -74.5 59.5s-34.833 54 -44.5 87s-14.5 68.167 -14.5 105.5c0 36.667 5.5 71.5 16.5 104.5s27 61.833 48 86.5s46.833 44.167 77.5 58.5s65.667 21.5 105 21.5c18 0 35.833 -1.5 53.5 -4.5s34.334 -7.83301 50.001 -14.5
s30.167 -15.5 43.5 -26.5s24.666 -24.833 33.999 -41.5c19.333 30.667 45.5 52.834 78.5 66.501s67.167 20.5 102.5 20.5c44.667 0 82.334 -8.16699 113.001 -24.5s55.334 -38.333 74.001 -66s32 -59.834 40 -96.501s12 -75 12 -115h-378z" />
    <glyph glyph-name="Racute" unicode="&#x154;" horiz-adv-x="704" 
d="M76 714l341.001 -0.00195312c78.667 0 137.667 -17 177 -51s59 -81.333 59 -142c0 -34 -5 -62.167 -15 -84.5s-21.667 -40.333 -35 -54s-26.5 -23.5 -39.5 -29.5s-22.5 -10 -28.5 -12v-2c10.667 -1.33301 22.167 -4.66602 34.5 -9.99902s23.833 -13.833 34.5 -25.5
s19.5 -26.834 26.5 -45.501s10.5 -42 10.5 -70c0 -42 3.16699 -80.167 9.5 -114.5s16.166 -58.833 29.499 -73.5h-134c-9.33301 15.333 -14.833 32.333 -16.5 51s-2.5 36.667 -2.5 54c0 32.667 -2 60.834 -6 84.501s-11.333 43.334 -22 59.001s-25.167 27.167 -43.5 34.5
s-41.833 11 -70.5 11h-184v-294h-125v714zM201.001 388.998h205.001c81.333 0 122 38 122 114c0 22.667 -3.33301 41.167 -10 55.5s-15.834 25.5 -27.501 33.5s-25 13.333 -40 16s-30.5 4 -46.5 4h-203v-223zM380.002 925.998h135l-142 -143h-83z" />
    <glyph glyph-name="racute" unicode="&#x155;" horiz-adv-x="352" 
d="M60 517h106.998v-100h2c3.33301 14 9.83301 27.667 19.5 41s21.334 25.5 35.001 36.5s28.834 19.833 45.501 26.5s33.667 10 51 10c13.333 0 22.5 -0.333008 27.5 -1l15.5 -2v-110c-8 1.33301 -16.167 2.5 -24.5 3.5s-16.5 1.5 -24.5 1.5
c-19.333 0 -37.5 -3.83301 -54.5 -11.5s-31.833 -19 -44.5 -34s-22.667 -33.5 -30 -55.5s-11 -47.333 -11 -76v-246h-114v517zM245.998 732h135l-142 -143h-83z" />
    <glyph glyph-name="Rcommaaccent" unicode="&#x156;" horiz-adv-x="704" 
d="M76 714l341.001 -0.00195312c78.667 0 137.667 -17 177 -51s59 -81.333 59 -142c0 -34 -5 -62.167 -15 -84.5s-21.667 -40.333 -35 -54s-26.5 -23.5 -39.5 -29.5s-22.5 -10 -28.5 -12v-2c10.667 -1.33301 22.167 -4.66602 34.5 -9.99902s23.833 -13.833 34.5 -25.5
s19.5 -26.834 26.5 -45.501s10.5 -42 10.5 -70c0 -42 3.16699 -80.167 9.5 -114.5s16.166 -58.833 29.499 -73.5h-134c-9.33301 15.333 -14.833 32.333 -16.5 51s-2.5 36.667 -2.5 54c0 32.667 -2 60.834 -6 84.501s-11.333 43.334 -22 59.001s-25.167 27.167 -43.5 34.5
s-41.833 11 -70.5 11h-184v-294h-125v714zM201.001 388.998h205.001c81.333 0 122 38 122 114c0 22.667 -3.33301 41.167 -10 55.5s-15.834 25.5 -27.501 33.5s-25 13.333 -40 16s-30.5 4 -46.5 4h-203v-223zM289.002 -50.002l131 0.00292969v-89
c0 -10.667 -1.66699 -20.834 -5 -30.501s-9.33301 -18.334 -18 -26.001s-20.5 -14 -35.5 -19s-34.167 -7.83301 -57.5 -8.5v38c14 2 24.5 5.66699 31.5 11s11.5 13.666 13.5 24.999h-60v99z" />
    <glyph glyph-name="rcommaaccent" unicode="&#x157;" horiz-adv-x="352" 
d="M60 517h106.998v-100h2c3.33301 14 9.83301 27.667 19.5 41s21.334 25.5 35.001 36.5s28.834 19.833 45.501 26.5s33.667 10 51 10c13.333 0 22.5 -0.333008 27.5 -1l15.5 -2v-110c-8 1.33301 -16.167 2.5 -24.5 3.5s-16.5 1.5 -24.5 1.5
c-19.333 0 -37.5 -3.83301 -54.5 -11.5s-31.833 -19 -44.5 -34s-22.667 -33.5 -30 -55.5s-11 -47.333 -11 -76v-246h-114v517zM51.998 -50l131 0.00292969v-89c0 -10.667 -1.66699 -20.834 -5 -30.501s-9.33301 -18.334 -18 -26.001s-20.5 -14 -35.5 -19
s-34.167 -7.83301 -57.5 -8.5v38c14 2 24.5 5.66699 31.5 11s11.5 13.666 13.5 24.999h-60v99z" />
    <glyph glyph-name="Rcaron" unicode="&#x158;" horiz-adv-x="704" 
d="M76 714l341.001 -0.00195312c78.667 0 137.667 -17 177 -51s59 -81.333 59 -142c0 -34 -5 -62.167 -15 -84.5s-21.667 -40.333 -35 -54s-26.5 -23.5 -39.5 -29.5s-22.5 -10 -28.5 -12v-2c10.667 -1.33301 22.167 -4.66602 34.5 -9.99902s23.833 -13.833 34.5 -25.5
s19.5 -26.834 26.5 -45.501s10.5 -42 10.5 -70c0 -42 3.16699 -80.167 9.5 -114.5s16.166 -58.833 29.499 -73.5h-134c-9.33301 15.333 -14.833 32.333 -16.5 51s-2.5 36.667 -2.5 54c0 32.667 -2 60.834 -6 84.501s-11.333 43.334 -22 59.001s-25.167 27.167 -43.5 34.5
s-41.833 11 -70.5 11h-184v-294h-125v714zM201.001 388.998h205.001c81.333 0 122 38 122 114c0 22.667 -3.33301 41.167 -10 55.5s-15.834 25.5 -27.501 33.5s-25 13.333 -40 16s-30.5 4 -46.5 4h-203v-223zM391.002 782.998h-111l-107 143h92l70 -89l71 89h93z" />
    <glyph glyph-name="rcaron" unicode="&#x159;" horiz-adv-x="352" 
d="M60 517h106.998v-100h2c3.33301 14 9.83301 27.667 19.5 41s21.334 25.5 35.001 36.5s28.834 19.833 45.501 26.5s33.667 10 51 10c13.333 0 22.5 -0.333008 27.5 -1l15.5 -2v-110c-8 1.33301 -16.167 2.5 -24.5 3.5s-16.5 1.5 -24.5 1.5
c-19.333 0 -37.5 -3.83301 -54.5 -11.5s-31.833 -19 -44.5 -34s-22.667 -33.5 -30 -55.5s-11 -47.333 -11 -76v-246h-114v517zM265.998 589h-111l-107 143h92l70 -89l71 89h93z" />
    <glyph glyph-name="Sacute" unicode="&#x15a;" horiz-adv-x="648" 
d="M158 238c0 -27.333 4.66699 -50.666 14 -69.999s22.333 -35.166 39 -47.499s35.834 -21.333 57.501 -27s45.167 -8.5 70.5 -8.5c27.333 0 50.666 3.16699 69.999 9.5s35 14.5 47 24.5s20.667 21.5 26 34.5s8 26.167 8 39.5c0 27.333 -6.16699 47.5 -18.5 60.5
s-25.833 22.167 -40.5 27.5c-25.333 9.33301 -54.833 18.166 -88.5 26.499s-75.167 19.166 -124.5 32.499c-30.667 8 -56.167 18.5 -76.5 31.5s-36.5 27.5 -48.5 43.5s-20.5 33 -25.5 51s-7.5 36.333 -7.5 55c0 36 7.5 67.167 22.5 93.5s34.833 48.166 59.5 65.499
s52.667 30.166 84 38.499s63 12.5 95 12.5c36.667 0 71.667 -4.83301 105 -14.5s62.5 -24.167 87.5 -43.5s44.833 -43.166 59.5 -71.499s22 -61.166 22 -98.499h-125c-3.33301 46 -18.833 78.5 -46.5 97.5s-63.5 28.5 -107.5 28.5c-14.667 0 -29.667 -1.5 -45 -4.5
s-29.333 -8 -42 -15s-23.167 -16.5 -31.5 -28.5s-12.5 -27 -12.5 -45c0 -25.333 7.83301 -45.166 23.5 -59.499s36.167 -25.166 61.5 -32.499c2.66699 -0.666992 13.167 -3.5 31.5 -8.5l61.5 -16.5l66.5 -17.5c21.667 -5.66699 37.167 -9.83398 46.5 -12.501
c23.333 -7.33301 43.666 -17.333 60.999 -30s31.833 -27.167 43.5 -43.5s20.334 -33.833 26.001 -52.5s8.5 -37.334 8.5 -56.001c0 -40 -8.16699 -74.167 -24.5 -102.5s-37.833 -51.5 -64.5 -69.5s-57 -31.167 -91 -39.5s-68.667 -12.5 -104 -12.5c-40.667 0 -79 5 -115 15
s-67.333 25.333 -94 46s-48 47.167 -64 79.5s-24.333 70.5 -25 114.5h125zM372 926h135l-142 -143h-83z" />
    <glyph glyph-name="sacute" unicode="&#x15b;" horiz-adv-x="519" 
d="M146 166c3.33301 -33.333 15.999 -56.6689 37.999 -70.002s48.333 -20 79 -20c10.667 0 22.834 0.833008 36.501 2.5s26.5 4.83398 38.5 9.50098s21.833 11.5 29.5 20.5s11.167 20.833 10.5 35.5s-6 26.667 -16 36s-22.833 16.833 -38.5 22.5s-33.5 10.5 -53.5 14.5
s-40.333 8.33301 -61 13c-21.333 4.66699 -41.833 10.334 -61.5 17.001s-37.334 15.667 -53.001 27s-28.167 25.833 -37.5 43.5s-14 39.5 -14 65.5c0 28 6.83301 51.5 20.5 70.5s31 34.333 52 46s44.333 19.834 70 24.501s50.167 7 73.5 7
c26.667 0 52.334 -2.83301 77.001 -8.5s46.667 -14.834 66 -27.501s35.5 -29.167 48.5 -49.5s21.167 -44.833 24.5 -73.5h-119c-5.33301 27.333 -17.833 45.666 -37.5 54.999s-42.167 14 -67.5 14c-8 0 -17.5 -0.666992 -28.5 -2s-21.333 -3.83301 -31 -7.5
s-17.834 -9 -24.501 -16s-10 -16.167 -10 -27.5c0 -14 4.83301 -25.333 14.5 -34s22.334 -15.834 38.001 -21.501s33.5 -10.5 53.5 -14.5l62 -13c20.667 -4.66699 41 -10.334 61 -17.001s37.833 -15.667 53.5 -27s28.334 -25.666 38.001 -42.999s14.5 -38.666 14.5 -63.999
c0 -30.667 -7 -56.667 -21 -78s-32.167 -38.666 -54.5 -51.999s-47.166 -23 -74.499 -29s-54.333 -9 -81 -9c-32.667 0 -62.834 3.66699 -90.501 11s-51.667 18.5 -72 33.5s-36.333 33.667 -48 56s-17.834 48.833 -18.501 79.5h114zM299.999 731.997h135l-142 -143h-83z" />
    <glyph glyph-name="Scircumflex" unicode="&#x15c;" horiz-adv-x="648" 
d="M158 238c0 -27.333 4.66699 -50.666 14 -69.999s22.333 -35.166 39 -47.499s35.834 -21.333 57.501 -27s45.167 -8.5 70.5 -8.5c27.333 0 50.666 3.16699 69.999 9.5s35 14.5 47 24.5s20.667 21.5 26 34.5s8 26.167 8 39.5c0 27.333 -6.16699 47.5 -18.5 60.5
s-25.833 22.167 -40.5 27.5c-25.333 9.33301 -54.833 18.166 -88.5 26.499s-75.167 19.166 -124.5 32.499c-30.667 8 -56.167 18.5 -76.5 31.5s-36.5 27.5 -48.5 43.5s-20.5 33 -25.5 51s-7.5 36.333 -7.5 55c0 36 7.5 67.167 22.5 93.5s34.833 48.166 59.5 65.499
s52.667 30.166 84 38.499s63 12.5 95 12.5c36.667 0 71.667 -4.83301 105 -14.5s62.5 -24.167 87.5 -43.5s44.833 -43.166 59.5 -71.499s22 -61.166 22 -98.499h-125c-3.33301 46 -18.833 78.5 -46.5 97.5s-63.5 28.5 -107.5 28.5c-14.667 0 -29.667 -1.5 -45 -4.5
s-29.333 -8 -42 -15s-23.167 -16.5 -31.5 -28.5s-12.5 -27 -12.5 -45c0 -25.333 7.83301 -45.166 23.5 -59.499s36.167 -25.166 61.5 -32.499c2.66699 -0.666992 13.167 -3.5 31.5 -8.5l61.5 -16.5l66.5 -17.5c21.667 -5.66699 37.167 -9.83398 46.5 -12.501
c23.333 -7.33301 43.666 -17.333 60.999 -30s31.833 -27.167 43.5 -43.5s20.334 -33.833 26.001 -52.5s8.5 -37.334 8.5 -56.001c0 -40 -8.16699 -74.167 -24.5 -102.5s-37.833 -51.5 -64.5 -69.5s-57 -31.167 -91 -39.5s-68.667 -12.5 -104 -12.5c-40.667 0 -79 5 -115 15
s-67.333 25.333 -94 46s-48 47.167 -64 79.5s-24.333 70.5 -25 114.5h125zM262 783h-92l107 143h111l108 -143h-93l-71 90z" />
    <glyph glyph-name="scircumflex" unicode="&#x15d;" horiz-adv-x="519" 
d="M146 166c3.33301 -33.333 15.999 -56.6689 37.999 -70.002s48.333 -20 79 -20c10.667 0 22.834 0.833008 36.501 2.5s26.5 4.83398 38.5 9.50098s21.833 11.5 29.5 20.5s11.167 20.833 10.5 35.5s-6 26.667 -16 36s-22.833 16.833 -38.5 22.5s-33.5 10.5 -53.5 14.5
s-40.333 8.33301 -61 13c-21.333 4.66699 -41.833 10.334 -61.5 17.001s-37.334 15.667 -53.001 27s-28.167 25.833 -37.5 43.5s-14 39.5 -14 65.5c0 28 6.83301 51.5 20.5 70.5s31 34.333 52 46s44.333 19.834 70 24.501s50.167 7 73.5 7
c26.667 0 52.334 -2.83301 77.001 -8.5s46.667 -14.834 66 -27.501s35.5 -29.167 48.5 -49.5s21.167 -44.833 24.5 -73.5h-119c-5.33301 27.333 -17.833 45.666 -37.5 54.999s-42.167 14 -67.5 14c-8 0 -17.5 -0.666992 -28.5 -2s-21.333 -3.83301 -31 -7.5
s-17.834 -9 -24.501 -16s-10 -16.167 -10 -27.5c0 -14 4.83301 -25.333 14.5 -34s22.334 -15.834 38.001 -21.501s33.5 -10.5 53.5 -14.5l62 -13c20.667 -4.66699 41 -10.334 61 -17.001s37.833 -15.667 53.5 -27s28.334 -25.666 38.001 -42.999s14.5 -38.666 14.5 -63.999
c0 -30.667 -7 -56.667 -21 -78s-32.167 -38.666 -54.5 -51.999s-47.166 -23 -74.499 -29s-54.333 -9 -81 -9c-32.667 0 -62.834 3.66699 -90.501 11s-51.667 18.5 -72 33.5s-36.333 33.667 -48 56s-17.834 48.833 -18.501 79.5h114zM195.999 588.997h-92l107 143h111
l108 -143h-93l-71 90z" />
    <glyph glyph-name="Scedilla" unicode="&#x15e;" horiz-adv-x="648" 
d="M218 -160c12 -5.33301 23 -9.33496 33 -12.002s20.667 -4 32 -4c6.66699 0 13.667 0.5 21 1.5s14 3 20 6s10.833 7.16699 14.5 12.5s5.5 12.333 5.5 21c0 12.667 -4.83301 22.167 -14.5 28.5s-20.167 9.5 -31.5 9.5c-15.333 0 -28.333 -3.33301 -39 -10l-22 19l54 73
c-27.333 2 -52.333 6.33301 -75 13c-53.333 14.667 -96.833 41.667 -130.5 81s-51.167 92.333 -52.5 159h125c0 -27.333 4.66699 -50.666 14 -69.999s22.333 -35.166 39 -47.499s35.834 -21.333 57.501 -27s45.167 -8.5 70.5 -8.5c27.333 0 50.666 3.16699 69.999 9.5
s35 14.5 47 24.5s20.667 21.5 26 34.5s8 26.167 8 39.5c0 27.333 -6.16699 47.5 -18.5 60.5s-25.833 22.167 -40.5 27.5c-25.333 9.33301 -54.833 18.166 -88.5 26.499s-75.167 19.166 -124.5 32.499c-30.667 8 -56.167 18.5 -76.5 31.5s-36.5 27.5 -48.5 43.5
s-20.5 33 -25.5 51s-7.5 36.333 -7.5 55c0 36 7.5 67.167 22.5 93.5s34.833 48.166 59.5 65.499s52.667 30.166 84 38.499s63 12.5 95 12.5c36.667 0 71.667 -4.83301 105 -14.5s62.5 -24.167 87.5 -43.5s44.833 -43.166 59.5 -71.499s22 -61.166 22 -98.499h-125
c-3.33301 46 -18.833 78.5 -46.5 97.5s-63.5 28.5 -107.5 28.5c-14.667 0 -29.667 -1.5 -45 -4.5s-29.333 -8 -42 -15s-23.167 -16.5 -31.5 -28.5s-12.5 -27 -12.5 -45c0 -25.333 7.83301 -45.166 23.5 -59.499s36.167 -25.166 61.5 -32.499
c2.66699 -0.666992 13.167 -3.5 31.5 -8.5l61.5 -16.5l66.5 -17.5c21.667 -5.66699 37.167 -9.83398 46.5 -12.501c23.333 -7.33301 43.666 -17.333 60.999 -30s31.833 -27.167 43.5 -43.5s20.334 -33.833 26.001 -52.5s8.5 -37.334 8.5 -56.001
c0 -30 -4.66699 -56.667 -14 -80s-22.166 -43.833 -38.499 -61.5s-35.5 -32.167 -57.5 -43.5s-45.333 -20 -70 -26c-30.667 -7.33301 -63.334 -11.666 -98.001 -12.999l-32 -42l1 -1c7.33301 2.66699 18.333 4 33 4c10 0 20 -1.5 30 -4.5s19 -7.66699 27 -14
s14.667 -14.166 20 -23.499s8 -20.333 8 -33c0 -16.667 -3.66699 -30.834 -11 -42.501s-16.666 -21.167 -27.999 -28.5s-24.166 -12.666 -38.499 -15.999s-28.833 -5 -43.5 -5c-18.667 0 -36.834 1.83301 -54.501 5.5s-33.834 9.5 -48.501 17.5z" />
    <glyph glyph-name="scedilla" unicode="&#x15f;" horiz-adv-x="519" 
d="M156 -160c12 -5.33301 22.999 -9.33398 32.999 -12.001s20.667 -4 32 -4c6.66699 0 13.667 0.5 21 1.5s14 3 20 6s10.833 7.16699 14.5 12.5s5.5 12.333 5.5 21c0 12.667 -4.83301 22.167 -14.5 28.5s-20.167 9.5 -31.5 9.5c-15.333 0 -28.333 -3.33301 -39 -10l-22 19
l56 75l-31.5 4c-10.333 1.33301 -20.166 3.33301 -29.499 6c-41.333 11.333 -74.333 30.833 -99 58.5s-37.667 64.5 -39 110.5h114c3.33301 -33.333 16 -56.666 38 -69.999s48.333 -20 79 -20c10.667 0 22.834 0.833008 36.501 2.5s26.5 4.83398 38.5 9.50098
s21.833 11.5 29.5 20.5s11.167 20.833 10.5 35.5s-6 26.667 -16 36s-22.833 16.833 -38.5 22.5s-33.5 10.5 -53.5 14.5s-40.333 8.33301 -61 13c-21.333 4.66699 -41.833 10.334 -61.5 17.001s-37.334 15.667 -53.001 27s-28.167 25.833 -37.5 43.5s-14 39.5 -14 65.5
c0 28 6.83301 51.5 20.5 70.5s31 34.333 52 46s44.333 19.834 70 24.501s50.167 7 73.5 7c26.667 0 52.334 -2.83301 77.001 -8.5s46.667 -14.834 66 -27.501s35.5 -29.167 48.5 -49.5s21.167 -44.833 24.5 -73.5h-119c-5.33301 27.333 -17.833 45.666 -37.5 54.999
s-42.167 14 -67.5 14c-8 0 -17.5 -0.666992 -28.5 -2s-21.333 -3.83301 -31 -7.5s-17.834 -9 -24.501 -16s-10 -16.167 -10 -27.5c0 -14 4.83301 -25.333 14.5 -34s22.334 -15.834 38.001 -21.501s33.5 -10.5 53.5 -14.5l62 -13c20.667 -4.66699 41 -10.334 61 -17.001
s37.833 -15.667 53.5 -27s28.334 -25.666 38.001 -42.999s14.5 -38.666 14.5 -63.999c0 -22.667 -4 -42.834 -12 -60.501s-19 -33 -33 -46s-30 -23.833 -48 -32.5s-37 -15.334 -57 -20.001c-10.667 -2.66699 -21.334 -4.5 -32.001 -5.5s-21.334 -1.83301 -32.001 -2.5
l-35 -46l1 -1c7.33301 2.66699 18.333 4 33 4c10 0 20 -1.5 30 -4.5s19 -7.66699 27 -14s14.667 -14.166 20 -23.499s8 -20.333 8 -33c0 -16.667 -3.66699 -30.834 -11 -42.501s-16.666 -21.167 -27.999 -28.5s-24.166 -12.666 -38.499 -15.999s-28.833 -5 -43.5 -5
c-18.667 0 -36.834 1.83301 -54.501 5.5s-33.834 9.5 -48.501 17.5z" />
    <glyph glyph-name="Scaron" unicode="&#x160;" horiz-adv-x="648" 
d="M158 238c0 -27.333 4.66699 -50.666 14 -69.999s22.333 -35.166 39 -47.499s35.834 -21.333 57.501 -27s45.167 -8.5 70.5 -8.5c27.333 0 50.666 3.16699 69.999 9.5s35 14.5 47 24.5s20.667 21.5 26 34.5s8 26.167 8 39.5c0 27.333 -6.16699 47.5 -18.5 60.5
s-25.833 22.167 -40.5 27.5c-25.333 9.33301 -54.833 18.166 -88.5 26.499s-75.167 19.166 -124.5 32.499c-30.667 8 -56.167 18.5 -76.5 31.5s-36.5 27.5 -48.5 43.5s-20.5 33 -25.5 51s-7.5 36.333 -7.5 55c0 36 7.5 67.167 22.5 93.5s34.833 48.166 59.5 65.499
s52.667 30.166 84 38.499s63 12.5 95 12.5c36.667 0 71.667 -4.83301 105 -14.5s62.5 -24.167 87.5 -43.5s44.833 -43.166 59.5 -71.499s22 -61.166 22 -98.499h-125c-3.33301 46 -18.833 78.5 -46.5 97.5s-63.5 28.5 -107.5 28.5c-14.667 0 -29.667 -1.5 -45 -4.5
s-29.333 -8 -42 -15s-23.167 -16.5 -31.5 -28.5s-12.5 -27 -12.5 -45c0 -25.333 7.83301 -45.166 23.5 -59.499s36.167 -25.166 61.5 -32.499c2.66699 -0.666992 13.167 -3.5 31.5 -8.5l61.5 -16.5l66.5 -17.5c21.667 -5.66699 37.167 -9.83398 46.5 -12.501
c23.333 -7.33301 43.666 -17.333 60.999 -30s31.833 -27.167 43.5 -43.5s20.334 -33.833 26.001 -52.5s8.5 -37.334 8.5 -56.001c0 -40 -8.16699 -74.167 -24.5 -102.5s-37.833 -51.5 -64.5 -69.5s-57 -31.167 -91 -39.5s-68.667 -12.5 -104 -12.5c-40.667 0 -79 5 -115 15
s-67.333 25.333 -94 46s-48 47.167 -64 79.5s-24.333 70.5 -25 114.5h125zM386 783h-111l-107 143h92l70 -89l71 89h93z" />
    <glyph glyph-name="scaron" unicode="&#x161;" horiz-adv-x="519" 
d="M146 166c3.33301 -33.333 15.999 -56.6689 37.999 -70.002s48.333 -20 79 -20c10.667 0 22.834 0.833008 36.501 2.5s26.5 4.83398 38.5 9.50098s21.833 11.5 29.5 20.5s11.167 20.833 10.5 35.5s-6 26.667 -16 36s-22.833 16.833 -38.5 22.5s-33.5 10.5 -53.5 14.5
s-40.333 8.33301 -61 13c-21.333 4.66699 -41.833 10.334 -61.5 17.001s-37.334 15.667 -53.001 27s-28.167 25.833 -37.5 43.5s-14 39.5 -14 65.5c0 28 6.83301 51.5 20.5 70.5s31 34.333 52 46s44.333 19.834 70 24.501s50.167 7 73.5 7
c26.667 0 52.334 -2.83301 77.001 -8.5s46.667 -14.834 66 -27.501s35.5 -29.167 48.5 -49.5s21.167 -44.833 24.5 -73.5h-119c-5.33301 27.333 -17.833 45.666 -37.5 54.999s-42.167 14 -67.5 14c-8 0 -17.5 -0.666992 -28.5 -2s-21.333 -3.83301 -31 -7.5
s-17.834 -9 -24.501 -16s-10 -16.167 -10 -27.5c0 -14 4.83301 -25.333 14.5 -34s22.334 -15.834 38.001 -21.501s33.5 -10.5 53.5 -14.5l62 -13c20.667 -4.66699 41 -10.334 61 -17.001s37.833 -15.667 53.5 -27s28.334 -25.666 38.001 -42.999s14.5 -38.666 14.5 -63.999
c0 -30.667 -7 -56.667 -21 -78s-32.167 -38.666 -54.5 -51.999s-47.166 -23 -74.499 -29s-54.333 -9 -81 -9c-32.667 0 -62.834 3.66699 -90.501 11s-51.667 18.5 -72 33.5s-36.333 33.667 -48 56s-17.834 48.833 -18.501 79.5h114zM319.999 588.997h-111l-107 143h92
l70 -89l71 89h93z" />
    <glyph glyph-name="Tcommaaccent" unicode="&#x162;" horiz-adv-x="593" 
d="M8 714h578v-108h-227v-606h-125v606h-226v108zM230 -50l131 0.00292969v-89c0 -10.667 -1.66699 -20.834 -5 -30.501s-9.33301 -18.334 -18 -26.001s-20.5 -14 -35.5 -19s-34.167 -7.83301 -57.5 -8.5v38c14 2 24.5 5.66699 31.5 11s11.5 13.666 13.5 24.999h-60v99z" />
    <glyph glyph-name="tcommaaccent" unicode="&#x163;" horiz-adv-x="333" 
d="M8 517h86v155h114v-155h103v-85h-103v-276c0 -12 0.5 -22.333 1.5 -31s3.33301 -16 7 -22s9.16699 -10.5 16.5 -13.5s17.333 -4.5 30 -4.5c8 0 16 0.166992 24 0.5s16 1.5 24 3.5v-88l-37 -4c-12 -1.33301 -24.333 -2 -37 -2c-30 0 -54.167 2.83301 -72.5 8.5
s-32.666 14 -42.999 25s-17.333 24.833 -21 41.5s-5.83398 35.667 -6.50098 57v305h-86v85zM136 -50l131 0.00292969v-89c0 -10.667 -1.66699 -20.834 -5 -30.501s-9.33301 -18.334 -18 -26.001s-20.5 -14 -35.5 -19s-34.167 -7.83301 -57.5 -8.5v38
c14 2 24.5 5.66699 31.5 11s11.5 13.666 13.5 24.999h-60v99z" />
    <glyph glyph-name="Tcaron" unicode="&#x164;" horiz-adv-x="593" 
d="M8 714h578v-108h-227v-606h-125v606h-226v108zM353 783h-111l-107 143h92l70 -89l71 89h93z" />
    <glyph glyph-name="tcaron" unicode="&#x165;" horiz-adv-x="333" 
d="M8 517h86v155h114v-155h103v-85h-103v-276c0 -12 0.5 -22.333 1.5 -31s3.33301 -16 7 -22s9.16699 -10.5 16.5 -13.5s17.333 -4.5 30 -4.5c8 0 16 0.166992 24 0.5s16 1.5 24 3.5v-88l-37 -4c-12 -1.33301 -24.333 -2 -37 -2c-30 0 -54.167 2.83301 -72.5 8.5
s-32.666 14 -42.999 25s-17.333 24.833 -21 41.5s-5.83398 35.667 -6.50098 57v305h-86v85zM307 714h125l-81 -143h-76z" />
    <glyph glyph-name="Tbar" unicode="&#x166;" horiz-adv-x="593" 
d="M8 714h578v-108h-227v-138h164v-65h-164v-403h-125v403h-159v65h159v138h-226v108z" />
    <glyph glyph-name="tbar" unicode="&#x167;" horiz-adv-x="333" 
d="M8 517h86v155h114v-155h103v-85h-103v-93h93v-65h-93v-118c0 -12 0.5 -22.333 1.5 -31s3.33301 -16 7 -22s9.16699 -10.5 16.5 -13.5s17.333 -4.5 30 -4.5c8 0 16 0.166992 24 0.5s16 1.5 24 3.5v-88l-37 -4c-12 -1.33301 -24.333 -2 -37 -2
c-30 0 -54.167 2.83301 -72.5 8.5s-32.666 14 -42.999 25s-17.333 24.833 -21 41.5s-5.83398 35.667 -6.50098 57v147h-80v65h80v93h-86v85z" />
    <glyph glyph-name="Utilde" unicode="&#x168;" horiz-adv-x="722" 
d="M68 714h125v-416c0 -24 1.16699 -48.333 3.5 -73s9 -46.834 20 -66.501s27.667 -35.834 50 -48.501s53.833 -19 94.5 -19s72.167 6.33301 94.5 19s39 28.834 50 48.501s17.667 41.834 20 66.501s3.5 49 3.5 73v416h125v-457c0 -46 -7 -86 -21 -120
s-33.833 -62.5 -59.5 -85.5s-56.5 -40.167 -92.5 -51.5s-76 -17 -120 -17s-84 5.66699 -120 17s-66.833 28.5 -92.5 51.5s-45.5 51.5 -59.5 85.5s-21 74 -21 120v457zM540 914c-2.66699 -16 -6.50195 -31.001 -11.502 -45.001s-12.167 -26 -21.5 -36
c-8.66699 -10.667 -19.334 -19 -32.001 -25s-28 -9 -46 -9c-11.333 0 -23.333 1.83301 -36 5.5s-25.334 8.16699 -38.001 13.5c-15.333 6.66699 -27.666 11.334 -36.999 14.001s-19.666 4 -30.999 4c-23.333 0 -37.666 -13.667 -42.999 -41h-57
c2 12.667 5.66699 25.667 11 39s12.333 25.5 21 36.5s19 20 31 27s25.667 10.5 41 10.5c12.667 0 24.167 -1.16699 34.5 -3.5s25.833 -7.83301 46.5 -16.5c14 -6 25.5 -10.5 34.5 -13.5s18.167 -4.5 27.5 -4.5c14.667 0 25.834 4 33.501 12s13.167 18.667 16.5 32h56z" />
    <glyph glyph-name="utilde" unicode="&#x169;" horiz-adv-x="574" 
d="M514 0l-111.998 0.00195312v72h-2c-14 -26 -34.833 -46.833 -62.5 -62.5s-55.834 -23.5 -84.501 -23.5c-68 0 -117.167 16.833 -147.5 50.5s-45.5 84.5 -45.5 152.5v328h114v-317c0 -45.333 8.66699 -77.333 26 -96s41.666 -28 72.999 -28c24 0 44 3.66699 60 11
s29 17.166 39 29.499s17.167 27.166 21.5 44.499s6.5 36 6.5 56v300h114v-517zM467.002 720.002c-2.66699 -16 -6.50195 -31.001 -11.502 -45.001s-12.167 -26 -21.5 -36c-8.66699 -10.667 -19.334 -19 -32.001 -25s-28 -9 -46 -9c-11.333 0 -23.333 1.83301 -36 5.5
s-25.334 8.16699 -38.001 13.5c-15.333 6.66699 -27.666 11.334 -36.999 14.001s-19.666 4 -30.999 4c-23.333 0 -37.666 -13.667 -42.999 -41h-57c2 12.667 5.66699 25.667 11 39s12.333 25.5 21 36.5s19 20 31 27s25.667 10.5 41 10.5c12.667 0 24.167 -1.16699 34.5 -3.5
s25.833 -7.83301 46.5 -16.5c14 -6 25.5 -10.5 34.5 -13.5s18.167 -4.5 27.5 -4.5c14.667 0 25.834 4 33.501 12s13.167 18.667 16.5 32h56z" />
    <glyph glyph-name="Umacron" unicode="&#x16a;" horiz-adv-x="722" 
d="M68 714h125v-416c0 -24 1.16699 -48.333 3.5 -73s9 -46.834 20 -66.501s27.667 -35.834 50 -48.501s53.833 -19 94.5 -19s72.167 6.33301 94.5 19s39 28.834 50 48.501s17.667 41.834 20 66.501s3.5 49 3.5 73v416h125v-457c0 -46 -7 -86 -21 -120
s-33.833 -62.5 -59.5 -85.5s-56.5 -40.167 -92.5 -51.5s-76 -17 -120 -17s-84 5.66699 -120 17s-66.833 28.5 -92.5 51.5s-45.5 51.5 -59.5 85.5s-21 74 -21 120v457zM217 818v65h288v-65h-288z" />
    <glyph glyph-name="umacron" unicode="&#x16b;" horiz-adv-x="574" 
d="M514 0l-111.998 0.00195312v72h-2c-14 -26 -34.833 -46.833 -62.5 -62.5s-55.834 -23.5 -84.501 -23.5c-68 0 -117.167 16.833 -147.5 50.5s-45.5 84.5 -45.5 152.5v328h114v-317c0 -45.333 8.66699 -77.333 26 -96s41.666 -28 72.999 -28c24 0 44 3.66699 60 11
s29 17.166 39 29.499s17.167 27.166 21.5 44.499s6.5 36 6.5 56v300h114v-517zM148.002 624.002v65h288v-65h-288z" />
    <glyph glyph-name="Ubreve" unicode="&#x16c;" horiz-adv-x="722" 
d="M68 714h125v-416c0 -24 1.16699 -48.333 3.5 -73s9 -46.834 20 -66.501s27.667 -35.834 50 -48.501s53.833 -19 94.5 -19s72.167 6.33301 94.5 19s39 28.834 50 48.501s17.667 41.834 20 66.501s3.5 49 3.5 73v416h125v-457c0 -46 -7 -86 -21 -120
s-33.833 -62.5 -59.5 -85.5s-56.5 -40.167 -92.5 -51.5s-76 -17 -120 -17s-84 5.66699 -120 17s-66.833 28.5 -92.5 51.5s-45.5 51.5 -59.5 85.5s-21 74 -21 120v457zM259 925c5.33301 -28 17.834 -47.667 37.501 -59s42.834 -17 69.501 -17
c25.333 0 47.166 6.33301 65.499 19s30.166 31.667 35.499 57h57c-5.33301 -48 -22.833 -83.5 -52.5 -106.5s-67.5 -34.5 -113.5 -34.5s-82.667 12 -110 36s-43 59 -47 105h58z" />
    <glyph glyph-name="ubreve" unicode="&#x16d;" horiz-adv-x="574" 
d="M514 0l-111.998 0.00195312v72h-2c-14 -26 -34.833 -46.833 -62.5 -62.5s-55.834 -23.5 -84.501 -23.5c-68 0 -117.167 16.833 -147.5 50.5s-45.5 84.5 -45.5 152.5v328h114v-317c0 -45.333 8.66699 -77.333 26 -96s41.666 -28 72.999 -28c24 0 44 3.66699 60 11
s29 17.166 39 29.499s17.167 27.166 21.5 44.499s6.5 36 6.5 56v300h114v-517zM189.002 731.002c5.33301 -28 17.834 -47.667 37.501 -59s42.834 -17 69.501 -17c25.333 0 47.166 6.33301 65.499 19s30.166 31.667 35.499 57h57c-5.33301 -48 -22.833 -83.5 -52.5 -106.5
s-67.5 -34.5 -113.5 -34.5s-82.667 12 -110 36s-43 59 -47 105h58z" />
    <glyph glyph-name="Uring" unicode="&#x16e;" horiz-adv-x="722" 
d="M68 714h125v-416c0 -24 1.16699 -48.333 3.5 -73s9 -46.834 20 -66.501s27.667 -35.834 50 -48.501s53.833 -19 94.5 -19s72.167 6.33301 94.5 19s39 28.834 50 48.501s17.667 41.834 20 66.501s3.5 49 3.5 73v416h125v-457c0 -46 -7 -86 -21 -120
s-33.833 -62.5 -59.5 -85.5s-56.5 -40.167 -92.5 -51.5s-76 -17 -120 -17s-84 5.66699 -120 17s-66.833 28.5 -92.5 51.5s-45.5 51.5 -59.5 85.5s-21 74 -21 120v457zM303 854c0 -17.333 5.83301 -31.833 17.5 -43.5s25.834 -17.5 42.501 -17.5
c17.333 0 31.666 5.83301 42.999 17.5s17 26.167 17 43.5c0 18 -5.66699 32.667 -17 44s-25.666 17 -42.999 17c-16.667 0 -30.834 -5.66699 -42.501 -17s-17.5 -26 -17.5 -44zM363 751c-28.667 0 -53.168 9.5 -73.501 28.5s-30.5 43.833 -30.5 74.5
c0 15.333 2.83301 29.333 8.5 42s13.334 23.5 23.001 32.5s20.667 16 33 21s25.5 7.5 39.5 7.5s27.333 -2.5 40 -7.5s23.667 -12 33 -21s16.833 -19.833 22.5 -32.5s8.5 -26.667 8.5 -42s-2.83301 -29.333 -8.5 -42s-13.167 -23.5 -22.5 -32.5s-20.333 -16 -33 -21
s-26 -7.5 -40 -7.5z" />
    <glyph glyph-name="uring" unicode="&#x16f;" horiz-adv-x="574" 
d="M514 0l-111.998 0.00195312v72h-2c-14 -26 -34.833 -46.833 -62.5 -62.5s-55.834 -23.5 -84.501 -23.5c-68 0 -117.167 16.833 -147.5 50.5s-45.5 84.5 -45.5 152.5v328h114v-317c0 -45.333 8.66699 -77.333 26 -96s41.666 -28 72.999 -28c24 0 44 3.66699 60 11
s29 17.166 39 29.499s17.167 27.166 21.5 44.499s6.5 36 6.5 56v300h114v-517zM232.002 674.002c0 -17.333 5.83301 -31.833 17.5 -43.5s25.834 -17.5 42.501 -17.5c17.333 0 31.666 5.83301 42.999 17.5s17 26.167 17 43.5c0 18 -5.66699 32.667 -17 44
s-25.666 17 -42.999 17c-16.667 0 -30.834 -5.66699 -42.501 -17s-17.5 -26 -17.5 -44zM292.002 571.002c-28.667 0 -53.168 9.5 -73.501 28.5s-30.5 43.833 -30.5 74.5c0 15.333 2.83301 29.333 8.5 42s13.334 23.5 23.001 32.5s20.667 16 33 21s25.5 7.5 39.5 7.5
s27.333 -2.5 40 -7.5s23.667 -12 33 -21s16.833 -19.833 22.5 -32.5s8.5 -26.667 8.5 -42s-2.83301 -29.333 -8.5 -42s-13.167 -23.5 -22.5 -32.5s-20.333 -16 -33 -21s-26 -7.5 -40 -7.5z" />
    <glyph glyph-name="Uhungarumlaut" unicode="&#x170;" horiz-adv-x="722" 
d="M68 714h125v-416c0 -24 1.16699 -48.333 3.5 -73s9 -46.834 20 -66.501s27.667 -35.834 50 -48.501s53.833 -19 94.5 -19s72.167 6.33301 94.5 19s39 28.834 50 48.501s17.667 41.834 20 66.501s3.5 49 3.5 73v416h125v-457c0 -46 -7 -86 -21 -120
s-33.833 -62.5 -59.5 -85.5s-56.5 -40.167 -92.5 -51.5s-76 -17 -120 -17s-84 5.66699 -120 17s-66.833 28.5 -92.5 51.5s-45.5 51.5 -59.5 85.5s-21 74 -21 120v457zM505 926h136l-144 -143h-82zM306 926h136l-144 -143h-82z" />
    <glyph glyph-name="uhungarumlaut" unicode="&#x171;" horiz-adv-x="574" 
d="M514 0l-111.998 0.00195312v72h-2c-14 -26 -34.833 -46.833 -62.5 -62.5s-55.834 -23.5 -84.501 -23.5c-68 0 -117.167 16.833 -147.5 50.5s-45.5 84.5 -45.5 152.5v328h114v-317c0 -45.333 8.66699 -77.333 26 -96s41.666 -28 72.999 -28c24 0 44 3.66699 60 11
s29 17.166 39 29.499s17.167 27.166 21.5 44.499s6.5 36 6.5 56v300h114v-517zM427.002 732.002h136l-144 -143h-82zM228.002 732.002h136l-144 -143h-82z" />
    <glyph glyph-name="Uogonek" unicode="&#x172;" horiz-adv-x="722" 
d="M68 714l125.002 0.000976562v-416c0 -24 1.16699 -48.333 3.5 -73s9 -46.834 20 -66.501s27.667 -35.834 50 -48.501s53.833 -19 94.5 -19s72.167 6.33301 94.5 19s39 28.834 50 48.501s17.667 41.834 20 66.501s3.5 49 3.5 73v416h125v-457
c0 -68.667 -15.333 -124.334 -46 -167.001s-73 -72.667 -127 -90c-25.333 -8 -52.333 -13 -81 -15c-10 -9.33301 -19 -17.333 -27 -24c-18.667 -18.667 -31.167 -34.834 -37.5 -48.501s-9.5 -27.5 -9.5 -41.5c0 -13.333 4 -24 12 -32s17 -12 27 -12s19 2.33301 27 7
s16.333 13.667 25 27l41 -9c-4 -14.667 -9.83301 -26.834 -17.5 -36.501s-16.334 -17.334 -26.001 -23.001s-19.834 -9.66699 -30.501 -12s-21 -3.5 -31 -3.5c-4.66699 0 -12.5 0.666992 -23.5 2s-22.333 5 -34 11s-21.834 15 -30.501 27s-13 28.667 -13 50
c0 4 0.333008 8.83301 1 14.5s2.5 12 5.5 19s7.83301 15 14.5 24s16 18.833 28 29.5c5.33301 4.66699 11.166 9.5 17.499 14.5l20.5 15.5c-17.333 0.666992 -34.166 2.33398 -50.499 5.00098s-32.166 6.33398 -47.499 11.001c-54 17.333 -96.333 47.333 -127 90
s-46 98.334 -46 167.001v457z" />
    <glyph glyph-name="uogonek" unicode="&#x173;" horiz-adv-x="574" 
d="M453 0c-18 -15.333 -32.6689 -28.6621 -44.002 -39.9951s-20.333 -22 -27 -32s-11.334 -19.5 -14.001 -28.5s-4 -18.5 -4 -28.5c0 -13.333 3.83301 -24 11.5 -32s16.167 -12 25.5 -12s17.833 2.33301 25.5 7s15.5 13.667 23.5 27l39 -9
c-3.33301 -14.667 -8.66602 -26.834 -15.999 -36.501s-15.666 -17.334 -24.999 -23.001s-19.166 -9.66699 -29.499 -12s-19.833 -3.5 -28.5 -3.5c-4.66699 0 -12.167 0.666992 -22.5 2s-21 5 -32 11s-20.667 15 -29 27s-12.5 28.667 -12.5 50
c0 5.33301 0.666992 12.166 2 20.499s5.33301 18 12 29s17.334 23.5 32.001 37.5s35.334 29.333 62.001 46v72h-2c-14 -26 -34.833 -46.833 -62.5 -62.5s-55.834 -23.5 -84.501 -23.5c-68 0 -117.167 16.833 -147.5 50.5s-45.5 84.5 -45.5 152.5v328h114v-317
c0 -45.333 8.66699 -77.333 26 -96s41.666 -28 72.999 -28c24 0 44 3.66699 60 11s29 17.166 39 29.499s17.167 27.166 21.5 44.499s6.5 36 6.5 56v300h114v-517h-61z" />
    <glyph glyph-name="Wcircumflex" unicode="&#x174;" horiz-adv-x="944" 
d="M6 714h127l129 -546h2l144 546h128l140 -546h2l133 546h127l-197 -714h-127l-143 546h-2l-146 -546h-129zM402 783h-92l107 143h111l108 -143h-93l-71 90z" />
    <glyph glyph-name="wcircumflex" unicode="&#x175;" horiz-adv-x="778" 
d="M13 517h121l101 -386h2l97 386h115l93 -386h2l105 386h116l-162 -517h-117l-96 384h-2l-95 -384h-120zM324 589h-92l107 143h111l108 -143h-93l-71 90z" />
    <glyph glyph-name="Ycircumflex" unicode="&#x176;" horiz-adv-x="648" 
d="M262 280l-268 434h145l189 -320l186 320h140l-267 -434v-280h-125v280zM260 783h-92l107 143h111l108 -143h-93l-71 90z" />
    <glyph glyph-name="ycircumflex" unicode="&#x177;" horiz-adv-x="519" 
d="M3 517l125 -0.000976562l135 -386h2l131 386h119l-201 -545l-27.5 -67c-9 -21.333 -20 -40.166 -33 -56.499s-29.167 -29.333 -48.5 -39s-44 -14.5 -74 -14.5c-26.667 0 -53 2 -79 6v96c9.33301 -1.33301 18.333 -2.83301 27 -4.5s17.667 -2.5 27 -2.5
c26 0 44.167 6.5 54.5 19.5s18.833 30.5 25.5 52.5l13 40zM193 588.999h-92l107 143h111l108 -143h-93l-71 90z" />
    <glyph glyph-name="Ydieresis" unicode="&#x178;" horiz-adv-x="648" 
d="M262 280l-268 434h145l189 -320l186 320h140l-267 -434v-280h-125v280zM186 796v108h114v-108h-114zM472 904v-108h-114v108h114z" />
    <glyph glyph-name="Zacute" unicode="&#x179;" horiz-adv-x="630" 
d="M55 714h543v-95l-416 -511h426v-108h-585v102l416 504h-384v108zM364 926h135l-142 -143h-83z" />
    <glyph glyph-name="zacute" unicode="&#x17a;" horiz-adv-x="500" 
d="M42 517h420v-80l-296 -347h311v-90h-455v80l286 347h-266v90zM292 732h135l-142 -143h-83z" />
    <glyph glyph-name="Zdotaccent" unicode="&#x17b;" horiz-adv-x="630" 
d="M55 714h543v-95l-416 -511h426v-108h-585v102l416 504h-384v108zM266 796v108h114v-108h-114z" />
    <glyph glyph-name="zdotaccent" unicode="&#x17c;" horiz-adv-x="500" 
d="M42 517h420v-80l-296 -347h311v-90h-455v80l286 347h-266v90zM194 602v108h114v-108h-114z" />
    <glyph glyph-name="Zcaron" unicode="&#x17d;" horiz-adv-x="630" 
d="M55 714h543v-95l-416 -511h426v-108h-585v102l416 504h-384v108zM378 783h-111l-107 143h92l70 -89l71 89h93z" />
    <glyph glyph-name="zcaron" unicode="&#x17e;" horiz-adv-x="500" 
d="M42 517h420v-80l-296 -347h311v-90h-455v80l286 347h-266v90zM307 589h-111l-107 143h92l70 -89l71 89h93z" />
    <glyph glyph-name="florin" unicode="&#x192;" 
d="M131 438h91.9961l32 168c11.333 44.667 32.333 76.667 63 96s68.334 29 113.001 29c12 0 24.167 -0.5 36.5 -1.5s24.5 -2.16699 36.5 -3.5l-17 -90c-7.33301 1.33301 -14.166 2.5 -20.499 3.5s-13.166 1.5 -20.499 1.5c-28 0 -47.5 -5.66699 -58.5 -17
s-19.167 -30 -24.5 -56l-25 -130h102l-15 -85h-102l-73 -381c-4 -19.333 -11.167 -37.5 -21.5 -54.5s-23 -32 -38 -45s-32 -23.333 -51 -31s-39.167 -11.5 -60.5 -11.5c-13.333 0 -26.5 0.5 -39.5 1.5s-26.167 2.16699 -39.5 3.5l15 90c8 -1.33301 16 -2.5 24 -3.5
s16 -1.5 24 -1.5c18 0 32.833 3.66699 44.5 11s19.834 22.333 24.501 45l75 377h-91z" />
    <glyph glyph-name="Scommaaccent" unicode="&#x218;" horiz-adv-x="648" 
d="M158 238c0 -27.333 4.66699 -50.666 14 -69.999s22.333 -35.166 39 -47.499s35.834 -21.333 57.501 -27s45.167 -8.5 70.5 -8.5c27.333 0 50.666 3.16699 69.999 9.5s35 14.5 47 24.5s20.667 21.5 26 34.5s8 26.167 8 39.5c0 27.333 -6.16699 47.5 -18.5 60.5
s-25.833 22.167 -40.5 27.5c-25.333 9.33301 -54.833 18.166 -88.5 26.499s-75.167 19.166 -124.5 32.499c-30.667 8 -56.167 18.5 -76.5 31.5s-36.5 27.5 -48.5 43.5s-20.5 33 -25.5 51s-7.5 36.333 -7.5 55c0 36 7.5 67.167 22.5 93.5s34.833 48.166 59.5 65.499
s52.667 30.166 84 38.499s63 12.5 95 12.5c36.667 0 71.667 -4.83301 105 -14.5s62.5 -24.167 87.5 -43.5s44.833 -43.166 59.5 -71.499s22 -61.166 22 -98.499h-125c-3.33301 46 -18.833 78.5 -46.5 97.5s-63.5 28.5 -107.5 28.5c-14.667 0 -29.667 -1.5 -45 -4.5
s-29.333 -8 -42 -15s-23.167 -16.5 -31.5 -28.5s-12.5 -27 -12.5 -45c0 -25.333 7.83301 -45.166 23.5 -59.499s36.167 -25.166 61.5 -32.499c2.66699 -0.666992 13.167 -3.5 31.5 -8.5l61.5 -16.5l66.5 -17.5c21.667 -5.66699 37.167 -9.83398 46.5 -12.501
c23.333 -7.33301 43.666 -17.333 60.999 -30s31.833 -27.167 43.5 -43.5s20.334 -33.833 26.001 -52.5s8.5 -37.334 8.5 -56.001c0 -40 -8.16699 -74.167 -24.5 -102.5s-37.833 -51.5 -64.5 -69.5s-57 -31.167 -91 -39.5s-68.667 -12.5 -104 -12.5c-40.667 0 -79 5 -115 15
s-67.333 25.333 -94 46s-48 47.167 -64 79.5s-24.333 70.5 -25 114.5h125zM258 -50l131 0.00292969v-89c0 -10.667 -1.66699 -20.834 -5 -30.501s-9.33301 -18.334 -18 -26.001s-20.5 -14 -35.5 -19s-34.167 -7.83301 -57.5 -8.5v38c14 2 24.5 5.66699 31.5 11
s11.5 13.666 13.5 24.999h-60v99z" />
    <glyph glyph-name="scommaaccent" unicode="&#x219;" horiz-adv-x="519" 
d="M146 166c3.33301 -33.333 15.999 -56.6689 37.999 -70.002s48.333 -20 79 -20c10.667 0 22.834 0.833008 36.501 2.5s26.5 4.83398 38.5 9.50098s21.833 11.5 29.5 20.5s11.167 20.833 10.5 35.5s-6 26.667 -16 36s-22.833 16.833 -38.5 22.5s-33.5 10.5 -53.5 14.5
s-40.333 8.33301 -61 13c-21.333 4.66699 -41.833 10.334 -61.5 17.001s-37.334 15.667 -53.001 27s-28.167 25.833 -37.5 43.5s-14 39.5 -14 65.5c0 28 6.83301 51.5 20.5 70.5s31 34.333 52 46s44.333 19.834 70 24.501s50.167 7 73.5 7
c26.667 0 52.334 -2.83301 77.001 -8.5s46.667 -14.834 66 -27.501s35.5 -29.167 48.5 -49.5s21.167 -44.833 24.5 -73.5h-119c-5.33301 27.333 -17.833 45.666 -37.5 54.999s-42.167 14 -67.5 14c-8 0 -17.5 -0.666992 -28.5 -2s-21.333 -3.83301 -31 -7.5
s-17.834 -9 -24.501 -16s-10 -16.167 -10 -27.5c0 -14 4.83301 -25.333 14.5 -34s22.334 -15.834 38.001 -21.501s33.5 -10.5 53.5 -14.5l62 -13c20.667 -4.66699 41 -10.334 61 -17.001s37.833 -15.667 53.5 -27s28.334 -25.666 38.001 -42.999s14.5 -38.666 14.5 -63.999
c0 -30.667 -7 -56.667 -21 -78s-32.167 -38.666 -54.5 -51.999s-47.166 -23 -74.499 -29s-54.333 -9 -81 -9c-32.667 0 -62.834 3.66699 -90.501 11s-51.667 18.5 -72 33.5s-36.333 33.667 -48 56s-17.834 48.833 -18.501 79.5h114zM190.999 -50.0029l131 0.00292969v-89
c0 -10.667 -1.66699 -20.834 -5 -30.501s-9.33301 -18.334 -18 -26.001s-20.5 -14 -35.5 -19s-34.167 -7.83301 -57.5 -8.5v38c14 2 24.5 5.66699 31.5 11s11.5 13.666 13.5 24.999h-60v99z" />
    <glyph glyph-name="uni021A" unicode="&#x21a;" horiz-adv-x="593" 
d="M8 714h578v-108h-227v-606h-125v606h-226v108zM230 -50l131 0.00292969v-89c0 -10.667 -1.66699 -20.834 -5 -30.501s-9.33301 -18.334 -18 -26.001s-20.5 -14 -35.5 -19s-34.167 -7.83301 -57.5 -8.5v38c14 2 24.5 5.66699 31.5 11s11.5 13.666 13.5 24.999h-60v99z" />
    <glyph glyph-name="uni021B" unicode="&#x21b;" horiz-adv-x="333" 
d="M8 517h86v155h114v-155h103v-85h-103v-276c0 -12 0.5 -22.333 1.5 -31s3.33301 -16 7 -22s9.16699 -10.5 16.5 -13.5s17.333 -4.5 30 -4.5c8 0 16 0.166992 24 0.5s16 1.5 24 3.5v-88l-37 -4c-12 -1.33301 -24.333 -2 -37 -2c-30 0 -54.167 2.83301 -72.5 8.5
s-32.666 14 -42.999 25s-17.333 24.833 -21 41.5s-5.83398 35.667 -6.50098 57v305h-86v85zM136 -50l131 0.00292969v-89c0 -10.667 -1.66699 -20.834 -5 -30.501s-9.33301 -18.334 -18 -26.001s-20.5 -14 -35.5 -19s-34.167 -7.83301 -57.5 -8.5v38
c14 2 24.5 5.66699 31.5 11s11.5 13.666 13.5 24.999h-60v99z" />
    <glyph glyph-name="dotlessj" unicode="&#x237;" horiz-adv-x="241" 
d="M63 517h114v-561c0 -51.333 -11.333 -91 -34 -119s-60.667 -42 -114 -42c-11.333 0 -20.833 0.333008 -28.5 1s-15.167 1.66699 -22.5 3v90c13.333 -2.66699 26.333 -4 39 -4c20.667 0 33.5 6.33301 38.5 19s7.5 31.667 7.5 57v556z" />
    <glyph glyph-name="circumflex" unicode="&#x2c6;" horiz-adv-x="241" 
d="M50 589h-92l107 143h111l108 -143h-93l-71 90z" />
    <glyph glyph-name="caron" unicode="&#x2c7;" horiz-adv-x="241" 
d="M175 589h-111l-107 143h92l70 -89l71 89h93z" />
    <glyph glyph-name="uni02C9" unicode="&#x2c9;" horiz-adv-x="241" 
d="M-23 624v65h288v-65h-288z" />
    <glyph glyph-name="breve" unicode="&#x2d8;" horiz-adv-x="241" 
d="M17 731c5.33301 -28 17.834 -47.667 37.501 -59s42.834 -17 69.501 -17c25.333 0 47.166 6.33301 65.499 19s30.166 31.667 35.499 57h57c-5.33301 -48 -22.833 -83.5 -52.5 -106.5s-67.5 -34.5 -113.5 -34.5s-82.667 12 -110 36s-43 59 -47 105h58z" />
    <glyph glyph-name="dotaccent" unicode="&#x2d9;" horiz-adv-x="241" 
d="M64 602v108h114v-108h-114z" />
    </font>
</defs>
</svg>
