<svg width="1332" height="377" viewBox="0 0 1332 377" fill="none" xmlns="http://www.w3.org/2000/svg">
<path d="M1326.18 359C1342.74 330.189 1303.87 297.195 1241.24 286.91C1210.08 281.789 1176.03 281.908 1143.15 279.821C1110.27 277.735 1075.6 272.596 1056.76 260.409C1039.84 249.456 1039.19 235.128 1027.4 222.911C1013.33 208.312 983.513 197.431 950.175 191.783C916.843 186.136 880.215 185.312 844.721 186.839C805.91 188.509 764.533 192.718 729.556 185.047C689.226 176.202 672.637 155.11 653.566 136.971C635.617 119.899 610.875 103.272 573.73 94.249C526.23 82.7103 465.941 85.9016 418.043 97.1069C370.138 108.312 332.515 126.507 298.361 145.203C264.207 163.898 232.149 183.618 191.242 199.396C136.817 220.38 66.6182 234.539 28.5638 261.76C-13.5568 291.89 -6.4593 328.632 32.6299 358.339L1326.18 359Z" fill="#EEEEEE"/>
<mask id="mask0" mask-type="alpha" maskUnits="userSpaceOnUse" x="452" y="-17" width="529" height="375">
<rect x="452.971" y="-17" width="527.178" height="374.126" fill="#C4C4C4"/>
</mask>
<g mask="url(#mask0)">
<path d="M773.051 11.705C773.051 11.705 775.212 9.28389 777.618 11.1127C780.563 13.3515 777.543 23.2375 777.543 23.2375C777.543 23.2375 778.463 14.1976 776.223 12.4241C774.465 11.0313 773.051 11.705 773.051 11.705Z" fill="#1D2633"/>
<path d="M787.544 18.7924C787.544 18.7924 787.918 16.0427 785.372 15.4602C782.255 14.7475 777.477 22.1441 777.477 22.1441C777.477 22.1441 782.879 16.5894 785.294 17.0937C787.193 17.4908 787.544 18.7924 787.544 18.7924Z" fill="#1D2633"/>
<path d="M722.777 159.244C722.777 159.244 682.049 185.946 667.853 230.464C653.661 274.981 704.108 359.372 704.108 359.372L730.155 344.345L722.777 159.244Z" fill="#B2B2B2"/>
<path d="M718.719 207.169C718.719 207.169 712.026 221.091 705.673 251.572C699.319 282.054 713.356 324.311 713.356 324.311L713.736 324.299L718.719 207.169Z" fill="white"/>
<path d="M895.469 362.593C893.893 383.247 891.897 420.315 881.404 426.979C854.293 444.196 749.926 449.159 726.609 426.979C703.285 404.805 713.282 177.55 721.197 160.017C738.203 146.103 740.327 146.237 753.444 138.414C766.557 130.591 795.039 131.919 805.533 134.886C816.029 137.854 825.814 141.639 830.69 143.432C834.727 144.919 864.864 199.334 879.902 240.466C883.023 249.002 885.496 256.968 886.946 263.769C892.131 288.028 897.969 329.873 895.469 362.593Z" fill="#CCCCCC"/>
<path d="M895.47 362.593C895.089 362.586 869.409 362.098 842.071 350.549C810.75 337.318 780.718 295.29 780.718 295.29C780.718 295.29 796.92 250.07 776.822 263.984C774.387 269.773 780.718 247.511 780.718 247.511C780.718 247.511 767.546 239.248 776.822 263.984C786.871 231.518 784.521 273.646 784.521 273.646L769.123 254.321L764.574 247.511C764.574 247.511 763.755 232.454 794.718 237.04C807.37 238.911 836.343 248.016 846.781 242.005C859.15 234.879 853.646 194.85 853.646 194.85L879.902 240.466C883.023 249.002 885.497 256.968 886.946 263.769C892.131 288.028 897.97 329.873 895.47 362.593Z" fill="white"/>
<path d="M742.656 178.222L729.311 207.061C734.973 210.282 739.895 214.128 737.844 218.561C736.372 221.753 733.91 227.07 731.692 231.858C729.482 236.643 727.02 241.96 725.54 245.155C723.489 249.588 717.371 248.328 711.248 246.093L697.921 274.934C708.124 278.762 725.641 281.353 731.662 268.343C738.815 252.88 745.574 238.277 745.574 238.277C745.574 238.277 752.333 223.675 759.485 208.212C765.503 195.193 752.182 183.519 742.656 178.222Z" fill="#FF7900"/>
<path d="M733.55 210.824L747.621 180.407" stroke="black" stroke-width="1.5" stroke-miterlimit="10"/>
<path d="M716.854 246.922L702.677 277.553" stroke="black" stroke-width="1.5" stroke-miterlimit="10"/>
<path d="M785.756 111.118C785.756 110.077 784.505 100.236 790.476 86.989C796.448 73.7415 819.303 46.8592 810.055 30.5301C800.807 14.2009 777.763 21.1061 777.763 21.1061C777.763 21.1061 777.876 85.6288 780.796 96.9889C783.718 108.352 785.756 111.118 785.756 111.118Z" fill="#1D2633"/>
<path d="M778.438 242.015L765.123 256.968C765.123 256.968 749.487 260.479 744.075 261.38C738.659 262.285 721.017 256.864 721.118 254.96C721.216 253.095 733.516 254.4 734.033 254.456C733.442 254.319 714.474 249.9 714.471 246.633C714.471 242.354 730.987 247.589 731.728 247.827C730.939 247.446 711.165 237.944 711.704 233.135C712.163 229.086 717.962 230.997 718.141 231.058C717.981 230.958 712.166 227.271 713.801 224.957C715.004 223.252 718.134 223.951 721.879 225.23C725.627 226.509 729.989 228.367 733.646 228.969C738.233 229.724 744.868 229.184 749.178 228.676C751.746 228.371 753.489 228.081 753.489 228.081C753.489 228.081 753.482 228.035 752.117 224.172C753.663 219.534 753.663 219.534 755.209 217.215C756.814 217.518 754.922 217.567 757.705 220.193C759.61 221.989 764.723 223.346 770.538 228.162C776.347 232.982 778.438 242.015 778.438 242.015Z" fill="#EFA48F"/>
<path d="M778.438 237.039C787.68 234.299 844.973 267.452 857.8 250.235C870.627 233.017 830.689 143.435 830.689 143.435C830.689 143.435 890.505 166.435 916.39 222.223C941.71 276.792 950.204 362.43 864.796 347.042C779.387 331.653 761.755 264.781 762.701 257.508C763.647 250.232 770.783 239.308 778.438 237.039Z" fill="#B3B2B2"/>
<path d="M777.625 327.478H770.005C768.911 327.478 768.023 328.393 768.023 329.523L760.619 344.259C760.619 345.388 755.197 346.304 760.619 346.304H720.86C719.765 346.304 718.878 345.388 718.878 344.259V277.508" stroke="black" stroke-width="2" stroke-miterlimit="10"/>
<path d="M732.812 254C734.392 254.277 735.968 254.566 737.545 254.774C738.335 254.875 739.121 254.963 739.911 255.025C740.701 255.077 741.491 255.1 742.287 255.087H742.291C742.378 255.084 742.453 255.155 742.456 255.246C742.456 255.324 742.404 255.389 742.333 255.406C741.533 255.604 740.708 255.673 739.888 255.679C739.069 255.679 738.253 255.611 737.444 255.503C736.638 255.386 735.838 255.233 735.048 255.032C734.258 254.83 733.481 254.599 732.724 254.293C732.646 254.26 732.607 254.172 732.639 254.094C732.665 254.026 732.737 253.99 732.808 254H732.812Z" fill="#A84636"/>
<path d="M767.964 334.771L811.06 292.336V273.723C811.06 272.827 811.783 272.104 812.679 272.104H831.785C832.681 272.104 833.404 272.834 833.404 273.723V282.817H902.247V352.314H830.694H825.497H766.38C764.907 352.314 763.712 351.119 763.712 349.646V344.922C763.712 341.101 765.241 337.446 767.964 334.771Z" fill="#FF7900"/>
<path d="M807.974 320.854C806.153 313.261 815.447 304.522 828.733 301.334C842.02 298.146 854.268 301.717 856.089 309.31C857.911 316.903 848.617 325.642 835.33 328.83C822.044 332.018 809.796 328.447 807.974 320.854Z" fill="#FFFDFB"/>
<path d="M828.421 315.951C828.692 317.09 830.526 317.625 832.52 317.146C834.507 316.666 835.904 315.36 835.626 314.221C835.348 313.081 833.521 312.546 831.527 313.026C829.54 313.505 828.15 314.811 828.421 315.951Z" fill="black"/>
<path d="M842.234 306.87C842.477 307.87 844.089 308.343 845.846 307.926C847.597 307.502 848.827 306.349 848.584 305.348C848.34 304.348 846.729 303.876 844.971 304.292C843.22 304.716 841.99 305.87 842.234 306.87Z" fill="black"/>
<path d="M846.715 312.97C846.958 313.97 848.57 314.443 850.328 314.026C852.078 313.602 853.308 312.449 853.065 311.448C852.822 310.448 851.21 309.975 849.452 310.392C847.702 310.809 846.479 311.963 846.715 312.97Z" fill="black"/>
<path d="M842.685 320.029C842.928 321.029 844.54 321.502 846.297 321.085C848.055 320.668 849.278 319.508 849.035 318.507C848.791 317.507 847.18 317.034 845.422 317.451C843.671 317.875 842.441 319.028 842.685 320.029Z" fill="black"/>
<path d="M834.689 324.823C834.932 325.823 836.544 326.295 838.301 325.879C840.052 325.455 841.282 324.301 841.039 323.301C840.796 322.301 839.184 321.828 837.426 322.245C835.675 322.669 834.445 323.822 834.689 324.823Z" fill="black"/>
<path d="M824.53 326.789C824.774 327.789 826.385 328.262 828.143 327.845C829.894 327.421 831.124 326.268 830.88 325.267C830.637 324.267 829.025 323.794 827.268 324.211C825.517 324.635 824.287 325.788 824.53 326.789Z" fill="black"/>
<path d="M815.623 324.823C815.866 325.823 817.478 326.295 819.236 325.879C820.987 325.455 822.216 324.301 821.973 323.301C821.73 322.301 820.118 321.828 818.361 322.245C816.603 322.662 815.387 323.822 815.623 324.823Z" fill="black"/>
<path d="M811.004 319.751C811.247 320.751 812.859 321.224 814.617 320.807C816.368 320.383 817.597 319.23 817.354 318.229C817.111 317.229 815.499 316.756 813.741 317.173C811.991 317.597 810.761 318.75 811.004 319.751Z" fill="black"/>
<path d="M814.526 312.129C814.77 313.13 816.381 313.602 818.139 313.185C819.89 312.762 821.12 311.608 820.877 310.608C820.633 309.607 819.022 309.135 817.264 309.552C815.506 309.976 814.283 311.129 814.526 312.129Z" fill="black"/>
<path d="M822.642 307.308C822.885 308.308 824.497 308.781 826.254 308.364C828.005 307.94 829.235 306.787 828.992 305.786C828.749 304.786 827.137 304.313 825.379 304.73C823.628 305.154 822.399 306.307 822.642 307.308Z" fill="black"/>
<path d="M832.931 304.904C833.174 305.904 834.786 306.377 836.544 305.96C838.294 305.536 839.524 304.383 839.281 303.382C839.038 302.382 837.426 301.909 835.668 302.326C833.91 302.743 832.695 303.903 832.931 304.904Z" fill="black"/>
<path d="M918.309 273.723V349.591C918.309 351.091 917.093 352.307 915.592 352.307H851.278C849.806 352.307 848.611 351.112 848.611 349.639V344.915C848.611 341.101 850.139 337.446 852.862 334.765L895.958 292.329V273.716C895.958 272.82 896.681 272.097 897.577 272.097H916.69C917.586 272.104 918.309 272.827 918.309 273.723Z" fill="black"/>
<path d="M730.816 247.384C731.713 247.583 732.617 247.768 733.517 247.947C734.418 248.12 735.318 248.289 736.222 248.409C736.674 248.471 737.125 248.53 737.574 248.566C738.026 248.611 738.478 248.634 738.926 248.64C739.82 248.64 740.73 248.605 741.543 248.26L741.55 248.256C741.631 248.221 741.725 248.26 741.761 248.341C741.79 248.413 741.764 248.497 741.699 248.54C740.87 249.083 739.879 249.242 738.939 249.295C737.99 249.343 737.044 249.268 736.118 249.135C735.188 248.998 734.275 248.806 733.374 248.562C732.474 248.322 731.59 248.029 730.722 247.674C730.644 247.641 730.608 247.554 730.637 247.476C730.666 247.407 730.741 247.368 730.816 247.384Z" fill="#A84636"/>
<path d="M729.678 237.912C730.565 238.328 731.478 238.702 732.392 239.054C733.309 239.399 734.235 239.708 735.174 239.965C736.114 240.222 737.066 240.411 738.029 240.547C738.991 240.668 739.959 240.704 740.938 240.665H740.944C741.032 240.661 741.107 240.73 741.11 240.818C741.113 240.896 741.058 240.964 740.983 240.98C739.995 241.192 738.974 241.267 737.96 241.195C736.949 241.114 735.951 240.938 734.979 240.668C734.011 240.391 733.061 240.05 732.148 239.633C731.235 239.216 730.35 238.741 729.518 238.169C729.45 238.12 729.43 238.025 729.479 237.957C729.521 237.895 729.603 237.873 729.671 237.905L729.678 237.912Z" fill="#A84636"/>
<path d="M808.149 135.648C808.149 135.648 793.346 149.087 774.745 147.834C756.138 146.578 753.443 138.417 753.443 138.417C753.443 138.417 759.074 133.061 760.432 125.182C760.653 123.891 760.832 122.625 760.972 121.395C761.476 116.972 761.499 113.077 761.404 110.555C761.336 108.778 761.212 107.682 761.157 107.565L784.565 82.137C784.565 82.137 784.556 82.303 784.539 82.6154C784.52 82.9798 784.494 83.5591 784.474 84.3075C784.325 89.4751 784.409 102.853 788.538 113.1C793.758 126.074 808.149 135.648 808.149 135.648Z" fill="#EFA48F"/>
<path d="M784.913 82.137C784.913 82.137 784.767 82.9538 784.474 84.3075C783.46 88.9902 780.226 99.7711 776.445 105.947C771.374 114.229 762.623 120.311 760.972 121.395C761.476 116.972 761.498 113.077 761.404 110.555L784.539 82.6154L784.913 82.137Z" fill="#A84636"/>
<path d="M731.479 48.8735C731.479 48.8735 717.449 108.29 747.976 113.103C778.503 117.916 789.998 70.2042 791.672 61.8379C793.343 53.4748 795.017 35.8993 775.162 31.9261C755.307 27.9528 737.967 32.1278 731.479 48.8735Z" fill="#EFA48F"/>
<path d="M705.259 37.2661C705.259 37.2661 709.846 50.4485 729.382 53.2731C748.919 56.0976 771.049 47.6044 771.049 47.6044C771.049 47.6044 769.421 54.8643 773.666 61.8379C778.432 69.6673 783.09 70.1977 783.09 70.1977C783.09 70.1977 803.121 61.8379 795.946 40.7187C791.47 27.5428 777.762 21.1029 777.762 21.1029C777.762 21.1029 770.968 3.84305 752.03 8.5485C733.091 13.254 718.502 37.2661 705.259 37.2661Z" fill="#1D2633"/>
<path d="M798.897 60.0384C790.377 57.7312 773.074 70.9559 773.074 70.9559C773.074 70.9559 772.892 70.6468 767.167 69.3093C761.446 67.9686 754.451 67.5424 751.343 68.0305C748.242 68.5153 747.143 69.7975 745.258 69.6738C743.372 69.5534 742.335 68.0923 740.148 67.2397C737.957 66.3871 724.977 65.7721 724.323 67.2397C723.836 68.3364 722.74 75.8924 727.184 78.4469C731.628 81.0079 740.086 80.0902 741.76 78.8114C743.434 77.5357 742.885 72.4756 745.196 72.596C747.511 72.7131 747.39 76.8036 749.942 80.0935C752.5 83.3866 765.461 84.5419 769.355 82.7749C773.249 81.0079 773.373 73.7545 773.373 73.7545C773.373 73.7545 778.821 70.7086 787.006 65.8372C795.201 60.9593 798.576 62.6254 800.09 64.9325C801.397 66.9241 798.497 69.3744 801.056 70.6956C804.271 72.3487 807.625 62.4008 798.897 60.0384ZM739.845 77.7765C737.229 78.9936 729.014 78.2159 727.369 76.2243C726.202 74.8055 725.295 69.6347 726.654 68.7822C728.861 67.4024 738.386 68.1444 740.333 69.8528C742.046 71.3497 742.205 76.6767 739.845 77.7765ZM768.754 80.9688C767.294 82.3714 755.046 82.2835 751.72 79.1042C749.945 77.4121 748.495 71.5742 750.01 70.9559C756.174 68.4372 770.558 71.5449 771.166 72.7652C771.774 73.9888 770.707 79.0945 768.754 80.9688Z" fill="#FF7900"/>
<path d="M793.72 78.3193C798.421 73.6135 799.947 67.5117 797.129 64.6906C794.311 61.8694 788.215 63.3972 783.514 68.1029C778.814 72.8087 777.288 78.9105 780.106 81.7317C782.924 84.5528 789.019 83.0251 793.72 78.3193Z" fill="#EFA48F"/>
<path d="M752.069 58.7856C751.604 61.0081 755.398 63.3674 759.487 64.3534C762.396 65.0563 766.895 65.9349 767.731 63.9238C768.843 61.249 765.878 59.111 760.96 57.8549C756.041 56.6021 752.68 55.8634 752.069 58.7856Z" fill="#1D2633"/>
<path d="M740.892 59.3973C741 61.6914 737.645 63.709 734.219 64.3143C731.781 64.7438 728.033 65.1994 727.6 63.081C727.022 60.2661 729.681 58.3918 733.812 57.5978C737.941 56.8005 740.749 56.3807 740.892 59.3973Z" fill="#1D2633"/>
<path d="M764.46 76.4521C764.054 75.4368 763.55 74.4736 762.897 73.7089C762.25 72.9344 761.447 72.3974 760.53 72.1729C759.601 71.9386 758.684 72.02 757.855 72.4983C757.026 72.9767 756.298 73.787 755.69 74.6981L755.684 74.7046C755.645 74.7632 755.566 74.7795 755.505 74.7404C755.462 74.7111 755.443 74.6623 755.449 74.6168C755.527 74.0278 755.742 73.4843 756.022 72.9539C756.308 72.43 756.694 71.9419 757.192 71.5416C757.686 71.1446 758.3 70.8517 758.947 70.7346C759.597 70.6142 760.257 70.663 760.872 70.8192C761.489 70.9721 762.084 71.2618 762.588 71.649C763.095 72.033 763.508 72.5179 763.833 73.0353C764.46 74.0831 764.782 75.2416 764.759 76.4098C764.759 76.4944 764.688 76.5627 764.603 76.5595C764.538 76.5595 764.486 76.5172 764.464 76.4619L764.46 76.4521Z" fill="#1E2633"/>
<path d="M758.475 75.5637C758.092 77.2591 758.781 78.8601 760.013 79.1432C761.248 79.4231 762.558 78.2776 762.945 76.5822C763.329 74.8869 762.639 73.2858 761.407 73.0027C760.172 72.7196 758.859 73.8683 758.475 75.5637Z" fill="#1E2633"/>
<path d="M738.48 74.4346C738.145 73.6146 737.729 72.8401 737.206 72.2218C736.676 71.6036 736.036 71.1708 735.298 70.9918C734.55 70.803 733.819 70.8681 733.149 71.2489C732.479 71.6296 731.888 72.2804 731.387 73.0126L731.384 73.0191C731.351 73.0679 731.283 73.0809 731.234 73.0484C731.199 73.0256 731.182 72.9833 731.189 72.9443C731.247 72.4659 731.42 72.0233 731.644 71.5905C731.881 71.1675 732.184 70.764 732.59 70.4386C732.993 70.1132 733.49 69.8756 734.02 69.778C734.55 69.6771 735.086 69.7194 735.587 69.8463C736.091 69.97 736.575 70.2075 736.985 70.5232C737.398 70.8388 737.736 71.2326 737.993 71.6556C738.506 72.5049 738.756 73.4486 738.734 74.3988C738.73 74.4704 738.672 74.529 738.6 74.5258C738.548 74.5258 738.503 74.49 738.483 74.4444L738.48 74.4346Z" fill="#1E2633"/>
<path d="M733.588 73.7643C733.276 75.1375 733.836 76.4326 734.833 76.6604C735.831 76.8882 736.894 75.9608 737.206 74.5875C737.519 73.2143 736.959 71.9192 735.961 71.6914C734.963 71.4636 733.901 72.391 733.588 73.7643Z" fill="#1E2633"/>
<path d="M743.844 76.9956C743.844 77.4967 743.815 77.9946 743.769 78.4925C743.727 78.9903 743.672 79.485 743.597 79.9796C743.467 80.9688 743.265 81.9483 743.048 82.9246C742.602 84.8705 742.001 86.7839 741.263 88.6486C741.087 89.1171 740.886 89.576 740.684 90.0348L740.385 90.7182L740.06 91.395L739.732 92.0719L739.651 92.2411L739.631 92.2801C739.634 92.2736 739.638 92.2671 739.641 92.2606C739.647 92.2476 739.651 92.2346 739.654 92.2216C739.664 92.1728 739.654 92.1695 739.657 92.1988C739.664 92.2639 739.722 92.4201 739.807 92.5795C739.891 92.7422 740.008 92.9114 740.135 93.0839C740.649 93.7738 741.318 94.4506 742.011 95.095C742.713 95.7425 743.451 96.3641 744.267 96.9791C744.27 96.9823 744.27 96.9889 744.27 96.9921C744.267 96.9954 744.263 96.9954 744.263 96.9954C743.236 96.914 742.241 96.5658 741.325 96.094C740.405 95.6124 739.543 95.0169 738.792 94.1968C738.604 93.9886 738.428 93.7608 738.263 93.5004C738.097 93.2369 737.941 92.9407 737.859 92.5177C737.82 92.3062 737.804 92.0491 737.876 91.7627C737.892 91.6911 737.918 91.6196 737.947 91.5512L737.996 91.4471L738.019 91.4048L738.1 91.2421L738.422 90.5913C738.64 90.1585 738.844 89.7224 739.049 89.2831L739.358 88.6258L739.654 87.9619C741.23 84.4182 742.596 80.7671 743.759 76.9825C743.766 76.9565 743.795 76.9402 743.821 76.9467C743.828 76.9533 743.841 76.9728 743.844 76.9956Z" fill="#1E2633"/>
<path d="M750.564 102.033C752.287 101.828 753.905 101.444 755.128 100.575C755.742 100.142 756.21 99.6117 756.633 98.9413C757.049 98.2775 757.39 97.5128 757.728 96.6927L757.735 96.6797C757.764 96.6049 757.849 96.5723 757.923 96.6016C757.966 96.6179 757.998 96.6569 758.008 96.6993C758.242 97.6234 758.151 98.5866 757.829 99.5076C757.66 99.9631 757.426 100.412 757.111 100.809C756.805 101.216 756.405 101.561 755.999 101.838C755.167 102.394 754.201 102.7 753.255 102.771C752.306 102.84 751.373 102.726 750.509 102.361C750.421 102.326 750.382 102.225 750.418 102.137C750.444 102.078 750.496 102.039 750.554 102.033H750.564Z" fill="#1E2633"/>
<path d="M794.578 70.8225C793.58 70.6793 792.556 70.6468 791.528 70.7704C790.501 70.8908 789.474 71.1967 788.531 71.6979C787.585 72.1925 786.74 72.8986 786.051 73.7252C785.706 74.1384 785.398 74.5843 785.131 75.0561C784.994 75.2904 784.874 75.5345 784.76 75.785C784.702 75.9087 784.65 76.0356 784.598 76.169C784.546 76.3057 784.5 76.4196 784.448 76.6018C784.309 77.0867 784.585 77.5911 785.069 77.731C785.287 77.7961 785.511 77.7733 785.703 77.6854L785.827 77.6301C786.253 77.3437 786.743 77.0541 787.221 76.7971C787.706 76.5367 788.2 76.3024 788.704 76.1007C789.207 75.9022 789.721 75.7395 790.231 75.6451C790.738 75.5605 791.255 75.541 791.691 75.6939L791.71 75.7004C791.928 75.7753 792.169 75.6614 792.244 75.4401C792.312 75.2416 792.224 75.0268 792.042 74.9292C791.428 74.6038 790.755 74.5419 790.131 74.5485C789.503 74.5647 788.895 74.6656 788.304 74.8023C787.858 74.9064 787.426 75.0366 786.997 75.1765C787.094 75.0073 787.192 74.8381 787.302 74.6754C787.8 73.9399 788.427 73.2891 789.178 72.7912C789.926 72.2901 790.781 71.9289 791.691 71.7271C792.601 71.5189 793.554 71.4505 794.513 71.4896C794.698 71.4994 794.854 71.3529 794.864 71.1674C794.87 70.995 794.743 70.8453 794.578 70.8225Z" fill="#1E2633"/>
</g>
<path d="M1201.37 196.193C1208.01 195.216 1212.6 189.041 1211.63 182.402C1210.65 175.762 1204.48 171.172 1197.84 172.149C1191.2 173.127 1186.61 179.301 1187.58 185.94C1188.56 192.58 1194.74 197.17 1201.37 196.193Z" fill="#FFD200"/>
<path d="M1227.76 146.517L1223.09 151.872L1314.21 231.45L1318.88 226.095L1227.76 146.517Z" fill="black"/>
<path d="M1237.79 207.973L1161.46 160.879L1202.77 153.456L1225.69 167.595L1237.79 207.973Z" fill="black"/>
<path d="M1224.41 169.665L1201.5 155.526L1214.77 134.018C1218.67 127.69 1226.96 125.726 1233.29 129.63C1239.62 133.534 1241.58 141.83 1237.68 148.154L1224.41 169.665Z" fill="black"/>
<path d="M1316.25 233.118L1309.83 230.201L1258.56 343.074L1264.99 345.992L1316.25 233.118Z" fill="black"/>
<path d="M1319.78 236.379C1323.6 232.551 1323.6 226.345 1319.78 222.517C1315.95 218.689 1309.74 218.689 1305.91 222.517C1302.09 226.345 1302.09 232.551 1305.91 236.379C1309.74 240.207 1315.95 240.207 1319.78 236.379Z" fill="black"/>
<path d="M1293.77 351.912H1220.85L1232.03 341.331H1282.6L1293.77 351.912Z" fill="black"/>
<path d="M1329.54 354.757C1329.54 355.824 1328.65 356.79 1327.21 357.491C1325.78 358.191 1323.8 358.624 1321.61 358.624H689.708C685.327 358.624 681.775 356.892 681.775 354.757C681.775 353.691 682.666 352.724 684.097 352.026C685.535 351.327 687.517 350.894 689.708 350.894H1321.61C1325.98 350.894 1329.54 352.623 1329.54 354.757Z" fill="#595959"/>
<path d="M1193.43 259.843H1103.06C1089.6 259.843 1077.71 268.597 1073.71 281.447L1058.11 335.651C1011.69 335.587 968.326 332.054 968.326 343.639C968.326 352.966 1046.26 351.87 1068.55 351.87L1186.63 351.239L1208.47 280.277C1211.62 270.139 1204.05 259.843 1193.43 259.843Z" fill="black"/>
<path d="M1147.28 310.71C1148.69 307.313 1147.07 303.418 1143.68 302.011C1140.28 300.604 1136.38 302.217 1134.98 305.614C1133.57 309.011 1135.18 312.906 1138.58 314.313C1141.98 315.72 1145.87 314.107 1147.28 310.71Z" fill="#FF7900"/>
<path d="M1141.11 321.047C1127.68 321.047 1126.78 308.914 1126.78 308.793C1126.74 308.219 1127.18 307.725 1127.75 307.69C1128.32 307.645 1128.82 308.091 1128.85 308.661C1128.88 309.097 1129.68 318.967 1141.11 318.967C1150.53 318.967 1152.6 309.536 1152.68 309.136C1152.79 308.575 1153.34 308.209 1153.9 308.328C1154.46 308.443 1154.83 308.991 1154.71 309.552C1154.69 309.664 1152.25 321.047 1141.11 321.047Z" fill="#FF7900"/>
<mask id="mask1" mask-type="alpha" maskUnits="userSpaceOnUse" x="170" y="98" width="242" height="261">
<rect x="170.057" y="98.9481" width="241.172" height="259.724" fill="#C4C4C4"/>
</mask>
<g mask="url(#mask1)">
<path d="M384.485 353.523C379.569 352.867 374.98 358.44 372.03 361.39C370.063 363.356 368.424 365.651 366.785 367.617C366.129 367.945 365.802 368.273 365.146 368.601C363.835 369.256 362.196 369.584 360.885 369.256C360.557 369.256 360.229 368.928 359.902 368.601L359.574 368.273C359.246 367.945 359.246 367.617 359.246 367.29C359.246 366.962 358.918 366.634 358.918 366.306C359.902 363.684 361.541 361.39 363.507 359.423C369.735 351.556 379.241 347.295 384.813 338.445C387.435 334.184 391.369 307.962 379.569 312.879C373.668 315.501 371.702 322.384 369.407 327.957C368.424 329.595 367.441 331.234 366.457 332.873C363.835 336.806 357.935 335.823 359.246 330.907C360.885 325.662 364.163 321.073 366.785 316.484C371.702 307.962 374.98 299.44 375.963 289.607C376.619 283.707 376.291 275.185 372.357 270.268C370.063 267.318 364.163 268.629 362.196 271.252C357.935 277.479 360.557 285.674 358.918 292.557C357.935 297.801 351.052 297.474 349.74 292.557C349.085 290.262 349.413 287.64 349.413 285.346C349.413 280.101 349.74 274.529 350.068 269.285C350.724 259.124 352.69 247.98 349.413 238.146C348.101 233.885 344.824 231.919 340.89 233.23C334.007 235.196 332.368 244.702 331.712 250.274C328.762 270.596 339.907 309.601 330.401 321.729C322.207 331.89 335.318 289.607 325.157 287.313C321.551 286.657 318.929 288.296 317.618 291.574C313.684 302.062 315.651 315.501 317.29 326.318C321.223 352.54 337.612 373.189 334.335 400.723C334.007 404.328 333.351 408.589 335.974 411.211C336.957 412.195 338.268 412.85 339.251 413.178C347.446 416.128 352.69 412.85 357.935 406.622C365.146 398.1 373.341 391.545 381.535 384.006C388.091 377.778 390.713 371.551 391.041 362.373C390.713 358.44 389.074 354.179 384.485 353.523Z" fill="black"/>
<path d="M288.773 300.095C288.117 299.768 287.789 299.44 287.134 299.112C286.151 298.457 284.839 297.801 283.856 298.129C282.873 298.129 281.889 299.112 281.234 299.768C277.628 303.373 275.334 308.618 271.728 312.223C269.761 314.19 267.139 315.829 264.189 315.173C260.584 314.19 259.6 309.601 260.256 305.995C260.911 302.39 262.878 299.112 263.534 295.507C264.845 286.329 254.684 285.346 248.128 286.001C233.05 287.312 219.611 293.212 204.861 293.54C199.944 293.54 189.455 293.212 186.505 297.801C190.11 299.44 193.388 300.751 195.683 304.357C204.861 316.484 200.599 337.134 200.927 351.228C200.927 358.439 201.583 366.634 205.188 373.189C209.777 381.056 218.955 382.039 227.15 381.056C229.444 372.534 235.017 364.995 242.556 360.078C243.867 359.095 245.178 358.439 246.817 358.112C248.456 357.784 250.095 358.112 251.406 359.423C252.061 360.078 252.389 361.061 252.717 362.045C253.372 365.323 251.733 368.273 250.095 370.895C247.472 375.156 244.194 378.761 240.589 382.039C235.672 386.3 241.244 392.2 245.833 394.494C252.389 397.772 260.911 395.806 267.139 392.528C272.712 389.578 277.3 384.333 281.234 379.745C285.495 374.828 288.773 371.878 295.001 370.239C297.623 369.584 296.312 360.406 296.312 358.767C296.312 354.178 297.295 349.589 298.934 345.328C301.884 337.462 307.784 330.251 307.129 322.056C306.801 316.812 303.851 311.895 300.245 308.29C296.64 305.012 292.706 302.39 288.773 300.095Z" fill="#FF7900"/>
<path d="M313.685 235.196C313.357 231.263 312.374 227.657 311.063 223.724C308.44 226.346 288.446 242.407 288.118 230.279C288.118 228.641 289.101 227.329 290.084 226.346C293.035 223.396 297.296 222.085 300.573 219.135C310.079 211.269 293.362 174.23 280.579 176.197C280.251 175.869 279.923 175.869 279.268 175.869C268.123 179.147 260.912 188.652 253.045 196.191C249.112 199.796 243.867 198.485 245.178 192.258C245.834 189.308 247.801 186.358 249.44 184.063C252.062 180.13 255.34 176.852 259.273 173.902C261.895 171.936 268.123 169.641 268.123 165.38C268.451 157.841 258.29 154.236 253.045 150.63C246.162 146.041 238.95 142.764 231.084 141.125C226.167 140.141 221.25 139.814 216.661 139.158C211.089 138.503 205.517 138.503 199.944 137.191C194.7 135.88 189.128 133.586 183.555 134.897C183.228 134.897 182.9 135.225 182.9 135.553C183.228 152.925 179.95 168.33 177 185.702C175.361 195.208 176.344 203.73 180.278 212.252C180.933 213.563 182.572 213.235 183.555 212.58C185.522 210.941 187.489 209.957 189.455 209.302C194.7 208.319 200.272 208.646 203.222 212.907C205.189 215.857 200.6 218.48 198.306 219.791C196.667 220.774 195.028 221.43 193.389 222.085C193.061 222.085 192.733 222.413 192.405 222.413C190.767 222.413 189.455 222.741 187.817 222.741C186.178 222.741 183.555 223.068 182.572 224.379C176.344 235.196 186.505 255.518 192.733 264.04C193.717 265.351 195.356 265.351 196.339 264.04C199.289 259.451 203.222 255.19 207.811 251.585C212.4 249.29 219.939 249.618 224.2 251.257C224.856 251.585 225.511 251.913 225.839 252.24C229.773 259.779 225.839 264.696 214.039 266.99C211.745 267.318 205.517 267.646 204.206 269.612C195.028 280.429 215.678 299.44 225.511 299.44C235.017 299.44 243.212 294.196 249.44 287.312C252.39 284.035 253.701 280.429 256.323 277.151C258.945 273.873 265.829 264.696 270.09 263.712C272.384 263.385 274.679 263.712 276.645 264.04C286.479 265.351 297.296 263.385 305.162 257.157C313.029 251.585 314.668 243.39 313.685 235.196Z" fill="#FF7900"/>
<path d="M313.685 350.245C304.835 326.318 295.001 302.062 282.218 280.101C275.662 268.629 270.09 257.157 263.534 245.685C260.912 241.096 258.29 236.835 255.667 232.574V232.246C257.634 226.674 259.601 221.757 263.206 217.169C269.762 208.319 278.284 200.78 287.462 195.536C287.79 195.208 287.462 194.552 287.135 194.552C272.057 198.158 257.634 214.546 254.029 230.28C250.423 224.707 246.817 219.135 243.54 213.235C238.623 204.713 233.051 196.519 227.478 188.652C227.478 185.047 227.15 181.769 227.478 178.163C227.806 173.247 230.756 169.314 232.395 165.052C232.723 164.725 232.067 164.397 231.739 164.397C225.839 167.675 224.2 177.508 225.184 185.047C216.661 173.247 207.484 161.775 197.978 150.958C197.978 150.958 197.65 150.958 197.65 151.286C206.5 166.036 216.989 179.475 226.495 193.241C223.217 191.274 218.956 190.291 215.35 189.636C207.811 188.324 198.961 186.03 191.75 190.291C198.633 189.963 205.517 191.274 212.4 192.585C218.956 193.897 223.545 196.519 229.445 199.141C229.773 199.141 230.1 199.141 230.428 199.141C234.034 204.385 237.312 209.958 240.589 215.53C243.867 221.43 247.145 227.002 250.423 232.902C245.834 230.607 239.934 229.952 235.345 229.624C223.545 228.641 208.139 230.935 198.306 237.818C208.467 237.491 218.3 233.557 228.462 232.902C237.967 232.246 245.834 234.868 254.029 238.802C261.568 252.568 269.107 266.335 276.973 279.774C303.851 325.99 317.946 377.45 334.991 427.928C335.318 428.583 336.302 428.255 335.974 427.6C331.057 400.722 322.863 375.156 313.685 350.245Z" fill="black"/>
<path d="M305.163 380.729C297.624 370.568 289.101 360.734 280.251 351.557C277.301 343.362 279.924 334.84 281.562 326.318C281.562 325.99 281.235 325.662 280.907 325.99C278.285 331.562 276.973 336.807 276.646 343.034C276.646 343.69 276.973 345.984 277.301 347.951C270.09 341.396 261.896 336.151 254.029 330.579C253.701 326.973 252.39 323.696 251.406 320.418C248.784 312.551 250.751 305.013 251.079 297.146C251.079 296.49 250.423 296.163 250.095 296.818C246.818 302.39 247.145 309.274 247.473 315.829C247.801 318.779 248.784 321.729 249.768 324.679C250.423 326.318 250.751 327.301 250.751 328.285C249.112 327.301 247.801 325.99 246.49 325.007C240.59 320.09 234.69 316.157 228.134 312.551C222.562 309.274 216.334 307.307 211.089 303.701C216.989 312.224 228.79 316.157 236.984 322.057C241.245 325.007 244.851 328.285 248.784 331.89C247.801 332.218 246.49 332.546 244.851 332.873C232.723 336.479 219.939 343.69 214.367 355.49C214.039 356.145 215.023 356.801 215.351 356.145C220.595 351.557 224.856 346.312 230.428 342.379C236.984 338.118 244.523 335.823 252.062 334.184C257.634 338.773 263.862 342.051 269.434 346.64C271.729 348.607 274.351 350.573 276.646 352.868C274.679 354.507 272.385 355.818 270.418 357.457C264.19 362.373 255.995 369.584 256.979 378.434H257.307C261.568 367.617 269.762 361.062 278.94 354.507C296.968 371.879 311.063 394.823 323.191 416.128C324.174 417.767 326.141 416.784 325.813 415.145C321.224 402.362 313.029 391.217 305.163 380.729Z" fill="black"/>
</g>
</svg>
