<svg width="689" height="493" viewBox="0 0 689 493" fill="none" xmlns="http://www.w3.org/2000/svg">
<g clip-path="url(#clip0)">
<path d="M51.2218 410.161C51.2218 410.161 34.3372 405.7 22.4325 403.866C23.0516 405.986 23.6908 408.348 24.3311 410.889C35.6273 414.355 49.9876 417.417 49.9876 417.417C49.9876 417.417 36.3585 414.86 25.0359 413.722C25.5868 415.981 26.1393 418.347 26.6816 420.784C37.659 422.738 50.0599 423.922 50.0599 423.922C50.0599 423.922 37.8894 423.701 27.4181 424.152C27.9547 426.665 28.4825 429.231 28.9861 431.799C37.9751 433.027 48.5437 433.261 58.5733 433.056C60.5 433 59.9361 433.146 60.5 433C61.5 433 61 432.962 62.2918 432.962C65.5013 432.86 68.6218 432.728 71.5907 432.565C76.5 432 72.5 432.5 74 432.331C75 432.331 74.3683 432.331 75.6179 432.331C82.1867 431.926 87.7073 431.46 91.2328 431.184C89.9656 419.864 89.3138 408.863 89.7498 401.036C73.0729 397.647 58.8534 380.659 56.7723 384.096C54.4499 387.928 66.2519 401.717 66.2519 401.717C66.2519 401.717 31.6846 394.52 18.8018 394.117C19.4965 395.235 20.305 397.201 21.1712 399.805C31.9781 404.534 51.2218 410.161 51.2218 410.161Z" fill="#FFC0AE"/>
<path d="M633.041 348.062C632.208 343.733 596.041 359.352 596.041 359.352C596.041 359.352 629.584 343.838 628.776 340.054C627.963 336.272 580.643 353.855 580.643 353.855C580.643 353.855 589.695 339.504 586.941 336.346C584.363 333.389 572.665 352.716 556.435 357.359C560.619 365.33 564.234 375.831 565.554 384.171C581.254 382.926 615.929 379.845 631.617 371.376C632.205 371.059 632.769 370.734 633.3 370.4C635.903 368.775 634.988 368.065 632.174 367.904C623.904 367.432 599.179 371.758 599.179 371.758C599.179 371.758 626.234 364.892 633.587 359.91C634.769 359.112 635.443 358.358 635.414 357.695C635.396 357.187 634.96 356.878 634.206 356.727C627.822 355.467 598.284 365.796 598.284 365.796C598.284 365.796 633.879 352.388 633.041 348.062Z" fill="#FFC0AE"/>
<path d="M359.047 226.437C359.019 226.398 358.985 226.357 358.951 226.316C358.778 226.121 357.649 225.817 356.401 225.553C356.023 225.469 355.638 225.389 355.265 225.322H355.262C354.113 225.098 353.084 224.938 352.83 224.935C352.768 224.839 352.495 224.795 352.058 224.791C349.062 224.763 338.453 226.648 337.548 226.916C334.3 227.883 331.375 228.702 328.667 229.396C327.969 229.575 327.302 229.748 326.634 229.911H326.622C326.294 229.991 325.971 230.067 325.651 230.143H325.648C320.421 231.377 315.904 232.128 311.171 232.584C308.391 232.856 305.534 233.023 302.414 233.131C300.602 233.195 298.701 233.234 296.672 233.259C296.303 233.268 295.934 233.271 295.556 233.275C293.868 233.291 292.088 233.303 290.202 233.307C289.861 233.31 289.522 233.31 289.172 233.31C281.257 233.33 273.377 232.755 265.502 232.048C252.635 230.901 239.79 229.405 226.858 229.591C224.112 229.63 221.382 229.751 218.665 229.971C218.429 229.987 218.193 230.007 217.955 230.032C215.499 230.239 213.057 230.527 210.629 230.903C206.352 231.562 202.117 232.492 197.939 233.744C193.816 234.977 189.796 236.467 185.885 238.176C181.583 240.058 177.419 242.21 173.39 244.606C172.382 245.207 171.383 245.817 170.395 246.444C165.255 249.684 160.356 253.259 155.713 257.129C155.02 257.708 154.333 258.294 153.651 258.885C150.039 261.699 146.394 264.543 143.37 267.971C125.482 288.255 116.856 329.175 115.898 335.692C113.319 331.097 107.647 318.736 104.947 314.216C101.495 308.434 98.3293 302.225 94.1532 296.901C95.1045 295.647 93.5427 293.806 92.0518 294.144C89.8724 294.635 87.8971 295.917 85.6821 296.451C84.3315 296.778 82.9436 296.966 81.5593 297.154C81.0553 296.824 80.3169 296.922 79.9336 297.383C79.6691 297.422 79.4065 297.465 79.1438 297.509C78.2688 297.659 78.4587 298.852 79.1438 299.1C79.3195 299.164 79.4952 299.212 79.6691 299.267C79.6372 300.465 79.5662 301.656 79.6816 302.853C79.8608 304.696 80.1146 306.535 80.3311 308.374C80.7251 311.729 81.0819 315.09 81.5273 318.438C82.4236 325.156 83.3767 331.866 84.3013 338.58C85.2225 345.266 98.9061 401.961 117.096 401.961C152.002 401.961 168.133 351.634 172.045 357.607C172.443 358.215 172.945 358.754 173.406 359.321C176.608 363.247 180.151 366.89 183.95 370.285C185.892 372.019 187.952 373.904 190.16 375.564C192.185 377.095 194.333 378.437 196.619 379.299C197.527 379.647 213.274 387.495 214 387C224.044 389.933 220.089 380.833 230.402 379.784C237.428 379.069 244.497 378.119 251.582 377.711H251.586C255.457 377.487 259.326 377.427 263.193 377.654C263.164 377.73 263.131 377.805 263.102 377.881C262.87 378.453 262.655 379.028 262.476 379.615C262.007 381.114 263.844 381.984 264.89 380.871C265.944 379.756 266.84 378.486 267.648 377.16C267.763 377.052 267.868 376.94 267.946 376.809C267.974 376.761 267.999 376.716 268.02 376.672C268.153 376.445 268.244 376.237 268.306 376.037C268.932 374.925 269.509 373.787 270.061 372.669C270.189 372.417 270.31 372.165 270.434 371.918C270.48 371.829 270.521 371.739 270.562 371.65C271.918 368.882 272.339 372.848 273.5 370C273.658 369.617 274.846 370.883 275 370.5C275.626 368.927 275.936 371.592 276.5 370C277.387 367.508 279.253 371.037 280 368.5L287 367C287.68 364.664 302.432 364.44 303 362.072C303.103 361.641 340.29 359.569 315.5 349C317.106 342.025 299.225 335.629 299.668 328.5C299.892 324.937 284.57 313.103 284.512 309.533C284.478 307.58 284.545 305.392 284.3 303.302C284.263 302.979 284.217 302.659 284.164 302.34C284.297 301.569 284.359 300.79 284.442 300.011C284.501 299.468 284.57 298.921 284.678 298.378C284.831 297.627 285.035 296.895 285.284 296.173C285.491 295.546 285.736 294.926 286.001 294.316C286.199 293.849 286.416 293.38 286.636 292.922C286.67 292.855 286.702 292.782 286.739 292.714C286.955 292.276 287.183 291.839 287.424 291.417C287.809 290.726 288.224 290.055 288.668 289.4C289.509 288.15 290.448 286.964 291.463 285.837C292.136 285.093 292.837 284.38 293.57 283.689C295.483 281.891 297.535 280.209 299.668 278.615C303.663 275.627 307.944 272.927 312.104 270.275C318.749 266.032 325.635 262.167 332.688 258.588C337.255 256.272 341.906 253.927 345.912 250.795C347.293 249.721 348.592 248.549 349.79 247.255C350.86 246.092 351.81 244.846 352.619 243.52C352.616 243.516 352.619 243.516 352.619 243.516C353.86 241.496 354.775 239.298 355.345 236.994C356.172 233.646 361.316 229.316 359.047 226.437Z" fill="black"/>
<path d="M224.19 188.025C224.883 180.186 223.578 172.197 219.75 165.281C212.548 152.266 198.511 142.989 183.418 143.01C169.669 143.028 155.595 150.581 148.875 162.726C141.64 175.806 138.284 193.582 146.508 206.882C147.931 209.185 149.864 211.658 152.143 214.052C158.053 222.826 174.672 235.696 185.86 235.107C195.945 234.576 199.452 225.753 207.575 219.834C213.964 215.18 218.33 208.73 220.671 201.455C222.655 197.418 223.748 193.024 224.19 188.025Z" fill="black"/>
<path d="M174.834 198.718C174.834 198.718 169.051 244.115 203.527 241.755C206.13 241.578 210.329 238.496 212.088 236.568C217.329 230.818 226.361 216.453 214.321 193.846C199.416 165.859 176.594 184.892 174.834 198.718Z" fill="#8D5748"/>
<path d="M205.592 209.17C206.213 206.634 209.314 206.31 210.744 208.336C211.337 209.176 212.588 208.29 212.045 207.429C209.773 203.823 204.735 204.942 203.572 208.81C203.198 210.053 205.276 210.466 205.592 209.17Z" fill="#1D2236"/>
<path d="M183.059 219.279C183.165 220.447 185.032 220.271 184.871 219.112C184.441 216.018 187.528 213.921 190.286 215.324C191.07 215.723 191.619 214.528 190.87 214.102C187.091 211.952 182.672 215.045 183.059 219.279Z" fill="#1D2236"/>
<path d="M187.018 200.331C186.959 200.289 186.902 200.246 186.844 200.204C185.651 199.323 184.326 199.208 183.039 199.959C179.479 202.032 176.232 207.241 178.178 211.35C178.88 212.833 180.756 212.7 181.271 211.152C181.804 209.552 182.284 207.89 183.571 206.713C185.163 205.256 187.321 205.46 187.893 202.952C188.095 202.064 187.776 200.891 187.018 200.331Z" fill="black"/>
<path d="M209.05 198.128C208.395 194.841 204.908 193.729 201.909 193.388C198.847 193.04 193.805 194.207 193.588 197.924C193.517 199.154 194.311 200.262 195.447 200.681C197.658 201.496 199.813 199.721 202.047 199.446C202.954 199.334 203.848 199.437 204.729 199.648C205.893 199.927 206.736 199.943 207.925 199.834C208.704 199.762 209.189 198.826 209.05 198.128Z" fill="black"/>
<path d="M180.986 221.086C180.748 219.588 178.849 218.466 177.418 219.1C176.937 218.739 176.408 218.478 175.729 218.37C174.591 218.189 173.338 218.306 172.291 218.814C170.149 219.849 168.945 222.325 169.558 224.647C170.278 227.379 173.233 228.659 175.851 227.983C177.335 227.599 178.515 226.723 179.493 225.565C180.616 224.232 181.268 222.867 180.986 221.086Z" fill="#8D5748"/>
<path d="M221.551 194.381C219.807 193.214 217.423 193.699 215.982 195.123C214.507 196.58 214.331 198.409 214.64 200.28C214.408 200.852 214.365 201.507 214.599 202.195C215.166 203.848 216.937 204.478 218.499 203.82C220.419 203.009 222.426 201.833 223.122 199.73C223.757 197.8 223.308 195.556 221.551 194.381Z" fill="#8D5748"/>
<path d="M95.3487 296.519C95.134 295.235 94.3034 294.296 93.8756 293.101C93.4373 291.873 93.629 290.478 93.7443 289.215C93.975 286.671 94.0372 283.829 92.4452 281.612C91.2348 279.925 88.8495 279.192 87.0055 280.194C86.4535 277.138 86.0187 274.071 85.4987 271.008C85.149 268.94 84.8313 266.872 84.5811 264.79C84.3788 263.117 84.4995 261.385 83.573 259.913C83.0974 259.158 81.8603 259.146 81.4007 259.927C80.3944 261.635 80.6677 263.762 80.6251 265.672C80.5807 267.667 80.5701 269.664 80.6322 271.66C80.6748 273 80.7813 274.342 80.925 275.684C80.4583 274.726 79.9826 273.769 79.5017 272.816C77.647 269.144 75.9361 264.348 72.674 261.564C72.0955 261.07 71.2329 261.441 71.1886 262.155C70.9277 266.314 73.2863 270.896 74.6955 274.759C75.2546 276.291 75.8332 277.811 76.4277 279.329C76.1988 279.176 75.9716 279.02 75.7409 278.871C73.6307 277.511 70.8691 280.236 72.2605 282.191C72.6723 282.769 73.1035 283.336 73.5455 283.895C73.1657 283.721 72.7823 283.547 72.3936 283.375C70.6171 282.587 67.8324 284.444 69.3516 286.276C70.0829 287.156 71.2844 288.743 72.7113 290.279C73.6182 292.141 74.8606 293.904 75.9894 295.596C77.6364 298.065 79.4537 300.657 82.0165 302.37C84.1747 303.813 86.8457 304.321 89.3375 303.327C89.8149 303.135 90.2604 302.885 90.658 302.588C90.8461 302.551 91.0342 302.507 91.2223 302.452C93.9236 301.662 95.796 299.182 95.3487 296.519Z" fill="#8D5748"/>
<path d="M191.223 228.549C191.223 228.549 196.529 233.403 207.851 228.549C207.851 228.549 207.118 237.229 199.53 237.229C191.81 237.229 191.223 228.549 191.223 228.549Z" fill="#FEECD8"/>
<path opacity="0.68" d="M202.652 218.285C200.822 217.061 200.116 215.121 199.397 213.159C199.115 212.389 198.096 212.192 197.636 212.929C196.479 214.786 196.839 216.948 197.69 218.883C198.517 220.765 200.813 223.33 203.097 222.941C204.116 222.767 204.895 221.97 204.892 220.907C204.888 219.479 203.655 218.954 202.652 218.285Z" fill="#270909"/>
<path opacity="0.49" d="M121.248 349.196C120.792 348.699 119.968 349.342 120.316 349.915C124.696 357.132 126.671 364.753 126.551 373.166C126.535 374.32 128.439 374.648 128.624 373.446C129.942 364.867 127.106 355.58 121.248 349.196Z" fill="#312340"/>
<path opacity="0.19" d="M88.9628 293.451C86.1071 293.574 84.3075 290.447 86.171 288.143C86.6041 287.609 85.8924 286.849 85.3972 287.369C82.5398 290.376 84.7494 295.349 88.9628 295.008C89.9478 294.928 89.9744 293.409 88.9628 293.451Z" fill="#270909"/>
<path opacity="0.19" d="M82.6655 286.565C82.2857 285.876 81.2208 286.347 81.4125 287.094C81.8065 288.63 80.4719 290.291 78.9207 289.091C78.3776 288.672 77.7103 289.175 77.9854 289.812C78.3262 290.604 76.9791 291.314 76.7146 289.979C76.617 289.484 75.7563 289.588 75.8219 290.1C76.1006 292.253 78.658 292.024 79.1266 290.542C81.3983 291.305 84.0623 289.096 82.6655 286.565Z" fill="#270909"/>
<path d="M361.835 223.884C361.13 222.224 359.024 222.332 358.179 223.733C358.12 223.554 358.058 223.378 357.984 223.207C356.798 220.527 353.131 221.367 352.736 224.182C352.714 224.337 352.702 224.489 352.695 224.64C352.626 224.418 352.546 224.202 352.45 223.996C351.39 221.75 348.359 222.373 347.951 224.773C346.488 223.41 343.349 223.887 343.425 226.462L343.594 232.176C343.642 233.825 343.633 235.077 344.85 236.229C345.255 236.613 345.892 236.47 346.291 236.17C347.566 235.214 347.654 233.742 347.876 232.229C347.933 231.841 347.99 231.452 348.047 231.063C348.008 232.199 348.02 233.284 348.098 234.477C348.16 235.441 349.451 235.885 350.095 235.247C350.995 234.356 351.586 233.513 352.004 232.522C352.326 233.751 354.092 234.157 355.073 233.413C356.131 232.611 357.031 231.335 357.645 229.89C357.648 230.182 357.661 230.479 357.686 230.791C357.764 231.752 358.947 232.086 359.595 231.528C360.664 230.605 361.182 229.65 361.59 228.267C362.016 226.825 362.438 225.308 361.835 223.884Z" fill="#8D5748"/>
<path d="M272.68 112.36C273.005 111.401 274.508 111.605 274.792 112.476C274.915 112.849 275.013 113.227 275.103 113.607C274.896 110.944 274.939 108.271 275.333 105.679C275.667 103.483 279.037 103.731 279.197 105.91C279.469 109.614 279.809 113.153 280.57 116.681C280.148 112.126 280.06 106.961 281.497 102.776C281.986 101.354 283.887 102.107 284.088 103.272C284.933 108.185 284.622 113.301 285.457 118.273C285.511 118.594 285.579 118.904 285.639 119.221C285.399 114.957 285.407 110.431 286.16 106.252C286.454 104.622 288.79 104.854 288.987 106.42C289.561 111.05 289.685 115.76 290.19 120.408C290.526 123.506 291.411 126.75 291.751 129.926C292.396 128.428 292.919 126.876 293.293 125.252C294.028 122.076 293.757 118.946 294.118 115.756C294.296 114.178 296.608 114.168 297.105 115.532C299.519 122.164 296.903 130.833 293.573 136.683C292.923 137.824 292.21 139.693 287.689 139.879C283.942 140.033 281.809 143.904 279.569 141.231C274.8 135.537 270.238 119.597 272.68 112.36Z" fill="#E89780"/>
<path d="M523.467 125.969C523.142 125.01 521.639 125.214 521.354 126.085C521.232 126.458 521.134 126.836 521.044 127.215C521.25 124.551 521.208 121.878 520.814 119.287C520.48 117.09 517.11 117.338 516.95 119.517C516.678 123.222 516.337 126.76 515.577 130.289C515.999 125.733 516.087 120.568 514.65 116.383C514.161 114.961 512.259 115.714 512.059 116.88C511.214 121.792 511.525 126.908 510.69 131.881C510.636 132.201 510.568 132.512 510.508 132.828C510.748 128.565 510.74 124.039 509.987 119.859C509.693 118.229 507.356 118.462 507.16 120.028C506.586 124.658 506.461 129.368 505.957 134.015C505.621 137.113 504.736 140.358 504.395 143.534C503.751 142.036 503.228 140.484 502.854 138.86C502.119 135.684 502.389 132.554 502.029 129.364C501.851 127.786 499.538 127.776 499.042 129.139C496.628 135.772 499.244 144.441 502.574 150.292C503.224 151.434 503.937 153.302 508.457 153.488C512.205 153.642 514.337 157.513 516.578 154.84C521.348 149.147 525.909 133.206 523.467 125.969Z" fill="#E89780"/>
<path d="M517.686 155.044C517.325 154.728 516.897 154.513 516.412 154.427C510.755 153.456 505.628 150.967 501.477 146.834C501.121 146.479 500.703 146.217 500.25 146.055V146.051C498.404 145.362 496.046 146.213 495.593 148.444C491.8 167.063 485.952 186.114 474.462 201.277C469.275 208.126 463.101 213.561 456.252 217.83C453.926 219.28 451.531 220.602 449.057 221.773C449.047 221.777 449.043 221.787 449.033 221.793C444.889 223.794 440.56 225.44 436.102 226.775C432.29 227.923 428.386 228.838 424.426 229.561C417.595 230.805 410.626 231.499 403.631 231.62C399.657 231.696 395.683 231.581 391.719 231.279C387.511 230.963 383.315 230.432 379.163 229.691C379.159 229.687 379.159 229.687 379.159 229.691C375.379 229.012 371.641 228.155 367.95 227.112C361.96 225.432 356.122 223.269 350.5 220.61H350.496C338.092 214.742 326.794 206.47 317.513 195.63C303.741 179.551 295.531 158.903 294.286 137.446C294.282 137.322 294.258 137.211 294.23 137.101C294.206 136.925 294.16 136.753 294.096 136.595V136.591C293.869 136.06 293.409 135.662 292.738 135.706C287.897 136.032 283.097 136.457 278.28 137.041C277.869 137.089 277.463 137.224 277.117 137.444C276.498 137.822 276.059 138.453 276.091 139.314C277.038 166.136 281.887 192.712 292.452 217.319C296.868 227.602 303.063 237.127 307.243 247.52C307.805 248.918 308.332 250.333 308.812 251.765C309.791 254.685 310.432 257.627 310.842 260.584C311.069 262.206 311.225 263.839 311.323 265.475C311.697 271.398 311.369 277.38 311.153 283.381C311.083 285.266 311.029 287.156 311.01 289.043V289.047C310.996 290.196 311 291.339 311.021 292.487C311.095 296.602 311.357 300.745 311.883 304.843C312.188 307.278 312.59 309.691 313.103 312.082C313.517 314.058 314.012 316.011 314.584 317.943C314.786 318.632 315.004 319.317 315.231 319.996C316.39 323.508 317.829 326.915 319.605 330.183C319.799 330.541 319.998 330.896 320.2 331.244C322.544 335.331 325.359 338.92 328.58 342.036C330.242 343.644 332.01 345.122 333.873 346.478C334.178 346.702 334.488 346.922 334.8 347.138C338.032 349.373 341.539 351.25 345.281 352.772C350.712 354.986 356.398 356.446 362.102 357.696C363.109 357.916 364.114 358.136 365.121 358.347C370.266 359.448 375.439 360.461 380.646 361.194C390.72 362.606 400.907 362.362 410.174 358.371C412.256 357.476 414.286 356.394 416.262 355.099C417.733 354.131 419.147 353.094 420.508 351.979C420.873 351.692 421.233 351.39 421.587 351.079C423.992 349.027 426.22 346.764 428.302 344.357C431.053 341.185 465.615 369.573 467.914 366.018C469.756 363.171 439.397 328.433 441.011 325.493C443.617 320.741 445.996 315.861 448.16 310.878C448.164 310.864 448.174 310.854 448.184 310.84C448.831 309.338 449.463 307.83 450.072 306.309C450.072 306.305 450.076 306.299 450.076 306.299C450.246 305.896 450.404 305.485 450.564 305.083C451.912 301.685 453.219 298.234 454.354 294.728C455.475 291.273 456.43 287.765 457.087 284.2C459.668 282.066 462.192 279.845 464.614 277.516C464.646 277.488 464.679 277.458 464.707 277.426C465.708 276.465 466.691 275.477 467.651 274.474C469.607 272.439 471.477 270.321 473.235 268.11C478.769 261.137 483.754 253.688 488.114 245.874C490.08 242.347 491.93 238.753 493.67 235.098C500.214 221.379 505.271 206.87 509.666 192.308C512.997 181.278 515.952 170.123 518.901 158.973C519.245 157.641 518.751 155.947 517.686 155.044Z" fill="#CCCCCC"/>
<path d="M392.057 214.075C392.057 214.075 391.957 224.44 395.969 232.18C395.969 232.18 388.368 242.806 374.838 240.078C372.117 239.53 370.44 236.768 371.12 234.077C371.975 230.704 372.826 225.7 372.376 220.141C371.561 210.056 392.057 214.075 392.057 214.075Z" fill="#DF9580"/>
<path d="M425.202 186.632C424.461 178.005 417.93 171.115 409.768 168.9C407.676 168.335 405.466 168.005 403.458 167.16C401.172 166.194 399.952 164.374 398.471 162.484C395.828 159.115 391.77 156.144 387.282 157.549C385.236 158.19 383.694 159.65 382.601 161.46C382.092 162.301 380.709 166.595 379.496 166.667C378.957 166.703 378.116 165.68 377.756 165.379C376.991 164.737 376.188 164.122 375.256 163.745C373.354 162.968 371.117 163.096 369.268 163.966C364.543 166.182 363.273 171.721 365.177 176.285C366.763 180.07 371.378 184.476 375.816 184.506C376.351 184.658 376.963 184.64 377.622 184.354C384.323 181.484 391.738 180.05 398.249 184.394C404.185 188.347 407.019 195.584 405.812 202.525C405.466 204.521 406.745 205.745 408.301 206.065C409.085 207.171 410.503 207.771 412.259 206.98C420.385 203.318 425.988 195.838 425.202 186.632Z" fill="black"/>
<path d="M412.655 212.217C411.652 211.871 410.271 211.764 408.846 211.915C409.963 209.159 410.809 206.309 411.366 203.442C412.689 196.623 412.413 188.961 408.405 183.062C404.9 177.897 399.422 173.88 393.096 173.38C391.891 173.283 391.186 174.141 391.042 175.078C387.29 175.192 383.394 176.828 380.445 178.742C375.276 182.095 371.268 187.179 367.306 191.891C366.737 191.535 366.153 191.258 365.586 191.082C362.187 190.023 358.575 191.663 356.938 194.781C355.552 197.42 355.975 200.873 358.351 202.783C356.447 205.122 354.547 207.471 353.872 210.487C352.623 216.05 355.202 222.186 358.709 226.445C366.391 235.761 379.989 237.878 390.601 232.595C394.992 230.41 398.787 227.266 401.919 223.531C402.958 224.487 404.119 225.254 405.184 225.712C409.29 227.482 414.563 226.341 416.569 222.084C418.385 218.235 416.769 213.639 412.655 212.217Z" fill="#E89780"/>
<path d="M417.713 199.939C417.633 198.96 416.414 198.808 415.941 199.527C415.843 199.675 415.727 199.895 415.595 200.166C415.693 198.58 415.399 196.883 414.976 195.51C416.089 194.701 416.756 193.199 415.991 191.531C415.202 189.81 414.756 188.15 414.546 186.22C414.368 184.57 413.176 183.759 411.925 183.749C411.895 183.552 411.861 183.36 411.817 183.172C411.545 181.985 410.694 181.22 409.745 180.931C409.599 179.105 407.959 177.949 406.552 178.24C406.301 176.574 405.667 174.964 404.604 173.576C403.951 172.725 402.55 172.498 401.725 173.253C401.26 172.925 400.712 172.931 400.213 173.143C399.785 170.394 398.726 167.889 396.43 168.391C395.469 168.601 394.746 169.224 394.201 170.069C393.993 170.125 393.797 170.248 393.635 170.418C393.645 170.408 393.651 170.398 393.661 170.388C393.959 170.051 393.575 169.517 393.238 169.827C387.791 174.851 391.216 182.958 395.775 186.745C398.928 189.364 402.606 190.794 406.105 192.696C407.441 193.421 408.802 194.202 409.915 195.297C409.19 196.124 408.582 197.098 408.293 197.678C406.758 200.772 405.31 205.416 406.77 208.821C407.949 211.572 410.988 212.541 413.206 210.565C415.791 208.256 418.013 203.592 417.713 199.939Z" fill="black"/>
<path d="M385.001 199.437C384.997 198.714 384.134 198.091 383.518 198.672C382.028 200.073 381.091 201.896 379.55 203.276C377.848 204.797 376.006 205.38 374.024 206.367C372.551 207.1 373.384 209.049 374.867 208.947C379.003 208.664 385.021 203.832 385.001 199.437Z" fill="#C07864"/>
<path d="M375.358 194.282C374.48 194.208 373.571 194.911 373.537 195.824C373.501 196.739 374.135 197.568 375.078 197.646C375.957 197.721 376.866 197.018 376.9 196.104C376.936 195.189 376.301 194.36 375.358 194.282Z" fill="black"/>
<path d="M393.653 202.819C392.86 202.753 392.043 203.386 392.011 204.209C391.979 205.034 392.55 205.781 393.4 205.851C394.193 205.917 395.012 205.284 395.042 204.461C395.072 203.638 394.502 202.891 393.653 202.819Z" fill="black"/>
<path d="M388.802 182.898C384.846 180.687 379.693 180.254 376.546 184.005C375.575 185.163 376.884 186.709 378.172 186.532C380.732 186.18 383.365 185.932 385.585 187.48C388.594 189.576 391.895 184.626 388.802 182.898Z" fill="black"/>
<path d="M397.35 189.712C395.814 189.979 394.849 191.595 395.47 193.065C396.287 194.995 398.663 195.59 399.78 197.422C400.727 198.972 400.679 200.885 401.712 202.352C401.852 202.551 402.211 202.669 402.435 202.541C407.094 199.873 402.321 188.851 397.35 189.712Z" fill="black"/>
<path d="M394.471 196.725C391.422 196.469 388.635 198.047 387.2 200.536C386.827 201.177 386.543 201.884 386.373 202.637C386.289 202.989 386.231 203.35 386.201 203.718C385.85 207.927 388.987 211.64 393.196 211.993C395.764 212.207 398.146 211.119 399.694 209.283C400.12 208.777 400.483 208.21 400.767 207.599C401.143 206.8 401.384 205.925 401.462 204.996C401.812 200.786 398.679 197.078 394.471 196.725ZM393.334 210.308C390.056 210.034 387.608 207.142 387.882 203.862C388.156 200.578 391.049 198.131 394.327 198.405C397.61 198.68 400.056 201.573 399.782 204.856C399.508 208.134 396.617 210.583 393.334 210.308Z" fill="black"/>
<path d="M375.854 188.333C373.235 188.11 370.815 189.242 369.271 191.14C369.033 191.432 368.817 191.741 368.624 192.067C368.054 193.031 367.685 194.134 367.585 195.323C367.235 199.533 370.368 203.241 374.576 203.592C377.661 203.85 380.476 202.232 381.9 199.695C382.146 199.262 382.35 198.8 382.504 198.313C382.681 197.769 382.801 197.194 382.849 196.601C383.201 192.394 380.062 188.683 375.854 188.333ZM374.723 201.914C371.439 201.639 368.997 198.748 369.271 195.464C369.545 192.185 372.432 189.736 375.716 190.011C378.993 190.285 381.441 193.177 381.167 196.461C380.891 199.741 378 202.188 374.723 201.914Z" fill="black"/>
<path d="M385.09 198.722C383.891 198.191 381.372 197.957 380.568 199.256C380.482 199.395 380.52 199.611 380.696 199.663C381.12 199.787 381.286 199.743 381.725 199.705C382.644 199.625 383.471 199.815 384.281 200.264C385.418 200.895 385.813 201.842 386.516 202.853C386.87 203.366 387.881 203.075 387.851 202.426C387.783 200.862 386.502 199.349 385.09 198.722Z" fill="black"/>
<path d="M410.298 210.439C408.444 207.479 401.633 205.557 399.218 208.831C399.094 209.001 399.212 209.275 399.429 209.281C401.036 209.329 402.512 208.751 404.171 208.959C406.235 209.219 407.499 210.315 409.148 211.41C409.743 211.804 410.736 211.138 410.298 210.439Z" fill="black"/>
<path d="M368.89 190.768C368.671 190.597 368.399 190.443 368.111 190.337C368.015 190.257 367.903 190.199 367.781 190.179C367.612 190.153 367.454 190.167 367.296 190.195C367.102 190.203 366.912 190.245 366.742 190.335C366.742 190.337 366.744 190.339 366.744 190.339C366.005 190.698 366.305 191.981 367.22 191.799C367.444 191.755 367.642 191.691 367.851 191.605C367.875 191.609 367.899 191.611 367.923 191.615C367.995 191.661 368.121 191.673 368.199 191.709C368.581 191.893 368.744 192.23 368.928 192.59C369.068 192.864 369.57 192.906 369.656 192.556C369.835 191.853 369.442 191.198 368.89 190.768Z" fill="black"/>
<path opacity="0.3" d="M418.733 192.169C418.272 186.64 412.166 185.689 407.752 185.269C403.972 184.908 400.619 183.771 398.182 180.699C395.646 177.501 395.293 173.313 396.252 169.459C396.313 169.212 395.994 169.094 395.884 169.322C393.446 174.371 394.993 180.489 399.392 183.967C401.812 185.881 404.611 186.544 407.618 186.879C411.348 187.295 416.839 187.638 417.384 192.424C417.486 193.309 418.807 193.039 418.733 192.169Z" fill="black"/>
<path opacity="0.3" d="M416.27 181.714C411.95 180.118 404.35 182.633 403.253 176.283C403.169 175.793 402.454 175.849 402.398 176.327C402.058 179.169 404.602 181.264 407.073 182.085C411.193 183.454 418.436 181.914 419.449 187.738C419.523 188.162 420.244 188.282 420.35 187.814C421.005 184.894 418.901 182.685 416.27 181.714Z" fill="black"/>
<path opacity="0.3" d="M373.345 177.026C371.802 175.811 370.482 174.499 370.03 172.508C369.559 170.44 370.294 168.728 371.113 166.861C371.255 166.539 370.797 166.212 370.542 166.463C367.179 169.771 368.708 176.079 372.865 177.945C373.429 178.198 373.791 177.377 373.345 177.026Z" fill="black"/>
<path opacity="0.3" d="M377.682 175.372C376.847 175.134 376.093 174.861 375.41 174.291C374.721 173.714 374.215 172.895 374.095 172.004C374.028 171.515 373.346 171.607 373.274 172.046C372.877 174.473 375.148 177.198 377.724 176.303C378.131 176.161 378.083 175.486 377.682 175.372Z" fill="black"/>
<path d="M367.918 218.403C367.918 218.403 376.364 221.943 386.917 218.371C386.917 218.371 385.065 227.104 376.837 226.619C368.609 226.137 367.918 218.403 367.918 218.403Z" fill="white"/>
<path opacity="0.51" d="M452.246 319.966C448.396 320.429 445.113 320.469 441.668 318.386C441.153 318.076 440.723 318.849 441.203 319.181C444.34 321.354 448.723 322.611 452.41 321.177C452.997 320.949 452.995 319.876 452.246 319.966Z" fill="#F4404C"/>
<path d="M543.036 173.53C542.905 171.59 542.978 168.362 541.176 167.153C540.974 167.017 540.681 167.042 540.534 167.253C540.424 167.409 540.339 167.576 540.262 167.75C539.938 166.163 539.432 164.62 538.512 163.363C537.932 162.57 536.631 163.021 536.537 163.951C536.253 166.758 537.162 169.649 537.19 172.488C537.192 172.671 537.192 172.854 537.192 173.037C537.105 172.186 536.997 171.34 536.86 170.498C536.493 168.227 535.813 164.997 534.072 163.401C533.698 163.058 532.936 163.283 532.801 163.77C532.217 165.884 532.936 168.581 533.209 170.739C533.259 171.134 533.307 171.528 533.351 171.92C532.831 169.974 532.258 167.659 530.934 166.229C530.175 165.407 528.455 165.655 528.423 166.976C528.378 168.936 529.243 170.94 529.587 172.879C529.958 174.972 530.246 177.109 530.402 179.229C530.499 180.562 530.51 181.901 530.46 183.237C530.315 182.579 530.157 181.927 529.94 181.297C528.927 178.329 526.854 174.968 524.021 173.459C523.072 172.953 521.883 174.239 522.412 175.156C523.319 176.733 524.479 178.064 525.161 179.786C525.979 181.856 525.965 183.972 526.268 186.14C526.666 188.982 528.334 193.758 531.759 193.431C531.818 193.601 531.894 193.777 532.001 193.958C532.375 194.604 533.11 195.002 533.85 194.654C534.285 194.45 534.636 194.148 534.931 193.781C535.045 193.79 535.16 193.795 535.293 193.786C535.307 193.784 535.321 193.782 535.336 193.781C535.281 193.999 535.231 194.219 535.195 194.439C535 195.654 536.629 196.534 537.54 195.71C539.368 194.056 540.22 191.096 540.988 188.806C541.812 186.353 542.413 183.811 542.781 181.251C543.15 178.682 543.212 176.117 543.036 173.53Z" fill="#EFA48F"/>
<path d="M498.852 493H353.213L372.145 445.448L377.272 445.867L393.261 447.18L425.786 449.856L476.692 454.033C476.596 454.289 476.507 455.814 477.116 458.523C477.452 460.033 478.007 461.91 478.896 464.14C481.537 470.788 487.149 480.55 498.852 493Z" fill="#D6D6D6"/>
<path d="M555.516 244.374C553.984 226.492 549.982 208.849 543.751 192.023C543.71 191.91 543.66 191.803 543.605 191.704C543.524 191.395 543.383 191.098 543.17 190.837C543.051 190.686 542.933 190.541 542.81 190.393C542.425 189.918 541.816 189.586 541.209 189.524C541.064 189.509 540.909 189.509 540.753 189.525C540.318 189.566 539.866 189.726 539.539 189.985C539.472 190.006 539.404 190.024 539.337 190.049C539.044 190.161 538.758 190.338 538.524 190.546C538.497 190.571 538.471 190.598 538.442 190.622C537.507 190.981 536.589 191.427 535.617 191.723C534.089 192.19 532.499 192.538 530.908 192.818C530.332 192.383 529.607 192.236 528.929 192.344C527.716 192.531 526.651 193.539 526.832 195.204C528.001 205.964 529.46 216.653 529.352 227.505C529.247 237.978 528.126 248.521 525.572 258.695C521.065 276.62 512.188 293.375 498.758 306.203C486.217 318.181 470.267 326.448 452.903 328.195C452.234 328.264 451.559 328.323 450.892 328.376C443.481 328.955 436.039 328.669 428.606 328.639C426.359 328.628 424.112 328.642 421.865 328.71C421.187 328.733 420.515 328.756 419.837 328.788C410.764 329.201 401.862 330.939 393.274 333.894C387.223 335.976 381.187 338.699 375.458 342.024C370.443 344.934 365.658 348.305 361.299 352.104C358.5 354.551 355.873 357.173 353.476 359.969C351.981 361.712 350.572 363.526 349.264 365.403C348.606 366.347 347.972 367.315 347.365 368.291C347.34 368.256 347.315 368.22 347.287 368.185C346.622 367.395 345.25 367.766 345.147 368.824C344.872 371.63 346.268 375.078 347.067 377.759C347.947 380.718 348.987 383.644 350.01 386.56C352.152 392.673 354.432 398.756 356.993 404.712C362.02 416.39 367.718 427.78 374.062 438.803C374.557 439.664 375.054 440.525 375.558 441.386C378.729 446.852 382.021 452.298 385.674 457.441C386.473 458.562 388.086 458.759 389.261 458.173C389.685 458.35 390.111 458.521 390.546 458.684C394.757 460.289 399.329 461.246 403.748 461.99C408.879 462.849 414.047 463.5 419.23 463.946C429.288 464.805 439.411 464.704 449.467 463.868C456.729 463.266 464.446 462.373 470.878 458.743C471.833 458.203 472.757 457.605 473.647 456.937C474.754 456.108 475.752 455.192 476.664 454.205C481.757 448.696 484.107 440.965 486.592 434.038C488.567 428.529 490.5 423.008 492.385 417.468C493.368 414.572 494.341 411.673 495.303 408.767C496.06 406.484 497.246 404.235 496.854 401.906C503.82 395.95 509.937 388.916 515.489 381.591C517.056 379.534 518.57 377.455 520.05 375.373C528.672 363.228 535.961 350.098 541.619 336.315C553.537 307.3 558.194 275.608 555.516 244.374Z" fill="black"/>
<path d="M435.208 310.354C434.859 309.675 434.866 310.76 435.285 311.294C435.272 310.97 435.248 310.657 435.208 310.354ZM461.12 336.136C458.937 333.043 457.468 330.292 456.49 327.859C453.954 321.552 454.754 317.378 455.185 314.911C455.304 314.225 455.398 313.67 455.381 313.24C455.991 313.015 450.454 312.205 447.623 311.637C444.317 310.977 440.771 310.535 437.416 311.135C436.957 311.026 436.437 311.152 436.069 311.484C435.725 311.657 435.462 311.529 435.283 311.294C435.327 312.25 435.262 313.292 435.058 314.41C434.658 316.629 433.73 319.152 432.044 321.898C430.631 324.213 428.679 326.688 426.065 329.287C424.956 330.389 423.726 331.516 422.364 332.662C421.922 333.036 425.736 336.759 434.635 338.772C436.437 339.18 438.449 339.518 440.675 339.743C453.787 341.071 461.655 336.899 461.12 336.136Z" fill="#EFA48F"/>
<path d="M416.55 284.807C417.891 284.293 419.336 284.239 420.701 284.562C421.194 278.738 422.919 272.982 425.567 268.008C429.305 260.985 433.863 253.369 441.381 249.881C448.171 246.73 456.509 247.133 461.306 253.268C461.567 253.602 461.741 253.936 461.865 254.264C465.575 256.467 468.571 259.769 470.773 263.639C475.522 271.979 476.511 282.714 474.03 292.351C475.26 292.493 476.449 293.016 477.363 293.913C479.2 295.715 479.542 298.594 478.259 300.813C476.767 303.393 473.812 303.915 471.082 303.389C470.544 303.286 470.058 303.073 469.637 302.787C468.59 304.481 467.406 306.077 466.079 307.536C457.086 317.417 440.722 320.496 430.173 311.113C425.722 307.154 422.978 302.114 421.613 296.668C421.169 296.771 420.706 296.815 420.234 296.766C417.386 296.46 414.571 295.271 413.368 292.462C412.077 289.459 413.494 285.981 416.55 284.807Z" fill="#EFA48F"/>
<path d="M412.364 245.489C413.527 233.403 430.426 230.619 440.227 232.21C445.856 233.124 450.801 235.469 455.178 238.672C454.296 230.964 455.907 220.241 461.498 214.736C467.493 208.831 479.941 200.239 494.253 207.388C518.71 219.604 512.709 258.333 474.713 258.935C476.915 262.063 478.454 265.791 479.322 269.075C481.719 278.141 479.411 286.354 473.808 293.652C473.053 294.635 471.582 293.907 471.671 292.757C472.134 286.746 471.394 280.368 470.056 274.486C469.095 270.261 467.596 267.703 465.466 265.326C462.923 264.365 460.11 264.165 457.235 264.491C449.36 265.381 442.03 267.96 433.981 267.225C432.191 267.062 430.38 266.68 428.604 266.135C427.732 267.618 426.863 269.079 426.114 270.504C423.542 275.395 421.405 280.13 420.223 285.574C419.911 287.014 418.138 286.821 417.873 285.566C417.856 285.571 417.838 285.574 417.822 285.58C416.381 278.177 416.411 268.85 419.804 261.56C414.957 257.728 411.722 252.178 412.364 245.489Z" fill="#FFD200"/>
<path opacity="0.29" d="M444.051 286.989C444.546 285.942 444.86 285.012 444.917 283.845C444.997 282.182 447.496 281.967 448.069 283.425C449.329 286.632 449.12 291.839 445.146 292.892C443.557 293.313 442.482 291.614 442.535 290.293C442.588 289.013 443.527 288.099 444.051 286.989Z" fill="#270909"/>
<path d="M436.588 285.143C435.892 284.117 434.896 283.038 433.588 282.919C431.996 282.775 430.729 283.952 430.273 285.386C430.014 286.203 428.887 285.739 429.054 284.953C430.01 280.44 436.961 279.585 438.098 284.406C438.286 285.209 437.085 285.876 436.588 285.143Z" fill="#162041"/>
<path d="M461.643 287.77C461.111 286.675 460.756 285.573 459.391 285.308C457.987 285.036 456.754 286.038 456.306 287.309C455.975 288.253 454.67 287.728 454.878 286.799C455.352 284.685 457.311 283.093 459.503 283.169C461.695 283.245 463.919 285.056 463.924 287.327C463.926 288.553 462.14 288.795 461.643 287.77Z" fill="#162041"/>
<path d="M456.057 271.01C458.096 270.582 460.494 271.965 462.139 273.084C463.85 274.246 465 276.148 465.815 278.01C466.108 278.677 465.224 279.423 464.65 278.901C463.342 277.712 461.889 276.964 460.322 276.178C458.815 275.422 456.996 275.4 455.583 274.584C453.998 273.671 454.144 271.411 456.057 271.01Z" fill="#162041"/>
<path d="M432.011 273.953C432.895 272.966 433.984 272.176 435.209 271.665C436.565 271.099 438.035 271.289 439.424 271.653C441.275 272.137 440.7 274.855 438.892 274.875C437.96 274.885 437.064 275.154 436.148 275.297C435.237 275.439 434.453 275.757 433.674 276.24C432.215 277.144 430.99 275.091 432.011 273.953Z" fill="#162041"/>
<path d="M434.711 297.604C434.711 297.604 447.355 304.24 458.08 295.258C458.08 295.258 455.222 306.185 445.093 305.791C434.965 305.401 434.711 297.604 434.711 297.604Z" fill="white"/>
<path opacity="0.29" d="M452.385 315.607C447.801 316.54 443.3 317.116 438.664 316.111C438.194 316.01 437.931 316.663 438.411 316.837C443.03 318.516 448.229 318.894 452.792 316.789C453.443 316.489 453.083 315.465 452.385 315.607Z" fill="#270909"/>
<path opacity="0.51" d="M330.353 351.667C328.202 351.809 326.097 352.347 323.925 352.413C321.556 352.484 319.225 352.156 316.945 351.525C316.318 351.351 316.077 352.28 316.679 352.491C320.883 353.958 326.493 354.856 330.652 352.773C331.17 352.514 330.932 351.63 330.353 351.667Z" fill="#F4404C"/>
<path d="M534.951 364.338C529.916 365.717 524.828 366.912 519.741 367.982C497.954 372.571 475.655 374.304 453.417 373.791C442.383 373.528 430.987 373.704 420.085 371.804C414.626 370.847 409.323 369.173 404.012 367.629C400.271 366.541 396.541 365.593 392.755 364.783H392.743C391.317 364.48 389.887 364.192 388.446 363.926C381.409 362.628 374.063 360.854 366.623 359.438C357.662 357.726 348.577 356.526 339.765 357.283C337.769 357.455 335.788 357.726 333.823 358.115C329.986 358.875 326.22 360.077 322.559 361.859C319.836 359.795 316.32 359.138 312.7 359.069H312.696C309.07 358.994 305.329 359.503 302.163 359.75C297.17 360.132 292.164 360.444 287.235 361.343C283.909 361.955 280.615 362.738 277.339 363.604C275.754 364.023 274.18 364.449 272.607 364.893C266.773 366.532 260.982 368.321 255.216 370.185C243.891 373.86 232.659 377.849 221.366 381.602C219.488 382.23 217.612 382.85 215.731 383.457C206.402 386.488 196.969 389.253 187.343 391.167C177.388 393.141 167.233 394.32 157.138 395.264C137.324 397.107 116.965 397.851 97.1393 395.715C95.4266 395.534 93.7051 395.312 91.9924 395.055C90.2549 394.792 88.5262 394.492 86.8047 394.139V474.56C190.23 473.424 238.43 438.783 238.769 442.428C239.452 449.666 240.714 456.857 242.567 463.891C244.427 470.948 246.899 477.795 249.966 484.416C251.317 487.328 252.778 490.193 254.339 492.996H406.742C407.138 492.024 407.496 491.051 407.86 490.135C409.01 487.228 410.036 484.267 410.918 481.271C412.771 475.006 414.017 468.578 414.707 462.078C414.892 460.346 415.036 458.609 415.135 456.873C415.403 452.123 415.33 447.365 414.88 442.616C414.807 441.878 414.739 441.118 414.665 440.342C414.233 435.813 413.658 430.842 411.878 426.667C414.287 427.718 416.706 428.725 419.162 429.667C425.926 432.261 432.759 434.688 439.664 436.88C442.667 437.837 445.683 438.744 448.709 439.602C459.567 442.689 470.595 445.135 481.777 446.717C486.98 447.452 492.219 447.997 497.462 448.347C500.094 448.522 502.73 448.647 505.36 448.712C523.956 449.209 542.586 447.061 560.412 441.462C562.285 440.875 564.15 440.248 565.999 439.586V352.64C556.156 357.7 545.662 361.419 534.951 364.338Z" fill="#FF7900"/>
<path d="M392.435 342.855C390.79 341.328 388.966 340.047 387.241 338.66C385.538 337.297 383.938 335.832 382.711 333.91C379.856 329.455 380.495 324.849 382.016 320.05C384.504 312.246 386.332 305.333 381.373 298.049C379.073 294.667 375.735 292.457 373.124 289.404C371.347 287.33 370.437 284.781 369.738 282.141C369.571 281.528 369.418 280.909 369.274 280.293C368.891 278.695 368.531 277.099 368.051 275.592C367.297 273.206 366.351 270.937 365.205 268.798C362.8 264.3 359.506 260.382 355.241 257.278C352.327 255.155 349.072 253.518 345.645 252.409C343.801 251.809 341.904 251.367 339.983 251.074C339.149 250.777 338.35 250.708 337.603 250.815C337.459 250.802 337.312 250.793 337.168 250.786C335.552 250.68 333.929 250.68 332.309 250.808C328.032 251.145 321.064 252.425 317.285 255.869C308.788 251.418 297.962 255.885 294.955 265.155C292.808 271.777 292.758 277.602 287.728 282.963C284.234 286.682 281.087 290.291 279.474 295.099V295.102C279.289 295.64 279.126 296.198 278.987 296.769C278.292 299.597 278.121 302.5 278.409 305.393C278.773 309.038 279.939 312.919 278.744 316.523C277.741 319.548 275.622 322.18 274.455 325.177C273.361 327.993 272.657 330.948 272.346 333.957C271.879 338.461 272.19 343.075 276.819 345.083C278.237 345.699 279.793 346.178 281.371 346.525C282.585 346.787 283.806 346.981 284.99 347.091C288.443 347.416 291.989 345.596 294.513 348.598C296.018 350.388 296.638 351.985 298.966 352.917C300.847 353.674 302.911 353.702 304.896 353.421C307.906 352.99 310.674 351.779 313.541 350.838C313.621 350.814 313.7 350.785 313.78 350.76H313.784C313.912 350.72 314.039 350.679 314.171 350.641H314.174C314.174 350.641 314.174 350.641 314.178 350.641C316.581 349.906 318.861 349.512 321.266 349.356C324.324 350.649 327.831 351.186 330.981 351.614C330.985 351.614 330.99 351.614 330.99 351.614H330.994C331.897 351.733 332.792 351.833 333.697 351.889C335.349 351.992 337.007 351.98 338.677 351.799C339.811 351.68 340.917 351.401 342.019 351.11C343.304 350.769 344.578 350.421 345.891 350.285C350.648 349.8 354.421 354.275 359.344 354.46C361.254 354.529 363.139 354.226 364.919 353.519C367.418 352.53 369.548 350.388 372.346 350.404C372.838 350.407 373.321 350.448 373.8 350.522C379.515 351.43 384.147 357.087 390.4 355.642C397.105 354.1 396.744 346.862 392.435 342.855ZM316.799 345.711C316.567 345.765 316.327 345.83 316.096 345.896C316.183 345.708 316.269 345.518 316.336 345.321C316.599 344.614 316.735 343.844 316.726 342.997C316.71 341.277 314.274 340.345 313.305 341.802C313.253 341.872 313.212 341.946 313.168 342.033C313.005 342.378 312.776 342.653 312.517 342.883C311.274 343.95 309.134 343.881 307.661 344.128C307.46 344.162 307.269 344.21 307.077 344.259C308.08 343.242 308.974 342.005 309.712 340.68C309.815 340.492 309.897 340.295 309.952 340.089V340.086C310.36 338.538 309.349 336.638 307.819 336.338H307.812C307.403 336.251 306.956 336.285 306.493 336.473C305.259 336.97 304.072 337.43 302.963 338.165L302.212 338.744C301.797 339.297 301.486 339.654 301.282 339.807L301.279 339.811C301.016 340.011 300.924 339.885 301.004 339.432C301.012 339.383 301.02 339.335 301.032 339.28C301.124 339.333 299.646 337.322 299.151 336.652C299.151 336.652 299.142 336.649 299.142 336.643C299.857 335.955 300.212 334.96 299.749 333.815C296.362 325.436 298.43 317.518 298.599 308.933C298.631 308.724 298.64 308.511 298.595 308.314C298.579 308.248 298.563 308.186 298.547 308.12C298.288 307.025 297.023 306.65 296.103 307.123C295.896 307.233 295.697 307.36 295.509 307.513C295.432 307.201 295.317 306.913 295.165 306.659C295.101 306.553 295.037 306.446 294.96 306.347C295.564 303.276 296.015 300.172 296.583 297.082V297.078C296.966 294.976 297.397 292.89 297.969 290.822C298.499 288.883 299.083 286.963 299.694 285.051C301.467 284.981 303.192 283.753 303.371 281.335C303.774 275.977 307.716 273.975 310.933 270.825C311.365 271.951 312.518 272.8 313.988 272.459C317.135 271.727 319.358 270.057 321.115 267.738L321.119 267.735C321.119 267.735 321.119 267.735 321.119 267.731C321.371 267.412 321.611 267.071 321.841 266.721C321.841 266.717 321.845 266.717 321.845 266.712C322.232 266.13 322.587 265.508 322.935 264.861C324.081 265.849 325.854 266.121 327.167 265.365C327.167 265.365 327.171 265.365 327.171 265.361C327.451 265.205 327.707 265.001 327.931 264.745C328.816 265.48 330.055 265.833 331.15 265.64C331.677 265.553 332.164 265.333 332.568 264.974C332.884 265.208 333.235 265.393 333.59 265.532C333.594 265.535 333.594 265.535 333.598 265.535C333.885 265.651 334.176 265.723 334.473 265.766C334.513 265.91 334.568 266.045 334.636 266.176V266.18C335.191 267.362 336.437 268.072 337.754 268.129C337.901 268.77 338.237 269.327 338.693 269.78C338.888 269.977 339.108 270.149 339.348 270.296C339.351 270.3 339.351 270.296 339.351 270.296C339.355 270.3 339.355 270.3 339.36 270.305C339.74 270.547 340.162 270.724 340.606 270.827C340.718 270.856 340.83 270.877 340.945 270.893C340.778 273.336 343.38 274.735 345.526 274.308C345.434 274.546 345.338 274.777 345.247 275.003C344.64 276.485 345.063 277.712 345.97 278.521C345.973 278.521 345.973 278.525 345.973 278.525C346.593 279.082 347.43 279.441 348.309 279.554H348.312C348.36 279.563 348.417 279.567 348.468 279.57C348.46 279.586 348.456 279.608 348.456 279.624C348.364 280.158 348.296 280.666 348.241 281.147V281.15C348.232 281.22 348.229 281.285 348.222 281.351C347.35 282.049 346.756 283.153 346.701 284.351C346.669 285.099 346.845 285.878 347.304 286.622C347.388 286.762 347.48 286.9 347.583 287.032C348.582 288.312 349.34 289.704 349.903 291.17C350.453 292.581 350.829 294.064 351.069 295.574V295.578C351.684 299.462 351.42 303.57 351.001 307.348C350.171 314.754 349.004 322.005 350.634 329.306C350.206 329.672 349.943 330.254 350.075 330.961C350.502 333.157 347.906 334.676 346.356 335.843C346.293 335.892 346.229 335.94 346.168 335.987C344.2 337.526 342.354 339.136 340.585 340.901C340.546 340.932 340.525 340.975 340.489 341.011C338.924 341.248 337.358 341.502 335.789 341.495H335.786C335.713 341.495 335.649 341.492 335.578 341.492C335.188 341.483 334.812 341.454 334.441 341.401H334.437C331.958 341.044 329.83 339.768 327.469 338.818C323.536 337.233 321.367 342.415 323.44 345.211C321.712 344.735 319.962 344.394 318.121 344.542C317.53 344.586 317.035 345.017 316.847 345.536V345.539C316.828 345.596 316.812 345.655 316.799 345.711Z" fill="black"/>
<path d="M335.754 264.001C335.754 264.001 363.204 271.605 358.934 311.197C354.664 350.789 322.968 353.705 322.968 353.705C322.968 353.705 290.037 349.056 292.254 303.581C294.47 258.107 335.754 264.001 335.754 264.001Z" fill="#EFA48F"/>
<path d="M337.44 338.128C337.44 338.128 333.342 361.32 339.604 370.011C339.604 370.011 321.316 378.124 308.955 368.27C308.955 368.27 318.5 356.521 312.054 334.165C305.608 311.809 338.75 321.756 337.44 338.128Z" fill="#EFA48F"/>
<path d="M287.835 300.313C287.18 299.491 286.951 298.299 287.583 296.963C289.705 292.473 291.672 287.925 293.39 283.265C294.904 279.158 295.937 274.605 298.338 270.909C299.256 269.497 301.211 269.65 301.983 270.879C302.202 270.291 302.865 269.998 303.428 270.099C303.419 269.281 303.362 268.477 303.224 267.699C302.991 266.393 304.385 265.551 305.327 266.245C305.506 265.936 305.698 265.631 305.925 265.329C306.346 264.77 307.121 264.548 307.757 264.694C307.964 264.154 308.28 263.705 308.674 263.35C309.217 261.784 310.916 260.655 312.526 260.618C314.41 260.575 315.917 261.253 317.277 262.244C318.796 261.871 320.273 262.063 321.696 262.583C322.406 261.997 323.332 261.578 324.534 261.429C326.245 261.218 328 261.699 329.693 262.533C331.077 262.203 332.669 262.595 334.332 263.454C334.496 263.337 334.655 263.218 334.849 263.117C336.677 262.16 338.757 262.819 340.748 264.076C342.044 264.529 343.169 265.505 344.252 266.314C346.293 267.839 348.339 269.407 350.218 271.138C353.951 273.302 357.461 276.753 360.021 279.35C361.307 280.657 361.018 282.56 360.019 283.778C360.202 284.023 360.392 284.264 360.573 284.509C361.091 285.216 360.738 286.519 359.951 286.883C359.486 287.099 359.027 287.24 358.567 287.328C360.901 289.134 363.137 291.094 365.26 293.201C367.15 295.077 366.229 298.007 364.38 299.228C364.72 300.119 365.02 301.048 365.274 302.019C365.439 302.647 365.205 303.242 364.793 303.652C366.309 306.388 367.551 309.288 368.483 312.306C369.276 314.87 365.467 315.809 364.541 313.396C359.343 299.855 346.699 289.769 332.439 287.5C324.947 286.309 316.829 285.652 310.481 281.024C309.366 280.211 308.312 279.222 307.391 278.124C306.86 280.854 305.868 283.529 304.724 285.887C301.163 293.22 293.739 297.758 292.33 306.073C291.798 309.21 287.372 308.141 287.136 305.369C286.985 303.563 287.272 301.891 287.835 300.313Z" fill="black"/>
<path d="M355.837 319.752C355.95 319.752 356.057 319.771 356.167 319.785C356.168 319.78 356.172 319.775 356.174 319.769C356.183 319.652 356.195 319.537 356.218 319.422C356.138 319.161 356.115 318.869 356.179 318.546C357.082 314.028 362.877 313.796 365.172 317.368C367.712 321.325 364.929 326.544 360.497 327.316C358.192 327.717 355.448 327.158 353.719 325.5C351.609 323.478 352.718 319.752 355.837 319.752Z" fill="#EFA48F"/>
<path d="M286.979 323.673C286.933 323.622 286.881 323.574 286.837 323.521C285.602 322.063 285.124 320.045 285.575 318.168C286.654 313.671 292.653 312.187 295.707 315.695C296.382 316.469 296.722 317.449 296.683 318.41C296.712 318.671 296.669 318.925 296.566 319.161C296.456 319.567 296.268 319.952 295.995 320.309C296.057 320.425 296.126 320.535 296.177 320.666C296.756 322.108 296.344 324.19 294.79 324.911C294.522 325.035 294.247 325.14 293.971 325.236C293.973 325.241 293.977 325.248 293.979 325.253C293.939 325.264 293.9 325.269 293.863 325.278C291.907 325.926 289.84 325.795 288.099 324.628C287.985 324.556 287.877 324.467 287.765 324.385C287.671 324.312 287.57 324.254 287.477 324.176C287.449 324.151 287.426 324.121 287.398 324.096C287.364 324.066 287.328 324.046 287.295 324.016C287.181 323.906 287.083 323.787 286.979 323.673Z" fill="#EFA48F"/>
<path d="M318.283 322.209C320.124 320.631 321.781 319.145 323.153 317.121C324.399 315.283 325.052 313.073 326.346 311.326C326.832 310.67 327.809 310.733 328.08 311.555C329.677 316.395 325.725 323.125 322.232 326.207C319.527 328.594 315.538 324.563 318.283 322.209Z" fill="#C07864"/>
<path d="M336.688 313.478C336.688 315.051 337.745 316.325 339.051 316.325C340.358 316.325 341.415 315.051 341.415 313.478C341.415 311.905 340.358 310.63 339.051 310.63C337.745 310.632 336.688 311.907 336.688 313.478Z" fill="#1E2336"/>
<path d="M308.096 312.054C308.096 313.627 309.153 314.902 310.46 314.902C311.766 314.902 312.824 313.627 312.824 312.054C312.824 310.481 311.766 309.207 310.46 309.207C309.155 309.208 308.096 310.483 308.096 312.054Z" fill="#1E2336"/>
<path opacity="0.31" d="M371.648 335.181C372.01 334.96 372.464 335.511 372.113 335.786C369.72 337.655 368.93 340.517 369.371 343.436C369.465 344.064 368.661 344.29 368.425 343.697C367.145 340.506 368.833 336.881 371.648 335.181Z" fill="#A77A60"/>
<path d="M359.583 325.559C359.698 325.64 359.812 325.722 359.927 325.805C360.742 326.388 360.742 327.426 359.927 328.008C359.812 328.09 359.698 328.172 359.583 328.255C358.594 328.962 357.24 328.01 357.24 326.908C357.24 325.804 358.594 324.852 359.583 325.559Z" fill="#1E2336"/>
<path d="M292.009 324.119C294.333 324.119 294.336 327.739 292.009 327.739C289.686 327.737 289.683 324.119 292.009 324.119Z" fill="#1E2336"/>
<path d="M313.394 294.534C310.916 294.103 308.469 295.725 306.558 297.17C304.557 298.681 302.942 300.169 302.477 302.677C302.394 303.134 302.822 303.482 303.244 303.268C305.15 302.308 306.595 300.875 308.464 299.833C310.285 298.818 312.494 298.58 314.113 297.27C315.032 296.526 314.548 294.736 313.394 294.534Z" fill="black"/>
<path d="M345.724 302.78C343.853 299.567 340.096 295.951 336.259 295.48C334.928 295.317 334.489 297.115 335.242 297.943C336.418 299.237 338.255 300.142 339.744 301.042C341.35 302.013 342.852 303.094 344.483 304.025C345.267 304.474 346.187 303.574 345.724 302.78Z" fill="black"/>
<path d="M306.416 331.752C306.416 331.752 319.952 341.772 339.94 332.88C339.94 332.88 337.367 347.531 322.906 346.828C308.443 346.125 306.416 331.752 306.416 331.752Z" fill="white"/>
</g>
<defs>
<clipPath id="clip0">
<rect width="689" height="493" fill="white"/>
</clipPath>
</defs>
</svg>