<svg width="1331" height="345" viewBox="0 0 1331 345" fill="none" xmlns="http://www.w3.org/2000/svg">
<path d="M1327.23 344.671C1343.56 316.239 1305.24 283.68 1243.5 273.53C1212.78 268.477 1179.21 268.595 1146.8 266.536C1114.38 264.476 1080.2 259.406 1061.63 247.379C1044.94 236.571 1044.3 222.431 1032.69 210.375C1018.81 195.968 989.416 185.23 956.549 179.658C923.689 174.085 887.58 173.271 852.588 174.778C814.326 176.426 773.534 180.58 739.052 173.009C699.294 164.281 682.939 143.467 664.138 125.568C646.443 108.72 622.051 92.3124 585.431 83.4081C538.603 72.0214 479.168 75.1707 431.947 86.2284C384.721 97.286 347.63 115.242 313.959 133.691C280.288 152.14 248.684 171.599 208.356 187.169C154.701 207.878 85.4956 221.85 47.9796 248.712C6.45512 278.445 13.4522 314.703 51.9882 344.019L1327.23 344.671Z" fill="#EEEEEE"/>
<path d="M898.398 3.87012C898.398 3.87012 896.286 1.50804 893.941 3.29146C891.064 5.47648 894.014 15.1146 894.014 15.1146C894.014 15.1146 893.116 6.29862 895.303 4.56895C897.017 3.21557 898.398 3.87012 898.398 3.87012Z" fill="#2D3945"/>
<path d="M884.255 10.7825C884.255 10.7825 883.892 8.10099 886.376 7.53181C889.421 6.83615 894.083 14.0521 894.083 14.0521C894.083 14.0521 888.81 8.63538 886.452 9.12867C884.597 9.51445 884.255 10.7825 884.255 10.7825Z" fill="#2D3945"/>
<path d="M917.536 127.448C917.536 127.448 959.449 136.729 986.572 178.323C1013.69 219.918 1028.06 332.688 1028.06 332.688H977.449L917.536 127.448Z" fill="#B2B2B2"/>
<path d="M966.249 186.7C966.249 186.7 975.666 203.813 986.569 242.321C997.471 280.829 1000.77 337.105 1000.77 337.105H985.396L966.249 186.7Z" fill="white"/>
<path d="M986.512 329.519C986.42 334.38 986.215 339.139 985.879 343.755H778.758C778.464 339.151 778.332 334.383 778.338 329.519C778.36 301.054 783.02 269.421 787.233 249.702C788.653 243.071 791.065 235.301 794.112 226.976C808.789 186.861 838.204 133.792 842.142 132.34C846.9 130.591 856.453 126.898 866.695 124.005C876.937 121.111 904.736 119.818 917.536 127.448C930.338 135.078 955.27 152.903 965.898 185.043C975.685 214.653 987.501 277.901 986.512 329.519Z" fill="#CCCCCC"/>
<path d="M778.559 340.097C778.929 340.09 803.915 344.492 831.037 334.338C904.607 306.793 908.498 243.592 908.498 243.592L906.671 233.847C906.671 233.847 898.502 224.345 890.837 222.89C878.571 220.563 837.246 238.416 827.083 232.512C813.227 224.465 819.733 182.485 819.733 182.485L794.106 226.972C791.058 235.298 788.646 243.068 787.23 249.698C782.179 273.36 776.119 308.185 778.559 340.097Z" fill="white"/>
<path d="M886 100.827C886 99.8115 887.22 90.2145 881.394 77.2942C875.568 64.3738 853.26 38.1568 862.285 22.2324C871.31 6.30807 893.802 13.0402 893.802 13.0402C893.802 13.0402 893.691 75.9661 890.84 87.0493C887.988 98.1261 886 100.827 886 100.827Z" fill="black"/>
<path d="M951.938 234.141H950.645C939.227 234.141 929.972 224.882 929.972 213.461V186.703H972.612V213.461C972.615 224.879 963.356 234.141 951.938 234.141Z" fill="black"/>
<path d="M929.972 196.55C928.034 194.026 925.325 192.461 922.337 192.461C916.426 192.461 911.631 198.574 911.631 206.099C911.631 209.546 912.636 212.692 914.295 215.096C914.34 215.175 914.393 215.247 914.447 215.32C916.407 218.033 919.217 219.737 922.341 219.737C923.257 219.737 924.152 219.592 924.999 219.314C925.581 219.121 926.15 218.871 926.687 218.561C928.255 217.673 929.624 216.319 930.683 214.637C931.081 214.011 931.435 213.334 931.742 212.623C932.573 210.684 933.044 208.461 933.044 206.096C933.038 202.381 931.868 199.01 929.972 196.55ZM923.14 215.228C922.875 215.266 922.606 215.285 922.334 215.285C921.964 215.285 921.607 215.25 921.253 215.184C920.39 215.02 919.575 214.656 918.841 214.134C918.822 214.118 918.806 214.109 918.787 214.096C916.603 212.518 915.127 209.527 915.127 206.099C915.127 201.03 918.354 196.917 922.334 196.917C925.597 196.917 928.35 199.674 929.232 203.462C929.241 203.487 929.248 203.516 929.251 203.544C929.441 204.354 929.539 205.211 929.539 206.099C929.539 206.245 929.532 206.39 929.529 206.533C929.523 206.577 929.523 206.621 929.523 206.659C929.516 206.789 929.507 206.915 929.497 207.042C929.441 207.788 929.308 208.509 929.118 209.192C929.055 209.416 928.982 209.638 928.903 209.862C928.714 210.406 928.48 210.922 928.208 211.402C927.06 213.489 925.239 214.931 923.14 215.228Z" fill="black"/>
<path d="M905.343 242.324C905.343 242.324 928.369 234.381 932.27 226.413C934.916 221.009 928.656 222.624 928.656 222.624C928.656 222.624 933.433 218.719 931.862 216.098C930.224 213.369 927.25 214.643 927.25 214.643C927.25 214.643 930.152 211.472 929.459 208.392C928.751 205.242 923.589 208.344 923.589 208.344C923.589 208.344 927.493 205.135 926.153 201.246C924.338 195.977 908.811 209.802 908.811 209.802C908.811 209.802 913.764 201.925 913.331 198.264C912.898 194.602 909.661 193.075 907.736 199.196C906.399 203.456 898.496 207.586 896.489 216.098C894.507 224.509 893.201 230.618 893.201 230.618L905.343 242.324Z" fill="#F4B19A"/>
<path d="M893.141 223.63C884.122 220.955 828.202 253.291 815.684 236.5C803.166 219.709 842.142 132.34 842.142 132.34C842.142 132.34 783.762 154.772 758.499 209.179C733.788 262.397 725.496 345.918 808.856 330.911C892.215 315.9 909.421 250.682 908.501 243.592C907.578 236.5 900.611 225.847 893.141 223.63Z" fill="#B2B2B2"/>
<path d="M864.144 124.748C864.144 124.748 878.594 137.855 896.748 136.631C914.909 135.404 917.539 127.445 917.539 127.445C917.539 127.445 912.045 122.221 910.717 114.541C910.502 113.282 910.328 112.046 910.192 110.847C909.699 106.534 909.677 102.736 909.769 100.276C909.835 98.5435 909.958 97.4747 910.009 97.3609L887.163 72.5637C887.163 72.5637 887.173 72.7249 887.189 73.0285C887.208 73.3858 887.233 73.9487 887.252 74.6791C887.397 79.7195 887.315 92.7663 883.288 102.759C878.189 115.41 864.144 124.748 864.144 124.748Z" fill="#EFA48F"/>
<path d="M886.822 72.5637C886.822 72.5637 886.964 73.3605 887.252 74.6823C888.245 79.2483 891.399 89.7623 895.088 95.7862C900.039 103.862 908.577 109.797 910.192 110.85C909.699 106.537 909.677 102.74 909.769 100.279L887.189 73.0285L886.822 72.5637Z" fill="#D1776C"/>
<path d="M938.975 40.1173C938.975 40.1173 952.669 98.066 922.875 102.759C893.081 107.451 881.862 60.9208 880.228 52.7625C878.597 44.6043 876.966 27.4657 896.343 23.589C915.718 19.7154 932.64 23.7913 938.975 40.1173Z" fill="#EFA48F"/>
<path d="M964.564 28.8002C964.564 28.8002 960.088 41.6541 941.02 44.4115C921.952 47.1657 900.355 38.8809 900.355 38.8809C900.355 38.8809 901.945 45.9609 897.801 52.7626C893.151 60.399 888.605 60.9176 888.605 60.9176C888.605 60.9176 869.053 52.7626 876.058 32.1678C880.427 19.317 893.805 13.0371 893.805 13.0371C893.805 13.0371 900.434 -3.79799 918.92 0.793389C937.403 5.38793 951.638 28.8002 964.564 28.8002Z" fill="black"/>
<path d="M871.064 61.4014C873.561 60.1144 870.732 57.7239 872.006 55.7824C873.485 53.5309 876.776 51.9088 884.774 56.6646C892.762 61.4141 898.079 64.3864 898.079 64.3864C898.079 64.3864 898.196 71.4601 901.999 73.1834C905.802 74.9067 918.449 73.7779 920.947 70.5684C923.441 67.362 923.321 63.3714 925.581 63.2576C927.838 63.1437 927.3 68.0766 928.935 69.3193C930.569 70.5683 938.826 71.4601 943.163 68.9652C947.5 66.4703 946.432 59.1026 945.954 58.0338C945.319 56.6013 932.649 57.2021 930.512 58.0338C928.375 58.8654 927.364 60.2915 925.524 60.4085C923.684 60.5255 922.612 59.2796 919.584 58.8053C916.553 58.331 909.725 58.7484 904.142 60.0544C898.559 61.3603 898.379 61.6607 898.379 61.6607C898.379 61.6607 881.492 48.7625 873.175 51.0139C864.656 53.3127 867.931 63.0141 871.064 61.4014ZM930.332 60.5824C932.232 58.9192 941.529 58.195 943.681 59.5389C945.009 60.3674 944.124 65.4141 942.983 66.7959C941.38 68.7375 933.36 69.4964 930.806 68.3106C928.505 67.2355 928.66 62.0402 930.332 60.5824ZM900.241 63.422C900.832 62.2299 914.871 59.2037 920.886 61.6575C922.366 62.2615 920.947 67.9533 919.217 69.6071C915.974 72.7091 904.019 72.7913 902.593 71.4253C900.687 69.5944 899.647 64.6141 900.241 63.422Z" fill="#FF7900"/>
<path d="M878.224 68.8387C882.81 73.4269 888.76 74.9163 891.51 72.1652C894.26 69.4142 892.771 63.4631 888.184 58.8749C883.598 54.2867 877.648 52.7974 874.898 55.5484C872.148 58.2994 873.637 64.2505 878.224 68.8387Z" fill="#EFA48F"/>
<path d="M918.879 49.787C919.334 51.9531 915.63 54.2551 911.64 55.2163C908.801 55.9025 904.411 56.7595 903.592 54.7989C902.504 52.1902 905.4 50.1064 910.202 48.8795C915.004 47.6589 918.282 46.938 918.879 49.787Z" fill="black"/>
<path d="M929.785 50.3815C929.681 52.6171 932.956 54.5871 936.3 55.1752C938.681 55.5926 942.338 56.0385 942.762 53.9736C943.324 51.2289 940.729 49.3981 936.699 48.6233C932.665 47.8518 929.924 47.4439 929.785 50.3815Z" fill="black"/>
<path d="M906.785 67.0173C907.18 66.0275 907.673 65.0884 908.311 64.3422C908.941 63.5864 909.728 63.0615 910.622 62.8433C911.529 62.6125 912.424 62.6947 913.233 63.1595C914.043 63.6275 914.754 64.418 915.348 65.3034L915.354 65.3098C915.392 65.3667 915.471 65.3825 915.528 65.3445C915.569 65.3161 915.588 65.2686 915.582 65.2244C915.506 64.652 915.298 64.1176 915.026 63.6022C914.744 63.0931 914.368 62.6156 913.885 62.2267C913.401 61.8409 912.803 61.5532 912.171 61.4393C911.536 61.3192 910.894 61.3698 910.293 61.5215C909.69 61.6702 909.111 61.9548 908.618 62.331C908.122 62.7073 907.72 63.1785 907.404 63.6813C906.791 64.7026 906.478 65.8315 906.5 66.973C906.5 67.0552 906.57 67.1216 906.652 67.1216C906.715 67.1216 906.766 67.0805 906.788 67.0268L906.785 67.0173Z" fill="black"/>
<path d="M912.626 66.1477C913.002 67.8015 912.329 69.3636 911.125 69.6387C909.92 69.9138 908.64 68.7944 908.264 67.1406C907.888 65.4868 908.561 63.9248 909.766 63.6497C910.97 63.3777 912.25 64.4971 912.626 66.1477Z" fill="black"/>
<path d="M932.14 65.0505C932.466 64.2505 932.873 63.4979 933.382 62.8939C933.898 62.29 934.527 61.8694 935.244 61.6955C935.975 61.5121 936.689 61.5722 937.34 61.9453C937.995 62.3153 938.57 62.954 939.06 63.6655L939.063 63.6718C939.095 63.7192 939.161 63.7319 939.208 63.7003C939.243 63.6781 939.259 63.637 939.253 63.5991C939.193 63.1311 939.028 62.701 938.81 62.2805C938.579 61.8694 938.282 61.4742 937.884 61.1579C937.492 60.8417 937.005 60.6077 936.487 60.516C935.968 60.418 935.443 60.4591 934.957 60.5824C934.463 60.7026 933.992 60.9334 933.591 61.2433C933.186 61.55 932.861 61.9327 932.608 62.3469C932.105 63.1754 931.862 64.0955 931.884 65.022C931.887 65.0916 931.944 65.1485 932.014 65.1453C932.064 65.1453 932.108 65.1106 932.127 65.0663L932.14 65.0505Z" fill="black"/>
<path d="M936.913 64.396C937.217 65.7336 936.673 66.9984 935.696 67.2197C934.72 67.4411 933.683 66.5367 933.379 65.196C933.076 63.8584 933.619 62.5936 934.596 62.3722C935.573 62.1509 936.61 63.0584 936.913 64.396Z" fill="black"/>
<path d="M926.905 67.5454C926.905 68.0324 926.934 68.5193 926.978 69.0031C927.019 69.4869 927.073 69.9707 927.146 70.4514C927.272 71.419 927.471 72.3708 927.68 73.3226C928.116 75.223 928.704 77.0886 929.422 78.9037C929.592 79.3622 929.788 79.808 929.984 80.257L930.278 80.9274L930.597 81.5883L930.917 82.2492L930.996 82.4136L931.015 82.4515C931.012 82.4452 931.008 82.4389 931.005 82.4326C930.999 82.4199 930.996 82.4073 930.993 82.3946C930.983 82.3472 930.993 82.344 930.989 82.3725C930.983 82.4357 930.926 82.5875 930.844 82.7425C930.762 82.9006 930.645 83.065 930.525 83.2358C930.022 83.9093 929.371 84.567 928.694 85.1994C928.012 85.8287 927.291 86.4358 926.494 87.0366C926.491 87.0398 926.491 87.0461 926.491 87.0493C926.494 87.0524 926.498 87.0524 926.498 87.0524C927.5 86.9734 928.47 86.6319 929.368 86.1734C930.266 85.7054 931.106 85.1235 931.84 84.3235C932.023 84.1212 932.194 83.8998 932.358 83.6437C932.519 83.3844 932.671 83.0966 932.753 82.6855C932.791 82.48 932.807 82.2302 932.738 81.9488C932.722 81.8792 932.696 81.8096 932.668 81.7401L932.621 81.6389L932.598 81.5978L932.519 81.4397L932.206 80.8041C931.992 80.3835 931.792 79.9566 931.593 79.5266L931.29 78.8847L931.002 78.2365C929.463 74.7803 928.132 71.2198 926.997 67.5296C926.991 67.5043 926.962 67.4885 926.937 67.4948C926.921 67.5043 926.908 67.5264 926.905 67.5454Z" fill="black"/>
<path d="M920.346 91.9663C918.664 91.7671 917.084 91.3908 915.892 90.5434C915.294 90.1228 914.833 89.6042 914.425 88.9497C914.017 88.3014 913.685 87.5552 913.357 86.7583L913.35 86.7457C913.322 86.673 913.24 86.6413 913.167 86.6698C913.126 86.6856 913.094 86.7236 913.085 86.7647C912.857 87.6659 912.946 88.605 913.262 89.503C913.429 89.9489 913.654 90.3853 913.96 90.7742C914.261 91.1695 914.65 91.5046 915.048 91.7766C915.86 92.3205 916.802 92.6177 917.725 92.6873C918.652 92.7537 919.562 92.643 920.406 92.2888C920.491 92.2541 920.529 92.1561 920.494 92.0707C920.469 92.0138 920.419 91.9758 920.362 91.9695L920.346 91.9663Z" fill="black"/>
<path d="M877.389 61.5247C878.363 61.3856 879.362 61.3508 880.367 61.4741C881.369 61.5911 882.371 61.8884 883.291 62.3785C884.214 62.8623 885.039 63.5485 885.712 64.358C886.051 64.7627 886.351 65.1959 886.61 65.6576C886.743 65.8853 886.86 66.1256 886.974 66.3691C887.031 66.4924 887.081 66.6157 887.132 66.7422C887.182 66.875 887.227 66.9857 887.277 67.1628C887.413 67.6339 887.144 68.1272 886.673 68.2663C886.458 68.3296 886.244 68.3074 886.054 68.2221L885.934 68.1651C885.52 67.8837 885.039 67.6023 884.571 67.3525C884.1 67.0995 883.617 66.8687 883.123 66.6726C882.633 66.4766 882.131 66.3185 881.631 66.2299C881.135 66.1446 880.632 66.1288 880.206 66.2774L880.187 66.2837C879.972 66.3596 879.738 66.2457 879.665 66.0307C879.599 65.8378 879.684 65.626 879.861 65.5343C880.462 65.2181 881.116 65.1548 881.726 65.1643C882.339 65.1801 882.934 65.2781 883.509 65.4109C883.942 65.5121 884.366 65.6386 884.783 65.7746C884.688 65.607 884.59 65.4457 884.486 65.2876C884.002 64.5698 883.386 63.9343 882.656 63.4505C881.929 62.9603 881.091 62.6093 880.203 62.4133C879.314 62.2109 878.385 62.1413 877.449 62.1824C877.269 62.1919 877.114 62.0496 877.108 61.8694C877.101 61.6955 877.228 61.55 877.389 61.5247Z" fill="black"/>
<path d="M946.356 145.947C946.356 145.947 954.559 154.551 952.735 160.344C950.911 166.137 941.017 168.091 942.319 175.383C943.621 182.674 953 184.935 953 184.935C953 184.935 948.18 179.288 951.303 174.209C954.429 169.131 964.583 168.347 964.712 160.533C964.845 152.717 946.356 145.947 946.356 145.947Z" fill="white"/>
<path d="M1204.61 184.386C1211.15 183.423 1215.68 177.332 1214.72 170.782C1213.75 164.232 1207.66 159.704 1201.12 160.668C1194.57 161.632 1190.04 167.723 1191 174.273C1191.97 180.822 1198.06 185.35 1204.61 184.386Z" fill="#FFD200"/>
<path d="M1230.63 135.382L1226.02 140.664L1315.88 219.167L1320.49 213.884L1230.63 135.382Z" fill="black"/>
<path d="M1240.52 196.008L1165.25 149.55L1205.98 142.227L1228.58 156.175L1240.52 196.008Z" fill="black"/>
<path d="M1227.32 158.217L1204.73 144.269L1217.81 123.052C1221.66 116.81 1229.84 114.871 1236.08 118.723C1242.32 122.574 1244.26 130.758 1240.41 136.996L1227.32 158.217Z" fill="black"/>
<path d="M1317.89 220.813L1311.56 217.935L1261.01 329.284L1267.34 332.162L1317.89 220.813Z" fill="black"/>
<path d="M1321.37 224.03C1325.15 220.254 1325.15 214.131 1321.37 210.355C1317.6 206.579 1311.48 206.579 1307.7 210.355C1303.93 214.131 1303.93 220.254 1307.7 224.03C1311.48 227.806 1317.6 227.806 1321.37 224.03Z" fill="black"/>
<path d="M1295.73 338.002H1223.81L1234.84 327.564H1284.71L1295.73 338.002Z" fill="black"/>
<path d="M1331 340.809C1331 341.861 1330.12 342.815 1328.71 343.506C1327.3 344.197 1325.34 344.623 1323.18 344.623H700.004C695.683 344.623 692.181 342.914 692.181 340.809C692.181 339.757 693.059 338.804 694.471 338.114C695.889 337.425 697.844 336.998 700.004 336.998H1323.18C1327.49 336.998 1331 338.704 1331 340.809Z" fill="#595959"/>
<path d="M1196.77 247.177H1107.65C1094.38 247.177 1082.65 255.812 1078.7 268.489L1063.31 321.961C1017.54 321.897 974.774 318.413 974.774 329.84C974.774 339.042 1051.63 337.961 1073.61 337.961L1190.07 337.338L1211.6 267.335C1214.71 257.333 1207.24 247.177 1196.77 247.177Z" fill="black"/>
<path d="M1151.26 297.356C1152.64 294.005 1151.05 290.163 1147.7 288.775C1144.35 287.387 1140.51 288.978 1139.12 292.329C1137.74 295.681 1139.33 299.523 1142.68 300.911C1146.03 302.299 1149.87 300.708 1151.26 297.356Z" fill="#FF7900"/>
<path d="M1145.17 307.554C1131.93 307.554 1131.04 295.585 1131.04 295.465C1131 294.899 1131.43 294.412 1132 294.377C1132.56 294.333 1133.05 294.773 1133.08 295.336C1133.11 295.766 1133.9 305.502 1145.17 305.502C1154.47 305.502 1156.5 296.199 1156.58 295.804C1156.69 295.25 1157.24 294.89 1157.79 295.007C1158.34 295.121 1158.7 295.661 1158.59 296.215C1158.56 296.325 1156.16 307.554 1145.17 307.554Z" fill="#FF7900"/>
<mask id="mask0" mask-type="alpha" maskUnits="userSpaceOnUse" x="187" y="88" width="239" height="257">
<rect x="187.529" y="88.4553" width="237.842" height="256.215" fill="#C4C4C4"/>
</mask>
<g mask="url(#mask0)">
<path d="M398.997 339.591C394.148 338.945 389.622 344.442 386.713 347.352C384.773 349.292 383.157 351.555 381.541 353.495C380.894 353.819 380.571 354.142 379.925 354.465C378.632 355.112 377.015 355.435 375.722 355.112C375.399 355.112 375.076 354.789 374.753 354.465L374.429 354.142C374.106 353.819 374.106 353.495 374.106 353.172C374.106 352.849 373.783 352.525 373.783 352.202C374.753 349.615 376.369 347.352 378.308 345.412C384.45 337.651 393.825 333.448 399.32 324.717C401.906 320.514 405.785 294.646 394.148 299.496C388.329 302.083 386.39 308.873 384.127 314.37C383.157 315.987 382.187 317.604 381.218 319.221C378.632 323.101 372.813 322.131 374.106 317.28C375.722 312.107 378.955 307.58 381.541 303.053C386.39 294.646 389.622 286.239 390.592 276.539C391.239 270.719 390.915 262.311 387.036 257.461C384.774 254.551 378.955 255.845 377.015 258.431C372.813 264.575 375.399 272.659 373.783 279.449C372.813 284.622 366.025 284.299 364.732 279.449C364.085 277.185 364.408 274.599 364.408 272.335C364.408 267.162 364.732 261.665 365.055 256.491C365.701 246.468 367.641 235.474 364.408 225.773C363.115 221.57 359.883 219.63 356.004 220.923C349.215 222.863 347.599 232.24 346.953 237.737C344.043 257.785 355.034 296.263 345.66 308.227C337.578 318.251 350.508 276.539 340.487 274.275C336.932 273.629 334.346 275.245 333.053 278.479C329.174 288.826 331.113 302.083 332.729 312.754C336.608 338.621 352.771 358.992 349.539 386.153C349.215 389.71 348.569 393.914 351.155 396.5C352.125 397.471 353.418 398.117 354.387 398.441C362.469 401.351 367.641 398.117 372.813 391.974C379.925 383.567 388.006 377.1 396.087 369.663C402.553 363.519 405.139 357.376 405.462 348.322C405.139 344.442 403.522 340.238 398.997 339.591Z" fill="black"/>
<path d="M304.606 286.886C303.959 286.562 303.636 286.239 302.99 285.916C302.02 285.269 300.727 284.622 299.757 284.946C298.787 284.946 297.818 285.916 297.171 286.562C293.615 290.119 291.352 295.293 287.797 298.85C285.857 300.79 283.271 302.406 280.362 301.76C276.806 300.79 275.836 296.263 276.483 292.706C277.129 289.149 279.069 285.916 279.715 282.359C281.008 273.305 270.987 272.335 264.522 272.982C249.652 274.275 236.399 280.095 221.852 280.419C217.004 280.419 206.659 280.095 203.75 284.622C207.306 286.239 210.538 287.532 212.801 291.089C221.852 303.053 217.65 323.424 217.973 337.328C217.973 344.441 218.62 352.525 222.176 358.992C226.701 366.752 235.752 367.722 243.834 366.752C246.097 358.345 251.592 350.908 259.027 346.058C260.32 345.088 261.613 344.441 263.229 344.118C264.845 343.795 266.462 344.118 267.755 345.411C268.401 346.058 268.725 347.028 269.048 347.998C269.694 351.232 268.078 354.142 266.462 356.729C263.876 360.932 260.643 364.489 257.087 367.722C252.238 371.926 257.734 377.746 262.259 380.01C268.725 383.243 277.129 381.303 283.271 378.069C288.766 375.159 293.292 369.986 297.171 365.459C301.373 360.609 304.606 357.699 310.748 356.082C313.334 355.435 312.041 346.381 312.041 344.765C312.041 340.238 313.011 335.711 314.627 331.508C317.536 323.747 323.355 316.634 322.708 308.55C322.385 303.376 319.476 298.526 315.92 294.969C312.364 291.736 308.485 289.149 304.606 286.886Z" fill="#FF7900"/>
<path d="M329.173 222.863C328.85 218.983 327.88 215.426 326.587 211.546C324.001 214.132 304.283 229.977 303.959 218.013C303.959 216.396 304.929 215.103 305.899 214.133C308.808 211.222 313.011 209.929 316.243 207.019C325.618 199.259 309.131 162.72 296.525 164.66C296.201 164.337 295.878 164.337 295.231 164.337C284.241 167.571 277.129 176.948 269.371 184.385C265.492 187.941 260.32 186.648 261.613 180.504C262.259 177.594 264.199 174.684 265.815 172.421C268.401 168.541 271.634 165.307 275.513 162.397C278.099 160.457 284.241 158.193 284.241 153.99C284.564 146.553 274.543 142.996 269.371 139.439C262.583 134.912 255.471 131.679 247.713 130.062C242.864 129.092 238.015 128.769 233.49 128.122C227.994 127.475 222.499 127.475 217.004 126.182C211.832 124.889 206.336 122.625 200.841 123.919C200.518 123.919 200.194 124.242 200.194 124.565C200.518 141.703 197.285 156.9 194.376 174.037C192.759 183.415 193.729 191.822 197.608 200.229C198.255 201.522 199.871 201.199 200.841 200.552C202.78 198.935 204.72 197.965 206.659 197.318C211.832 196.348 217.327 196.672 220.236 200.875C222.176 203.785 217.65 206.372 215.387 207.666C213.771 208.636 212.155 209.282 210.539 209.929C210.215 209.929 209.892 210.252 209.569 210.252C207.952 210.252 206.659 210.576 205.043 210.576C203.427 210.576 200.841 210.899 199.871 212.192C193.729 222.863 203.75 242.91 209.892 251.317C210.862 252.611 212.478 252.611 213.448 251.317C216.357 246.791 220.236 242.587 224.762 239.03C229.287 236.767 236.722 237.09 240.925 238.707C241.571 239.03 242.218 239.354 242.541 239.677C246.42 247.114 242.541 251.964 230.904 254.228C228.641 254.551 222.499 254.874 221.206 256.814C212.155 267.485 232.52 286.239 242.218 286.239C251.592 286.239 259.673 281.065 265.815 274.275C268.725 271.042 270.018 267.485 272.604 264.251C275.19 261.018 281.978 251.964 286.18 250.994C288.443 250.671 290.706 250.994 292.645 251.317C302.343 252.611 313.011 250.671 320.769 244.527C328.527 239.03 330.143 230.947 329.173 222.863Z" fill="#FF7900"/>
<path d="M329.173 336.358C320.445 312.754 310.748 288.826 298.141 267.162C291.676 255.844 286.18 244.527 279.715 233.21C277.129 228.683 274.543 224.48 271.957 220.276V219.953C273.896 214.456 275.836 209.606 279.392 205.079C285.857 196.349 294.262 188.912 303.313 183.738C303.636 183.415 303.313 182.768 302.989 182.768C288.12 186.325 273.896 202.492 270.341 218.013C266.785 212.516 263.229 207.019 259.996 201.199C255.148 192.792 249.652 184.708 244.157 176.948C244.157 173.391 243.834 170.157 244.157 166.601C244.48 161.75 247.39 157.87 249.006 153.667C249.329 153.343 248.683 153.02 248.359 153.02C242.541 156.254 240.924 165.954 241.894 173.391C233.49 161.75 224.438 150.433 215.064 139.763C215.064 139.763 214.741 139.763 214.741 140.086C223.469 154.637 233.813 167.894 243.187 181.475C239.955 179.534 235.752 178.564 232.197 177.918C224.762 176.624 216.034 174.361 208.922 178.564C215.71 178.241 222.499 179.534 229.287 180.828C235.752 182.121 240.278 184.708 246.097 187.295C246.42 187.295 246.743 187.295 247.066 187.295C250.622 192.468 253.855 197.965 257.087 203.462C260.32 209.282 263.552 214.779 266.785 220.6C262.259 218.336 256.441 217.689 251.915 217.366C240.278 216.396 225.085 218.66 215.387 225.45C225.408 225.126 235.106 221.246 245.127 220.6C254.501 219.953 262.259 222.54 270.341 226.42C277.776 240 285.21 253.581 292.969 266.838C319.476 312.43 333.376 363.196 350.185 412.991C350.508 413.638 351.478 413.314 351.155 412.668C346.306 386.153 338.224 360.932 329.173 336.358Z" fill="black"/>
<path d="M320.769 366.43C313.334 356.406 304.929 346.705 296.201 337.652C293.292 329.568 295.878 321.161 297.494 312.754C297.494 312.431 297.171 312.107 296.848 312.431C294.262 317.927 292.969 323.101 292.645 329.245C292.645 329.891 292.969 332.155 293.292 334.095C286.18 327.628 278.099 322.454 270.341 316.957C270.018 313.401 268.725 310.167 267.755 306.934C265.169 299.173 267.108 291.736 267.432 283.976C267.432 283.329 266.785 283.006 266.462 283.653C263.229 289.15 263.552 295.94 263.876 302.407C264.199 305.317 265.169 308.227 266.139 311.137C266.785 312.754 267.108 313.724 267.108 314.694C265.492 313.724 264.199 312.431 262.906 311.461C257.087 306.61 251.269 302.73 244.804 299.173C239.308 295.94 233.166 294 227.994 290.443C233.813 298.85 245.45 302.73 253.532 308.55C257.734 311.461 261.29 314.694 265.169 318.251C264.199 318.574 262.906 318.897 261.29 319.221C249.329 322.778 236.722 329.891 231.227 341.532C230.904 342.178 231.873 342.825 232.197 342.179C237.369 337.652 241.571 332.478 247.066 328.598C253.532 324.394 260.966 322.131 268.401 320.514C273.897 325.041 280.039 328.275 285.534 332.801C287.797 334.741 290.383 336.682 292.645 338.945C290.706 340.562 288.443 341.855 286.504 343.472C280.362 348.322 272.28 355.436 273.25 364.166H273.573C277.776 353.496 285.857 347.029 294.908 340.562C312.687 357.699 326.587 380.333 338.548 401.351C339.518 402.968 341.457 401.998 341.134 400.381C336.608 387.77 328.527 376.777 320.769 366.43Z" fill="black"/>
</g>
</svg>
