<svg width="1332" height="381" viewBox="0 0 1332 381" fill="none" xmlns="http://www.w3.org/2000/svg">
<path d="M1327.17 377C1343.75 348.083 1304.85 314.968 1242.18 304.645C1210.99 299.505 1176.92 299.625 1144.01 297.53C1111.11 295.436 1076.41 290.279 1057.56 278.046C1040.62 267.054 1039.97 252.673 1028.18 240.41C1014.09 225.758 984.253 214.837 950.889 209.169C917.533 203.501 880.877 202.673 845.356 204.206C806.516 205.882 765.107 210.107 730.104 202.407C689.745 193.53 673.143 172.361 654.058 154.155C636.095 137.02 611.335 120.332 574.161 111.276C526.625 99.6945 466.291 102.898 418.357 114.144C370.417 125.391 332.765 143.653 298.585 162.417C264.405 181.181 232.323 200.973 191.386 216.809C136.92 237.871 66.6683 252.081 28.5853 279.403C-13.567 309.643 -6.46415 346.52 32.6544 376.337L1327.17 377Z" fill="#EEEEEE"/>
<mask id="mask0" mask-type="alpha" maskUnits="userSpaceOnUse" x="576" y="0" width="530" height="376">
<rect x="576.663" width="528.679" height="375.191" fill="#C4C4C4"/>
</mask>
<g mask="url(#mask0)">
<path d="M896.386 28.7866C896.386 28.7866 898.551 26.3587 900.96 28.1927C903.909 30.4379 900.885 40.3521 900.885 40.3521C900.885 40.3521 901.806 31.2864 899.563 29.5079C897.802 28.1111 896.386 28.7866 896.386 28.7866Z" fill="#1D2633"/>
<path d="M910.898 35.8943C910.898 35.8943 911.272 33.1368 908.723 32.5526C905.602 31.8379 900.817 39.2556 900.817 39.2556C900.817 39.2556 906.227 33.685 908.645 34.1908C910.546 34.589 910.898 35.8943 910.898 35.8943Z" fill="#1D2633"/>
<path d="M846.044 176.746C846.044 176.746 806.423 206.131 797.417 262.46C788.415 318.787 853.514 436.136 853.514 436.136L879.132 420.027L846.044 176.746Z" fill="#B2B2B2"/>
<path d="M840.432 217.055C840.432 217.055 834.341 237.321 829.354 282.073C824.367 326.826 840.432 389.92 840.432 389.92L840.813 389.92L840.432 217.055Z" fill="white"/>
<path d="M1018.97 380.674C1017.39 401.387 1015.39 438.56 1004.88 445.243C977.736 462.51 873.229 467.486 849.881 445.243C826.526 423.007 836.536 195.104 844.462 177.521C861.491 163.567 863.618 163.701 876.752 155.856C889.883 148.011 918.403 149.343 928.911 152.319C939.421 155.295 949.219 159.09 954.101 160.888C958.144 162.38 988.322 216.95 1003.38 258.199C1006.5 266.759 1008.98 274.748 1010.43 281.568C1015.63 305.897 1021.47 347.861 1018.97 380.674Z" fill="#CCCCCC"/>
<path d="M1018.97 380.674C1018.59 380.667 992.873 380.178 965.498 368.596C934.135 355.327 904.062 313.179 904.062 313.179C904.062 313.179 920.286 267.83 900.161 281.784C897.723 287.589 904.062 265.264 904.062 265.264C904.062 265.264 890.873 256.978 900.161 281.784C910.224 249.226 907.871 291.474 907.871 291.474L892.451 272.094L887.897 265.264C887.897 265.264 887.077 250.165 918.081 254.763C930.75 256.639 959.762 265.77 970.214 259.743C982.6 252.596 977.089 212.453 977.089 212.453L1003.38 258.199C1006.5 266.759 1008.98 274.748 1010.43 281.568C1015.63 305.897 1021.47 347.861 1018.97 380.674Z" fill="white"/>
<g clip-path="url(#clip0)">
<path d="M866.324 269.766H642.038C638.467 269.766 635.577 266.315 635.577 262.05V190.66C635.577 186.404 638.467 182.945 642.038 182.945H866.324C869.888 182.945 872.785 186.396 872.785 190.66V262.05C872.785 266.315 869.895 269.766 866.324 269.766Z" fill="black"/>
<path d="M676.955 253.196C692.28 253.196 704.703 240.776 704.703 225.456C704.703 210.136 692.28 197.716 676.955 197.716C661.63 197.716 649.207 210.136 649.207 225.456C649.207 240.776 661.63 253.196 676.955 253.196Z" fill="white"/>
<path d="M677.704 219.917C681.921 219.917 685.339 216.499 685.339 212.283C685.339 208.067 681.921 204.65 677.704 204.65C673.487 204.65 670.068 208.067 670.068 212.283C670.068 216.499 673.487 219.917 677.704 219.917Z" fill="#FF7900"/>
<path d="M686.252 218.158C684.378 220.872 681.252 222.655 677.703 222.655C674.155 222.655 671.029 220.872 669.155 218.158C665.715 220.751 663.484 230.318 663.484 234.96C663.484 242.811 669.85 243.717 677.703 243.717C685.557 243.717 691.923 242.811 691.923 234.96C691.923 230.318 689.692 220.751 686.252 218.158Z" fill="#FF7900"/>
<path d="M720.848 206.383V207.632C720.848 209.586 721.715 211.172 722.775 211.172H856.894C857.96 211.172 858.821 209.586 858.821 207.632V206.383C858.821 204.429 857.954 202.843 856.894 202.843H722.775C721.715 202.85 720.848 204.429 720.848 206.383Z" fill="white"/>
<path d="M722.782 230.199H856.9C857.967 230.199 858.827 228.613 858.827 226.659V225.41C858.827 223.456 857.96 221.87 856.9 221.87H722.782C721.715 221.87 720.855 223.456 720.855 225.41V226.659C720.848 228.621 721.715 230.199 722.782 230.199Z" fill="white"/>
<path d="M722.782 249.234H802.559C803.625 249.234 804.486 247.648 804.486 245.694V244.445C804.486 242.491 803.625 240.904 802.559 240.904H722.782C721.715 240.904 720.855 242.491 720.855 244.445V245.694C720.848 247.648 721.715 249.234 722.782 249.234Z" fill="white"/>
</g>
<path d="M909.107 128.483C909.107 127.439 907.854 117.57 913.834 104.285C919.813 90.9998 942.699 64.0409 933.439 47.6653C924.178 31.2896 901.103 38.2145 901.103 38.2145C901.103 38.2145 901.217 102.921 904.14 114.313C907.066 125.709 909.107 128.483 909.107 128.483Z" fill="#1D2633"/>
<path d="M901.779 259.753L888.446 274.748C888.446 274.748 872.79 278.269 867.37 279.173C861.947 280.08 844.282 274.643 844.383 272.734C844.48 270.864 856.798 272.173 857.315 272.228C856.723 272.091 837.729 267.66 837.726 264.383C837.726 260.092 854.265 265.343 855.007 265.581C854.216 265.199 834.416 255.67 834.956 250.847C835.415 246.787 841.222 248.703 841.401 248.765C841.242 248.664 835.418 244.966 837.056 242.646C838.26 240.936 841.395 241.637 845.144 242.92C848.898 244.203 853.266 246.066 856.928 246.67C861.521 247.427 868.164 246.885 872.48 246.376C875.052 246.069 876.797 245.779 876.797 245.779C876.797 245.779 874.795 243.011 873.428 239.138C872.06 235.264 874.404 231.433 876.012 231.733C877.62 232.037 878.232 235.235 881.018 237.868C882.926 239.67 888.046 241.031 893.869 245.86C899.686 250.693 901.779 259.753 901.779 259.753Z" fill="#EFA48F"/>
<path d="M901.78 254.763C911.034 252.015 968.404 285.262 981.249 267.996C994.093 250.729 954.102 160.892 954.102 160.892C954.102 160.892 1014 183.957 1039.92 239.905C1065.27 294.628 1073.78 380.511 988.254 365.078C902.73 349.646 885.075 282.583 886.022 275.29C886.969 267.993 894.114 257.037 901.78 254.763Z" fill="#B2B2B2"/>
<path d="M856.092 271.772C857.674 272.049 859.253 272.339 860.832 272.548C861.623 272.649 862.41 272.738 863.201 272.8C863.992 272.852 864.783 272.875 865.581 272.862H865.584C865.672 272.858 865.747 272.93 865.75 273.021C865.75 273.1 865.698 273.165 865.626 273.181C864.826 273.38 863.999 273.449 863.178 273.455C862.358 273.455 861.541 273.387 860.731 273.279C859.923 273.162 859.123 273.008 858.332 272.806C857.541 272.604 856.763 272.372 856.004 272.065C855.926 272.033 855.887 271.945 855.92 271.866C855.946 271.798 856.017 271.762 856.089 271.772H856.092Z" fill="#A84636"/>
<path d="M854.093 265.137C854.992 265.336 855.897 265.522 856.798 265.702C857.7 265.875 858.602 266.044 859.507 266.165C859.959 266.227 860.412 266.286 860.861 266.322C861.313 266.367 861.766 266.39 862.215 266.397C863.11 266.397 864.021 266.361 864.835 266.015L864.842 266.012C864.923 265.976 865.017 266.015 865.053 266.097C865.083 266.168 865.056 266.253 864.991 266.296C864.161 266.841 863.169 267.001 862.228 267.053C861.277 267.102 860.33 267.027 859.402 266.893C858.472 266.756 857.557 266.563 856.655 266.319C855.754 266.077 854.868 265.783 853.999 265.428C853.921 265.395 853.885 265.307 853.914 265.229C853.944 265.16 854.019 265.121 854.093 265.137Z" fill="#A84636"/>
<path d="M852.954 255.638C853.843 256.055 854.757 256.431 855.672 256.783C856.59 257.129 857.518 257.439 858.458 257.697C859.399 257.955 860.353 258.144 861.316 258.281C862.28 258.402 863.25 258.438 864.23 258.398H864.236C864.324 258.395 864.399 258.464 864.402 258.552C864.405 258.63 864.35 258.699 864.275 258.715C863.286 258.927 862.264 259.002 861.248 258.93C860.236 258.849 859.236 258.672 858.263 258.402C857.293 258.124 856.343 257.782 855.428 257.364C854.513 256.946 853.628 256.47 852.795 255.895C852.726 255.846 852.707 255.752 852.756 255.683C852.798 255.621 852.879 255.598 852.948 255.631L852.954 255.638Z" fill="#A84636"/>
<path d="M931.532 153.082C931.532 153.082 916.708 166.56 898.083 165.304C879.451 164.044 876.752 155.86 876.752 155.86C876.752 155.86 882.39 150.488 883.751 142.587C883.972 141.292 884.151 140.022 884.291 138.789C884.796 134.354 884.818 130.448 884.724 127.918C884.656 126.137 884.532 125.037 884.477 124.919L907.916 99.4193C907.916 99.4193 907.907 99.5857 907.89 99.899C907.871 100.265 907.845 100.845 907.825 101.596C907.675 106.778 907.76 120.194 911.894 130.47C917.122 143.482 931.532 153.082 931.532 153.082Z" fill="#EFA48F"/>
<path d="M908.264 99.4193C908.264 99.4193 908.117 100.238 907.825 101.596C906.809 106.292 903.57 117.104 899.785 123.297C894.707 131.603 885.944 137.702 884.291 138.789C884.795 134.354 884.818 130.448 884.723 127.918L907.89 99.899L908.264 99.4193Z" fill="#A84636"/>
<path d="M854.758 66.061C854.758 66.061 840.709 125.647 871.277 130.474C901.845 135.3 913.355 87.4525 915.032 79.0624C916.705 70.6755 918.381 53.0499 898.499 49.0653C878.617 45.0808 861.255 49.2677 854.758 66.061Z" fill="#EFA48F"/>
<path d="M828.502 54.4206C828.502 54.4206 833.095 67.6405 852.658 70.4731C872.221 73.3057 894.381 64.7883 894.381 64.7883C894.381 64.7883 892.751 72.0689 897.002 79.0624C901.774 86.9141 906.438 87.446 906.438 87.446C906.438 87.446 926.496 79.0624 919.312 57.883C914.83 44.6696 901.103 38.2113 901.103 38.2113C901.103 38.2113 894.3 20.9023 875.336 25.6212C856.372 30.34 841.764 54.4206 828.502 54.4206Z" fill="#1D2633"/>
<path d="M922.267 77.2577C913.735 74.944 896.409 88.2064 896.409 88.2064C896.409 88.2064 896.226 87.8963 890.494 86.5551C884.765 85.2106 877.76 84.7831 874.649 85.2726C871.543 85.7588 870.443 87.0446 868.555 86.9206C866.667 86.7998 865.629 85.3346 863.438 84.4796C861.244 83.6246 848.247 83.0078 847.593 84.4796C847.104 85.5793 846.007 93.1569 850.457 95.7187C854.907 98.2869 863.376 97.3667 865.053 96.0842C866.729 94.8049 866.179 89.7303 868.493 89.8511C870.811 89.9686 870.69 94.0707 873.246 97.3699C875.807 100.672 888.785 101.831 892.685 100.059C896.584 98.2869 896.708 91.0129 896.708 91.0129C896.708 91.0129 902.164 87.9583 910.36 83.073C918.566 78.1812 921.945 79.8521 923.461 82.1658C924.77 84.163 921.866 86.6203 924.428 87.9453C927.647 89.6031 931.007 79.6269 922.267 77.2577ZM863.135 95.0464C860.515 96.2669 852.29 95.487 850.643 93.4898C849.474 92.0669 848.566 86.8814 849.926 86.0264C852.137 84.6427 861.674 85.3868 863.624 87.1001C865.339 88.6012 865.499 93.9434 863.135 95.0464ZM892.083 98.2478C890.621 99.6543 878.356 99.5662 875.026 96.3779C873.249 94.6809 871.797 88.8264 873.314 88.2064C879.486 85.6805 893.889 88.797 894.498 90.0208C895.107 91.2478 894.039 96.3681 892.083 98.2478Z" fill="#FF7900"/>
<path d="M917.083 95.5907C921.79 90.8715 923.318 84.7523 920.496 81.9231C917.674 79.0939 911.57 80.626 906.863 85.3452C902.156 90.0644 900.628 96.1835 903.45 99.0128C906.272 101.842 912.376 100.31 917.083 95.5907Z" fill="#EFA48F"/>
<path d="M875.375 76.0013C874.91 78.2302 878.708 80.5961 882.803 81.5849C885.716 82.2898 890.221 83.1709 891.058 81.1542C892.171 78.4717 889.203 76.3276 884.278 75.0679C879.353 73.8115 875.987 73.0708 875.375 76.0013Z" fill="#1D2633"/>
<path d="M864.184 76.6148C864.292 78.9155 860.932 80.9388 857.502 81.5458C855.06 81.9766 851.307 82.4334 850.874 80.309C850.295 77.4862 852.958 75.6064 857.095 74.8102C861.229 74.0107 864.041 73.5897 864.184 76.6148Z" fill="#1D2633"/>
<path d="M887.783 93.7182C887.376 92.7 886.872 91.7341 886.217 90.9672C885.57 90.1905 884.766 89.652 883.848 89.4268C882.917 89.1919 881.999 89.2735 881.169 89.7532C880.339 90.2329 879.61 91.0455 879.001 91.9592L878.994 91.9658C878.955 92.0245 878.877 92.0408 878.815 92.0017C878.773 91.9723 878.754 91.9233 878.76 91.8776C878.838 91.287 879.053 90.742 879.333 90.2101C879.619 89.6846 880.007 89.1951 880.505 88.7937C880.999 88.3956 881.615 88.1019 882.262 87.9844C882.913 87.8637 883.574 87.9126 884.189 88.0693C884.808 88.2226 885.404 88.5131 885.908 88.9014C886.416 89.2865 886.829 89.7728 887.155 90.2916C887.783 91.3425 888.105 92.5042 888.083 93.6758C888.083 93.7606 888.011 93.8292 887.926 93.8259C887.861 93.8259 887.809 93.7835 887.786 93.728L887.783 93.7182Z" fill="#1E2633"/>
<path d="M881.791 92.8273C881.407 94.5275 882.097 96.1331 883.33 96.417C884.567 96.6977 885.879 95.549 886.267 93.8487C886.651 92.1485 885.961 90.5429 884.727 90.259C883.49 89.9751 882.175 91.1271 881.791 92.8273Z" fill="#1E2633"/>
<path d="M861.769 91.695C861.434 90.8726 861.017 90.0959 860.493 89.4758C859.962 88.8558 859.321 88.4218 858.582 88.2423C857.833 88.053 857.101 88.1183 856.431 88.5001C855.76 88.8819 855.168 89.5346 854.666 90.2688L854.663 90.2754C854.63 90.3243 854.562 90.3374 854.513 90.3047C854.477 90.2819 854.461 90.2395 854.468 90.2003C854.526 89.7206 854.699 89.2768 854.923 88.8427C855.161 88.4185 855.464 88.0138 855.871 87.6875C856.274 87.3612 856.772 87.1229 857.303 87.025C857.833 86.9239 858.371 86.9663 858.872 87.0936C859.376 87.2176 859.861 87.4558 860.272 87.7724C860.685 88.0889 861.023 88.4838 861.281 88.908C861.795 89.7598 862.046 90.7061 862.023 91.6591C862.019 91.7308 861.961 91.7896 861.889 91.7863C861.837 91.7863 861.792 91.7504 861.772 91.7047L861.769 91.695Z" fill="#1E2633"/>
<path d="M856.87 91.0227C856.557 92.3998 857.117 93.6987 858.116 93.9271C859.116 94.1555 860.18 93.2255 860.493 91.8483C860.805 90.4712 860.245 89.1724 859.246 88.9439C858.247 88.7155 857.182 89.6455 856.87 91.0227Z" fill="#1E2633"/>
<path d="M867.14 94.2632C867.14 94.7658 867.11 95.2651 867.065 95.7644C867.023 96.2637 866.967 96.7597 866.892 97.2557C866.762 98.2478 866.56 99.2301 866.342 100.209C865.896 102.161 865.294 104.079 864.555 105.949C864.379 106.419 864.178 106.879 863.976 107.34L863.676 108.025L863.351 108.704L863.022 109.382L862.941 109.552L862.921 109.591C862.924 109.585 862.928 109.578 862.931 109.572C862.937 109.559 862.941 109.546 862.944 109.533C862.954 109.484 862.944 109.48 862.947 109.51C862.954 109.575 863.012 109.732 863.097 109.892C863.182 110.055 863.299 110.224 863.426 110.397C863.94 111.089 864.611 111.768 865.304 112.414C866.007 113.064 866.746 113.687 867.563 114.304C867.566 114.307 867.566 114.313 867.566 114.317C867.563 114.32 867.56 114.32 867.56 114.32C866.531 114.238 865.535 113.889 864.617 113.416C863.696 112.933 862.833 112.336 862.081 111.513C861.893 111.305 861.717 111.076 861.551 110.815C861.385 110.551 861.229 110.254 861.147 109.83C861.108 109.617 861.092 109.36 861.163 109.072C861.18 109.001 861.206 108.929 861.235 108.86L861.284 108.756L861.307 108.713L861.388 108.55L861.71 107.898C861.928 107.464 862.133 107.026 862.338 106.586L862.648 105.927L862.944 105.261C864.523 101.707 865.89 98.0455 867.055 94.2502C867.062 94.2241 867.091 94.2077 867.117 94.2143C867.123 94.2208 867.136 94.2404 867.14 94.2632Z" fill="#1E2633"/>
<path d="M873.868 119.372C875.593 119.166 877.214 118.781 878.438 117.91C879.053 117.476 879.522 116.944 879.945 116.271C880.362 115.606 880.703 114.839 881.042 114.016L881.048 114.003C881.078 113.928 881.162 113.896 881.237 113.925C881.279 113.941 881.312 113.981 881.322 114.023C881.556 114.95 881.465 115.916 881.143 116.839C880.973 117.296 880.739 117.747 880.423 118.145C880.117 118.553 879.717 118.898 879.31 119.176C878.477 119.734 877.51 120.041 876.563 120.112C875.612 120.181 874.678 120.067 873.812 119.701C873.724 119.665 873.685 119.564 873.721 119.476C873.747 119.417 873.799 119.378 873.858 119.372H873.868Z" fill="#1E2633"/>
<path d="M917.942 88.0726C916.942 87.929 915.917 87.8964 914.889 88.0204C913.86 88.1412 912.831 88.4479 911.887 88.9505C910.94 89.4465 910.094 90.1547 909.404 90.9836C909.059 91.398 908.749 91.8451 908.483 92.3183C908.346 92.5532 908.225 92.798 908.112 93.0493C908.053 93.1733 908.001 93.3006 907.949 93.4344C907.897 93.5714 907.851 93.6856 907.799 93.8684C907.659 94.3546 907.936 94.8604 908.421 95.0008C908.639 95.066 908.863 95.0432 909.055 94.9551L909.179 94.8996C909.606 94.6124 910.097 94.322 910.576 94.0642C911.061 93.8031 911.555 93.5682 912.06 93.3658C912.564 93.1668 913.079 93.0036 913.59 92.9089C914.098 92.8241 914.615 92.8045 915.051 92.9579L915.071 92.9644C915.289 93.0395 915.53 92.9253 915.605 92.7034C915.673 92.5043 915.585 92.2889 915.403 92.191C914.788 91.8647 914.114 91.8027 913.489 91.8092C912.861 91.8255 912.252 91.9267 911.66 92.0637C911.214 92.1682 910.781 92.2987 910.351 92.439C910.449 92.2693 910.546 92.0996 910.657 91.9365C911.155 91.1989 911.783 90.5463 912.535 90.047C913.284 89.5444 914.14 89.1822 915.051 88.9798C915.963 88.771 916.916 88.7025 917.877 88.7416C918.062 88.7514 918.218 88.6046 918.228 88.4185C918.235 88.2456 918.108 88.0955 917.942 88.0726Z" fill="#1E2633"/>
</g>
<path d="M1202.99 213.8C1209.64 212.82 1214.23 206.628 1213.25 199.97C1212.28 193.311 1206.09 188.708 1199.45 189.688C1192.8 190.668 1188.2 196.86 1189.18 203.518C1190.16 210.177 1196.34 214.78 1202.99 213.8Z" fill="#FFD200"/>
<path d="M1229.41 163.983L1224.73 169.353L1315.97 249.157L1320.65 243.787L1229.41 163.983Z" fill="black"/>
<path d="M1239.46 225.614L1163.02 178.386L1204.39 170.941L1227.33 185.12L1239.46 225.614Z" fill="black"/>
<path d="M1226.05 187.197L1203.11 173.018L1216.4 151.448C1220.31 145.103 1228.61 143.132 1234.95 147.047C1241.28 150.963 1243.25 159.282 1239.34 165.624L1226.05 187.197Z" fill="black"/>
<path d="M1318.02 250.83L1311.58 247.905L1260.25 361.1L1266.69 364.026L1318.02 250.83Z" fill="black"/>
<path d="M1321.55 254.101C1325.38 250.262 1325.38 244.038 1321.55 240.199C1317.72 236.36 1311.5 236.36 1307.67 240.199C1303.84 244.038 1303.84 250.262 1307.67 254.101C1311.5 257.939 1317.72 257.939 1321.55 254.101Z" fill="black"/>
<path d="M1295.51 369.962H1222.49L1233.68 359.351H1284.32L1295.51 369.962Z" fill="black"/>
<path d="M1331.32 372.816C1331.32 373.885 1330.43 374.855 1329 375.557C1327.56 376.26 1325.57 376.694 1323.38 376.694H690.634C686.247 376.694 682.691 374.956 682.691 372.816C682.691 371.747 683.582 370.777 685.016 370.077C686.456 369.376 688.441 368.942 690.634 368.942H1323.38C1327.77 368.942 1331.32 370.676 1331.32 372.816Z" fill="black"/>
<path d="M1195.03 277.631H1104.54C1091.07 277.631 1079.16 286.41 1075.15 299.297L1059.53 353.655C1013.05 353.591 969.626 350.048 969.626 361.666C969.626 371.02 1047.67 369.921 1069.98 369.921L1188.23 369.287L1210.09 298.124C1213.25 287.957 1205.66 277.631 1195.03 277.631Z" fill="black"/>
<path d="M1148.82 328.643C1150.23 325.236 1148.61 321.331 1145.21 319.919C1141.81 318.508 1137.91 320.126 1136.5 323.533C1135.09 326.94 1136.71 330.845 1140.11 332.256C1143.51 333.668 1147.41 332.05 1148.82 328.643Z" fill="#FF7900"/>
<path d="M1142.64 339.01C1129.2 339.01 1128.29 326.843 1128.29 326.721C1128.25 326.145 1128.69 325.65 1129.26 325.615C1129.84 325.57 1130.33 326.017 1130.37 326.589C1130.4 327.026 1131.2 336.924 1142.64 336.924C1152.08 336.924 1154.14 327.466 1154.22 327.065C1154.34 326.502 1154.89 326.136 1155.45 326.254C1156.01 326.37 1156.38 326.92 1156.26 327.482C1156.24 327.595 1153.8 339.01 1142.64 339.01Z" fill="#FF7900"/>
<mask id="mask1" mask-type="alpha" maskUnits="userSpaceOnUse" x="170" y="116" width="242" height="261">
<rect x="170.286" y="116.278" width="241.496" height="260.464" fill="#C4C4C4"/>
</mask>
<g mask="url(#mask1)">
<path d="M385.002 371.578C380.079 370.921 375.484 376.509 372.53 379.467C370.56 381.44 368.919 383.741 367.278 385.713C366.622 386.042 366.293 386.37 365.637 386.699C364.324 387.356 362.683 387.685 361.37 387.356C361.042 387.356 360.714 387.028 360.385 386.699L360.057 386.37C359.729 386.042 359.729 385.713 359.729 385.384C359.729 385.055 359.401 384.727 359.401 384.398C360.385 381.768 362.026 379.467 363.996 377.495C370.232 369.606 379.75 365.333 385.33 356.458C387.956 352.185 391.895 325.888 380.079 330.819C374.171 333.448 372.201 340.351 369.904 345.939C368.919 347.583 367.934 349.226 366.95 350.87C364.324 354.814 358.416 353.828 359.729 348.897C361.37 343.638 364.652 339.036 367.278 334.434C372.201 325.888 375.484 317.342 376.468 307.48C377.125 301.564 376.796 293.017 372.858 288.086C370.56 285.128 364.652 286.443 362.683 289.073C358.416 295.318 361.042 303.536 359.401 310.439C358.416 315.698 351.523 315.369 350.21 310.439C349.554 308.138 349.882 305.508 349.882 303.207C349.882 297.948 350.21 292.36 350.539 287.1C351.195 276.91 353.164 265.734 349.882 255.873C348.569 251.6 345.287 249.628 341.348 250.943C334.456 252.915 332.815 262.447 332.158 268.035C329.204 288.415 340.364 327.531 330.845 339.694C322.64 349.884 335.769 307.48 325.594 305.179C321.983 304.522 319.358 306.165 318.045 309.453C314.106 319.971 316.075 333.448 317.716 344.296C321.655 370.592 338.066 391.301 334.784 418.912C334.456 422.528 333.799 426.801 336.425 429.431C337.41 430.417 338.723 431.075 339.707 431.403C347.913 434.362 353.164 431.075 358.416 424.829C365.637 416.283 373.842 409.709 382.048 402.148C388.612 395.903 391.238 389.657 391.566 380.453C391.238 376.509 389.597 372.236 385.002 371.578Z" fill="black"/>
<path d="M289.161 317.999C288.505 317.67 288.176 317.341 287.52 317.013C286.535 316.355 285.222 315.698 284.238 316.026C283.253 316.026 282.268 317.013 281.612 317.67C278.002 321.286 275.704 326.545 272.094 330.161C270.124 332.133 267.498 333.777 264.545 333.119C260.934 332.133 259.949 327.531 260.606 323.915C261.262 320.3 263.232 317.013 263.888 313.397C265.201 304.193 255.026 303.207 248.462 303.864C233.363 305.179 219.906 311.096 205.136 311.425C200.213 311.425 189.71 311.096 186.756 315.698C190.366 317.341 193.649 318.656 195.946 322.272C205.136 334.434 200.869 355.143 201.198 369.277C201.198 376.509 201.854 384.726 205.465 391.301C210.06 399.19 219.25 400.176 227.455 399.19C229.753 390.643 235.333 383.083 242.882 378.152C244.195 377.166 245.508 376.509 247.149 376.18C248.79 375.851 250.431 376.18 251.744 377.495C252.4 378.152 252.729 379.138 253.057 380.124C253.713 383.412 252.072 386.37 250.431 389C247.805 393.273 244.523 396.889 240.913 400.176C235.989 404.449 241.569 410.366 246.164 412.667C252.729 415.954 261.262 413.981 267.499 410.694C273.078 407.736 277.673 402.477 281.612 397.875C285.879 392.944 289.161 389.986 295.397 388.342C298.023 387.685 296.71 378.481 296.71 376.837C296.71 372.235 297.695 367.634 299.336 363.36C302.29 355.471 308.198 348.24 307.542 340.022C307.213 334.763 304.259 329.832 300.649 326.216C297.038 322.929 293.1 320.3 289.161 317.999Z" fill="#FF7900"/>
<path d="M314.106 252.914C313.778 248.97 312.793 245.354 311.48 241.41C308.855 244.039 288.833 260.146 288.505 247.984C288.505 246.34 289.49 245.025 290.474 244.039C293.428 241.081 297.695 239.766 300.977 236.808C310.496 228.919 293.756 191.775 280.956 193.747C280.628 193.418 280.299 193.418 279.643 193.418C268.483 196.705 261.262 206.238 253.385 213.798C249.446 217.414 244.195 216.099 245.508 209.854C246.164 206.895 248.134 203.937 249.775 201.636C252.4 197.691 255.683 194.404 259.621 191.446C262.247 189.474 268.483 187.173 268.483 182.899C268.812 175.339 258.637 171.723 253.385 168.108C246.492 163.506 239.272 160.219 231.394 158.575C226.471 157.589 221.548 157.26 216.952 156.603C211.373 155.945 205.793 155.945 200.213 154.631C194.962 153.316 189.382 151.015 183.802 152.33C183.474 152.33 183.146 152.658 183.146 152.987C183.474 170.409 180.192 185.858 177.238 203.279C175.596 212.812 176.581 221.358 180.52 229.905C181.176 231.22 182.817 230.891 183.802 230.234C185.771 228.59 187.741 227.604 189.71 226.946C194.962 225.96 200.541 226.289 203.495 230.562C205.465 233.521 200.87 236.15 198.572 237.465C196.931 238.451 195.29 239.109 193.649 239.766C193.32 239.766 192.992 240.095 192.664 240.095C191.023 240.095 189.71 240.423 188.069 240.423C186.428 240.423 183.802 240.752 182.817 242.067C176.581 252.914 186.756 273.294 192.992 281.841C193.977 283.156 195.618 283.156 196.603 281.841C199.557 277.239 203.495 272.966 208.09 269.35C212.686 267.049 220.235 267.378 224.502 269.021C225.158 269.35 225.814 269.678 226.143 270.007C230.081 277.567 226.143 282.498 214.327 284.799C212.029 285.128 205.793 285.456 204.48 287.429C195.29 298.276 215.968 317.341 225.814 317.341C235.333 317.341 243.538 312.082 249.775 305.179C252.729 301.892 254.042 298.276 256.667 294.989C259.293 291.702 266.186 282.498 270.453 281.512C272.75 281.183 275.048 281.512 277.017 281.841C286.864 283.156 297.695 281.183 305.572 274.938C313.45 269.35 315.091 261.132 314.106 252.914Z" fill="#FF7900"/>
<path d="M314.106 368.291C305.244 344.295 295.398 319.971 282.597 297.948C276.033 286.443 270.453 274.938 263.888 263.433C261.263 258.831 258.637 254.558 256.011 250.285V249.956C257.98 244.368 259.95 239.438 263.56 234.836C270.125 225.96 278.658 218.4 287.849 213.141C288.177 212.812 287.849 212.155 287.52 212.155C272.422 215.771 257.98 232.206 254.37 247.984C250.76 242.396 247.149 236.808 243.867 230.891C238.944 222.345 233.364 214.127 227.784 206.238C227.784 202.622 227.456 199.335 227.784 195.719C228.112 190.789 231.066 186.844 232.707 182.571C233.036 182.242 232.379 181.914 232.051 181.914C226.143 185.201 224.502 195.062 225.486 202.622C216.953 190.789 207.762 179.284 198.244 168.437C198.244 168.437 197.916 168.437 197.916 168.765C206.778 183.557 217.281 197.034 226.799 210.84C223.517 208.868 219.25 207.882 215.64 207.224C208.091 205.909 199.229 203.608 192.008 207.882C198.9 207.553 205.793 208.868 212.686 210.183C219.25 211.497 223.845 214.127 229.753 216.757C230.082 216.757 230.41 216.757 230.738 216.757C234.348 222.016 237.631 227.604 240.913 233.192C244.195 239.109 247.477 244.697 250.76 250.614C246.164 248.313 240.256 247.655 235.661 247.327C223.845 246.34 208.419 248.641 198.572 255.544C208.747 255.216 218.594 251.271 228.769 250.614C238.287 249.956 246.164 252.586 254.37 256.53C261.919 270.336 269.468 284.142 277.346 297.619C304.26 343.967 318.373 395.574 335.441 446.195C335.769 446.852 336.754 446.524 336.426 445.866C331.502 418.912 323.297 393.273 314.106 368.291Z" fill="black"/>
<path d="M305.572 398.861C298.023 388.671 289.489 378.81 280.627 369.606C277.673 361.389 280.299 352.842 281.94 344.296C281.94 343.967 281.612 343.638 281.284 343.967C278.658 349.555 277.345 354.814 277.017 361.06C277.017 361.717 277.345 364.018 277.673 365.991C270.453 359.416 262.247 354.157 254.37 348.569C254.041 344.953 252.729 341.666 251.744 338.379C249.118 330.49 251.087 322.93 251.416 315.041C251.416 314.383 250.759 314.055 250.431 314.712C247.149 320.3 247.477 327.203 247.805 333.777C248.133 336.735 249.118 339.694 250.103 342.652C250.759 344.296 251.087 345.282 251.087 346.268C249.446 345.282 248.133 343.967 246.821 342.981C240.913 338.05 235.005 334.106 228.44 330.49C222.86 327.203 216.624 325.231 211.373 321.615C217.281 330.161 229.097 334.106 237.302 340.023C241.569 342.981 245.179 346.268 249.118 349.884C248.133 350.213 246.821 350.541 245.179 350.87C233.035 354.486 220.235 361.717 214.655 373.551C214.327 374.208 215.311 374.866 215.639 374.208C220.891 369.606 225.158 364.347 230.738 360.402C237.302 356.129 244.851 353.828 252.4 352.185C257.98 356.787 264.216 360.074 269.796 364.676C272.094 366.648 274.719 368.62 277.017 370.921C275.048 372.565 272.75 373.88 270.781 375.523C264.545 380.454 256.339 387.685 257.324 396.56H257.652C261.919 385.713 270.124 379.139 279.315 372.565C297.367 389.986 311.48 412.996 323.624 434.362C324.609 436.005 326.578 435.019 326.25 433.376C321.655 420.556 313.45 409.38 305.572 398.861Z" fill="black"/>
</g>
<defs>
<clipPath id="clip0">
<rect width="269.766" height="86.8212" fill="white" transform="translate(609.221 182.945)"/>
</clipPath>
</defs>
</svg>
